G75*
%MOIN*%
%OFA0B0*%
%FSLAX25Y25*%
%IPPOS*%
%LPD*%
%AMOC8*
5,1,8,0,0,1.08239X$1,22.5*
%
%ADD10OC8,0.06000*%
%ADD11R,0.05918X0.07099*%
%ADD12C,0.06800*%
D10*
X0016500Y0016500D03*
X0026500Y0016500D03*
X0046500Y0016500D03*
X0056500Y0016500D03*
X0081500Y0016500D03*
X0091500Y0016500D03*
X0111500Y0016500D03*
X0121500Y0016500D03*
X0206500Y0016500D03*
X0216500Y0016500D03*
D11*
G36*
X0216160Y0041858D02*
X0220344Y0037674D01*
X0215326Y0032656D01*
X0211142Y0036840D01*
X0216160Y0041858D01*
G37*
G36*
X0207674Y0050344D02*
X0211858Y0046160D01*
X0206840Y0041142D01*
X0202656Y0045326D01*
X0207674Y0050344D01*
G37*
G36*
X0095344Y0045326D02*
X0091160Y0041142D01*
X0086142Y0046160D01*
X0090326Y0050344D01*
X0095344Y0045326D01*
G37*
G36*
X0086858Y0036840D02*
X0082674Y0032656D01*
X0077656Y0037674D01*
X0081840Y0041858D01*
X0086858Y0036840D01*
G37*
G36*
X0060344Y0045326D02*
X0056160Y0041142D01*
X0051142Y0046160D01*
X0055326Y0050344D01*
X0060344Y0045326D01*
G37*
G36*
X0051858Y0036840D02*
X0047674Y0032656D01*
X0042656Y0037674D01*
X0046840Y0041858D01*
X0051858Y0036840D01*
G37*
G36*
X0021858Y0039340D02*
X0017674Y0035156D01*
X0012656Y0040174D01*
X0016840Y0044358D01*
X0021858Y0039340D01*
G37*
G36*
X0030344Y0047826D02*
X0026160Y0043642D01*
X0021142Y0048660D01*
X0025326Y0052844D01*
X0030344Y0047826D01*
G37*
D12*
X0146500Y0041500D03*
X0156500Y0041500D03*
X0166500Y0041500D03*
X0176500Y0041500D03*
X0186500Y0041500D03*
M02*
