G75*
%MOIN*%
%OFA0B0*%
%FSLAX25Y25*%
%IPPOS*%
%LPD*%
%AMOC8*
5,1,8,0,0,1.08239X$1,22.5*
%
%ADD10C,0.00000*%
%ADD11C,0.00800*%
%ADD12C,0.01000*%
%ADD13C,0.00600*%
%ADD14C,0.00500*%
%ADD15C,0.00400*%
D10*
X0001500Y0001500D02*
X0001500Y0056461D01*
X0225201Y0056461D01*
X0225201Y0001500D01*
X0001500Y0001500D01*
D11*
X0031500Y0009000D02*
X0031500Y0024000D01*
X0041388Y0037752D02*
X0047752Y0031388D01*
X0061612Y0045248D01*
X0055248Y0051612D01*
X0041388Y0037752D01*
X0031612Y0047748D02*
X0017752Y0033888D01*
X0011388Y0040252D01*
X0025248Y0054112D01*
X0031612Y0047748D01*
X0076388Y0037752D02*
X0082752Y0031388D01*
X0096612Y0045248D01*
X0090248Y0051612D01*
X0076388Y0037752D01*
X0061500Y0024000D02*
X0061500Y0009000D01*
X0096500Y0009000D02*
X0096500Y0024000D01*
X0126500Y0024000D02*
X0126500Y0009000D01*
X0201388Y0045248D02*
X0215248Y0031388D01*
X0221612Y0037752D01*
X0207752Y0051612D01*
X0201388Y0045248D01*
X0221500Y0024000D02*
X0221500Y0009000D01*
D12*
X0221313Y0008757D01*
X0221121Y0008519D01*
X0220922Y0008286D01*
X0220718Y0008058D01*
X0220509Y0007835D01*
X0220294Y0007617D01*
X0220074Y0007404D01*
X0219849Y0007197D01*
X0219618Y0006995D01*
X0219383Y0006799D01*
X0219143Y0006609D01*
X0218899Y0006425D01*
X0218650Y0006247D01*
X0218396Y0006075D01*
X0218139Y0005909D01*
X0217878Y0005749D01*
X0217613Y0005596D01*
X0217344Y0005450D01*
X0217071Y0005310D01*
X0216796Y0005177D01*
X0216517Y0005051D01*
X0216235Y0004931D01*
X0215950Y0004819D01*
X0215663Y0004714D01*
X0215373Y0004615D01*
X0215081Y0004524D01*
X0214786Y0004440D01*
X0214490Y0004363D01*
X0214192Y0004293D01*
X0213892Y0004231D01*
X0213591Y0004176D01*
X0213289Y0004129D01*
X0212985Y0004089D01*
X0212681Y0004056D01*
X0212376Y0004031D01*
X0212070Y0004013D01*
X0211764Y0004003D01*
X0211458Y0004000D01*
X0211152Y0004005D01*
X0210846Y0004017D01*
X0210540Y0004037D01*
X0210236Y0004064D01*
X0209931Y0004099D01*
X0209628Y0004141D01*
X0209326Y0004190D01*
X0209025Y0004247D01*
X0208726Y0004312D01*
X0208428Y0004383D01*
X0208133Y0004462D01*
X0207839Y0004548D01*
X0207547Y0004641D01*
X0207258Y0004742D01*
X0206971Y0004849D01*
X0206687Y0004964D01*
X0206406Y0005085D01*
X0206128Y0005213D01*
X0205853Y0005348D01*
X0205582Y0005490D01*
X0205314Y0005638D01*
X0205050Y0005793D01*
X0204790Y0005954D01*
X0204534Y0006121D01*
X0204281Y0006295D01*
X0204034Y0006475D01*
X0203790Y0006661D01*
X0203552Y0006852D01*
X0203318Y0007050D01*
X0203089Y0007253D01*
X0202865Y0007462D01*
X0202646Y0007676D01*
X0202433Y0007896D01*
X0202225Y0008120D01*
X0202022Y0008350D01*
X0201826Y0008584D01*
X0201635Y0008824D01*
X0201450Y0009067D01*
X0201271Y0009316D01*
X0201098Y0009568D01*
X0200931Y0009825D01*
X0200771Y0010086D01*
X0200617Y0010351D01*
X0200470Y0010619D01*
X0200329Y0010891D01*
X0200195Y0011166D01*
X0200068Y0011445D01*
X0199947Y0011726D01*
X0199834Y0012011D01*
X0199728Y0012298D01*
X0199628Y0012587D01*
X0199536Y0012879D01*
X0199451Y0013173D01*
X0199373Y0013469D01*
X0199302Y0013767D01*
X0199239Y0014067D01*
X0199183Y0014368D01*
X0199135Y0014670D01*
X0199094Y0014973D01*
X0199060Y0015277D01*
X0199034Y0015582D01*
X0199015Y0015888D01*
X0199004Y0016194D01*
X0199000Y0016500D01*
X0199004Y0016806D01*
X0199015Y0017112D01*
X0199034Y0017418D01*
X0199060Y0017723D01*
X0199094Y0018027D01*
X0199135Y0018330D01*
X0199183Y0018632D01*
X0199239Y0018933D01*
X0199302Y0019233D01*
X0199373Y0019531D01*
X0199451Y0019827D01*
X0199536Y0020121D01*
X0199628Y0020413D01*
X0199728Y0020702D01*
X0199834Y0020989D01*
X0199947Y0021274D01*
X0200068Y0021555D01*
X0200195Y0021834D01*
X0200329Y0022109D01*
X0200470Y0022381D01*
X0200617Y0022649D01*
X0200771Y0022914D01*
X0200931Y0023175D01*
X0201098Y0023432D01*
X0201271Y0023684D01*
X0201450Y0023933D01*
X0201635Y0024176D01*
X0201826Y0024416D01*
X0202022Y0024650D01*
X0202225Y0024880D01*
X0202433Y0025104D01*
X0202646Y0025324D01*
X0202865Y0025538D01*
X0203089Y0025747D01*
X0203318Y0025950D01*
X0203552Y0026148D01*
X0203790Y0026339D01*
X0204034Y0026525D01*
X0204281Y0026705D01*
X0204534Y0026879D01*
X0204790Y0027046D01*
X0205050Y0027207D01*
X0205314Y0027362D01*
X0205582Y0027510D01*
X0205853Y0027652D01*
X0206128Y0027787D01*
X0206406Y0027915D01*
X0206687Y0028036D01*
X0206971Y0028151D01*
X0207258Y0028258D01*
X0207547Y0028359D01*
X0207839Y0028452D01*
X0208133Y0028538D01*
X0208428Y0028617D01*
X0208726Y0028688D01*
X0209025Y0028753D01*
X0209326Y0028810D01*
X0209628Y0028859D01*
X0209931Y0028901D01*
X0210236Y0028936D01*
X0210540Y0028963D01*
X0210846Y0028983D01*
X0211152Y0028995D01*
X0211458Y0029000D01*
X0211764Y0028997D01*
X0212070Y0028987D01*
X0212376Y0028969D01*
X0212681Y0028944D01*
X0212985Y0028911D01*
X0213289Y0028871D01*
X0213591Y0028824D01*
X0213892Y0028769D01*
X0214192Y0028707D01*
X0214490Y0028637D01*
X0214786Y0028560D01*
X0215081Y0028476D01*
X0215373Y0028385D01*
X0215663Y0028286D01*
X0215950Y0028181D01*
X0216235Y0028069D01*
X0216517Y0027949D01*
X0216796Y0027823D01*
X0217071Y0027690D01*
X0217344Y0027550D01*
X0217613Y0027404D01*
X0217878Y0027251D01*
X0218139Y0027091D01*
X0218396Y0026925D01*
X0218650Y0026753D01*
X0218899Y0026575D01*
X0219143Y0026391D01*
X0219383Y0026201D01*
X0219618Y0026005D01*
X0219849Y0025803D01*
X0220074Y0025596D01*
X0220294Y0025383D01*
X0220509Y0025165D01*
X0220718Y0024942D01*
X0220922Y0024714D01*
X0221121Y0024481D01*
X0221313Y0024243D01*
X0221500Y0024000D01*
X0195831Y0032219D02*
X0137169Y0032219D01*
X0137169Y0054856D01*
X0195831Y0054856D01*
X0195831Y0032219D01*
X0186579Y0032445D02*
X0186579Y0034413D01*
X0146421Y0034413D02*
X0146421Y0032445D01*
X0126500Y0024000D02*
X0126313Y0024243D01*
X0126121Y0024481D01*
X0125922Y0024714D01*
X0125718Y0024942D01*
X0125509Y0025165D01*
X0125294Y0025383D01*
X0125074Y0025596D01*
X0124849Y0025803D01*
X0124618Y0026005D01*
X0124383Y0026201D01*
X0124143Y0026391D01*
X0123899Y0026575D01*
X0123650Y0026753D01*
X0123396Y0026925D01*
X0123139Y0027091D01*
X0122878Y0027251D01*
X0122613Y0027404D01*
X0122344Y0027550D01*
X0122071Y0027690D01*
X0121796Y0027823D01*
X0121517Y0027949D01*
X0121235Y0028069D01*
X0120950Y0028181D01*
X0120663Y0028286D01*
X0120373Y0028385D01*
X0120081Y0028476D01*
X0119786Y0028560D01*
X0119490Y0028637D01*
X0119192Y0028707D01*
X0118892Y0028769D01*
X0118591Y0028824D01*
X0118289Y0028871D01*
X0117985Y0028911D01*
X0117681Y0028944D01*
X0117376Y0028969D01*
X0117070Y0028987D01*
X0116764Y0028997D01*
X0116458Y0029000D01*
X0116152Y0028995D01*
X0115846Y0028983D01*
X0115540Y0028963D01*
X0115236Y0028936D01*
X0114931Y0028901D01*
X0114628Y0028859D01*
X0114326Y0028810D01*
X0114025Y0028753D01*
X0113726Y0028688D01*
X0113428Y0028617D01*
X0113133Y0028538D01*
X0112839Y0028452D01*
X0112547Y0028359D01*
X0112258Y0028258D01*
X0111971Y0028151D01*
X0111687Y0028036D01*
X0111406Y0027915D01*
X0111128Y0027787D01*
X0110853Y0027652D01*
X0110582Y0027510D01*
X0110314Y0027362D01*
X0110050Y0027207D01*
X0109790Y0027046D01*
X0109534Y0026879D01*
X0109281Y0026705D01*
X0109034Y0026525D01*
X0108790Y0026339D01*
X0108552Y0026148D01*
X0108318Y0025950D01*
X0108089Y0025747D01*
X0107865Y0025538D01*
X0107646Y0025324D01*
X0107433Y0025104D01*
X0107225Y0024880D01*
X0107022Y0024650D01*
X0106826Y0024416D01*
X0106635Y0024176D01*
X0106450Y0023933D01*
X0106271Y0023684D01*
X0106098Y0023432D01*
X0105931Y0023175D01*
X0105771Y0022914D01*
X0105617Y0022649D01*
X0105470Y0022381D01*
X0105329Y0022109D01*
X0105195Y0021834D01*
X0105068Y0021555D01*
X0104947Y0021274D01*
X0104834Y0020989D01*
X0104728Y0020702D01*
X0104628Y0020413D01*
X0104536Y0020121D01*
X0104451Y0019827D01*
X0104373Y0019531D01*
X0104302Y0019233D01*
X0104239Y0018933D01*
X0104183Y0018632D01*
X0104135Y0018330D01*
X0104094Y0018027D01*
X0104060Y0017723D01*
X0104034Y0017418D01*
X0104015Y0017112D01*
X0104004Y0016806D01*
X0104000Y0016500D01*
X0104004Y0016194D01*
X0104015Y0015888D01*
X0104034Y0015582D01*
X0104060Y0015277D01*
X0104094Y0014973D01*
X0104135Y0014670D01*
X0104183Y0014368D01*
X0104239Y0014067D01*
X0104302Y0013767D01*
X0104373Y0013469D01*
X0104451Y0013173D01*
X0104536Y0012879D01*
X0104628Y0012587D01*
X0104728Y0012298D01*
X0104834Y0012011D01*
X0104947Y0011726D01*
X0105068Y0011445D01*
X0105195Y0011166D01*
X0105329Y0010891D01*
X0105470Y0010619D01*
X0105617Y0010351D01*
X0105771Y0010086D01*
X0105931Y0009825D01*
X0106098Y0009568D01*
X0106271Y0009316D01*
X0106450Y0009067D01*
X0106635Y0008824D01*
X0106826Y0008584D01*
X0107022Y0008350D01*
X0107225Y0008120D01*
X0107433Y0007896D01*
X0107646Y0007676D01*
X0107865Y0007462D01*
X0108089Y0007253D01*
X0108318Y0007050D01*
X0108552Y0006852D01*
X0108790Y0006661D01*
X0109034Y0006475D01*
X0109281Y0006295D01*
X0109534Y0006121D01*
X0109790Y0005954D01*
X0110050Y0005793D01*
X0110314Y0005638D01*
X0110582Y0005490D01*
X0110853Y0005348D01*
X0111128Y0005213D01*
X0111406Y0005085D01*
X0111687Y0004964D01*
X0111971Y0004849D01*
X0112258Y0004742D01*
X0112547Y0004641D01*
X0112839Y0004548D01*
X0113133Y0004462D01*
X0113428Y0004383D01*
X0113726Y0004312D01*
X0114025Y0004247D01*
X0114326Y0004190D01*
X0114628Y0004141D01*
X0114931Y0004099D01*
X0115236Y0004064D01*
X0115540Y0004037D01*
X0115846Y0004017D01*
X0116152Y0004005D01*
X0116458Y0004000D01*
X0116764Y0004003D01*
X0117070Y0004013D01*
X0117376Y0004031D01*
X0117681Y0004056D01*
X0117985Y0004089D01*
X0118289Y0004129D01*
X0118591Y0004176D01*
X0118892Y0004231D01*
X0119192Y0004293D01*
X0119490Y0004363D01*
X0119786Y0004440D01*
X0120081Y0004524D01*
X0120373Y0004615D01*
X0120663Y0004714D01*
X0120950Y0004819D01*
X0121235Y0004931D01*
X0121517Y0005051D01*
X0121796Y0005177D01*
X0122071Y0005310D01*
X0122344Y0005450D01*
X0122613Y0005596D01*
X0122878Y0005749D01*
X0123139Y0005909D01*
X0123396Y0006075D01*
X0123650Y0006247D01*
X0123899Y0006425D01*
X0124143Y0006609D01*
X0124383Y0006799D01*
X0124618Y0006995D01*
X0124849Y0007197D01*
X0125074Y0007404D01*
X0125294Y0007617D01*
X0125509Y0007835D01*
X0125718Y0008058D01*
X0125922Y0008286D01*
X0126121Y0008519D01*
X0126313Y0008757D01*
X0126500Y0009000D01*
X0096500Y0009000D02*
X0096313Y0008757D01*
X0096121Y0008519D01*
X0095922Y0008286D01*
X0095718Y0008058D01*
X0095509Y0007835D01*
X0095294Y0007617D01*
X0095074Y0007404D01*
X0094849Y0007197D01*
X0094618Y0006995D01*
X0094383Y0006799D01*
X0094143Y0006609D01*
X0093899Y0006425D01*
X0093650Y0006247D01*
X0093396Y0006075D01*
X0093139Y0005909D01*
X0092878Y0005749D01*
X0092613Y0005596D01*
X0092344Y0005450D01*
X0092071Y0005310D01*
X0091796Y0005177D01*
X0091517Y0005051D01*
X0091235Y0004931D01*
X0090950Y0004819D01*
X0090663Y0004714D01*
X0090373Y0004615D01*
X0090081Y0004524D01*
X0089786Y0004440D01*
X0089490Y0004363D01*
X0089192Y0004293D01*
X0088892Y0004231D01*
X0088591Y0004176D01*
X0088289Y0004129D01*
X0087985Y0004089D01*
X0087681Y0004056D01*
X0087376Y0004031D01*
X0087070Y0004013D01*
X0086764Y0004003D01*
X0086458Y0004000D01*
X0086152Y0004005D01*
X0085846Y0004017D01*
X0085540Y0004037D01*
X0085236Y0004064D01*
X0084931Y0004099D01*
X0084628Y0004141D01*
X0084326Y0004190D01*
X0084025Y0004247D01*
X0083726Y0004312D01*
X0083428Y0004383D01*
X0083133Y0004462D01*
X0082839Y0004548D01*
X0082547Y0004641D01*
X0082258Y0004742D01*
X0081971Y0004849D01*
X0081687Y0004964D01*
X0081406Y0005085D01*
X0081128Y0005213D01*
X0080853Y0005348D01*
X0080582Y0005490D01*
X0080314Y0005638D01*
X0080050Y0005793D01*
X0079790Y0005954D01*
X0079534Y0006121D01*
X0079281Y0006295D01*
X0079034Y0006475D01*
X0078790Y0006661D01*
X0078552Y0006852D01*
X0078318Y0007050D01*
X0078089Y0007253D01*
X0077865Y0007462D01*
X0077646Y0007676D01*
X0077433Y0007896D01*
X0077225Y0008120D01*
X0077022Y0008350D01*
X0076826Y0008584D01*
X0076635Y0008824D01*
X0076450Y0009067D01*
X0076271Y0009316D01*
X0076098Y0009568D01*
X0075931Y0009825D01*
X0075771Y0010086D01*
X0075617Y0010351D01*
X0075470Y0010619D01*
X0075329Y0010891D01*
X0075195Y0011166D01*
X0075068Y0011445D01*
X0074947Y0011726D01*
X0074834Y0012011D01*
X0074728Y0012298D01*
X0074628Y0012587D01*
X0074536Y0012879D01*
X0074451Y0013173D01*
X0074373Y0013469D01*
X0074302Y0013767D01*
X0074239Y0014067D01*
X0074183Y0014368D01*
X0074135Y0014670D01*
X0074094Y0014973D01*
X0074060Y0015277D01*
X0074034Y0015582D01*
X0074015Y0015888D01*
X0074004Y0016194D01*
X0074000Y0016500D01*
X0074004Y0016806D01*
X0074015Y0017112D01*
X0074034Y0017418D01*
X0074060Y0017723D01*
X0074094Y0018027D01*
X0074135Y0018330D01*
X0074183Y0018632D01*
X0074239Y0018933D01*
X0074302Y0019233D01*
X0074373Y0019531D01*
X0074451Y0019827D01*
X0074536Y0020121D01*
X0074628Y0020413D01*
X0074728Y0020702D01*
X0074834Y0020989D01*
X0074947Y0021274D01*
X0075068Y0021555D01*
X0075195Y0021834D01*
X0075329Y0022109D01*
X0075470Y0022381D01*
X0075617Y0022649D01*
X0075771Y0022914D01*
X0075931Y0023175D01*
X0076098Y0023432D01*
X0076271Y0023684D01*
X0076450Y0023933D01*
X0076635Y0024176D01*
X0076826Y0024416D01*
X0077022Y0024650D01*
X0077225Y0024880D01*
X0077433Y0025104D01*
X0077646Y0025324D01*
X0077865Y0025538D01*
X0078089Y0025747D01*
X0078318Y0025950D01*
X0078552Y0026148D01*
X0078790Y0026339D01*
X0079034Y0026525D01*
X0079281Y0026705D01*
X0079534Y0026879D01*
X0079790Y0027046D01*
X0080050Y0027207D01*
X0080314Y0027362D01*
X0080582Y0027510D01*
X0080853Y0027652D01*
X0081128Y0027787D01*
X0081406Y0027915D01*
X0081687Y0028036D01*
X0081971Y0028151D01*
X0082258Y0028258D01*
X0082547Y0028359D01*
X0082839Y0028452D01*
X0083133Y0028538D01*
X0083428Y0028617D01*
X0083726Y0028688D01*
X0084025Y0028753D01*
X0084326Y0028810D01*
X0084628Y0028859D01*
X0084931Y0028901D01*
X0085236Y0028936D01*
X0085540Y0028963D01*
X0085846Y0028983D01*
X0086152Y0028995D01*
X0086458Y0029000D01*
X0086764Y0028997D01*
X0087070Y0028987D01*
X0087376Y0028969D01*
X0087681Y0028944D01*
X0087985Y0028911D01*
X0088289Y0028871D01*
X0088591Y0028824D01*
X0088892Y0028769D01*
X0089192Y0028707D01*
X0089490Y0028637D01*
X0089786Y0028560D01*
X0090081Y0028476D01*
X0090373Y0028385D01*
X0090663Y0028286D01*
X0090950Y0028181D01*
X0091235Y0028069D01*
X0091517Y0027949D01*
X0091796Y0027823D01*
X0092071Y0027690D01*
X0092344Y0027550D01*
X0092613Y0027404D01*
X0092878Y0027251D01*
X0093139Y0027091D01*
X0093396Y0026925D01*
X0093650Y0026753D01*
X0093899Y0026575D01*
X0094143Y0026391D01*
X0094383Y0026201D01*
X0094618Y0026005D01*
X0094849Y0025803D01*
X0095074Y0025596D01*
X0095294Y0025383D01*
X0095509Y0025165D01*
X0095718Y0024942D01*
X0095922Y0024714D01*
X0096121Y0024481D01*
X0096313Y0024243D01*
X0096500Y0024000D01*
X0061500Y0024000D02*
X0061313Y0024243D01*
X0061121Y0024481D01*
X0060922Y0024714D01*
X0060718Y0024942D01*
X0060509Y0025165D01*
X0060294Y0025383D01*
X0060074Y0025596D01*
X0059849Y0025803D01*
X0059618Y0026005D01*
X0059383Y0026201D01*
X0059143Y0026391D01*
X0058899Y0026575D01*
X0058650Y0026753D01*
X0058396Y0026925D01*
X0058139Y0027091D01*
X0057878Y0027251D01*
X0057613Y0027404D01*
X0057344Y0027550D01*
X0057071Y0027690D01*
X0056796Y0027823D01*
X0056517Y0027949D01*
X0056235Y0028069D01*
X0055950Y0028181D01*
X0055663Y0028286D01*
X0055373Y0028385D01*
X0055081Y0028476D01*
X0054786Y0028560D01*
X0054490Y0028637D01*
X0054192Y0028707D01*
X0053892Y0028769D01*
X0053591Y0028824D01*
X0053289Y0028871D01*
X0052985Y0028911D01*
X0052681Y0028944D01*
X0052376Y0028969D01*
X0052070Y0028987D01*
X0051764Y0028997D01*
X0051458Y0029000D01*
X0051152Y0028995D01*
X0050846Y0028983D01*
X0050540Y0028963D01*
X0050236Y0028936D01*
X0049931Y0028901D01*
X0049628Y0028859D01*
X0049326Y0028810D01*
X0049025Y0028753D01*
X0048726Y0028688D01*
X0048428Y0028617D01*
X0048133Y0028538D01*
X0047839Y0028452D01*
X0047547Y0028359D01*
X0047258Y0028258D01*
X0046971Y0028151D01*
X0046687Y0028036D01*
X0046406Y0027915D01*
X0046128Y0027787D01*
X0045853Y0027652D01*
X0045582Y0027510D01*
X0045314Y0027362D01*
X0045050Y0027207D01*
X0044790Y0027046D01*
X0044534Y0026879D01*
X0044281Y0026705D01*
X0044034Y0026525D01*
X0043790Y0026339D01*
X0043552Y0026148D01*
X0043318Y0025950D01*
X0043089Y0025747D01*
X0042865Y0025538D01*
X0042646Y0025324D01*
X0042433Y0025104D01*
X0042225Y0024880D01*
X0042022Y0024650D01*
X0041826Y0024416D01*
X0041635Y0024176D01*
X0041450Y0023933D01*
X0041271Y0023684D01*
X0041098Y0023432D01*
X0040931Y0023175D01*
X0040771Y0022914D01*
X0040617Y0022649D01*
X0040470Y0022381D01*
X0040329Y0022109D01*
X0040195Y0021834D01*
X0040068Y0021555D01*
X0039947Y0021274D01*
X0039834Y0020989D01*
X0039728Y0020702D01*
X0039628Y0020413D01*
X0039536Y0020121D01*
X0039451Y0019827D01*
X0039373Y0019531D01*
X0039302Y0019233D01*
X0039239Y0018933D01*
X0039183Y0018632D01*
X0039135Y0018330D01*
X0039094Y0018027D01*
X0039060Y0017723D01*
X0039034Y0017418D01*
X0039015Y0017112D01*
X0039004Y0016806D01*
X0039000Y0016500D01*
X0039004Y0016194D01*
X0039015Y0015888D01*
X0039034Y0015582D01*
X0039060Y0015277D01*
X0039094Y0014973D01*
X0039135Y0014670D01*
X0039183Y0014368D01*
X0039239Y0014067D01*
X0039302Y0013767D01*
X0039373Y0013469D01*
X0039451Y0013173D01*
X0039536Y0012879D01*
X0039628Y0012587D01*
X0039728Y0012298D01*
X0039834Y0012011D01*
X0039947Y0011726D01*
X0040068Y0011445D01*
X0040195Y0011166D01*
X0040329Y0010891D01*
X0040470Y0010619D01*
X0040617Y0010351D01*
X0040771Y0010086D01*
X0040931Y0009825D01*
X0041098Y0009568D01*
X0041271Y0009316D01*
X0041450Y0009067D01*
X0041635Y0008824D01*
X0041826Y0008584D01*
X0042022Y0008350D01*
X0042225Y0008120D01*
X0042433Y0007896D01*
X0042646Y0007676D01*
X0042865Y0007462D01*
X0043089Y0007253D01*
X0043318Y0007050D01*
X0043552Y0006852D01*
X0043790Y0006661D01*
X0044034Y0006475D01*
X0044281Y0006295D01*
X0044534Y0006121D01*
X0044790Y0005954D01*
X0045050Y0005793D01*
X0045314Y0005638D01*
X0045582Y0005490D01*
X0045853Y0005348D01*
X0046128Y0005213D01*
X0046406Y0005085D01*
X0046687Y0004964D01*
X0046971Y0004849D01*
X0047258Y0004742D01*
X0047547Y0004641D01*
X0047839Y0004548D01*
X0048133Y0004462D01*
X0048428Y0004383D01*
X0048726Y0004312D01*
X0049025Y0004247D01*
X0049326Y0004190D01*
X0049628Y0004141D01*
X0049931Y0004099D01*
X0050236Y0004064D01*
X0050540Y0004037D01*
X0050846Y0004017D01*
X0051152Y0004005D01*
X0051458Y0004000D01*
X0051764Y0004003D01*
X0052070Y0004013D01*
X0052376Y0004031D01*
X0052681Y0004056D01*
X0052985Y0004089D01*
X0053289Y0004129D01*
X0053591Y0004176D01*
X0053892Y0004231D01*
X0054192Y0004293D01*
X0054490Y0004363D01*
X0054786Y0004440D01*
X0055081Y0004524D01*
X0055373Y0004615D01*
X0055663Y0004714D01*
X0055950Y0004819D01*
X0056235Y0004931D01*
X0056517Y0005051D01*
X0056796Y0005177D01*
X0057071Y0005310D01*
X0057344Y0005450D01*
X0057613Y0005596D01*
X0057878Y0005749D01*
X0058139Y0005909D01*
X0058396Y0006075D01*
X0058650Y0006247D01*
X0058899Y0006425D01*
X0059143Y0006609D01*
X0059383Y0006799D01*
X0059618Y0006995D01*
X0059849Y0007197D01*
X0060074Y0007404D01*
X0060294Y0007617D01*
X0060509Y0007835D01*
X0060718Y0008058D01*
X0060922Y0008286D01*
X0061121Y0008519D01*
X0061313Y0008757D01*
X0061500Y0009000D01*
X0031500Y0009000D02*
X0031313Y0008757D01*
X0031121Y0008519D01*
X0030922Y0008286D01*
X0030718Y0008058D01*
X0030509Y0007835D01*
X0030294Y0007617D01*
X0030074Y0007404D01*
X0029849Y0007197D01*
X0029618Y0006995D01*
X0029383Y0006799D01*
X0029143Y0006609D01*
X0028899Y0006425D01*
X0028650Y0006247D01*
X0028396Y0006075D01*
X0028139Y0005909D01*
X0027878Y0005749D01*
X0027613Y0005596D01*
X0027344Y0005450D01*
X0027071Y0005310D01*
X0026796Y0005177D01*
X0026517Y0005051D01*
X0026235Y0004931D01*
X0025950Y0004819D01*
X0025663Y0004714D01*
X0025373Y0004615D01*
X0025081Y0004524D01*
X0024786Y0004440D01*
X0024490Y0004363D01*
X0024192Y0004293D01*
X0023892Y0004231D01*
X0023591Y0004176D01*
X0023289Y0004129D01*
X0022985Y0004089D01*
X0022681Y0004056D01*
X0022376Y0004031D01*
X0022070Y0004013D01*
X0021764Y0004003D01*
X0021458Y0004000D01*
X0021152Y0004005D01*
X0020846Y0004017D01*
X0020540Y0004037D01*
X0020236Y0004064D01*
X0019931Y0004099D01*
X0019628Y0004141D01*
X0019326Y0004190D01*
X0019025Y0004247D01*
X0018726Y0004312D01*
X0018428Y0004383D01*
X0018133Y0004462D01*
X0017839Y0004548D01*
X0017547Y0004641D01*
X0017258Y0004742D01*
X0016971Y0004849D01*
X0016687Y0004964D01*
X0016406Y0005085D01*
X0016128Y0005213D01*
X0015853Y0005348D01*
X0015582Y0005490D01*
X0015314Y0005638D01*
X0015050Y0005793D01*
X0014790Y0005954D01*
X0014534Y0006121D01*
X0014281Y0006295D01*
X0014034Y0006475D01*
X0013790Y0006661D01*
X0013552Y0006852D01*
X0013318Y0007050D01*
X0013089Y0007253D01*
X0012865Y0007462D01*
X0012646Y0007676D01*
X0012433Y0007896D01*
X0012225Y0008120D01*
X0012022Y0008350D01*
X0011826Y0008584D01*
X0011635Y0008824D01*
X0011450Y0009067D01*
X0011271Y0009316D01*
X0011098Y0009568D01*
X0010931Y0009825D01*
X0010771Y0010086D01*
X0010617Y0010351D01*
X0010470Y0010619D01*
X0010329Y0010891D01*
X0010195Y0011166D01*
X0010068Y0011445D01*
X0009947Y0011726D01*
X0009834Y0012011D01*
X0009728Y0012298D01*
X0009628Y0012587D01*
X0009536Y0012879D01*
X0009451Y0013173D01*
X0009373Y0013469D01*
X0009302Y0013767D01*
X0009239Y0014067D01*
X0009183Y0014368D01*
X0009135Y0014670D01*
X0009094Y0014973D01*
X0009060Y0015277D01*
X0009034Y0015582D01*
X0009015Y0015888D01*
X0009004Y0016194D01*
X0009000Y0016500D01*
X0009004Y0016806D01*
X0009015Y0017112D01*
X0009034Y0017418D01*
X0009060Y0017723D01*
X0009094Y0018027D01*
X0009135Y0018330D01*
X0009183Y0018632D01*
X0009239Y0018933D01*
X0009302Y0019233D01*
X0009373Y0019531D01*
X0009451Y0019827D01*
X0009536Y0020121D01*
X0009628Y0020413D01*
X0009728Y0020702D01*
X0009834Y0020989D01*
X0009947Y0021274D01*
X0010068Y0021555D01*
X0010195Y0021834D01*
X0010329Y0022109D01*
X0010470Y0022381D01*
X0010617Y0022649D01*
X0010771Y0022914D01*
X0010931Y0023175D01*
X0011098Y0023432D01*
X0011271Y0023684D01*
X0011450Y0023933D01*
X0011635Y0024176D01*
X0011826Y0024416D01*
X0012022Y0024650D01*
X0012225Y0024880D01*
X0012433Y0025104D01*
X0012646Y0025324D01*
X0012865Y0025538D01*
X0013089Y0025747D01*
X0013318Y0025950D01*
X0013552Y0026148D01*
X0013790Y0026339D01*
X0014034Y0026525D01*
X0014281Y0026705D01*
X0014534Y0026879D01*
X0014790Y0027046D01*
X0015050Y0027207D01*
X0015314Y0027362D01*
X0015582Y0027510D01*
X0015853Y0027652D01*
X0016128Y0027787D01*
X0016406Y0027915D01*
X0016687Y0028036D01*
X0016971Y0028151D01*
X0017258Y0028258D01*
X0017547Y0028359D01*
X0017839Y0028452D01*
X0018133Y0028538D01*
X0018428Y0028617D01*
X0018726Y0028688D01*
X0019025Y0028753D01*
X0019326Y0028810D01*
X0019628Y0028859D01*
X0019931Y0028901D01*
X0020236Y0028936D01*
X0020540Y0028963D01*
X0020846Y0028983D01*
X0021152Y0028995D01*
X0021458Y0029000D01*
X0021764Y0028997D01*
X0022070Y0028987D01*
X0022376Y0028969D01*
X0022681Y0028944D01*
X0022985Y0028911D01*
X0023289Y0028871D01*
X0023591Y0028824D01*
X0023892Y0028769D01*
X0024192Y0028707D01*
X0024490Y0028637D01*
X0024786Y0028560D01*
X0025081Y0028476D01*
X0025373Y0028385D01*
X0025663Y0028286D01*
X0025950Y0028181D01*
X0026235Y0028069D01*
X0026517Y0027949D01*
X0026796Y0027823D01*
X0027071Y0027690D01*
X0027344Y0027550D01*
X0027613Y0027404D01*
X0027878Y0027251D01*
X0028139Y0027091D01*
X0028396Y0026925D01*
X0028650Y0026753D01*
X0028899Y0026575D01*
X0029143Y0026391D01*
X0029383Y0026201D01*
X0029618Y0026005D01*
X0029849Y0025803D01*
X0030074Y0025596D01*
X0030294Y0025383D01*
X0030509Y0025165D01*
X0030718Y0024942D01*
X0030922Y0024714D01*
X0031121Y0024481D01*
X0031313Y0024243D01*
X0031500Y0024000D01*
D13*
X0011500Y0016500D02*
X0011503Y0016745D01*
X0011512Y0016991D01*
X0011527Y0017236D01*
X0011548Y0017480D01*
X0011575Y0017724D01*
X0011608Y0017967D01*
X0011647Y0018210D01*
X0011692Y0018451D01*
X0011743Y0018691D01*
X0011800Y0018930D01*
X0011862Y0019167D01*
X0011931Y0019403D01*
X0012005Y0019637D01*
X0012085Y0019869D01*
X0012170Y0020099D01*
X0012261Y0020327D01*
X0012358Y0020552D01*
X0012460Y0020776D01*
X0012568Y0020996D01*
X0012681Y0021214D01*
X0012799Y0021429D01*
X0012923Y0021641D01*
X0013051Y0021850D01*
X0013185Y0022056D01*
X0013324Y0022258D01*
X0013468Y0022457D01*
X0013617Y0022652D01*
X0013770Y0022844D01*
X0013928Y0023032D01*
X0014090Y0023216D01*
X0014258Y0023395D01*
X0014429Y0023571D01*
X0014605Y0023742D01*
X0014784Y0023910D01*
X0014968Y0024072D01*
X0015156Y0024230D01*
X0015348Y0024383D01*
X0015543Y0024532D01*
X0015742Y0024676D01*
X0015944Y0024815D01*
X0016150Y0024949D01*
X0016359Y0025077D01*
X0016571Y0025201D01*
X0016786Y0025319D01*
X0017004Y0025432D01*
X0017224Y0025540D01*
X0017448Y0025642D01*
X0017673Y0025739D01*
X0017901Y0025830D01*
X0018131Y0025915D01*
X0018363Y0025995D01*
X0018597Y0026069D01*
X0018833Y0026138D01*
X0019070Y0026200D01*
X0019309Y0026257D01*
X0019549Y0026308D01*
X0019790Y0026353D01*
X0020033Y0026392D01*
X0020276Y0026425D01*
X0020520Y0026452D01*
X0020764Y0026473D01*
X0021009Y0026488D01*
X0021255Y0026497D01*
X0021500Y0026500D01*
X0021745Y0026497D01*
X0021991Y0026488D01*
X0022236Y0026473D01*
X0022480Y0026452D01*
X0022724Y0026425D01*
X0022967Y0026392D01*
X0023210Y0026353D01*
X0023451Y0026308D01*
X0023691Y0026257D01*
X0023930Y0026200D01*
X0024167Y0026138D01*
X0024403Y0026069D01*
X0024637Y0025995D01*
X0024869Y0025915D01*
X0025099Y0025830D01*
X0025327Y0025739D01*
X0025552Y0025642D01*
X0025776Y0025540D01*
X0025996Y0025432D01*
X0026214Y0025319D01*
X0026429Y0025201D01*
X0026641Y0025077D01*
X0026850Y0024949D01*
X0027056Y0024815D01*
X0027258Y0024676D01*
X0027457Y0024532D01*
X0027652Y0024383D01*
X0027844Y0024230D01*
X0028032Y0024072D01*
X0028216Y0023910D01*
X0028395Y0023742D01*
X0028571Y0023571D01*
X0028742Y0023395D01*
X0028910Y0023216D01*
X0029072Y0023032D01*
X0029230Y0022844D01*
X0029383Y0022652D01*
X0029532Y0022457D01*
X0029676Y0022258D01*
X0029815Y0022056D01*
X0029949Y0021850D01*
X0030077Y0021641D01*
X0030201Y0021429D01*
X0030319Y0021214D01*
X0030432Y0020996D01*
X0030540Y0020776D01*
X0030642Y0020552D01*
X0030739Y0020327D01*
X0030830Y0020099D01*
X0030915Y0019869D01*
X0030995Y0019637D01*
X0031069Y0019403D01*
X0031138Y0019167D01*
X0031200Y0018930D01*
X0031257Y0018691D01*
X0031308Y0018451D01*
X0031353Y0018210D01*
X0031392Y0017967D01*
X0031425Y0017724D01*
X0031452Y0017480D01*
X0031473Y0017236D01*
X0031488Y0016991D01*
X0031497Y0016745D01*
X0031500Y0016500D01*
X0031497Y0016255D01*
X0031488Y0016009D01*
X0031473Y0015764D01*
X0031452Y0015520D01*
X0031425Y0015276D01*
X0031392Y0015033D01*
X0031353Y0014790D01*
X0031308Y0014549D01*
X0031257Y0014309D01*
X0031200Y0014070D01*
X0031138Y0013833D01*
X0031069Y0013597D01*
X0030995Y0013363D01*
X0030915Y0013131D01*
X0030830Y0012901D01*
X0030739Y0012673D01*
X0030642Y0012448D01*
X0030540Y0012224D01*
X0030432Y0012004D01*
X0030319Y0011786D01*
X0030201Y0011571D01*
X0030077Y0011359D01*
X0029949Y0011150D01*
X0029815Y0010944D01*
X0029676Y0010742D01*
X0029532Y0010543D01*
X0029383Y0010348D01*
X0029230Y0010156D01*
X0029072Y0009968D01*
X0028910Y0009784D01*
X0028742Y0009605D01*
X0028571Y0009429D01*
X0028395Y0009258D01*
X0028216Y0009090D01*
X0028032Y0008928D01*
X0027844Y0008770D01*
X0027652Y0008617D01*
X0027457Y0008468D01*
X0027258Y0008324D01*
X0027056Y0008185D01*
X0026850Y0008051D01*
X0026641Y0007923D01*
X0026429Y0007799D01*
X0026214Y0007681D01*
X0025996Y0007568D01*
X0025776Y0007460D01*
X0025552Y0007358D01*
X0025327Y0007261D01*
X0025099Y0007170D01*
X0024869Y0007085D01*
X0024637Y0007005D01*
X0024403Y0006931D01*
X0024167Y0006862D01*
X0023930Y0006800D01*
X0023691Y0006743D01*
X0023451Y0006692D01*
X0023210Y0006647D01*
X0022967Y0006608D01*
X0022724Y0006575D01*
X0022480Y0006548D01*
X0022236Y0006527D01*
X0021991Y0006512D01*
X0021745Y0006503D01*
X0021500Y0006500D01*
X0021255Y0006503D01*
X0021009Y0006512D01*
X0020764Y0006527D01*
X0020520Y0006548D01*
X0020276Y0006575D01*
X0020033Y0006608D01*
X0019790Y0006647D01*
X0019549Y0006692D01*
X0019309Y0006743D01*
X0019070Y0006800D01*
X0018833Y0006862D01*
X0018597Y0006931D01*
X0018363Y0007005D01*
X0018131Y0007085D01*
X0017901Y0007170D01*
X0017673Y0007261D01*
X0017448Y0007358D01*
X0017224Y0007460D01*
X0017004Y0007568D01*
X0016786Y0007681D01*
X0016571Y0007799D01*
X0016359Y0007923D01*
X0016150Y0008051D01*
X0015944Y0008185D01*
X0015742Y0008324D01*
X0015543Y0008468D01*
X0015348Y0008617D01*
X0015156Y0008770D01*
X0014968Y0008928D01*
X0014784Y0009090D01*
X0014605Y0009258D01*
X0014429Y0009429D01*
X0014258Y0009605D01*
X0014090Y0009784D01*
X0013928Y0009968D01*
X0013770Y0010156D01*
X0013617Y0010348D01*
X0013468Y0010543D01*
X0013324Y0010742D01*
X0013185Y0010944D01*
X0013051Y0011150D01*
X0012923Y0011359D01*
X0012799Y0011571D01*
X0012681Y0011786D01*
X0012568Y0012004D01*
X0012460Y0012224D01*
X0012358Y0012448D01*
X0012261Y0012673D01*
X0012170Y0012901D01*
X0012085Y0013131D01*
X0012005Y0013363D01*
X0011931Y0013597D01*
X0011862Y0013833D01*
X0011800Y0014070D01*
X0011743Y0014309D01*
X0011692Y0014549D01*
X0011647Y0014790D01*
X0011608Y0015033D01*
X0011575Y0015276D01*
X0011548Y0015520D01*
X0011527Y0015764D01*
X0011512Y0016009D01*
X0011503Y0016255D01*
X0011500Y0016500D01*
X0041500Y0016500D02*
X0041503Y0016745D01*
X0041512Y0016991D01*
X0041527Y0017236D01*
X0041548Y0017480D01*
X0041575Y0017724D01*
X0041608Y0017967D01*
X0041647Y0018210D01*
X0041692Y0018451D01*
X0041743Y0018691D01*
X0041800Y0018930D01*
X0041862Y0019167D01*
X0041931Y0019403D01*
X0042005Y0019637D01*
X0042085Y0019869D01*
X0042170Y0020099D01*
X0042261Y0020327D01*
X0042358Y0020552D01*
X0042460Y0020776D01*
X0042568Y0020996D01*
X0042681Y0021214D01*
X0042799Y0021429D01*
X0042923Y0021641D01*
X0043051Y0021850D01*
X0043185Y0022056D01*
X0043324Y0022258D01*
X0043468Y0022457D01*
X0043617Y0022652D01*
X0043770Y0022844D01*
X0043928Y0023032D01*
X0044090Y0023216D01*
X0044258Y0023395D01*
X0044429Y0023571D01*
X0044605Y0023742D01*
X0044784Y0023910D01*
X0044968Y0024072D01*
X0045156Y0024230D01*
X0045348Y0024383D01*
X0045543Y0024532D01*
X0045742Y0024676D01*
X0045944Y0024815D01*
X0046150Y0024949D01*
X0046359Y0025077D01*
X0046571Y0025201D01*
X0046786Y0025319D01*
X0047004Y0025432D01*
X0047224Y0025540D01*
X0047448Y0025642D01*
X0047673Y0025739D01*
X0047901Y0025830D01*
X0048131Y0025915D01*
X0048363Y0025995D01*
X0048597Y0026069D01*
X0048833Y0026138D01*
X0049070Y0026200D01*
X0049309Y0026257D01*
X0049549Y0026308D01*
X0049790Y0026353D01*
X0050033Y0026392D01*
X0050276Y0026425D01*
X0050520Y0026452D01*
X0050764Y0026473D01*
X0051009Y0026488D01*
X0051255Y0026497D01*
X0051500Y0026500D01*
X0051745Y0026497D01*
X0051991Y0026488D01*
X0052236Y0026473D01*
X0052480Y0026452D01*
X0052724Y0026425D01*
X0052967Y0026392D01*
X0053210Y0026353D01*
X0053451Y0026308D01*
X0053691Y0026257D01*
X0053930Y0026200D01*
X0054167Y0026138D01*
X0054403Y0026069D01*
X0054637Y0025995D01*
X0054869Y0025915D01*
X0055099Y0025830D01*
X0055327Y0025739D01*
X0055552Y0025642D01*
X0055776Y0025540D01*
X0055996Y0025432D01*
X0056214Y0025319D01*
X0056429Y0025201D01*
X0056641Y0025077D01*
X0056850Y0024949D01*
X0057056Y0024815D01*
X0057258Y0024676D01*
X0057457Y0024532D01*
X0057652Y0024383D01*
X0057844Y0024230D01*
X0058032Y0024072D01*
X0058216Y0023910D01*
X0058395Y0023742D01*
X0058571Y0023571D01*
X0058742Y0023395D01*
X0058910Y0023216D01*
X0059072Y0023032D01*
X0059230Y0022844D01*
X0059383Y0022652D01*
X0059532Y0022457D01*
X0059676Y0022258D01*
X0059815Y0022056D01*
X0059949Y0021850D01*
X0060077Y0021641D01*
X0060201Y0021429D01*
X0060319Y0021214D01*
X0060432Y0020996D01*
X0060540Y0020776D01*
X0060642Y0020552D01*
X0060739Y0020327D01*
X0060830Y0020099D01*
X0060915Y0019869D01*
X0060995Y0019637D01*
X0061069Y0019403D01*
X0061138Y0019167D01*
X0061200Y0018930D01*
X0061257Y0018691D01*
X0061308Y0018451D01*
X0061353Y0018210D01*
X0061392Y0017967D01*
X0061425Y0017724D01*
X0061452Y0017480D01*
X0061473Y0017236D01*
X0061488Y0016991D01*
X0061497Y0016745D01*
X0061500Y0016500D01*
X0061497Y0016255D01*
X0061488Y0016009D01*
X0061473Y0015764D01*
X0061452Y0015520D01*
X0061425Y0015276D01*
X0061392Y0015033D01*
X0061353Y0014790D01*
X0061308Y0014549D01*
X0061257Y0014309D01*
X0061200Y0014070D01*
X0061138Y0013833D01*
X0061069Y0013597D01*
X0060995Y0013363D01*
X0060915Y0013131D01*
X0060830Y0012901D01*
X0060739Y0012673D01*
X0060642Y0012448D01*
X0060540Y0012224D01*
X0060432Y0012004D01*
X0060319Y0011786D01*
X0060201Y0011571D01*
X0060077Y0011359D01*
X0059949Y0011150D01*
X0059815Y0010944D01*
X0059676Y0010742D01*
X0059532Y0010543D01*
X0059383Y0010348D01*
X0059230Y0010156D01*
X0059072Y0009968D01*
X0058910Y0009784D01*
X0058742Y0009605D01*
X0058571Y0009429D01*
X0058395Y0009258D01*
X0058216Y0009090D01*
X0058032Y0008928D01*
X0057844Y0008770D01*
X0057652Y0008617D01*
X0057457Y0008468D01*
X0057258Y0008324D01*
X0057056Y0008185D01*
X0056850Y0008051D01*
X0056641Y0007923D01*
X0056429Y0007799D01*
X0056214Y0007681D01*
X0055996Y0007568D01*
X0055776Y0007460D01*
X0055552Y0007358D01*
X0055327Y0007261D01*
X0055099Y0007170D01*
X0054869Y0007085D01*
X0054637Y0007005D01*
X0054403Y0006931D01*
X0054167Y0006862D01*
X0053930Y0006800D01*
X0053691Y0006743D01*
X0053451Y0006692D01*
X0053210Y0006647D01*
X0052967Y0006608D01*
X0052724Y0006575D01*
X0052480Y0006548D01*
X0052236Y0006527D01*
X0051991Y0006512D01*
X0051745Y0006503D01*
X0051500Y0006500D01*
X0051255Y0006503D01*
X0051009Y0006512D01*
X0050764Y0006527D01*
X0050520Y0006548D01*
X0050276Y0006575D01*
X0050033Y0006608D01*
X0049790Y0006647D01*
X0049549Y0006692D01*
X0049309Y0006743D01*
X0049070Y0006800D01*
X0048833Y0006862D01*
X0048597Y0006931D01*
X0048363Y0007005D01*
X0048131Y0007085D01*
X0047901Y0007170D01*
X0047673Y0007261D01*
X0047448Y0007358D01*
X0047224Y0007460D01*
X0047004Y0007568D01*
X0046786Y0007681D01*
X0046571Y0007799D01*
X0046359Y0007923D01*
X0046150Y0008051D01*
X0045944Y0008185D01*
X0045742Y0008324D01*
X0045543Y0008468D01*
X0045348Y0008617D01*
X0045156Y0008770D01*
X0044968Y0008928D01*
X0044784Y0009090D01*
X0044605Y0009258D01*
X0044429Y0009429D01*
X0044258Y0009605D01*
X0044090Y0009784D01*
X0043928Y0009968D01*
X0043770Y0010156D01*
X0043617Y0010348D01*
X0043468Y0010543D01*
X0043324Y0010742D01*
X0043185Y0010944D01*
X0043051Y0011150D01*
X0042923Y0011359D01*
X0042799Y0011571D01*
X0042681Y0011786D01*
X0042568Y0012004D01*
X0042460Y0012224D01*
X0042358Y0012448D01*
X0042261Y0012673D01*
X0042170Y0012901D01*
X0042085Y0013131D01*
X0042005Y0013363D01*
X0041931Y0013597D01*
X0041862Y0013833D01*
X0041800Y0014070D01*
X0041743Y0014309D01*
X0041692Y0014549D01*
X0041647Y0014790D01*
X0041608Y0015033D01*
X0041575Y0015276D01*
X0041548Y0015520D01*
X0041527Y0015764D01*
X0041512Y0016009D01*
X0041503Y0016255D01*
X0041500Y0016500D01*
X0076500Y0016500D02*
X0076503Y0016745D01*
X0076512Y0016991D01*
X0076527Y0017236D01*
X0076548Y0017480D01*
X0076575Y0017724D01*
X0076608Y0017967D01*
X0076647Y0018210D01*
X0076692Y0018451D01*
X0076743Y0018691D01*
X0076800Y0018930D01*
X0076862Y0019167D01*
X0076931Y0019403D01*
X0077005Y0019637D01*
X0077085Y0019869D01*
X0077170Y0020099D01*
X0077261Y0020327D01*
X0077358Y0020552D01*
X0077460Y0020776D01*
X0077568Y0020996D01*
X0077681Y0021214D01*
X0077799Y0021429D01*
X0077923Y0021641D01*
X0078051Y0021850D01*
X0078185Y0022056D01*
X0078324Y0022258D01*
X0078468Y0022457D01*
X0078617Y0022652D01*
X0078770Y0022844D01*
X0078928Y0023032D01*
X0079090Y0023216D01*
X0079258Y0023395D01*
X0079429Y0023571D01*
X0079605Y0023742D01*
X0079784Y0023910D01*
X0079968Y0024072D01*
X0080156Y0024230D01*
X0080348Y0024383D01*
X0080543Y0024532D01*
X0080742Y0024676D01*
X0080944Y0024815D01*
X0081150Y0024949D01*
X0081359Y0025077D01*
X0081571Y0025201D01*
X0081786Y0025319D01*
X0082004Y0025432D01*
X0082224Y0025540D01*
X0082448Y0025642D01*
X0082673Y0025739D01*
X0082901Y0025830D01*
X0083131Y0025915D01*
X0083363Y0025995D01*
X0083597Y0026069D01*
X0083833Y0026138D01*
X0084070Y0026200D01*
X0084309Y0026257D01*
X0084549Y0026308D01*
X0084790Y0026353D01*
X0085033Y0026392D01*
X0085276Y0026425D01*
X0085520Y0026452D01*
X0085764Y0026473D01*
X0086009Y0026488D01*
X0086255Y0026497D01*
X0086500Y0026500D01*
X0086745Y0026497D01*
X0086991Y0026488D01*
X0087236Y0026473D01*
X0087480Y0026452D01*
X0087724Y0026425D01*
X0087967Y0026392D01*
X0088210Y0026353D01*
X0088451Y0026308D01*
X0088691Y0026257D01*
X0088930Y0026200D01*
X0089167Y0026138D01*
X0089403Y0026069D01*
X0089637Y0025995D01*
X0089869Y0025915D01*
X0090099Y0025830D01*
X0090327Y0025739D01*
X0090552Y0025642D01*
X0090776Y0025540D01*
X0090996Y0025432D01*
X0091214Y0025319D01*
X0091429Y0025201D01*
X0091641Y0025077D01*
X0091850Y0024949D01*
X0092056Y0024815D01*
X0092258Y0024676D01*
X0092457Y0024532D01*
X0092652Y0024383D01*
X0092844Y0024230D01*
X0093032Y0024072D01*
X0093216Y0023910D01*
X0093395Y0023742D01*
X0093571Y0023571D01*
X0093742Y0023395D01*
X0093910Y0023216D01*
X0094072Y0023032D01*
X0094230Y0022844D01*
X0094383Y0022652D01*
X0094532Y0022457D01*
X0094676Y0022258D01*
X0094815Y0022056D01*
X0094949Y0021850D01*
X0095077Y0021641D01*
X0095201Y0021429D01*
X0095319Y0021214D01*
X0095432Y0020996D01*
X0095540Y0020776D01*
X0095642Y0020552D01*
X0095739Y0020327D01*
X0095830Y0020099D01*
X0095915Y0019869D01*
X0095995Y0019637D01*
X0096069Y0019403D01*
X0096138Y0019167D01*
X0096200Y0018930D01*
X0096257Y0018691D01*
X0096308Y0018451D01*
X0096353Y0018210D01*
X0096392Y0017967D01*
X0096425Y0017724D01*
X0096452Y0017480D01*
X0096473Y0017236D01*
X0096488Y0016991D01*
X0096497Y0016745D01*
X0096500Y0016500D01*
X0096497Y0016255D01*
X0096488Y0016009D01*
X0096473Y0015764D01*
X0096452Y0015520D01*
X0096425Y0015276D01*
X0096392Y0015033D01*
X0096353Y0014790D01*
X0096308Y0014549D01*
X0096257Y0014309D01*
X0096200Y0014070D01*
X0096138Y0013833D01*
X0096069Y0013597D01*
X0095995Y0013363D01*
X0095915Y0013131D01*
X0095830Y0012901D01*
X0095739Y0012673D01*
X0095642Y0012448D01*
X0095540Y0012224D01*
X0095432Y0012004D01*
X0095319Y0011786D01*
X0095201Y0011571D01*
X0095077Y0011359D01*
X0094949Y0011150D01*
X0094815Y0010944D01*
X0094676Y0010742D01*
X0094532Y0010543D01*
X0094383Y0010348D01*
X0094230Y0010156D01*
X0094072Y0009968D01*
X0093910Y0009784D01*
X0093742Y0009605D01*
X0093571Y0009429D01*
X0093395Y0009258D01*
X0093216Y0009090D01*
X0093032Y0008928D01*
X0092844Y0008770D01*
X0092652Y0008617D01*
X0092457Y0008468D01*
X0092258Y0008324D01*
X0092056Y0008185D01*
X0091850Y0008051D01*
X0091641Y0007923D01*
X0091429Y0007799D01*
X0091214Y0007681D01*
X0090996Y0007568D01*
X0090776Y0007460D01*
X0090552Y0007358D01*
X0090327Y0007261D01*
X0090099Y0007170D01*
X0089869Y0007085D01*
X0089637Y0007005D01*
X0089403Y0006931D01*
X0089167Y0006862D01*
X0088930Y0006800D01*
X0088691Y0006743D01*
X0088451Y0006692D01*
X0088210Y0006647D01*
X0087967Y0006608D01*
X0087724Y0006575D01*
X0087480Y0006548D01*
X0087236Y0006527D01*
X0086991Y0006512D01*
X0086745Y0006503D01*
X0086500Y0006500D01*
X0086255Y0006503D01*
X0086009Y0006512D01*
X0085764Y0006527D01*
X0085520Y0006548D01*
X0085276Y0006575D01*
X0085033Y0006608D01*
X0084790Y0006647D01*
X0084549Y0006692D01*
X0084309Y0006743D01*
X0084070Y0006800D01*
X0083833Y0006862D01*
X0083597Y0006931D01*
X0083363Y0007005D01*
X0083131Y0007085D01*
X0082901Y0007170D01*
X0082673Y0007261D01*
X0082448Y0007358D01*
X0082224Y0007460D01*
X0082004Y0007568D01*
X0081786Y0007681D01*
X0081571Y0007799D01*
X0081359Y0007923D01*
X0081150Y0008051D01*
X0080944Y0008185D01*
X0080742Y0008324D01*
X0080543Y0008468D01*
X0080348Y0008617D01*
X0080156Y0008770D01*
X0079968Y0008928D01*
X0079784Y0009090D01*
X0079605Y0009258D01*
X0079429Y0009429D01*
X0079258Y0009605D01*
X0079090Y0009784D01*
X0078928Y0009968D01*
X0078770Y0010156D01*
X0078617Y0010348D01*
X0078468Y0010543D01*
X0078324Y0010742D01*
X0078185Y0010944D01*
X0078051Y0011150D01*
X0077923Y0011359D01*
X0077799Y0011571D01*
X0077681Y0011786D01*
X0077568Y0012004D01*
X0077460Y0012224D01*
X0077358Y0012448D01*
X0077261Y0012673D01*
X0077170Y0012901D01*
X0077085Y0013131D01*
X0077005Y0013363D01*
X0076931Y0013597D01*
X0076862Y0013833D01*
X0076800Y0014070D01*
X0076743Y0014309D01*
X0076692Y0014549D01*
X0076647Y0014790D01*
X0076608Y0015033D01*
X0076575Y0015276D01*
X0076548Y0015520D01*
X0076527Y0015764D01*
X0076512Y0016009D01*
X0076503Y0016255D01*
X0076500Y0016500D01*
X0106500Y0016500D02*
X0106503Y0016745D01*
X0106512Y0016991D01*
X0106527Y0017236D01*
X0106548Y0017480D01*
X0106575Y0017724D01*
X0106608Y0017967D01*
X0106647Y0018210D01*
X0106692Y0018451D01*
X0106743Y0018691D01*
X0106800Y0018930D01*
X0106862Y0019167D01*
X0106931Y0019403D01*
X0107005Y0019637D01*
X0107085Y0019869D01*
X0107170Y0020099D01*
X0107261Y0020327D01*
X0107358Y0020552D01*
X0107460Y0020776D01*
X0107568Y0020996D01*
X0107681Y0021214D01*
X0107799Y0021429D01*
X0107923Y0021641D01*
X0108051Y0021850D01*
X0108185Y0022056D01*
X0108324Y0022258D01*
X0108468Y0022457D01*
X0108617Y0022652D01*
X0108770Y0022844D01*
X0108928Y0023032D01*
X0109090Y0023216D01*
X0109258Y0023395D01*
X0109429Y0023571D01*
X0109605Y0023742D01*
X0109784Y0023910D01*
X0109968Y0024072D01*
X0110156Y0024230D01*
X0110348Y0024383D01*
X0110543Y0024532D01*
X0110742Y0024676D01*
X0110944Y0024815D01*
X0111150Y0024949D01*
X0111359Y0025077D01*
X0111571Y0025201D01*
X0111786Y0025319D01*
X0112004Y0025432D01*
X0112224Y0025540D01*
X0112448Y0025642D01*
X0112673Y0025739D01*
X0112901Y0025830D01*
X0113131Y0025915D01*
X0113363Y0025995D01*
X0113597Y0026069D01*
X0113833Y0026138D01*
X0114070Y0026200D01*
X0114309Y0026257D01*
X0114549Y0026308D01*
X0114790Y0026353D01*
X0115033Y0026392D01*
X0115276Y0026425D01*
X0115520Y0026452D01*
X0115764Y0026473D01*
X0116009Y0026488D01*
X0116255Y0026497D01*
X0116500Y0026500D01*
X0116745Y0026497D01*
X0116991Y0026488D01*
X0117236Y0026473D01*
X0117480Y0026452D01*
X0117724Y0026425D01*
X0117967Y0026392D01*
X0118210Y0026353D01*
X0118451Y0026308D01*
X0118691Y0026257D01*
X0118930Y0026200D01*
X0119167Y0026138D01*
X0119403Y0026069D01*
X0119637Y0025995D01*
X0119869Y0025915D01*
X0120099Y0025830D01*
X0120327Y0025739D01*
X0120552Y0025642D01*
X0120776Y0025540D01*
X0120996Y0025432D01*
X0121214Y0025319D01*
X0121429Y0025201D01*
X0121641Y0025077D01*
X0121850Y0024949D01*
X0122056Y0024815D01*
X0122258Y0024676D01*
X0122457Y0024532D01*
X0122652Y0024383D01*
X0122844Y0024230D01*
X0123032Y0024072D01*
X0123216Y0023910D01*
X0123395Y0023742D01*
X0123571Y0023571D01*
X0123742Y0023395D01*
X0123910Y0023216D01*
X0124072Y0023032D01*
X0124230Y0022844D01*
X0124383Y0022652D01*
X0124532Y0022457D01*
X0124676Y0022258D01*
X0124815Y0022056D01*
X0124949Y0021850D01*
X0125077Y0021641D01*
X0125201Y0021429D01*
X0125319Y0021214D01*
X0125432Y0020996D01*
X0125540Y0020776D01*
X0125642Y0020552D01*
X0125739Y0020327D01*
X0125830Y0020099D01*
X0125915Y0019869D01*
X0125995Y0019637D01*
X0126069Y0019403D01*
X0126138Y0019167D01*
X0126200Y0018930D01*
X0126257Y0018691D01*
X0126308Y0018451D01*
X0126353Y0018210D01*
X0126392Y0017967D01*
X0126425Y0017724D01*
X0126452Y0017480D01*
X0126473Y0017236D01*
X0126488Y0016991D01*
X0126497Y0016745D01*
X0126500Y0016500D01*
X0126497Y0016255D01*
X0126488Y0016009D01*
X0126473Y0015764D01*
X0126452Y0015520D01*
X0126425Y0015276D01*
X0126392Y0015033D01*
X0126353Y0014790D01*
X0126308Y0014549D01*
X0126257Y0014309D01*
X0126200Y0014070D01*
X0126138Y0013833D01*
X0126069Y0013597D01*
X0125995Y0013363D01*
X0125915Y0013131D01*
X0125830Y0012901D01*
X0125739Y0012673D01*
X0125642Y0012448D01*
X0125540Y0012224D01*
X0125432Y0012004D01*
X0125319Y0011786D01*
X0125201Y0011571D01*
X0125077Y0011359D01*
X0124949Y0011150D01*
X0124815Y0010944D01*
X0124676Y0010742D01*
X0124532Y0010543D01*
X0124383Y0010348D01*
X0124230Y0010156D01*
X0124072Y0009968D01*
X0123910Y0009784D01*
X0123742Y0009605D01*
X0123571Y0009429D01*
X0123395Y0009258D01*
X0123216Y0009090D01*
X0123032Y0008928D01*
X0122844Y0008770D01*
X0122652Y0008617D01*
X0122457Y0008468D01*
X0122258Y0008324D01*
X0122056Y0008185D01*
X0121850Y0008051D01*
X0121641Y0007923D01*
X0121429Y0007799D01*
X0121214Y0007681D01*
X0120996Y0007568D01*
X0120776Y0007460D01*
X0120552Y0007358D01*
X0120327Y0007261D01*
X0120099Y0007170D01*
X0119869Y0007085D01*
X0119637Y0007005D01*
X0119403Y0006931D01*
X0119167Y0006862D01*
X0118930Y0006800D01*
X0118691Y0006743D01*
X0118451Y0006692D01*
X0118210Y0006647D01*
X0117967Y0006608D01*
X0117724Y0006575D01*
X0117480Y0006548D01*
X0117236Y0006527D01*
X0116991Y0006512D01*
X0116745Y0006503D01*
X0116500Y0006500D01*
X0116255Y0006503D01*
X0116009Y0006512D01*
X0115764Y0006527D01*
X0115520Y0006548D01*
X0115276Y0006575D01*
X0115033Y0006608D01*
X0114790Y0006647D01*
X0114549Y0006692D01*
X0114309Y0006743D01*
X0114070Y0006800D01*
X0113833Y0006862D01*
X0113597Y0006931D01*
X0113363Y0007005D01*
X0113131Y0007085D01*
X0112901Y0007170D01*
X0112673Y0007261D01*
X0112448Y0007358D01*
X0112224Y0007460D01*
X0112004Y0007568D01*
X0111786Y0007681D01*
X0111571Y0007799D01*
X0111359Y0007923D01*
X0111150Y0008051D01*
X0110944Y0008185D01*
X0110742Y0008324D01*
X0110543Y0008468D01*
X0110348Y0008617D01*
X0110156Y0008770D01*
X0109968Y0008928D01*
X0109784Y0009090D01*
X0109605Y0009258D01*
X0109429Y0009429D01*
X0109258Y0009605D01*
X0109090Y0009784D01*
X0108928Y0009968D01*
X0108770Y0010156D01*
X0108617Y0010348D01*
X0108468Y0010543D01*
X0108324Y0010742D01*
X0108185Y0010944D01*
X0108051Y0011150D01*
X0107923Y0011359D01*
X0107799Y0011571D01*
X0107681Y0011786D01*
X0107568Y0012004D01*
X0107460Y0012224D01*
X0107358Y0012448D01*
X0107261Y0012673D01*
X0107170Y0012901D01*
X0107085Y0013131D01*
X0107005Y0013363D01*
X0106931Y0013597D01*
X0106862Y0013833D01*
X0106800Y0014070D01*
X0106743Y0014309D01*
X0106692Y0014549D01*
X0106647Y0014790D01*
X0106608Y0015033D01*
X0106575Y0015276D01*
X0106548Y0015520D01*
X0106527Y0015764D01*
X0106512Y0016009D01*
X0106503Y0016255D01*
X0106500Y0016500D01*
X0075893Y0039803D02*
X0074053Y0041643D01*
X0074973Y0042563D01*
X0075587Y0042563D01*
X0076200Y0041950D01*
X0076200Y0041336D01*
X0075280Y0040416D01*
X0075893Y0041030D02*
X0077120Y0041030D01*
X0077977Y0041886D02*
X0079204Y0043113D01*
X0078590Y0042500D02*
X0076750Y0044340D01*
X0076750Y0043113D01*
X0043897Y0042806D02*
X0043284Y0042193D01*
X0042670Y0042193D01*
X0042120Y0041030D02*
X0040893Y0041030D01*
X0041200Y0041336D02*
X0040280Y0040416D01*
X0040893Y0039803D02*
X0039053Y0041643D01*
X0039973Y0042563D01*
X0040587Y0042563D01*
X0041200Y0041950D01*
X0041200Y0041336D01*
X0043897Y0042806D02*
X0043897Y0043420D01*
X0043590Y0043726D01*
X0042977Y0043726D01*
X0042670Y0043420D01*
X0042977Y0043726D02*
X0042977Y0044340D01*
X0042670Y0044647D01*
X0042057Y0044647D01*
X0041444Y0044033D01*
X0041444Y0043420D01*
X0014204Y0045613D02*
X0012977Y0044386D01*
X0012977Y0046840D01*
X0012670Y0047147D01*
X0012057Y0047147D01*
X0011444Y0046533D01*
X0011444Y0045920D01*
X0010587Y0045063D02*
X0011200Y0044450D01*
X0011200Y0043836D01*
X0010280Y0042916D01*
X0010893Y0042303D02*
X0009053Y0044143D01*
X0009973Y0045063D01*
X0010587Y0045063D01*
X0010893Y0043530D02*
X0012120Y0043530D01*
X0207616Y0032798D02*
X0209456Y0034638D01*
X0210376Y0033718D01*
X0210376Y0033104D01*
X0209763Y0032491D01*
X0209149Y0032491D01*
X0208229Y0033411D01*
X0208842Y0032798D02*
X0208843Y0031571D01*
X0210619Y0031634D02*
X0211846Y0030407D01*
X0210619Y0029794D02*
X0212459Y0031634D01*
X0210619Y0031634D01*
X0201500Y0016500D02*
X0201503Y0016745D01*
X0201512Y0016991D01*
X0201527Y0017236D01*
X0201548Y0017480D01*
X0201575Y0017724D01*
X0201608Y0017967D01*
X0201647Y0018210D01*
X0201692Y0018451D01*
X0201743Y0018691D01*
X0201800Y0018930D01*
X0201862Y0019167D01*
X0201931Y0019403D01*
X0202005Y0019637D01*
X0202085Y0019869D01*
X0202170Y0020099D01*
X0202261Y0020327D01*
X0202358Y0020552D01*
X0202460Y0020776D01*
X0202568Y0020996D01*
X0202681Y0021214D01*
X0202799Y0021429D01*
X0202923Y0021641D01*
X0203051Y0021850D01*
X0203185Y0022056D01*
X0203324Y0022258D01*
X0203468Y0022457D01*
X0203617Y0022652D01*
X0203770Y0022844D01*
X0203928Y0023032D01*
X0204090Y0023216D01*
X0204258Y0023395D01*
X0204429Y0023571D01*
X0204605Y0023742D01*
X0204784Y0023910D01*
X0204968Y0024072D01*
X0205156Y0024230D01*
X0205348Y0024383D01*
X0205543Y0024532D01*
X0205742Y0024676D01*
X0205944Y0024815D01*
X0206150Y0024949D01*
X0206359Y0025077D01*
X0206571Y0025201D01*
X0206786Y0025319D01*
X0207004Y0025432D01*
X0207224Y0025540D01*
X0207448Y0025642D01*
X0207673Y0025739D01*
X0207901Y0025830D01*
X0208131Y0025915D01*
X0208363Y0025995D01*
X0208597Y0026069D01*
X0208833Y0026138D01*
X0209070Y0026200D01*
X0209309Y0026257D01*
X0209549Y0026308D01*
X0209790Y0026353D01*
X0210033Y0026392D01*
X0210276Y0026425D01*
X0210520Y0026452D01*
X0210764Y0026473D01*
X0211009Y0026488D01*
X0211255Y0026497D01*
X0211500Y0026500D01*
X0211745Y0026497D01*
X0211991Y0026488D01*
X0212236Y0026473D01*
X0212480Y0026452D01*
X0212724Y0026425D01*
X0212967Y0026392D01*
X0213210Y0026353D01*
X0213451Y0026308D01*
X0213691Y0026257D01*
X0213930Y0026200D01*
X0214167Y0026138D01*
X0214403Y0026069D01*
X0214637Y0025995D01*
X0214869Y0025915D01*
X0215099Y0025830D01*
X0215327Y0025739D01*
X0215552Y0025642D01*
X0215776Y0025540D01*
X0215996Y0025432D01*
X0216214Y0025319D01*
X0216429Y0025201D01*
X0216641Y0025077D01*
X0216850Y0024949D01*
X0217056Y0024815D01*
X0217258Y0024676D01*
X0217457Y0024532D01*
X0217652Y0024383D01*
X0217844Y0024230D01*
X0218032Y0024072D01*
X0218216Y0023910D01*
X0218395Y0023742D01*
X0218571Y0023571D01*
X0218742Y0023395D01*
X0218910Y0023216D01*
X0219072Y0023032D01*
X0219230Y0022844D01*
X0219383Y0022652D01*
X0219532Y0022457D01*
X0219676Y0022258D01*
X0219815Y0022056D01*
X0219949Y0021850D01*
X0220077Y0021641D01*
X0220201Y0021429D01*
X0220319Y0021214D01*
X0220432Y0020996D01*
X0220540Y0020776D01*
X0220642Y0020552D01*
X0220739Y0020327D01*
X0220830Y0020099D01*
X0220915Y0019869D01*
X0220995Y0019637D01*
X0221069Y0019403D01*
X0221138Y0019167D01*
X0221200Y0018930D01*
X0221257Y0018691D01*
X0221308Y0018451D01*
X0221353Y0018210D01*
X0221392Y0017967D01*
X0221425Y0017724D01*
X0221452Y0017480D01*
X0221473Y0017236D01*
X0221488Y0016991D01*
X0221497Y0016745D01*
X0221500Y0016500D01*
X0221497Y0016255D01*
X0221488Y0016009D01*
X0221473Y0015764D01*
X0221452Y0015520D01*
X0221425Y0015276D01*
X0221392Y0015033D01*
X0221353Y0014790D01*
X0221308Y0014549D01*
X0221257Y0014309D01*
X0221200Y0014070D01*
X0221138Y0013833D01*
X0221069Y0013597D01*
X0220995Y0013363D01*
X0220915Y0013131D01*
X0220830Y0012901D01*
X0220739Y0012673D01*
X0220642Y0012448D01*
X0220540Y0012224D01*
X0220432Y0012004D01*
X0220319Y0011786D01*
X0220201Y0011571D01*
X0220077Y0011359D01*
X0219949Y0011150D01*
X0219815Y0010944D01*
X0219676Y0010742D01*
X0219532Y0010543D01*
X0219383Y0010348D01*
X0219230Y0010156D01*
X0219072Y0009968D01*
X0218910Y0009784D01*
X0218742Y0009605D01*
X0218571Y0009429D01*
X0218395Y0009258D01*
X0218216Y0009090D01*
X0218032Y0008928D01*
X0217844Y0008770D01*
X0217652Y0008617D01*
X0217457Y0008468D01*
X0217258Y0008324D01*
X0217056Y0008185D01*
X0216850Y0008051D01*
X0216641Y0007923D01*
X0216429Y0007799D01*
X0216214Y0007681D01*
X0215996Y0007568D01*
X0215776Y0007460D01*
X0215552Y0007358D01*
X0215327Y0007261D01*
X0215099Y0007170D01*
X0214869Y0007085D01*
X0214637Y0007005D01*
X0214403Y0006931D01*
X0214167Y0006862D01*
X0213930Y0006800D01*
X0213691Y0006743D01*
X0213451Y0006692D01*
X0213210Y0006647D01*
X0212967Y0006608D01*
X0212724Y0006575D01*
X0212480Y0006548D01*
X0212236Y0006527D01*
X0211991Y0006512D01*
X0211745Y0006503D01*
X0211500Y0006500D01*
X0211255Y0006503D01*
X0211009Y0006512D01*
X0210764Y0006527D01*
X0210520Y0006548D01*
X0210276Y0006575D01*
X0210033Y0006608D01*
X0209790Y0006647D01*
X0209549Y0006692D01*
X0209309Y0006743D01*
X0209070Y0006800D01*
X0208833Y0006862D01*
X0208597Y0006931D01*
X0208363Y0007005D01*
X0208131Y0007085D01*
X0207901Y0007170D01*
X0207673Y0007261D01*
X0207448Y0007358D01*
X0207224Y0007460D01*
X0207004Y0007568D01*
X0206786Y0007681D01*
X0206571Y0007799D01*
X0206359Y0007923D01*
X0206150Y0008051D01*
X0205944Y0008185D01*
X0205742Y0008324D01*
X0205543Y0008468D01*
X0205348Y0008617D01*
X0205156Y0008770D01*
X0204968Y0008928D01*
X0204784Y0009090D01*
X0204605Y0009258D01*
X0204429Y0009429D01*
X0204258Y0009605D01*
X0204090Y0009784D01*
X0203928Y0009968D01*
X0203770Y0010156D01*
X0203617Y0010348D01*
X0203468Y0010543D01*
X0203324Y0010742D01*
X0203185Y0010944D01*
X0203051Y0011150D01*
X0202923Y0011359D01*
X0202799Y0011571D01*
X0202681Y0011786D01*
X0202568Y0012004D01*
X0202460Y0012224D01*
X0202358Y0012448D01*
X0202261Y0012673D01*
X0202170Y0012901D01*
X0202085Y0013131D01*
X0202005Y0013363D01*
X0201931Y0013597D01*
X0201862Y0013833D01*
X0201800Y0014070D01*
X0201743Y0014309D01*
X0201692Y0014549D01*
X0201647Y0014790D01*
X0201608Y0015033D01*
X0201575Y0015276D01*
X0201548Y0015520D01*
X0201527Y0015764D01*
X0201512Y0016009D01*
X0201503Y0016255D01*
X0201500Y0016500D01*
D14*
X0224250Y0018850D02*
X0227253Y0018850D01*
X0228854Y0018850D02*
X0231856Y0018850D01*
X0233458Y0018850D02*
X0235710Y0018850D01*
X0236460Y0019601D01*
X0236460Y0022603D01*
X0235710Y0023354D01*
X0233458Y0023354D01*
X0233458Y0018850D01*
X0228854Y0018850D02*
X0228854Y0023354D01*
X0231856Y0023354D01*
X0238062Y0023354D02*
X0238062Y0021102D01*
X0239563Y0021853D01*
X0240314Y0021853D01*
X0241064Y0021102D01*
X0241064Y0019601D01*
X0240314Y0018850D01*
X0238812Y0018850D01*
X0238062Y0019601D01*
X0230355Y0021102D02*
X0228854Y0021102D01*
X0224250Y0023354D02*
X0224250Y0018850D01*
X0238062Y0023354D02*
X0241064Y0023354D01*
X0146064Y0018850D02*
X0143062Y0018850D01*
X0144563Y0018850D02*
X0144563Y0023354D01*
X0143062Y0021853D01*
X0141460Y0022603D02*
X0140710Y0023354D01*
X0138458Y0023354D01*
X0138458Y0018850D01*
X0140710Y0018850D01*
X0141460Y0019601D01*
X0141460Y0022603D01*
X0136856Y0023354D02*
X0133854Y0023354D01*
X0133854Y0018850D01*
X0136856Y0018850D01*
X0132253Y0018850D02*
X0129250Y0018850D01*
X0129250Y0023354D01*
X0133854Y0021102D02*
X0135355Y0021102D01*
X0116064Y0021853D02*
X0116064Y0022603D01*
X0115314Y0023354D01*
X0113812Y0023354D01*
X0113062Y0022603D01*
X0111460Y0022603D02*
X0110710Y0023354D01*
X0108458Y0023354D01*
X0108458Y0018850D01*
X0110710Y0018850D01*
X0111460Y0019601D01*
X0111460Y0022603D01*
X0113062Y0018850D02*
X0116064Y0021853D01*
X0106856Y0023354D02*
X0103854Y0023354D01*
X0103854Y0018850D01*
X0106856Y0018850D01*
X0102253Y0018850D02*
X0099250Y0018850D01*
X0099250Y0023354D01*
X0103854Y0021102D02*
X0105355Y0021102D01*
X0113062Y0018850D02*
X0116064Y0018850D01*
X0081064Y0021102D02*
X0078062Y0021102D01*
X0080314Y0023354D01*
X0080314Y0018850D01*
X0076460Y0019601D02*
X0075710Y0018850D01*
X0073458Y0018850D01*
X0073458Y0023354D01*
X0075710Y0023354D01*
X0076460Y0022603D01*
X0076460Y0019601D01*
X0071856Y0018850D02*
X0068854Y0018850D01*
X0068854Y0023354D01*
X0071856Y0023354D01*
X0070355Y0021102D02*
X0068854Y0021102D01*
X0067253Y0018850D02*
X0064250Y0018850D01*
X0064250Y0023354D01*
X0051064Y0022603D02*
X0051064Y0021853D01*
X0050314Y0021102D01*
X0051064Y0020351D01*
X0051064Y0019601D01*
X0050314Y0018850D01*
X0048812Y0018850D01*
X0048062Y0019601D01*
X0046460Y0019601D02*
X0045710Y0018850D01*
X0043458Y0018850D01*
X0043458Y0023354D01*
X0045710Y0023354D01*
X0046460Y0022603D01*
X0046460Y0019601D01*
X0049563Y0021102D02*
X0050314Y0021102D01*
X0051064Y0022603D02*
X0050314Y0023354D01*
X0048812Y0023354D01*
X0048062Y0022603D01*
X0041856Y0023354D02*
X0038854Y0023354D01*
X0038854Y0018850D01*
X0041856Y0018850D01*
X0037253Y0018850D02*
X0034250Y0018850D01*
X0034250Y0023354D01*
X0038854Y0021102D02*
X0040355Y0021102D01*
D15*
X0130984Y0033275D02*
X0134587Y0035677D01*
X0134587Y0036958D02*
X0134587Y0039360D01*
X0134587Y0038159D02*
X0130984Y0038159D01*
X0132185Y0036958D01*
X0130984Y0035677D02*
X0134587Y0033275D01*
M02*
