G75*
%MOIN*%
%OFA0B0*%
%FSLAX25Y25*%
%IPPOS*%
%LPD*%
%AMOC8*
5,1,8,0,0,1.08239X$1,22.5*
%
%ADD10C,0.00100*%
%ADD11C,0.00800*%
%ADD12C,0.01000*%
%ADD13C,0.00600*%
%ADD14C,0.00500*%
%ADD15C,0.00400*%
D10*
X0042595Y0053933D02*
X0242595Y0053933D01*
X0242595Y0083933D01*
X0222595Y0103933D01*
X0062595Y0103933D01*
X0042595Y0083933D01*
X0042595Y0053933D01*
D11*
X0040095Y0053933D02*
X0055095Y0053933D01*
X0070095Y0053933D02*
X0085095Y0053933D01*
X0105095Y0053933D02*
X0120095Y0053933D01*
X0135095Y0053933D02*
X0150095Y0053933D01*
X0116347Y0076321D02*
X0109984Y0082685D01*
X0123843Y0096545D01*
X0130207Y0090181D01*
X0116347Y0076321D01*
X0095207Y0090181D02*
X0081347Y0076321D01*
X0074984Y0082685D01*
X0088843Y0096545D01*
X0095207Y0090181D01*
X0065207Y0090181D02*
X0051347Y0076321D01*
X0044984Y0082685D01*
X0058843Y0096545D01*
X0065207Y0090181D01*
X0219984Y0090181D02*
X0226347Y0096545D01*
X0240207Y0082685D01*
X0233843Y0076321D01*
X0219984Y0090181D01*
X0230095Y0053933D02*
X0245095Y0053933D01*
D12*
X0245338Y0054120D01*
X0245576Y0054312D01*
X0245809Y0054511D01*
X0246037Y0054715D01*
X0246260Y0054924D01*
X0246478Y0055139D01*
X0246691Y0055359D01*
X0246898Y0055584D01*
X0247100Y0055815D01*
X0247296Y0056050D01*
X0247486Y0056290D01*
X0247670Y0056534D01*
X0247848Y0056783D01*
X0248020Y0057037D01*
X0248186Y0057294D01*
X0248346Y0057555D01*
X0248499Y0057820D01*
X0248645Y0058089D01*
X0248785Y0058362D01*
X0248918Y0058637D01*
X0249044Y0058916D01*
X0249164Y0059198D01*
X0249276Y0059483D01*
X0249381Y0059770D01*
X0249480Y0060060D01*
X0249571Y0060352D01*
X0249655Y0060647D01*
X0249732Y0060943D01*
X0249802Y0061241D01*
X0249864Y0061541D01*
X0249919Y0061842D01*
X0249966Y0062144D01*
X0250006Y0062448D01*
X0250039Y0062752D01*
X0250064Y0063057D01*
X0250082Y0063363D01*
X0250092Y0063669D01*
X0250095Y0063975D01*
X0250090Y0064281D01*
X0250078Y0064587D01*
X0250058Y0064893D01*
X0250031Y0065197D01*
X0249996Y0065502D01*
X0249954Y0065805D01*
X0249905Y0066107D01*
X0249848Y0066408D01*
X0249783Y0066707D01*
X0249712Y0067005D01*
X0249633Y0067300D01*
X0249547Y0067594D01*
X0249454Y0067886D01*
X0249353Y0068175D01*
X0249246Y0068462D01*
X0249131Y0068746D01*
X0249010Y0069027D01*
X0248882Y0069305D01*
X0248747Y0069580D01*
X0248605Y0069851D01*
X0248457Y0070119D01*
X0248302Y0070383D01*
X0248141Y0070643D01*
X0247974Y0070899D01*
X0247800Y0071152D01*
X0247620Y0071399D01*
X0247434Y0071643D01*
X0247243Y0071881D01*
X0247045Y0072115D01*
X0246842Y0072344D01*
X0246633Y0072568D01*
X0246419Y0072787D01*
X0246199Y0073000D01*
X0245975Y0073208D01*
X0245745Y0073411D01*
X0245511Y0073607D01*
X0245271Y0073798D01*
X0245028Y0073983D01*
X0244779Y0074162D01*
X0244527Y0074335D01*
X0244270Y0074502D01*
X0244009Y0074662D01*
X0243744Y0074816D01*
X0243476Y0074963D01*
X0243204Y0075104D01*
X0242929Y0075238D01*
X0242650Y0075365D01*
X0242369Y0075486D01*
X0242084Y0075599D01*
X0241797Y0075705D01*
X0241508Y0075805D01*
X0241216Y0075897D01*
X0240922Y0075982D01*
X0240626Y0076060D01*
X0240328Y0076131D01*
X0240028Y0076194D01*
X0239727Y0076250D01*
X0239425Y0076298D01*
X0239122Y0076339D01*
X0238818Y0076373D01*
X0238513Y0076399D01*
X0238207Y0076418D01*
X0237901Y0076429D01*
X0237595Y0076433D01*
X0237289Y0076429D01*
X0236983Y0076418D01*
X0236677Y0076399D01*
X0236372Y0076373D01*
X0236068Y0076339D01*
X0235765Y0076298D01*
X0235463Y0076250D01*
X0235162Y0076194D01*
X0234862Y0076131D01*
X0234564Y0076060D01*
X0234268Y0075982D01*
X0233974Y0075897D01*
X0233682Y0075805D01*
X0233393Y0075705D01*
X0233106Y0075599D01*
X0232821Y0075486D01*
X0232540Y0075365D01*
X0232261Y0075238D01*
X0231986Y0075104D01*
X0231714Y0074963D01*
X0231446Y0074816D01*
X0231181Y0074662D01*
X0230920Y0074502D01*
X0230663Y0074335D01*
X0230411Y0074162D01*
X0230162Y0073983D01*
X0229919Y0073798D01*
X0229679Y0073607D01*
X0229445Y0073411D01*
X0229215Y0073208D01*
X0228991Y0073000D01*
X0228771Y0072787D01*
X0228557Y0072568D01*
X0228348Y0072344D01*
X0228145Y0072115D01*
X0227947Y0071881D01*
X0227756Y0071643D01*
X0227570Y0071399D01*
X0227390Y0071152D01*
X0227216Y0070899D01*
X0227049Y0070643D01*
X0226888Y0070383D01*
X0226733Y0070119D01*
X0226585Y0069851D01*
X0226443Y0069580D01*
X0226308Y0069305D01*
X0226180Y0069027D01*
X0226059Y0068746D01*
X0225944Y0068462D01*
X0225837Y0068175D01*
X0225736Y0067886D01*
X0225643Y0067594D01*
X0225557Y0067300D01*
X0225478Y0067005D01*
X0225407Y0066707D01*
X0225342Y0066408D01*
X0225285Y0066107D01*
X0225236Y0065805D01*
X0225194Y0065502D01*
X0225159Y0065197D01*
X0225132Y0064893D01*
X0225112Y0064587D01*
X0225100Y0064281D01*
X0225095Y0063975D01*
X0225098Y0063669D01*
X0225108Y0063363D01*
X0225126Y0063057D01*
X0225151Y0062752D01*
X0225184Y0062448D01*
X0225224Y0062144D01*
X0225271Y0061842D01*
X0225326Y0061541D01*
X0225388Y0061241D01*
X0225458Y0060943D01*
X0225535Y0060647D01*
X0225619Y0060352D01*
X0225710Y0060060D01*
X0225809Y0059770D01*
X0225914Y0059483D01*
X0226026Y0059198D01*
X0226146Y0058916D01*
X0226272Y0058637D01*
X0226405Y0058362D01*
X0226545Y0058089D01*
X0226691Y0057820D01*
X0226844Y0057555D01*
X0227004Y0057294D01*
X0227170Y0057037D01*
X0227342Y0056783D01*
X0227520Y0056534D01*
X0227704Y0056290D01*
X0227894Y0056050D01*
X0228090Y0055815D01*
X0228292Y0055584D01*
X0228499Y0055359D01*
X0228712Y0055139D01*
X0228930Y0054924D01*
X0229153Y0054715D01*
X0229381Y0054511D01*
X0229614Y0054312D01*
X0229852Y0054120D01*
X0230095Y0053933D01*
X0216926Y0079652D02*
X0158264Y0079652D01*
X0158264Y0102289D01*
X0216926Y0102289D01*
X0216926Y0079652D01*
X0207674Y0079878D02*
X0207674Y0081846D01*
X0167516Y0081846D02*
X0167516Y0079878D01*
X0150095Y0053933D02*
X0150338Y0054120D01*
X0150576Y0054312D01*
X0150809Y0054511D01*
X0151037Y0054715D01*
X0151260Y0054924D01*
X0151478Y0055139D01*
X0151691Y0055359D01*
X0151898Y0055584D01*
X0152100Y0055815D01*
X0152296Y0056050D01*
X0152486Y0056290D01*
X0152670Y0056534D01*
X0152848Y0056783D01*
X0153020Y0057037D01*
X0153186Y0057294D01*
X0153346Y0057555D01*
X0153499Y0057820D01*
X0153645Y0058089D01*
X0153785Y0058362D01*
X0153918Y0058637D01*
X0154044Y0058916D01*
X0154164Y0059198D01*
X0154276Y0059483D01*
X0154381Y0059770D01*
X0154480Y0060060D01*
X0154571Y0060352D01*
X0154655Y0060647D01*
X0154732Y0060943D01*
X0154802Y0061241D01*
X0154864Y0061541D01*
X0154919Y0061842D01*
X0154966Y0062144D01*
X0155006Y0062448D01*
X0155039Y0062752D01*
X0155064Y0063057D01*
X0155082Y0063363D01*
X0155092Y0063669D01*
X0155095Y0063975D01*
X0155090Y0064281D01*
X0155078Y0064587D01*
X0155058Y0064893D01*
X0155031Y0065197D01*
X0154996Y0065502D01*
X0154954Y0065805D01*
X0154905Y0066107D01*
X0154848Y0066408D01*
X0154783Y0066707D01*
X0154712Y0067005D01*
X0154633Y0067300D01*
X0154547Y0067594D01*
X0154454Y0067886D01*
X0154353Y0068175D01*
X0154246Y0068462D01*
X0154131Y0068746D01*
X0154010Y0069027D01*
X0153882Y0069305D01*
X0153747Y0069580D01*
X0153605Y0069851D01*
X0153457Y0070119D01*
X0153302Y0070383D01*
X0153141Y0070643D01*
X0152974Y0070899D01*
X0152800Y0071152D01*
X0152620Y0071399D01*
X0152434Y0071643D01*
X0152243Y0071881D01*
X0152045Y0072115D01*
X0151842Y0072344D01*
X0151633Y0072568D01*
X0151419Y0072787D01*
X0151199Y0073000D01*
X0150975Y0073208D01*
X0150745Y0073411D01*
X0150511Y0073607D01*
X0150271Y0073798D01*
X0150028Y0073983D01*
X0149779Y0074162D01*
X0149527Y0074335D01*
X0149270Y0074502D01*
X0149009Y0074662D01*
X0148744Y0074816D01*
X0148476Y0074963D01*
X0148204Y0075104D01*
X0147929Y0075238D01*
X0147650Y0075365D01*
X0147369Y0075486D01*
X0147084Y0075599D01*
X0146797Y0075705D01*
X0146508Y0075805D01*
X0146216Y0075897D01*
X0145922Y0075982D01*
X0145626Y0076060D01*
X0145328Y0076131D01*
X0145028Y0076194D01*
X0144727Y0076250D01*
X0144425Y0076298D01*
X0144122Y0076339D01*
X0143818Y0076373D01*
X0143513Y0076399D01*
X0143207Y0076418D01*
X0142901Y0076429D01*
X0142595Y0076433D01*
X0142289Y0076429D01*
X0141983Y0076418D01*
X0141677Y0076399D01*
X0141372Y0076373D01*
X0141068Y0076339D01*
X0140765Y0076298D01*
X0140463Y0076250D01*
X0140162Y0076194D01*
X0139862Y0076131D01*
X0139564Y0076060D01*
X0139268Y0075982D01*
X0138974Y0075897D01*
X0138682Y0075805D01*
X0138393Y0075705D01*
X0138106Y0075599D01*
X0137821Y0075486D01*
X0137540Y0075365D01*
X0137261Y0075238D01*
X0136986Y0075104D01*
X0136714Y0074963D01*
X0136446Y0074816D01*
X0136181Y0074662D01*
X0135920Y0074502D01*
X0135663Y0074335D01*
X0135411Y0074162D01*
X0135162Y0073983D01*
X0134919Y0073798D01*
X0134679Y0073607D01*
X0134445Y0073411D01*
X0134215Y0073208D01*
X0133991Y0073000D01*
X0133771Y0072787D01*
X0133557Y0072568D01*
X0133348Y0072344D01*
X0133145Y0072115D01*
X0132947Y0071881D01*
X0132756Y0071643D01*
X0132570Y0071399D01*
X0132390Y0071152D01*
X0132216Y0070899D01*
X0132049Y0070643D01*
X0131888Y0070383D01*
X0131733Y0070119D01*
X0131585Y0069851D01*
X0131443Y0069580D01*
X0131308Y0069305D01*
X0131180Y0069027D01*
X0131059Y0068746D01*
X0130944Y0068462D01*
X0130837Y0068175D01*
X0130736Y0067886D01*
X0130643Y0067594D01*
X0130557Y0067300D01*
X0130478Y0067005D01*
X0130407Y0066707D01*
X0130342Y0066408D01*
X0130285Y0066107D01*
X0130236Y0065805D01*
X0130194Y0065502D01*
X0130159Y0065197D01*
X0130132Y0064893D01*
X0130112Y0064587D01*
X0130100Y0064281D01*
X0130095Y0063975D01*
X0130098Y0063669D01*
X0130108Y0063363D01*
X0130126Y0063057D01*
X0130151Y0062752D01*
X0130184Y0062448D01*
X0130224Y0062144D01*
X0130271Y0061842D01*
X0130326Y0061541D01*
X0130388Y0061241D01*
X0130458Y0060943D01*
X0130535Y0060647D01*
X0130619Y0060352D01*
X0130710Y0060060D01*
X0130809Y0059770D01*
X0130914Y0059483D01*
X0131026Y0059198D01*
X0131146Y0058916D01*
X0131272Y0058637D01*
X0131405Y0058362D01*
X0131545Y0058089D01*
X0131691Y0057820D01*
X0131844Y0057555D01*
X0132004Y0057294D01*
X0132170Y0057037D01*
X0132342Y0056783D01*
X0132520Y0056534D01*
X0132704Y0056290D01*
X0132894Y0056050D01*
X0133090Y0055815D01*
X0133292Y0055584D01*
X0133499Y0055359D01*
X0133712Y0055139D01*
X0133930Y0054924D01*
X0134153Y0054715D01*
X0134381Y0054511D01*
X0134614Y0054312D01*
X0134852Y0054120D01*
X0135095Y0053933D01*
X0120095Y0053933D02*
X0120338Y0054120D01*
X0120576Y0054312D01*
X0120809Y0054511D01*
X0121037Y0054715D01*
X0121260Y0054924D01*
X0121478Y0055139D01*
X0121691Y0055359D01*
X0121898Y0055584D01*
X0122100Y0055815D01*
X0122296Y0056050D01*
X0122486Y0056290D01*
X0122670Y0056534D01*
X0122848Y0056783D01*
X0123020Y0057037D01*
X0123186Y0057294D01*
X0123346Y0057555D01*
X0123499Y0057820D01*
X0123645Y0058089D01*
X0123785Y0058362D01*
X0123918Y0058637D01*
X0124044Y0058916D01*
X0124164Y0059198D01*
X0124276Y0059483D01*
X0124381Y0059770D01*
X0124480Y0060060D01*
X0124571Y0060352D01*
X0124655Y0060647D01*
X0124732Y0060943D01*
X0124802Y0061241D01*
X0124864Y0061541D01*
X0124919Y0061842D01*
X0124966Y0062144D01*
X0125006Y0062448D01*
X0125039Y0062752D01*
X0125064Y0063057D01*
X0125082Y0063363D01*
X0125092Y0063669D01*
X0125095Y0063975D01*
X0125090Y0064281D01*
X0125078Y0064587D01*
X0125058Y0064893D01*
X0125031Y0065197D01*
X0124996Y0065502D01*
X0124954Y0065805D01*
X0124905Y0066107D01*
X0124848Y0066408D01*
X0124783Y0066707D01*
X0124712Y0067005D01*
X0124633Y0067300D01*
X0124547Y0067594D01*
X0124454Y0067886D01*
X0124353Y0068175D01*
X0124246Y0068462D01*
X0124131Y0068746D01*
X0124010Y0069027D01*
X0123882Y0069305D01*
X0123747Y0069580D01*
X0123605Y0069851D01*
X0123457Y0070119D01*
X0123302Y0070383D01*
X0123141Y0070643D01*
X0122974Y0070899D01*
X0122800Y0071152D01*
X0122620Y0071399D01*
X0122434Y0071643D01*
X0122243Y0071881D01*
X0122045Y0072115D01*
X0121842Y0072344D01*
X0121633Y0072568D01*
X0121419Y0072787D01*
X0121199Y0073000D01*
X0120975Y0073208D01*
X0120745Y0073411D01*
X0120511Y0073607D01*
X0120271Y0073798D01*
X0120028Y0073983D01*
X0119779Y0074162D01*
X0119527Y0074335D01*
X0119270Y0074502D01*
X0119009Y0074662D01*
X0118744Y0074816D01*
X0118476Y0074963D01*
X0118204Y0075104D01*
X0117929Y0075238D01*
X0117650Y0075365D01*
X0117369Y0075486D01*
X0117084Y0075599D01*
X0116797Y0075705D01*
X0116508Y0075805D01*
X0116216Y0075897D01*
X0115922Y0075982D01*
X0115626Y0076060D01*
X0115328Y0076131D01*
X0115028Y0076194D01*
X0114727Y0076250D01*
X0114425Y0076298D01*
X0114122Y0076339D01*
X0113818Y0076373D01*
X0113513Y0076399D01*
X0113207Y0076418D01*
X0112901Y0076429D01*
X0112595Y0076433D01*
X0112289Y0076429D01*
X0111983Y0076418D01*
X0111677Y0076399D01*
X0111372Y0076373D01*
X0111068Y0076339D01*
X0110765Y0076298D01*
X0110463Y0076250D01*
X0110162Y0076194D01*
X0109862Y0076131D01*
X0109564Y0076060D01*
X0109268Y0075982D01*
X0108974Y0075897D01*
X0108682Y0075805D01*
X0108393Y0075705D01*
X0108106Y0075599D01*
X0107821Y0075486D01*
X0107540Y0075365D01*
X0107261Y0075238D01*
X0106986Y0075104D01*
X0106714Y0074963D01*
X0106446Y0074816D01*
X0106181Y0074662D01*
X0105920Y0074502D01*
X0105663Y0074335D01*
X0105411Y0074162D01*
X0105162Y0073983D01*
X0104919Y0073798D01*
X0104679Y0073607D01*
X0104445Y0073411D01*
X0104215Y0073208D01*
X0103991Y0073000D01*
X0103771Y0072787D01*
X0103557Y0072568D01*
X0103348Y0072344D01*
X0103145Y0072115D01*
X0102947Y0071881D01*
X0102756Y0071643D01*
X0102570Y0071399D01*
X0102390Y0071152D01*
X0102216Y0070899D01*
X0102049Y0070643D01*
X0101888Y0070383D01*
X0101733Y0070119D01*
X0101585Y0069851D01*
X0101443Y0069580D01*
X0101308Y0069305D01*
X0101180Y0069027D01*
X0101059Y0068746D01*
X0100944Y0068462D01*
X0100837Y0068175D01*
X0100736Y0067886D01*
X0100643Y0067594D01*
X0100557Y0067300D01*
X0100478Y0067005D01*
X0100407Y0066707D01*
X0100342Y0066408D01*
X0100285Y0066107D01*
X0100236Y0065805D01*
X0100194Y0065502D01*
X0100159Y0065197D01*
X0100132Y0064893D01*
X0100112Y0064587D01*
X0100100Y0064281D01*
X0100095Y0063975D01*
X0100098Y0063669D01*
X0100108Y0063363D01*
X0100126Y0063057D01*
X0100151Y0062752D01*
X0100184Y0062448D01*
X0100224Y0062144D01*
X0100271Y0061842D01*
X0100326Y0061541D01*
X0100388Y0061241D01*
X0100458Y0060943D01*
X0100535Y0060647D01*
X0100619Y0060352D01*
X0100710Y0060060D01*
X0100809Y0059770D01*
X0100914Y0059483D01*
X0101026Y0059198D01*
X0101146Y0058916D01*
X0101272Y0058637D01*
X0101405Y0058362D01*
X0101545Y0058089D01*
X0101691Y0057820D01*
X0101844Y0057555D01*
X0102004Y0057294D01*
X0102170Y0057037D01*
X0102342Y0056783D01*
X0102520Y0056534D01*
X0102704Y0056290D01*
X0102894Y0056050D01*
X0103090Y0055815D01*
X0103292Y0055584D01*
X0103499Y0055359D01*
X0103712Y0055139D01*
X0103930Y0054924D01*
X0104153Y0054715D01*
X0104381Y0054511D01*
X0104614Y0054312D01*
X0104852Y0054120D01*
X0105095Y0053933D01*
X0085095Y0053933D02*
X0085338Y0054120D01*
X0085576Y0054312D01*
X0085809Y0054511D01*
X0086037Y0054715D01*
X0086260Y0054924D01*
X0086478Y0055139D01*
X0086691Y0055359D01*
X0086898Y0055584D01*
X0087100Y0055815D01*
X0087296Y0056050D01*
X0087486Y0056290D01*
X0087670Y0056534D01*
X0087848Y0056783D01*
X0088020Y0057037D01*
X0088186Y0057294D01*
X0088346Y0057555D01*
X0088499Y0057820D01*
X0088645Y0058089D01*
X0088785Y0058362D01*
X0088918Y0058637D01*
X0089044Y0058916D01*
X0089164Y0059198D01*
X0089276Y0059483D01*
X0089381Y0059770D01*
X0089480Y0060060D01*
X0089571Y0060352D01*
X0089655Y0060647D01*
X0089732Y0060943D01*
X0089802Y0061241D01*
X0089864Y0061541D01*
X0089919Y0061842D01*
X0089966Y0062144D01*
X0090006Y0062448D01*
X0090039Y0062752D01*
X0090064Y0063057D01*
X0090082Y0063363D01*
X0090092Y0063669D01*
X0090095Y0063975D01*
X0090090Y0064281D01*
X0090078Y0064587D01*
X0090058Y0064893D01*
X0090031Y0065197D01*
X0089996Y0065502D01*
X0089954Y0065805D01*
X0089905Y0066107D01*
X0089848Y0066408D01*
X0089783Y0066707D01*
X0089712Y0067005D01*
X0089633Y0067300D01*
X0089547Y0067594D01*
X0089454Y0067886D01*
X0089353Y0068175D01*
X0089246Y0068462D01*
X0089131Y0068746D01*
X0089010Y0069027D01*
X0088882Y0069305D01*
X0088747Y0069580D01*
X0088605Y0069851D01*
X0088457Y0070119D01*
X0088302Y0070383D01*
X0088141Y0070643D01*
X0087974Y0070899D01*
X0087800Y0071152D01*
X0087620Y0071399D01*
X0087434Y0071643D01*
X0087243Y0071881D01*
X0087045Y0072115D01*
X0086842Y0072344D01*
X0086633Y0072568D01*
X0086419Y0072787D01*
X0086199Y0073000D01*
X0085975Y0073208D01*
X0085745Y0073411D01*
X0085511Y0073607D01*
X0085271Y0073798D01*
X0085028Y0073983D01*
X0084779Y0074162D01*
X0084527Y0074335D01*
X0084270Y0074502D01*
X0084009Y0074662D01*
X0083744Y0074816D01*
X0083476Y0074963D01*
X0083204Y0075104D01*
X0082929Y0075238D01*
X0082650Y0075365D01*
X0082369Y0075486D01*
X0082084Y0075599D01*
X0081797Y0075705D01*
X0081508Y0075805D01*
X0081216Y0075897D01*
X0080922Y0075982D01*
X0080626Y0076060D01*
X0080328Y0076131D01*
X0080028Y0076194D01*
X0079727Y0076250D01*
X0079425Y0076298D01*
X0079122Y0076339D01*
X0078818Y0076373D01*
X0078513Y0076399D01*
X0078207Y0076418D01*
X0077901Y0076429D01*
X0077595Y0076433D01*
X0077289Y0076429D01*
X0076983Y0076418D01*
X0076677Y0076399D01*
X0076372Y0076373D01*
X0076068Y0076339D01*
X0075765Y0076298D01*
X0075463Y0076250D01*
X0075162Y0076194D01*
X0074862Y0076131D01*
X0074564Y0076060D01*
X0074268Y0075982D01*
X0073974Y0075897D01*
X0073682Y0075805D01*
X0073393Y0075705D01*
X0073106Y0075599D01*
X0072821Y0075486D01*
X0072540Y0075365D01*
X0072261Y0075238D01*
X0071986Y0075104D01*
X0071714Y0074963D01*
X0071446Y0074816D01*
X0071181Y0074662D01*
X0070920Y0074502D01*
X0070663Y0074335D01*
X0070411Y0074162D01*
X0070162Y0073983D01*
X0069919Y0073798D01*
X0069679Y0073607D01*
X0069445Y0073411D01*
X0069215Y0073208D01*
X0068991Y0073000D01*
X0068771Y0072787D01*
X0068557Y0072568D01*
X0068348Y0072344D01*
X0068145Y0072115D01*
X0067947Y0071881D01*
X0067756Y0071643D01*
X0067570Y0071399D01*
X0067390Y0071152D01*
X0067216Y0070899D01*
X0067049Y0070643D01*
X0066888Y0070383D01*
X0066733Y0070119D01*
X0066585Y0069851D01*
X0066443Y0069580D01*
X0066308Y0069305D01*
X0066180Y0069027D01*
X0066059Y0068746D01*
X0065944Y0068462D01*
X0065837Y0068175D01*
X0065736Y0067886D01*
X0065643Y0067594D01*
X0065557Y0067300D01*
X0065478Y0067005D01*
X0065407Y0066707D01*
X0065342Y0066408D01*
X0065285Y0066107D01*
X0065236Y0065805D01*
X0065194Y0065502D01*
X0065159Y0065197D01*
X0065132Y0064893D01*
X0065112Y0064587D01*
X0065100Y0064281D01*
X0065095Y0063975D01*
X0065098Y0063669D01*
X0065108Y0063363D01*
X0065126Y0063057D01*
X0065151Y0062752D01*
X0065184Y0062448D01*
X0065224Y0062144D01*
X0065271Y0061842D01*
X0065326Y0061541D01*
X0065388Y0061241D01*
X0065458Y0060943D01*
X0065535Y0060647D01*
X0065619Y0060352D01*
X0065710Y0060060D01*
X0065809Y0059770D01*
X0065914Y0059483D01*
X0066026Y0059198D01*
X0066146Y0058916D01*
X0066272Y0058637D01*
X0066405Y0058362D01*
X0066545Y0058089D01*
X0066691Y0057820D01*
X0066844Y0057555D01*
X0067004Y0057294D01*
X0067170Y0057037D01*
X0067342Y0056783D01*
X0067520Y0056534D01*
X0067704Y0056290D01*
X0067894Y0056050D01*
X0068090Y0055815D01*
X0068292Y0055584D01*
X0068499Y0055359D01*
X0068712Y0055139D01*
X0068930Y0054924D01*
X0069153Y0054715D01*
X0069381Y0054511D01*
X0069614Y0054312D01*
X0069852Y0054120D01*
X0070095Y0053933D01*
X0055095Y0053933D02*
X0055338Y0054120D01*
X0055576Y0054312D01*
X0055809Y0054511D01*
X0056037Y0054715D01*
X0056260Y0054924D01*
X0056478Y0055139D01*
X0056691Y0055359D01*
X0056898Y0055584D01*
X0057100Y0055815D01*
X0057296Y0056050D01*
X0057486Y0056290D01*
X0057670Y0056534D01*
X0057848Y0056783D01*
X0058020Y0057037D01*
X0058186Y0057294D01*
X0058346Y0057555D01*
X0058499Y0057820D01*
X0058645Y0058089D01*
X0058785Y0058362D01*
X0058918Y0058637D01*
X0059044Y0058916D01*
X0059164Y0059198D01*
X0059276Y0059483D01*
X0059381Y0059770D01*
X0059480Y0060060D01*
X0059571Y0060352D01*
X0059655Y0060647D01*
X0059732Y0060943D01*
X0059802Y0061241D01*
X0059864Y0061541D01*
X0059919Y0061842D01*
X0059966Y0062144D01*
X0060006Y0062448D01*
X0060039Y0062752D01*
X0060064Y0063057D01*
X0060082Y0063363D01*
X0060092Y0063669D01*
X0060095Y0063975D01*
X0060090Y0064281D01*
X0060078Y0064587D01*
X0060058Y0064893D01*
X0060031Y0065197D01*
X0059996Y0065502D01*
X0059954Y0065805D01*
X0059905Y0066107D01*
X0059848Y0066408D01*
X0059783Y0066707D01*
X0059712Y0067005D01*
X0059633Y0067300D01*
X0059547Y0067594D01*
X0059454Y0067886D01*
X0059353Y0068175D01*
X0059246Y0068462D01*
X0059131Y0068746D01*
X0059010Y0069027D01*
X0058882Y0069305D01*
X0058747Y0069580D01*
X0058605Y0069851D01*
X0058457Y0070119D01*
X0058302Y0070383D01*
X0058141Y0070643D01*
X0057974Y0070899D01*
X0057800Y0071152D01*
X0057620Y0071399D01*
X0057434Y0071643D01*
X0057243Y0071881D01*
X0057045Y0072115D01*
X0056842Y0072344D01*
X0056633Y0072568D01*
X0056419Y0072787D01*
X0056199Y0073000D01*
X0055975Y0073208D01*
X0055745Y0073411D01*
X0055511Y0073607D01*
X0055271Y0073798D01*
X0055028Y0073983D01*
X0054779Y0074162D01*
X0054527Y0074335D01*
X0054270Y0074502D01*
X0054009Y0074662D01*
X0053744Y0074816D01*
X0053476Y0074963D01*
X0053204Y0075104D01*
X0052929Y0075238D01*
X0052650Y0075365D01*
X0052369Y0075486D01*
X0052084Y0075599D01*
X0051797Y0075705D01*
X0051508Y0075805D01*
X0051216Y0075897D01*
X0050922Y0075982D01*
X0050626Y0076060D01*
X0050328Y0076131D01*
X0050028Y0076194D01*
X0049727Y0076250D01*
X0049425Y0076298D01*
X0049122Y0076339D01*
X0048818Y0076373D01*
X0048513Y0076399D01*
X0048207Y0076418D01*
X0047901Y0076429D01*
X0047595Y0076433D01*
X0047289Y0076429D01*
X0046983Y0076418D01*
X0046677Y0076399D01*
X0046372Y0076373D01*
X0046068Y0076339D01*
X0045765Y0076298D01*
X0045463Y0076250D01*
X0045162Y0076194D01*
X0044862Y0076131D01*
X0044564Y0076060D01*
X0044268Y0075982D01*
X0043974Y0075897D01*
X0043682Y0075805D01*
X0043393Y0075705D01*
X0043106Y0075599D01*
X0042821Y0075486D01*
X0042540Y0075365D01*
X0042261Y0075238D01*
X0041986Y0075104D01*
X0041714Y0074963D01*
X0041446Y0074816D01*
X0041181Y0074662D01*
X0040920Y0074502D01*
X0040663Y0074335D01*
X0040411Y0074162D01*
X0040162Y0073983D01*
X0039919Y0073798D01*
X0039679Y0073607D01*
X0039445Y0073411D01*
X0039215Y0073208D01*
X0038991Y0073000D01*
X0038771Y0072787D01*
X0038557Y0072568D01*
X0038348Y0072344D01*
X0038145Y0072115D01*
X0037947Y0071881D01*
X0037756Y0071643D01*
X0037570Y0071399D01*
X0037390Y0071152D01*
X0037216Y0070899D01*
X0037049Y0070643D01*
X0036888Y0070383D01*
X0036733Y0070119D01*
X0036585Y0069851D01*
X0036443Y0069580D01*
X0036308Y0069305D01*
X0036180Y0069027D01*
X0036059Y0068746D01*
X0035944Y0068462D01*
X0035837Y0068175D01*
X0035736Y0067886D01*
X0035643Y0067594D01*
X0035557Y0067300D01*
X0035478Y0067005D01*
X0035407Y0066707D01*
X0035342Y0066408D01*
X0035285Y0066107D01*
X0035236Y0065805D01*
X0035194Y0065502D01*
X0035159Y0065197D01*
X0035132Y0064893D01*
X0035112Y0064587D01*
X0035100Y0064281D01*
X0035095Y0063975D01*
X0035098Y0063669D01*
X0035108Y0063363D01*
X0035126Y0063057D01*
X0035151Y0062752D01*
X0035184Y0062448D01*
X0035224Y0062144D01*
X0035271Y0061842D01*
X0035326Y0061541D01*
X0035388Y0061241D01*
X0035458Y0060943D01*
X0035535Y0060647D01*
X0035619Y0060352D01*
X0035710Y0060060D01*
X0035809Y0059770D01*
X0035914Y0059483D01*
X0036026Y0059198D01*
X0036146Y0058916D01*
X0036272Y0058637D01*
X0036405Y0058362D01*
X0036545Y0058089D01*
X0036691Y0057820D01*
X0036844Y0057555D01*
X0037004Y0057294D01*
X0037170Y0057037D01*
X0037342Y0056783D01*
X0037520Y0056534D01*
X0037704Y0056290D01*
X0037894Y0056050D01*
X0038090Y0055815D01*
X0038292Y0055584D01*
X0038499Y0055359D01*
X0038712Y0055139D01*
X0038930Y0054924D01*
X0039153Y0054715D01*
X0039381Y0054511D01*
X0039614Y0054312D01*
X0039852Y0054120D01*
X0040095Y0053933D01*
D13*
X0037595Y0063933D02*
X0037598Y0064178D01*
X0037607Y0064424D01*
X0037622Y0064669D01*
X0037643Y0064913D01*
X0037670Y0065157D01*
X0037703Y0065400D01*
X0037742Y0065643D01*
X0037787Y0065884D01*
X0037838Y0066124D01*
X0037895Y0066363D01*
X0037957Y0066600D01*
X0038026Y0066836D01*
X0038100Y0067070D01*
X0038180Y0067302D01*
X0038265Y0067532D01*
X0038356Y0067760D01*
X0038453Y0067985D01*
X0038555Y0068209D01*
X0038663Y0068429D01*
X0038776Y0068647D01*
X0038894Y0068862D01*
X0039018Y0069074D01*
X0039146Y0069283D01*
X0039280Y0069489D01*
X0039419Y0069691D01*
X0039563Y0069890D01*
X0039712Y0070085D01*
X0039865Y0070277D01*
X0040023Y0070465D01*
X0040185Y0070649D01*
X0040353Y0070828D01*
X0040524Y0071004D01*
X0040700Y0071175D01*
X0040879Y0071343D01*
X0041063Y0071505D01*
X0041251Y0071663D01*
X0041443Y0071816D01*
X0041638Y0071965D01*
X0041837Y0072109D01*
X0042039Y0072248D01*
X0042245Y0072382D01*
X0042454Y0072510D01*
X0042666Y0072634D01*
X0042881Y0072752D01*
X0043099Y0072865D01*
X0043319Y0072973D01*
X0043543Y0073075D01*
X0043768Y0073172D01*
X0043996Y0073263D01*
X0044226Y0073348D01*
X0044458Y0073428D01*
X0044692Y0073502D01*
X0044928Y0073571D01*
X0045165Y0073633D01*
X0045404Y0073690D01*
X0045644Y0073741D01*
X0045885Y0073786D01*
X0046128Y0073825D01*
X0046371Y0073858D01*
X0046615Y0073885D01*
X0046859Y0073906D01*
X0047104Y0073921D01*
X0047350Y0073930D01*
X0047595Y0073933D01*
X0047840Y0073930D01*
X0048086Y0073921D01*
X0048331Y0073906D01*
X0048575Y0073885D01*
X0048819Y0073858D01*
X0049062Y0073825D01*
X0049305Y0073786D01*
X0049546Y0073741D01*
X0049786Y0073690D01*
X0050025Y0073633D01*
X0050262Y0073571D01*
X0050498Y0073502D01*
X0050732Y0073428D01*
X0050964Y0073348D01*
X0051194Y0073263D01*
X0051422Y0073172D01*
X0051647Y0073075D01*
X0051871Y0072973D01*
X0052091Y0072865D01*
X0052309Y0072752D01*
X0052524Y0072634D01*
X0052736Y0072510D01*
X0052945Y0072382D01*
X0053151Y0072248D01*
X0053353Y0072109D01*
X0053552Y0071965D01*
X0053747Y0071816D01*
X0053939Y0071663D01*
X0054127Y0071505D01*
X0054311Y0071343D01*
X0054490Y0071175D01*
X0054666Y0071004D01*
X0054837Y0070828D01*
X0055005Y0070649D01*
X0055167Y0070465D01*
X0055325Y0070277D01*
X0055478Y0070085D01*
X0055627Y0069890D01*
X0055771Y0069691D01*
X0055910Y0069489D01*
X0056044Y0069283D01*
X0056172Y0069074D01*
X0056296Y0068862D01*
X0056414Y0068647D01*
X0056527Y0068429D01*
X0056635Y0068209D01*
X0056737Y0067985D01*
X0056834Y0067760D01*
X0056925Y0067532D01*
X0057010Y0067302D01*
X0057090Y0067070D01*
X0057164Y0066836D01*
X0057233Y0066600D01*
X0057295Y0066363D01*
X0057352Y0066124D01*
X0057403Y0065884D01*
X0057448Y0065643D01*
X0057487Y0065400D01*
X0057520Y0065157D01*
X0057547Y0064913D01*
X0057568Y0064669D01*
X0057583Y0064424D01*
X0057592Y0064178D01*
X0057595Y0063933D01*
X0057592Y0063688D01*
X0057583Y0063442D01*
X0057568Y0063197D01*
X0057547Y0062953D01*
X0057520Y0062709D01*
X0057487Y0062466D01*
X0057448Y0062223D01*
X0057403Y0061982D01*
X0057352Y0061742D01*
X0057295Y0061503D01*
X0057233Y0061266D01*
X0057164Y0061030D01*
X0057090Y0060796D01*
X0057010Y0060564D01*
X0056925Y0060334D01*
X0056834Y0060106D01*
X0056737Y0059881D01*
X0056635Y0059657D01*
X0056527Y0059437D01*
X0056414Y0059219D01*
X0056296Y0059004D01*
X0056172Y0058792D01*
X0056044Y0058583D01*
X0055910Y0058377D01*
X0055771Y0058175D01*
X0055627Y0057976D01*
X0055478Y0057781D01*
X0055325Y0057589D01*
X0055167Y0057401D01*
X0055005Y0057217D01*
X0054837Y0057038D01*
X0054666Y0056862D01*
X0054490Y0056691D01*
X0054311Y0056523D01*
X0054127Y0056361D01*
X0053939Y0056203D01*
X0053747Y0056050D01*
X0053552Y0055901D01*
X0053353Y0055757D01*
X0053151Y0055618D01*
X0052945Y0055484D01*
X0052736Y0055356D01*
X0052524Y0055232D01*
X0052309Y0055114D01*
X0052091Y0055001D01*
X0051871Y0054893D01*
X0051647Y0054791D01*
X0051422Y0054694D01*
X0051194Y0054603D01*
X0050964Y0054518D01*
X0050732Y0054438D01*
X0050498Y0054364D01*
X0050262Y0054295D01*
X0050025Y0054233D01*
X0049786Y0054176D01*
X0049546Y0054125D01*
X0049305Y0054080D01*
X0049062Y0054041D01*
X0048819Y0054008D01*
X0048575Y0053981D01*
X0048331Y0053960D01*
X0048086Y0053945D01*
X0047840Y0053936D01*
X0047595Y0053933D01*
X0047350Y0053936D01*
X0047104Y0053945D01*
X0046859Y0053960D01*
X0046615Y0053981D01*
X0046371Y0054008D01*
X0046128Y0054041D01*
X0045885Y0054080D01*
X0045644Y0054125D01*
X0045404Y0054176D01*
X0045165Y0054233D01*
X0044928Y0054295D01*
X0044692Y0054364D01*
X0044458Y0054438D01*
X0044226Y0054518D01*
X0043996Y0054603D01*
X0043768Y0054694D01*
X0043543Y0054791D01*
X0043319Y0054893D01*
X0043099Y0055001D01*
X0042881Y0055114D01*
X0042666Y0055232D01*
X0042454Y0055356D01*
X0042245Y0055484D01*
X0042039Y0055618D01*
X0041837Y0055757D01*
X0041638Y0055901D01*
X0041443Y0056050D01*
X0041251Y0056203D01*
X0041063Y0056361D01*
X0040879Y0056523D01*
X0040700Y0056691D01*
X0040524Y0056862D01*
X0040353Y0057038D01*
X0040185Y0057217D01*
X0040023Y0057401D01*
X0039865Y0057589D01*
X0039712Y0057781D01*
X0039563Y0057976D01*
X0039419Y0058175D01*
X0039280Y0058377D01*
X0039146Y0058583D01*
X0039018Y0058792D01*
X0038894Y0059004D01*
X0038776Y0059219D01*
X0038663Y0059437D01*
X0038555Y0059657D01*
X0038453Y0059881D01*
X0038356Y0060106D01*
X0038265Y0060334D01*
X0038180Y0060564D01*
X0038100Y0060796D01*
X0038026Y0061030D01*
X0037957Y0061266D01*
X0037895Y0061503D01*
X0037838Y0061742D01*
X0037787Y0061982D01*
X0037742Y0062223D01*
X0037703Y0062466D01*
X0037670Y0062709D01*
X0037643Y0062953D01*
X0037622Y0063197D01*
X0037607Y0063442D01*
X0037598Y0063688D01*
X0037595Y0063933D01*
X0067595Y0063933D02*
X0067598Y0064178D01*
X0067607Y0064424D01*
X0067622Y0064669D01*
X0067643Y0064913D01*
X0067670Y0065157D01*
X0067703Y0065400D01*
X0067742Y0065643D01*
X0067787Y0065884D01*
X0067838Y0066124D01*
X0067895Y0066363D01*
X0067957Y0066600D01*
X0068026Y0066836D01*
X0068100Y0067070D01*
X0068180Y0067302D01*
X0068265Y0067532D01*
X0068356Y0067760D01*
X0068453Y0067985D01*
X0068555Y0068209D01*
X0068663Y0068429D01*
X0068776Y0068647D01*
X0068894Y0068862D01*
X0069018Y0069074D01*
X0069146Y0069283D01*
X0069280Y0069489D01*
X0069419Y0069691D01*
X0069563Y0069890D01*
X0069712Y0070085D01*
X0069865Y0070277D01*
X0070023Y0070465D01*
X0070185Y0070649D01*
X0070353Y0070828D01*
X0070524Y0071004D01*
X0070700Y0071175D01*
X0070879Y0071343D01*
X0071063Y0071505D01*
X0071251Y0071663D01*
X0071443Y0071816D01*
X0071638Y0071965D01*
X0071837Y0072109D01*
X0072039Y0072248D01*
X0072245Y0072382D01*
X0072454Y0072510D01*
X0072666Y0072634D01*
X0072881Y0072752D01*
X0073099Y0072865D01*
X0073319Y0072973D01*
X0073543Y0073075D01*
X0073768Y0073172D01*
X0073996Y0073263D01*
X0074226Y0073348D01*
X0074458Y0073428D01*
X0074692Y0073502D01*
X0074928Y0073571D01*
X0075165Y0073633D01*
X0075404Y0073690D01*
X0075644Y0073741D01*
X0075885Y0073786D01*
X0076128Y0073825D01*
X0076371Y0073858D01*
X0076615Y0073885D01*
X0076859Y0073906D01*
X0077104Y0073921D01*
X0077350Y0073930D01*
X0077595Y0073933D01*
X0077840Y0073930D01*
X0078086Y0073921D01*
X0078331Y0073906D01*
X0078575Y0073885D01*
X0078819Y0073858D01*
X0079062Y0073825D01*
X0079305Y0073786D01*
X0079546Y0073741D01*
X0079786Y0073690D01*
X0080025Y0073633D01*
X0080262Y0073571D01*
X0080498Y0073502D01*
X0080732Y0073428D01*
X0080964Y0073348D01*
X0081194Y0073263D01*
X0081422Y0073172D01*
X0081647Y0073075D01*
X0081871Y0072973D01*
X0082091Y0072865D01*
X0082309Y0072752D01*
X0082524Y0072634D01*
X0082736Y0072510D01*
X0082945Y0072382D01*
X0083151Y0072248D01*
X0083353Y0072109D01*
X0083552Y0071965D01*
X0083747Y0071816D01*
X0083939Y0071663D01*
X0084127Y0071505D01*
X0084311Y0071343D01*
X0084490Y0071175D01*
X0084666Y0071004D01*
X0084837Y0070828D01*
X0085005Y0070649D01*
X0085167Y0070465D01*
X0085325Y0070277D01*
X0085478Y0070085D01*
X0085627Y0069890D01*
X0085771Y0069691D01*
X0085910Y0069489D01*
X0086044Y0069283D01*
X0086172Y0069074D01*
X0086296Y0068862D01*
X0086414Y0068647D01*
X0086527Y0068429D01*
X0086635Y0068209D01*
X0086737Y0067985D01*
X0086834Y0067760D01*
X0086925Y0067532D01*
X0087010Y0067302D01*
X0087090Y0067070D01*
X0087164Y0066836D01*
X0087233Y0066600D01*
X0087295Y0066363D01*
X0087352Y0066124D01*
X0087403Y0065884D01*
X0087448Y0065643D01*
X0087487Y0065400D01*
X0087520Y0065157D01*
X0087547Y0064913D01*
X0087568Y0064669D01*
X0087583Y0064424D01*
X0087592Y0064178D01*
X0087595Y0063933D01*
X0087592Y0063688D01*
X0087583Y0063442D01*
X0087568Y0063197D01*
X0087547Y0062953D01*
X0087520Y0062709D01*
X0087487Y0062466D01*
X0087448Y0062223D01*
X0087403Y0061982D01*
X0087352Y0061742D01*
X0087295Y0061503D01*
X0087233Y0061266D01*
X0087164Y0061030D01*
X0087090Y0060796D01*
X0087010Y0060564D01*
X0086925Y0060334D01*
X0086834Y0060106D01*
X0086737Y0059881D01*
X0086635Y0059657D01*
X0086527Y0059437D01*
X0086414Y0059219D01*
X0086296Y0059004D01*
X0086172Y0058792D01*
X0086044Y0058583D01*
X0085910Y0058377D01*
X0085771Y0058175D01*
X0085627Y0057976D01*
X0085478Y0057781D01*
X0085325Y0057589D01*
X0085167Y0057401D01*
X0085005Y0057217D01*
X0084837Y0057038D01*
X0084666Y0056862D01*
X0084490Y0056691D01*
X0084311Y0056523D01*
X0084127Y0056361D01*
X0083939Y0056203D01*
X0083747Y0056050D01*
X0083552Y0055901D01*
X0083353Y0055757D01*
X0083151Y0055618D01*
X0082945Y0055484D01*
X0082736Y0055356D01*
X0082524Y0055232D01*
X0082309Y0055114D01*
X0082091Y0055001D01*
X0081871Y0054893D01*
X0081647Y0054791D01*
X0081422Y0054694D01*
X0081194Y0054603D01*
X0080964Y0054518D01*
X0080732Y0054438D01*
X0080498Y0054364D01*
X0080262Y0054295D01*
X0080025Y0054233D01*
X0079786Y0054176D01*
X0079546Y0054125D01*
X0079305Y0054080D01*
X0079062Y0054041D01*
X0078819Y0054008D01*
X0078575Y0053981D01*
X0078331Y0053960D01*
X0078086Y0053945D01*
X0077840Y0053936D01*
X0077595Y0053933D01*
X0077350Y0053936D01*
X0077104Y0053945D01*
X0076859Y0053960D01*
X0076615Y0053981D01*
X0076371Y0054008D01*
X0076128Y0054041D01*
X0075885Y0054080D01*
X0075644Y0054125D01*
X0075404Y0054176D01*
X0075165Y0054233D01*
X0074928Y0054295D01*
X0074692Y0054364D01*
X0074458Y0054438D01*
X0074226Y0054518D01*
X0073996Y0054603D01*
X0073768Y0054694D01*
X0073543Y0054791D01*
X0073319Y0054893D01*
X0073099Y0055001D01*
X0072881Y0055114D01*
X0072666Y0055232D01*
X0072454Y0055356D01*
X0072245Y0055484D01*
X0072039Y0055618D01*
X0071837Y0055757D01*
X0071638Y0055901D01*
X0071443Y0056050D01*
X0071251Y0056203D01*
X0071063Y0056361D01*
X0070879Y0056523D01*
X0070700Y0056691D01*
X0070524Y0056862D01*
X0070353Y0057038D01*
X0070185Y0057217D01*
X0070023Y0057401D01*
X0069865Y0057589D01*
X0069712Y0057781D01*
X0069563Y0057976D01*
X0069419Y0058175D01*
X0069280Y0058377D01*
X0069146Y0058583D01*
X0069018Y0058792D01*
X0068894Y0059004D01*
X0068776Y0059219D01*
X0068663Y0059437D01*
X0068555Y0059657D01*
X0068453Y0059881D01*
X0068356Y0060106D01*
X0068265Y0060334D01*
X0068180Y0060564D01*
X0068100Y0060796D01*
X0068026Y0061030D01*
X0067957Y0061266D01*
X0067895Y0061503D01*
X0067838Y0061742D01*
X0067787Y0061982D01*
X0067742Y0062223D01*
X0067703Y0062466D01*
X0067670Y0062709D01*
X0067643Y0062953D01*
X0067622Y0063197D01*
X0067607Y0063442D01*
X0067598Y0063688D01*
X0067595Y0063933D01*
X0102595Y0063933D02*
X0102598Y0064178D01*
X0102607Y0064424D01*
X0102622Y0064669D01*
X0102643Y0064913D01*
X0102670Y0065157D01*
X0102703Y0065400D01*
X0102742Y0065643D01*
X0102787Y0065884D01*
X0102838Y0066124D01*
X0102895Y0066363D01*
X0102957Y0066600D01*
X0103026Y0066836D01*
X0103100Y0067070D01*
X0103180Y0067302D01*
X0103265Y0067532D01*
X0103356Y0067760D01*
X0103453Y0067985D01*
X0103555Y0068209D01*
X0103663Y0068429D01*
X0103776Y0068647D01*
X0103894Y0068862D01*
X0104018Y0069074D01*
X0104146Y0069283D01*
X0104280Y0069489D01*
X0104419Y0069691D01*
X0104563Y0069890D01*
X0104712Y0070085D01*
X0104865Y0070277D01*
X0105023Y0070465D01*
X0105185Y0070649D01*
X0105353Y0070828D01*
X0105524Y0071004D01*
X0105700Y0071175D01*
X0105879Y0071343D01*
X0106063Y0071505D01*
X0106251Y0071663D01*
X0106443Y0071816D01*
X0106638Y0071965D01*
X0106837Y0072109D01*
X0107039Y0072248D01*
X0107245Y0072382D01*
X0107454Y0072510D01*
X0107666Y0072634D01*
X0107881Y0072752D01*
X0108099Y0072865D01*
X0108319Y0072973D01*
X0108543Y0073075D01*
X0108768Y0073172D01*
X0108996Y0073263D01*
X0109226Y0073348D01*
X0109458Y0073428D01*
X0109692Y0073502D01*
X0109928Y0073571D01*
X0110165Y0073633D01*
X0110404Y0073690D01*
X0110644Y0073741D01*
X0110885Y0073786D01*
X0111128Y0073825D01*
X0111371Y0073858D01*
X0111615Y0073885D01*
X0111859Y0073906D01*
X0112104Y0073921D01*
X0112350Y0073930D01*
X0112595Y0073933D01*
X0112840Y0073930D01*
X0113086Y0073921D01*
X0113331Y0073906D01*
X0113575Y0073885D01*
X0113819Y0073858D01*
X0114062Y0073825D01*
X0114305Y0073786D01*
X0114546Y0073741D01*
X0114786Y0073690D01*
X0115025Y0073633D01*
X0115262Y0073571D01*
X0115498Y0073502D01*
X0115732Y0073428D01*
X0115964Y0073348D01*
X0116194Y0073263D01*
X0116422Y0073172D01*
X0116647Y0073075D01*
X0116871Y0072973D01*
X0117091Y0072865D01*
X0117309Y0072752D01*
X0117524Y0072634D01*
X0117736Y0072510D01*
X0117945Y0072382D01*
X0118151Y0072248D01*
X0118353Y0072109D01*
X0118552Y0071965D01*
X0118747Y0071816D01*
X0118939Y0071663D01*
X0119127Y0071505D01*
X0119311Y0071343D01*
X0119490Y0071175D01*
X0119666Y0071004D01*
X0119837Y0070828D01*
X0120005Y0070649D01*
X0120167Y0070465D01*
X0120325Y0070277D01*
X0120478Y0070085D01*
X0120627Y0069890D01*
X0120771Y0069691D01*
X0120910Y0069489D01*
X0121044Y0069283D01*
X0121172Y0069074D01*
X0121296Y0068862D01*
X0121414Y0068647D01*
X0121527Y0068429D01*
X0121635Y0068209D01*
X0121737Y0067985D01*
X0121834Y0067760D01*
X0121925Y0067532D01*
X0122010Y0067302D01*
X0122090Y0067070D01*
X0122164Y0066836D01*
X0122233Y0066600D01*
X0122295Y0066363D01*
X0122352Y0066124D01*
X0122403Y0065884D01*
X0122448Y0065643D01*
X0122487Y0065400D01*
X0122520Y0065157D01*
X0122547Y0064913D01*
X0122568Y0064669D01*
X0122583Y0064424D01*
X0122592Y0064178D01*
X0122595Y0063933D01*
X0122592Y0063688D01*
X0122583Y0063442D01*
X0122568Y0063197D01*
X0122547Y0062953D01*
X0122520Y0062709D01*
X0122487Y0062466D01*
X0122448Y0062223D01*
X0122403Y0061982D01*
X0122352Y0061742D01*
X0122295Y0061503D01*
X0122233Y0061266D01*
X0122164Y0061030D01*
X0122090Y0060796D01*
X0122010Y0060564D01*
X0121925Y0060334D01*
X0121834Y0060106D01*
X0121737Y0059881D01*
X0121635Y0059657D01*
X0121527Y0059437D01*
X0121414Y0059219D01*
X0121296Y0059004D01*
X0121172Y0058792D01*
X0121044Y0058583D01*
X0120910Y0058377D01*
X0120771Y0058175D01*
X0120627Y0057976D01*
X0120478Y0057781D01*
X0120325Y0057589D01*
X0120167Y0057401D01*
X0120005Y0057217D01*
X0119837Y0057038D01*
X0119666Y0056862D01*
X0119490Y0056691D01*
X0119311Y0056523D01*
X0119127Y0056361D01*
X0118939Y0056203D01*
X0118747Y0056050D01*
X0118552Y0055901D01*
X0118353Y0055757D01*
X0118151Y0055618D01*
X0117945Y0055484D01*
X0117736Y0055356D01*
X0117524Y0055232D01*
X0117309Y0055114D01*
X0117091Y0055001D01*
X0116871Y0054893D01*
X0116647Y0054791D01*
X0116422Y0054694D01*
X0116194Y0054603D01*
X0115964Y0054518D01*
X0115732Y0054438D01*
X0115498Y0054364D01*
X0115262Y0054295D01*
X0115025Y0054233D01*
X0114786Y0054176D01*
X0114546Y0054125D01*
X0114305Y0054080D01*
X0114062Y0054041D01*
X0113819Y0054008D01*
X0113575Y0053981D01*
X0113331Y0053960D01*
X0113086Y0053945D01*
X0112840Y0053936D01*
X0112595Y0053933D01*
X0112350Y0053936D01*
X0112104Y0053945D01*
X0111859Y0053960D01*
X0111615Y0053981D01*
X0111371Y0054008D01*
X0111128Y0054041D01*
X0110885Y0054080D01*
X0110644Y0054125D01*
X0110404Y0054176D01*
X0110165Y0054233D01*
X0109928Y0054295D01*
X0109692Y0054364D01*
X0109458Y0054438D01*
X0109226Y0054518D01*
X0108996Y0054603D01*
X0108768Y0054694D01*
X0108543Y0054791D01*
X0108319Y0054893D01*
X0108099Y0055001D01*
X0107881Y0055114D01*
X0107666Y0055232D01*
X0107454Y0055356D01*
X0107245Y0055484D01*
X0107039Y0055618D01*
X0106837Y0055757D01*
X0106638Y0055901D01*
X0106443Y0056050D01*
X0106251Y0056203D01*
X0106063Y0056361D01*
X0105879Y0056523D01*
X0105700Y0056691D01*
X0105524Y0056862D01*
X0105353Y0057038D01*
X0105185Y0057217D01*
X0105023Y0057401D01*
X0104865Y0057589D01*
X0104712Y0057781D01*
X0104563Y0057976D01*
X0104419Y0058175D01*
X0104280Y0058377D01*
X0104146Y0058583D01*
X0104018Y0058792D01*
X0103894Y0059004D01*
X0103776Y0059219D01*
X0103663Y0059437D01*
X0103555Y0059657D01*
X0103453Y0059881D01*
X0103356Y0060106D01*
X0103265Y0060334D01*
X0103180Y0060564D01*
X0103100Y0060796D01*
X0103026Y0061030D01*
X0102957Y0061266D01*
X0102895Y0061503D01*
X0102838Y0061742D01*
X0102787Y0061982D01*
X0102742Y0062223D01*
X0102703Y0062466D01*
X0102670Y0062709D01*
X0102643Y0062953D01*
X0102622Y0063197D01*
X0102607Y0063442D01*
X0102598Y0063688D01*
X0102595Y0063933D01*
X0132595Y0063933D02*
X0132598Y0064178D01*
X0132607Y0064424D01*
X0132622Y0064669D01*
X0132643Y0064913D01*
X0132670Y0065157D01*
X0132703Y0065400D01*
X0132742Y0065643D01*
X0132787Y0065884D01*
X0132838Y0066124D01*
X0132895Y0066363D01*
X0132957Y0066600D01*
X0133026Y0066836D01*
X0133100Y0067070D01*
X0133180Y0067302D01*
X0133265Y0067532D01*
X0133356Y0067760D01*
X0133453Y0067985D01*
X0133555Y0068209D01*
X0133663Y0068429D01*
X0133776Y0068647D01*
X0133894Y0068862D01*
X0134018Y0069074D01*
X0134146Y0069283D01*
X0134280Y0069489D01*
X0134419Y0069691D01*
X0134563Y0069890D01*
X0134712Y0070085D01*
X0134865Y0070277D01*
X0135023Y0070465D01*
X0135185Y0070649D01*
X0135353Y0070828D01*
X0135524Y0071004D01*
X0135700Y0071175D01*
X0135879Y0071343D01*
X0136063Y0071505D01*
X0136251Y0071663D01*
X0136443Y0071816D01*
X0136638Y0071965D01*
X0136837Y0072109D01*
X0137039Y0072248D01*
X0137245Y0072382D01*
X0137454Y0072510D01*
X0137666Y0072634D01*
X0137881Y0072752D01*
X0138099Y0072865D01*
X0138319Y0072973D01*
X0138543Y0073075D01*
X0138768Y0073172D01*
X0138996Y0073263D01*
X0139226Y0073348D01*
X0139458Y0073428D01*
X0139692Y0073502D01*
X0139928Y0073571D01*
X0140165Y0073633D01*
X0140404Y0073690D01*
X0140644Y0073741D01*
X0140885Y0073786D01*
X0141128Y0073825D01*
X0141371Y0073858D01*
X0141615Y0073885D01*
X0141859Y0073906D01*
X0142104Y0073921D01*
X0142350Y0073930D01*
X0142595Y0073933D01*
X0142840Y0073930D01*
X0143086Y0073921D01*
X0143331Y0073906D01*
X0143575Y0073885D01*
X0143819Y0073858D01*
X0144062Y0073825D01*
X0144305Y0073786D01*
X0144546Y0073741D01*
X0144786Y0073690D01*
X0145025Y0073633D01*
X0145262Y0073571D01*
X0145498Y0073502D01*
X0145732Y0073428D01*
X0145964Y0073348D01*
X0146194Y0073263D01*
X0146422Y0073172D01*
X0146647Y0073075D01*
X0146871Y0072973D01*
X0147091Y0072865D01*
X0147309Y0072752D01*
X0147524Y0072634D01*
X0147736Y0072510D01*
X0147945Y0072382D01*
X0148151Y0072248D01*
X0148353Y0072109D01*
X0148552Y0071965D01*
X0148747Y0071816D01*
X0148939Y0071663D01*
X0149127Y0071505D01*
X0149311Y0071343D01*
X0149490Y0071175D01*
X0149666Y0071004D01*
X0149837Y0070828D01*
X0150005Y0070649D01*
X0150167Y0070465D01*
X0150325Y0070277D01*
X0150478Y0070085D01*
X0150627Y0069890D01*
X0150771Y0069691D01*
X0150910Y0069489D01*
X0151044Y0069283D01*
X0151172Y0069074D01*
X0151296Y0068862D01*
X0151414Y0068647D01*
X0151527Y0068429D01*
X0151635Y0068209D01*
X0151737Y0067985D01*
X0151834Y0067760D01*
X0151925Y0067532D01*
X0152010Y0067302D01*
X0152090Y0067070D01*
X0152164Y0066836D01*
X0152233Y0066600D01*
X0152295Y0066363D01*
X0152352Y0066124D01*
X0152403Y0065884D01*
X0152448Y0065643D01*
X0152487Y0065400D01*
X0152520Y0065157D01*
X0152547Y0064913D01*
X0152568Y0064669D01*
X0152583Y0064424D01*
X0152592Y0064178D01*
X0152595Y0063933D01*
X0152592Y0063688D01*
X0152583Y0063442D01*
X0152568Y0063197D01*
X0152547Y0062953D01*
X0152520Y0062709D01*
X0152487Y0062466D01*
X0152448Y0062223D01*
X0152403Y0061982D01*
X0152352Y0061742D01*
X0152295Y0061503D01*
X0152233Y0061266D01*
X0152164Y0061030D01*
X0152090Y0060796D01*
X0152010Y0060564D01*
X0151925Y0060334D01*
X0151834Y0060106D01*
X0151737Y0059881D01*
X0151635Y0059657D01*
X0151527Y0059437D01*
X0151414Y0059219D01*
X0151296Y0059004D01*
X0151172Y0058792D01*
X0151044Y0058583D01*
X0150910Y0058377D01*
X0150771Y0058175D01*
X0150627Y0057976D01*
X0150478Y0057781D01*
X0150325Y0057589D01*
X0150167Y0057401D01*
X0150005Y0057217D01*
X0149837Y0057038D01*
X0149666Y0056862D01*
X0149490Y0056691D01*
X0149311Y0056523D01*
X0149127Y0056361D01*
X0148939Y0056203D01*
X0148747Y0056050D01*
X0148552Y0055901D01*
X0148353Y0055757D01*
X0148151Y0055618D01*
X0147945Y0055484D01*
X0147736Y0055356D01*
X0147524Y0055232D01*
X0147309Y0055114D01*
X0147091Y0055001D01*
X0146871Y0054893D01*
X0146647Y0054791D01*
X0146422Y0054694D01*
X0146194Y0054603D01*
X0145964Y0054518D01*
X0145732Y0054438D01*
X0145498Y0054364D01*
X0145262Y0054295D01*
X0145025Y0054233D01*
X0144786Y0054176D01*
X0144546Y0054125D01*
X0144305Y0054080D01*
X0144062Y0054041D01*
X0143819Y0054008D01*
X0143575Y0053981D01*
X0143331Y0053960D01*
X0143086Y0053945D01*
X0142840Y0053936D01*
X0142595Y0053933D01*
X0142350Y0053936D01*
X0142104Y0053945D01*
X0141859Y0053960D01*
X0141615Y0053981D01*
X0141371Y0054008D01*
X0141128Y0054041D01*
X0140885Y0054080D01*
X0140644Y0054125D01*
X0140404Y0054176D01*
X0140165Y0054233D01*
X0139928Y0054295D01*
X0139692Y0054364D01*
X0139458Y0054438D01*
X0139226Y0054518D01*
X0138996Y0054603D01*
X0138768Y0054694D01*
X0138543Y0054791D01*
X0138319Y0054893D01*
X0138099Y0055001D01*
X0137881Y0055114D01*
X0137666Y0055232D01*
X0137454Y0055356D01*
X0137245Y0055484D01*
X0137039Y0055618D01*
X0136837Y0055757D01*
X0136638Y0055901D01*
X0136443Y0056050D01*
X0136251Y0056203D01*
X0136063Y0056361D01*
X0135879Y0056523D01*
X0135700Y0056691D01*
X0135524Y0056862D01*
X0135353Y0057038D01*
X0135185Y0057217D01*
X0135023Y0057401D01*
X0134865Y0057589D01*
X0134712Y0057781D01*
X0134563Y0057976D01*
X0134419Y0058175D01*
X0134280Y0058377D01*
X0134146Y0058583D01*
X0134018Y0058792D01*
X0133894Y0059004D01*
X0133776Y0059219D01*
X0133663Y0059437D01*
X0133555Y0059657D01*
X0133453Y0059881D01*
X0133356Y0060106D01*
X0133265Y0060334D01*
X0133180Y0060564D01*
X0133100Y0060796D01*
X0133026Y0061030D01*
X0132957Y0061266D01*
X0132895Y0061503D01*
X0132838Y0061742D01*
X0132787Y0061982D01*
X0132742Y0062223D01*
X0132703Y0062466D01*
X0132670Y0062709D01*
X0132643Y0062953D01*
X0132622Y0063197D01*
X0132607Y0063442D01*
X0132598Y0063688D01*
X0132595Y0063933D01*
X0109489Y0084736D02*
X0107648Y0086576D01*
X0108569Y0087496D01*
X0109182Y0087496D01*
X0109795Y0086883D01*
X0109795Y0086269D01*
X0108875Y0085349D01*
X0109489Y0085963D02*
X0110715Y0085963D01*
X0111572Y0086820D02*
X0112799Y0088046D01*
X0112185Y0087433D02*
X0110345Y0089273D01*
X0110345Y0088046D01*
X0077492Y0087740D02*
X0076879Y0087126D01*
X0076265Y0087126D01*
X0076265Y0088353D02*
X0076572Y0088660D01*
X0077185Y0088660D01*
X0077492Y0088353D01*
X0077492Y0087740D01*
X0076572Y0088660D02*
X0076572Y0089273D01*
X0076265Y0089580D01*
X0075652Y0089580D01*
X0075039Y0088966D01*
X0075039Y0088353D01*
X0074182Y0087496D02*
X0074795Y0086883D01*
X0074795Y0086269D01*
X0073875Y0085349D01*
X0074489Y0084736D02*
X0072648Y0086576D01*
X0073569Y0087496D01*
X0074182Y0087496D01*
X0074489Y0085963D02*
X0075715Y0085963D01*
X0047799Y0088046D02*
X0046572Y0086820D01*
X0046572Y0089273D01*
X0046265Y0089580D01*
X0045652Y0089580D01*
X0045039Y0088966D01*
X0045039Y0088353D01*
X0044182Y0087496D02*
X0044795Y0086883D01*
X0044795Y0086269D01*
X0043875Y0085349D01*
X0044489Y0084736D02*
X0042648Y0086576D01*
X0043569Y0087496D01*
X0044182Y0087496D01*
X0044489Y0085963D02*
X0045715Y0085963D01*
X0226211Y0077731D02*
X0228051Y0079571D01*
X0228971Y0078651D01*
X0228971Y0078037D01*
X0228358Y0077424D01*
X0227744Y0077424D01*
X0226824Y0078344D01*
X0227438Y0077731D02*
X0227438Y0076504D01*
X0229214Y0076567D02*
X0230441Y0075341D01*
X0231055Y0076567D02*
X0229214Y0074727D01*
X0229214Y0076567D02*
X0231055Y0076567D01*
X0227595Y0063933D02*
X0227598Y0064178D01*
X0227607Y0064424D01*
X0227622Y0064669D01*
X0227643Y0064913D01*
X0227670Y0065157D01*
X0227703Y0065400D01*
X0227742Y0065643D01*
X0227787Y0065884D01*
X0227838Y0066124D01*
X0227895Y0066363D01*
X0227957Y0066600D01*
X0228026Y0066836D01*
X0228100Y0067070D01*
X0228180Y0067302D01*
X0228265Y0067532D01*
X0228356Y0067760D01*
X0228453Y0067985D01*
X0228555Y0068209D01*
X0228663Y0068429D01*
X0228776Y0068647D01*
X0228894Y0068862D01*
X0229018Y0069074D01*
X0229146Y0069283D01*
X0229280Y0069489D01*
X0229419Y0069691D01*
X0229563Y0069890D01*
X0229712Y0070085D01*
X0229865Y0070277D01*
X0230023Y0070465D01*
X0230185Y0070649D01*
X0230353Y0070828D01*
X0230524Y0071004D01*
X0230700Y0071175D01*
X0230879Y0071343D01*
X0231063Y0071505D01*
X0231251Y0071663D01*
X0231443Y0071816D01*
X0231638Y0071965D01*
X0231837Y0072109D01*
X0232039Y0072248D01*
X0232245Y0072382D01*
X0232454Y0072510D01*
X0232666Y0072634D01*
X0232881Y0072752D01*
X0233099Y0072865D01*
X0233319Y0072973D01*
X0233543Y0073075D01*
X0233768Y0073172D01*
X0233996Y0073263D01*
X0234226Y0073348D01*
X0234458Y0073428D01*
X0234692Y0073502D01*
X0234928Y0073571D01*
X0235165Y0073633D01*
X0235404Y0073690D01*
X0235644Y0073741D01*
X0235885Y0073786D01*
X0236128Y0073825D01*
X0236371Y0073858D01*
X0236615Y0073885D01*
X0236859Y0073906D01*
X0237104Y0073921D01*
X0237350Y0073930D01*
X0237595Y0073933D01*
X0237840Y0073930D01*
X0238086Y0073921D01*
X0238331Y0073906D01*
X0238575Y0073885D01*
X0238819Y0073858D01*
X0239062Y0073825D01*
X0239305Y0073786D01*
X0239546Y0073741D01*
X0239786Y0073690D01*
X0240025Y0073633D01*
X0240262Y0073571D01*
X0240498Y0073502D01*
X0240732Y0073428D01*
X0240964Y0073348D01*
X0241194Y0073263D01*
X0241422Y0073172D01*
X0241647Y0073075D01*
X0241871Y0072973D01*
X0242091Y0072865D01*
X0242309Y0072752D01*
X0242524Y0072634D01*
X0242736Y0072510D01*
X0242945Y0072382D01*
X0243151Y0072248D01*
X0243353Y0072109D01*
X0243552Y0071965D01*
X0243747Y0071816D01*
X0243939Y0071663D01*
X0244127Y0071505D01*
X0244311Y0071343D01*
X0244490Y0071175D01*
X0244666Y0071004D01*
X0244837Y0070828D01*
X0245005Y0070649D01*
X0245167Y0070465D01*
X0245325Y0070277D01*
X0245478Y0070085D01*
X0245627Y0069890D01*
X0245771Y0069691D01*
X0245910Y0069489D01*
X0246044Y0069283D01*
X0246172Y0069074D01*
X0246296Y0068862D01*
X0246414Y0068647D01*
X0246527Y0068429D01*
X0246635Y0068209D01*
X0246737Y0067985D01*
X0246834Y0067760D01*
X0246925Y0067532D01*
X0247010Y0067302D01*
X0247090Y0067070D01*
X0247164Y0066836D01*
X0247233Y0066600D01*
X0247295Y0066363D01*
X0247352Y0066124D01*
X0247403Y0065884D01*
X0247448Y0065643D01*
X0247487Y0065400D01*
X0247520Y0065157D01*
X0247547Y0064913D01*
X0247568Y0064669D01*
X0247583Y0064424D01*
X0247592Y0064178D01*
X0247595Y0063933D01*
X0247592Y0063688D01*
X0247583Y0063442D01*
X0247568Y0063197D01*
X0247547Y0062953D01*
X0247520Y0062709D01*
X0247487Y0062466D01*
X0247448Y0062223D01*
X0247403Y0061982D01*
X0247352Y0061742D01*
X0247295Y0061503D01*
X0247233Y0061266D01*
X0247164Y0061030D01*
X0247090Y0060796D01*
X0247010Y0060564D01*
X0246925Y0060334D01*
X0246834Y0060106D01*
X0246737Y0059881D01*
X0246635Y0059657D01*
X0246527Y0059437D01*
X0246414Y0059219D01*
X0246296Y0059004D01*
X0246172Y0058792D01*
X0246044Y0058583D01*
X0245910Y0058377D01*
X0245771Y0058175D01*
X0245627Y0057976D01*
X0245478Y0057781D01*
X0245325Y0057589D01*
X0245167Y0057401D01*
X0245005Y0057217D01*
X0244837Y0057038D01*
X0244666Y0056862D01*
X0244490Y0056691D01*
X0244311Y0056523D01*
X0244127Y0056361D01*
X0243939Y0056203D01*
X0243747Y0056050D01*
X0243552Y0055901D01*
X0243353Y0055757D01*
X0243151Y0055618D01*
X0242945Y0055484D01*
X0242736Y0055356D01*
X0242524Y0055232D01*
X0242309Y0055114D01*
X0242091Y0055001D01*
X0241871Y0054893D01*
X0241647Y0054791D01*
X0241422Y0054694D01*
X0241194Y0054603D01*
X0240964Y0054518D01*
X0240732Y0054438D01*
X0240498Y0054364D01*
X0240262Y0054295D01*
X0240025Y0054233D01*
X0239786Y0054176D01*
X0239546Y0054125D01*
X0239305Y0054080D01*
X0239062Y0054041D01*
X0238819Y0054008D01*
X0238575Y0053981D01*
X0238331Y0053960D01*
X0238086Y0053945D01*
X0237840Y0053936D01*
X0237595Y0053933D01*
X0237350Y0053936D01*
X0237104Y0053945D01*
X0236859Y0053960D01*
X0236615Y0053981D01*
X0236371Y0054008D01*
X0236128Y0054041D01*
X0235885Y0054080D01*
X0235644Y0054125D01*
X0235404Y0054176D01*
X0235165Y0054233D01*
X0234928Y0054295D01*
X0234692Y0054364D01*
X0234458Y0054438D01*
X0234226Y0054518D01*
X0233996Y0054603D01*
X0233768Y0054694D01*
X0233543Y0054791D01*
X0233319Y0054893D01*
X0233099Y0055001D01*
X0232881Y0055114D01*
X0232666Y0055232D01*
X0232454Y0055356D01*
X0232245Y0055484D01*
X0232039Y0055618D01*
X0231837Y0055757D01*
X0231638Y0055901D01*
X0231443Y0056050D01*
X0231251Y0056203D01*
X0231063Y0056361D01*
X0230879Y0056523D01*
X0230700Y0056691D01*
X0230524Y0056862D01*
X0230353Y0057038D01*
X0230185Y0057217D01*
X0230023Y0057401D01*
X0229865Y0057589D01*
X0229712Y0057781D01*
X0229563Y0057976D01*
X0229419Y0058175D01*
X0229280Y0058377D01*
X0229146Y0058583D01*
X0229018Y0058792D01*
X0228894Y0059004D01*
X0228776Y0059219D01*
X0228663Y0059437D01*
X0228555Y0059657D01*
X0228453Y0059881D01*
X0228356Y0060106D01*
X0228265Y0060334D01*
X0228180Y0060564D01*
X0228100Y0060796D01*
X0228026Y0061030D01*
X0227957Y0061266D01*
X0227895Y0061503D01*
X0227838Y0061742D01*
X0227787Y0061982D01*
X0227742Y0062223D01*
X0227703Y0062466D01*
X0227670Y0062709D01*
X0227643Y0062953D01*
X0227622Y0063197D01*
X0227607Y0063442D01*
X0227598Y0063688D01*
X0227595Y0063933D01*
D14*
X0054445Y0033267D02*
X0049941Y0033267D01*
X0054445Y0033267D02*
X0054445Y0036270D01*
X0054445Y0037871D02*
X0054445Y0040874D01*
X0054445Y0042475D02*
X0054445Y0044727D01*
X0053695Y0045478D01*
X0050692Y0045478D01*
X0049941Y0044727D01*
X0049941Y0042475D01*
X0054445Y0042475D01*
X0049941Y0040874D02*
X0049941Y0037871D01*
X0054445Y0037871D01*
X0052193Y0037871D02*
X0052193Y0039373D01*
X0050692Y0047079D02*
X0049941Y0047830D01*
X0049941Y0049331D01*
X0050692Y0050082D01*
X0051443Y0050082D01*
X0052193Y0049331D01*
X0052944Y0050082D01*
X0053695Y0050082D01*
X0054445Y0049331D01*
X0054445Y0047830D01*
X0053695Y0047079D01*
X0052193Y0048580D02*
X0052193Y0049331D01*
X0079941Y0049331D02*
X0082193Y0047079D01*
X0082193Y0050082D01*
X0084445Y0049331D02*
X0079941Y0049331D01*
X0080692Y0045478D02*
X0079941Y0044727D01*
X0079941Y0042475D01*
X0084445Y0042475D01*
X0084445Y0044727D01*
X0083695Y0045478D01*
X0080692Y0045478D01*
X0079941Y0040874D02*
X0079941Y0037871D01*
X0084445Y0037871D01*
X0084445Y0040874D01*
X0082193Y0039373D02*
X0082193Y0037871D01*
X0084445Y0036270D02*
X0084445Y0033267D01*
X0079941Y0033267D01*
X0114941Y0033267D02*
X0119445Y0033267D01*
X0119445Y0036270D01*
X0119445Y0037871D02*
X0119445Y0040874D01*
X0119445Y0042475D02*
X0119445Y0044727D01*
X0118695Y0045478D01*
X0115692Y0045478D01*
X0114941Y0044727D01*
X0114941Y0042475D01*
X0119445Y0042475D01*
X0114941Y0040874D02*
X0114941Y0037871D01*
X0119445Y0037871D01*
X0117193Y0037871D02*
X0117193Y0039373D01*
X0116443Y0047079D02*
X0114941Y0048580D01*
X0119445Y0048580D01*
X0119445Y0047079D02*
X0119445Y0050082D01*
X0144941Y0049331D02*
X0144941Y0047830D01*
X0145692Y0047079D01*
X0145692Y0045478D02*
X0144941Y0044727D01*
X0144941Y0042475D01*
X0149445Y0042475D01*
X0149445Y0044727D01*
X0148695Y0045478D01*
X0145692Y0045478D01*
X0149445Y0047079D02*
X0146443Y0050082D01*
X0145692Y0050082D01*
X0144941Y0049331D01*
X0149445Y0050082D02*
X0149445Y0047079D01*
X0149445Y0040874D02*
X0149445Y0037871D01*
X0144941Y0037871D01*
X0144941Y0040874D01*
X0147193Y0039373D02*
X0147193Y0037871D01*
X0149445Y0036270D02*
X0149445Y0033267D01*
X0144941Y0033267D01*
X0239941Y0033267D02*
X0244445Y0033267D01*
X0244445Y0036270D01*
X0244445Y0037871D02*
X0244445Y0040874D01*
X0244445Y0042475D02*
X0244445Y0044727D01*
X0243695Y0045478D01*
X0240692Y0045478D01*
X0239941Y0044727D01*
X0239941Y0042475D01*
X0244445Y0042475D01*
X0239941Y0040874D02*
X0239941Y0037871D01*
X0244445Y0037871D01*
X0242193Y0037871D02*
X0242193Y0039373D01*
X0242193Y0047079D02*
X0239941Y0047079D01*
X0239941Y0050082D01*
X0241443Y0049331D02*
X0242193Y0050082D01*
X0243695Y0050082D01*
X0244445Y0049331D01*
X0244445Y0047830D01*
X0243695Y0047079D01*
X0242193Y0047079D02*
X0241443Y0048580D01*
X0241443Y0049331D01*
D15*
X0155683Y0080708D02*
X0152079Y0083110D01*
X0152079Y0080708D02*
X0155683Y0083110D01*
X0155683Y0084391D02*
X0153280Y0086793D01*
X0152680Y0086793D01*
X0152079Y0086193D01*
X0152079Y0084992D01*
X0152680Y0084391D01*
X0155683Y0084391D02*
X0155683Y0086793D01*
M02*
