G75*
%MOIN*%
%OFA0B0*%
%FSLAX25Y25*%
%IPPOS*%
%LPD*%
%AMOC8*
5,1,8,0,0,1.08239X$1,22.5*
%
%ADD10OC8,0.05200*%
%ADD11R,0.06299X0.05118*%
%ADD12C,0.06000*%
%ADD13C,0.01000*%
D10*
X0016500Y0016500D03*
X0026500Y0016500D03*
X0046500Y0016500D03*
X0056500Y0016500D03*
X0076500Y0016500D03*
X0086500Y0016500D03*
X0146500Y0016500D03*
X0156500Y0016500D03*
X0176500Y0016500D03*
X0186500Y0016500D03*
X0206500Y0016500D03*
X0216500Y0016500D03*
D11*
X0091500Y0040500D03*
X0091500Y0052500D03*
D12*
X0111500Y0046500D03*
X0121500Y0046500D03*
D13*
X0006000Y0024454D02*
X0006000Y0006000D01*
X0225701Y0006000D01*
X0225701Y0056961D01*
X0208585Y0056961D01*
X0218300Y0047246D01*
X0218300Y0025754D01*
X0217246Y0024700D01*
X0210400Y0017854D01*
X0210400Y0014885D01*
X0208115Y0012600D01*
X0204885Y0012600D01*
X0202600Y0014885D01*
X0202600Y0018115D01*
X0204885Y0020400D01*
X0207854Y0020400D01*
X0214700Y0027246D01*
X0214700Y0045754D01*
X0205754Y0054700D01*
X0180846Y0054700D01*
X0188300Y0047246D01*
X0188300Y0025754D01*
X0187246Y0024700D01*
X0180400Y0017854D01*
X0180400Y0014885D01*
X0178115Y0012600D01*
X0174885Y0012600D01*
X0172600Y0014885D01*
X0172600Y0018115D01*
X0174885Y0020400D01*
X0177854Y0020400D01*
X0184700Y0027246D01*
X0184700Y0045754D01*
X0175754Y0054700D01*
X0150846Y0054700D01*
X0158300Y0047246D01*
X0158300Y0025754D01*
X0157246Y0024700D01*
X0150400Y0017854D01*
X0150400Y0014885D01*
X0148115Y0012600D01*
X0144885Y0012600D01*
X0142600Y0014885D01*
X0142600Y0018115D01*
X0144885Y0020400D01*
X0147854Y0020400D01*
X0154700Y0027246D01*
X0154700Y0045754D01*
X0145754Y0054700D01*
X0095950Y0054700D01*
X0095950Y0049402D01*
X0095188Y0048641D01*
X0087812Y0048641D01*
X0087050Y0049402D01*
X0087050Y0054700D01*
X0077246Y0054700D01*
X0068300Y0045754D01*
X0068300Y0027246D01*
X0075146Y0020400D01*
X0078115Y0020400D01*
X0080400Y0018115D01*
X0080400Y0014885D01*
X0078115Y0012600D01*
X0074885Y0012600D01*
X0072600Y0014885D01*
X0072600Y0017854D01*
X0065754Y0024700D01*
X0064700Y0025754D01*
X0064700Y0047246D01*
X0072154Y0054700D01*
X0047246Y0054700D01*
X0038300Y0045754D01*
X0038300Y0027246D01*
X0045146Y0020400D01*
X0048115Y0020400D01*
X0050400Y0018115D01*
X0050400Y0014885D01*
X0048115Y0012600D01*
X0044885Y0012600D01*
X0042600Y0014885D01*
X0042600Y0017854D01*
X0035754Y0024700D01*
X0034700Y0025754D01*
X0034700Y0047246D01*
X0042154Y0054700D01*
X0017246Y0054700D01*
X0008300Y0045754D01*
X0008300Y0027246D01*
X0015146Y0020400D01*
X0018115Y0020400D01*
X0020400Y0018115D01*
X0020400Y0014885D01*
X0018115Y0012600D01*
X0014885Y0012600D01*
X0012600Y0014885D01*
X0012600Y0017854D01*
X0006000Y0024454D01*
X0006000Y0023467D02*
X0006987Y0023467D01*
X0006000Y0022469D02*
X0007986Y0022469D01*
X0008984Y0021470D02*
X0006000Y0021470D01*
X0006000Y0020472D02*
X0009983Y0020472D01*
X0014075Y0021470D02*
X0038984Y0021470D01*
X0039983Y0020472D02*
X0028327Y0020472D01*
X0028198Y0020600D02*
X0026800Y0020600D01*
X0026800Y0016800D01*
X0030600Y0016800D01*
X0030600Y0018198D01*
X0028198Y0020600D01*
X0026800Y0020472D02*
X0026200Y0020472D01*
X0026200Y0020600D02*
X0024802Y0020600D01*
X0022400Y0018198D01*
X0022400Y0016800D01*
X0026200Y0016800D01*
X0026200Y0020600D01*
X0024673Y0020472D02*
X0015074Y0020472D01*
X0013077Y0022469D02*
X0037986Y0022469D01*
X0036987Y0023467D02*
X0012078Y0023467D01*
X0011080Y0024466D02*
X0035989Y0024466D01*
X0034990Y0025464D02*
X0010081Y0025464D01*
X0009083Y0026463D02*
X0034700Y0026463D01*
X0036500Y0026500D02*
X0036500Y0046500D01*
X0046500Y0056500D01*
X0016500Y0056500D01*
X0006500Y0046500D01*
X0006500Y0026500D01*
X0016500Y0016500D01*
X0012600Y0016478D02*
X0006000Y0016478D01*
X0006000Y0017476D02*
X0012600Y0017476D01*
X0011980Y0018475D02*
X0006000Y0018475D01*
X0006000Y0019473D02*
X0010981Y0019473D01*
X0019042Y0019473D02*
X0023675Y0019473D01*
X0022676Y0018475D02*
X0020041Y0018475D01*
X0020400Y0017476D02*
X0022400Y0017476D01*
X0020400Y0016478D02*
X0026200Y0016478D01*
X0026200Y0016200D02*
X0026200Y0016800D01*
X0026800Y0016800D01*
X0026800Y0016200D01*
X0030600Y0016200D01*
X0030600Y0014802D01*
X0028198Y0012400D01*
X0026800Y0012400D01*
X0026800Y0016200D01*
X0026200Y0016200D01*
X0026200Y0012400D01*
X0024802Y0012400D01*
X0022400Y0014802D01*
X0022400Y0016200D01*
X0026200Y0016200D01*
X0026500Y0016500D02*
X0036500Y0006500D01*
X0066500Y0006500D01*
X0056500Y0016500D01*
X0056800Y0016478D02*
X0072600Y0016478D01*
X0072600Y0017476D02*
X0060600Y0017476D01*
X0060600Y0016800D02*
X0060600Y0018198D01*
X0058198Y0020600D01*
X0056800Y0020600D01*
X0056800Y0016800D01*
X0060600Y0016800D01*
X0060600Y0016200D02*
X0056800Y0016200D01*
X0056800Y0016800D01*
X0056200Y0016800D01*
X0056200Y0020600D01*
X0054802Y0020600D01*
X0052400Y0018198D01*
X0052400Y0016800D01*
X0056200Y0016800D01*
X0056200Y0016200D01*
X0056800Y0016200D01*
X0056800Y0012400D01*
X0058198Y0012400D01*
X0060600Y0014802D01*
X0060600Y0016200D01*
X0060600Y0015479D02*
X0072600Y0015479D01*
X0073004Y0014481D02*
X0060279Y0014481D01*
X0059280Y0013482D02*
X0074002Y0013482D01*
X0078998Y0013482D02*
X0083720Y0013482D01*
X0084718Y0012484D02*
X0058282Y0012484D01*
X0056800Y0012484D02*
X0056200Y0012484D01*
X0056200Y0012400D02*
X0056200Y0016200D01*
X0052400Y0016200D01*
X0052400Y0014802D01*
X0054802Y0012400D01*
X0056200Y0012400D01*
X0056200Y0013482D02*
X0056800Y0013482D01*
X0054718Y0012484D02*
X0028282Y0012484D01*
X0029280Y0013482D02*
X0044002Y0013482D01*
X0043004Y0014481D02*
X0030279Y0014481D01*
X0030600Y0015479D02*
X0042600Y0015479D01*
X0042600Y0016478D02*
X0026800Y0016478D01*
X0026800Y0017476D02*
X0026200Y0017476D01*
X0026200Y0018475D02*
X0026800Y0018475D01*
X0026800Y0019473D02*
X0026200Y0019473D01*
X0029325Y0019473D02*
X0040981Y0019473D01*
X0041980Y0018475D02*
X0030324Y0018475D01*
X0030600Y0017476D02*
X0042600Y0017476D01*
X0046500Y0016500D02*
X0036500Y0026500D01*
X0039083Y0026463D02*
X0064700Y0026463D01*
X0064990Y0025464D02*
X0040081Y0025464D01*
X0041080Y0024466D02*
X0065989Y0024466D01*
X0066987Y0023467D02*
X0042078Y0023467D01*
X0043077Y0022469D02*
X0067986Y0022469D01*
X0068984Y0021470D02*
X0044075Y0021470D01*
X0045074Y0020472D02*
X0054673Y0020472D01*
X0056200Y0020472D02*
X0056800Y0020472D01*
X0058327Y0020472D02*
X0069983Y0020472D01*
X0074075Y0021470D02*
X0148925Y0021470D01*
X0149923Y0022469D02*
X0073077Y0022469D01*
X0072078Y0023467D02*
X0150922Y0023467D01*
X0151920Y0024466D02*
X0071080Y0024466D01*
X0070081Y0025464D02*
X0094990Y0025464D01*
X0094700Y0025754D02*
X0095754Y0024700D01*
X0107246Y0024700D01*
X0108300Y0025754D01*
X0108300Y0025754D01*
X0113300Y0030754D01*
X0113300Y0042591D01*
X0113936Y0042855D01*
X0115145Y0044064D01*
X0115800Y0045645D01*
X0115800Y0047355D01*
X0115145Y0048936D01*
X0113936Y0050145D01*
X0112355Y0050800D01*
X0110645Y0050800D01*
X0109064Y0050145D01*
X0107855Y0048936D01*
X0107200Y0047355D01*
X0107200Y0045645D01*
X0107855Y0044064D01*
X0109064Y0042855D01*
X0109700Y0042591D01*
X0109700Y0032246D01*
X0105754Y0028300D01*
X0097246Y0028300D01*
X0093300Y0032246D01*
X0093300Y0036641D01*
X0095188Y0036641D01*
X0095950Y0037402D01*
X0095950Y0043598D01*
X0095188Y0044359D01*
X0087812Y0044359D01*
X0087050Y0043598D01*
X0087050Y0037402D01*
X0087812Y0036641D01*
X0089700Y0036641D01*
X0089700Y0030754D01*
X0094700Y0025754D01*
X0093992Y0026463D02*
X0069083Y0026463D01*
X0066500Y0026500D02*
X0066500Y0046500D01*
X0076500Y0056500D01*
X0046500Y0056500D01*
X0046967Y0054421D02*
X0071876Y0054421D01*
X0070877Y0053423D02*
X0045968Y0053423D01*
X0044970Y0052424D02*
X0069879Y0052424D01*
X0068880Y0051426D02*
X0043971Y0051426D01*
X0039879Y0052424D02*
X0014970Y0052424D01*
X0013971Y0051426D02*
X0038880Y0051426D01*
X0037881Y0050427D02*
X0012973Y0050427D01*
X0011974Y0049429D02*
X0036883Y0049429D01*
X0035884Y0048430D02*
X0010976Y0048430D01*
X0009977Y0047432D02*
X0034886Y0047432D01*
X0034700Y0046433D02*
X0008979Y0046433D01*
X0008300Y0045434D02*
X0034700Y0045434D01*
X0034700Y0044436D02*
X0008300Y0044436D01*
X0008300Y0043437D02*
X0034700Y0043437D01*
X0034700Y0042439D02*
X0008300Y0042439D01*
X0008300Y0041440D02*
X0034700Y0041440D01*
X0034700Y0040442D02*
X0008300Y0040442D01*
X0008300Y0039443D02*
X0034700Y0039443D01*
X0034700Y0038445D02*
X0008300Y0038445D01*
X0008300Y0037446D02*
X0034700Y0037446D01*
X0034700Y0036448D02*
X0008300Y0036448D01*
X0008300Y0035449D02*
X0034700Y0035449D01*
X0038300Y0035449D02*
X0064700Y0035449D01*
X0064700Y0036448D02*
X0038300Y0036448D01*
X0038300Y0037446D02*
X0064700Y0037446D01*
X0068300Y0037446D02*
X0087050Y0037446D01*
X0089700Y0036448D02*
X0068300Y0036448D01*
X0068300Y0035449D02*
X0089700Y0035449D01*
X0093300Y0035449D02*
X0109700Y0035449D01*
X0109700Y0036448D02*
X0093300Y0036448D01*
X0095950Y0037446D02*
X0109700Y0037446D01*
X0113300Y0037446D02*
X0154700Y0037446D01*
X0154700Y0036448D02*
X0113300Y0036448D01*
X0113300Y0035449D02*
X0154700Y0035449D01*
X0154700Y0034451D02*
X0113300Y0034451D01*
X0113300Y0033452D02*
X0154700Y0033452D01*
X0154700Y0032454D02*
X0113300Y0032454D01*
X0113300Y0031455D02*
X0154700Y0031455D01*
X0154700Y0030457D02*
X0113002Y0030457D01*
X0112004Y0029458D02*
X0154700Y0029458D01*
X0154700Y0028460D02*
X0111005Y0028460D01*
X0110007Y0027461D02*
X0154700Y0027461D01*
X0153917Y0026463D02*
X0109008Y0026463D01*
X0108010Y0025464D02*
X0152919Y0025464D01*
X0156500Y0026500D02*
X0156500Y0046500D01*
X0146500Y0056500D01*
X0091500Y0056500D01*
X0091500Y0052500D01*
X0095950Y0052424D02*
X0148030Y0052424D01*
X0149029Y0051426D02*
X0095950Y0051426D01*
X0095950Y0050427D02*
X0109744Y0050427D01*
X0108347Y0049429D02*
X0095950Y0049429D01*
X0087050Y0049429D02*
X0071974Y0049429D01*
X0072973Y0050427D02*
X0087050Y0050427D01*
X0087050Y0051426D02*
X0073971Y0051426D01*
X0074970Y0052424D02*
X0087050Y0052424D01*
X0087050Y0053423D02*
X0075968Y0053423D01*
X0076967Y0054421D02*
X0087050Y0054421D01*
X0091500Y0056500D02*
X0076500Y0056500D01*
X0095950Y0054421D02*
X0146033Y0054421D01*
X0147032Y0053423D02*
X0095950Y0053423D01*
X0107645Y0048430D02*
X0070976Y0048430D01*
X0066883Y0049429D02*
X0041974Y0049429D01*
X0042973Y0050427D02*
X0067881Y0050427D01*
X0065884Y0048430D02*
X0040976Y0048430D01*
X0039977Y0047432D02*
X0064886Y0047432D01*
X0064700Y0046433D02*
X0038979Y0046433D01*
X0038300Y0045434D02*
X0064700Y0045434D01*
X0064700Y0044436D02*
X0038300Y0044436D01*
X0038300Y0043437D02*
X0064700Y0043437D01*
X0064700Y0042439D02*
X0038300Y0042439D01*
X0038300Y0041440D02*
X0064700Y0041440D01*
X0064700Y0040442D02*
X0038300Y0040442D01*
X0038300Y0039443D02*
X0064700Y0039443D01*
X0064700Y0038445D02*
X0038300Y0038445D01*
X0038300Y0034451D02*
X0064700Y0034451D01*
X0064700Y0033452D02*
X0038300Y0033452D01*
X0034700Y0033452D02*
X0008300Y0033452D01*
X0008300Y0034451D02*
X0034700Y0034451D01*
X0034700Y0032454D02*
X0008300Y0032454D01*
X0008300Y0031455D02*
X0034700Y0031455D01*
X0038300Y0031455D02*
X0064700Y0031455D01*
X0064700Y0032454D02*
X0038300Y0032454D01*
X0038300Y0030457D02*
X0064700Y0030457D01*
X0064700Y0029458D02*
X0038300Y0029458D01*
X0034700Y0029458D02*
X0008300Y0029458D01*
X0008300Y0030457D02*
X0034700Y0030457D01*
X0034700Y0028460D02*
X0008300Y0028460D01*
X0008300Y0027461D02*
X0034700Y0027461D01*
X0038300Y0027461D02*
X0064700Y0027461D01*
X0064700Y0028460D02*
X0038300Y0028460D01*
X0066500Y0026500D02*
X0076500Y0016500D01*
X0080400Y0016478D02*
X0086200Y0016478D01*
X0086200Y0016200D02*
X0086200Y0016800D01*
X0086200Y0020600D01*
X0084802Y0020600D01*
X0082400Y0018198D01*
X0082400Y0016800D01*
X0086200Y0016800D01*
X0086800Y0016800D01*
X0090600Y0016800D01*
X0090600Y0018198D01*
X0088198Y0020600D01*
X0086800Y0020600D01*
X0086800Y0016800D01*
X0086800Y0016200D01*
X0090600Y0016200D01*
X0090600Y0014802D01*
X0088198Y0012400D01*
X0086800Y0012400D01*
X0086800Y0016200D01*
X0086200Y0016200D01*
X0086200Y0012400D01*
X0084802Y0012400D01*
X0082400Y0014802D01*
X0082400Y0016200D01*
X0086200Y0016200D01*
X0086500Y0016500D02*
X0096500Y0006500D01*
X0066500Y0006500D01*
X0086200Y0012484D02*
X0086800Y0012484D01*
X0086800Y0013482D02*
X0086200Y0013482D01*
X0088282Y0012484D02*
X0154718Y0012484D01*
X0154802Y0012400D02*
X0156200Y0012400D01*
X0156200Y0016200D01*
X0156800Y0016200D01*
X0156800Y0016800D01*
X0160600Y0016800D01*
X0160600Y0018198D01*
X0158198Y0020600D01*
X0156800Y0020600D01*
X0156800Y0016800D01*
X0156200Y0016800D01*
X0156200Y0020600D01*
X0154802Y0020600D01*
X0152400Y0018198D01*
X0152400Y0016800D01*
X0156200Y0016800D01*
X0156200Y0016200D01*
X0152400Y0016200D01*
X0152400Y0014802D01*
X0154802Y0012400D01*
X0156200Y0012484D02*
X0156800Y0012484D01*
X0156800Y0012400D02*
X0158198Y0012400D01*
X0160600Y0014802D01*
X0160600Y0016200D01*
X0156800Y0016200D01*
X0156800Y0012400D01*
X0156800Y0013482D02*
X0156200Y0013482D01*
X0158282Y0012484D02*
X0184718Y0012484D01*
X0184802Y0012400D02*
X0186200Y0012400D01*
X0186200Y0016200D01*
X0186800Y0016200D01*
X0186800Y0016800D01*
X0190600Y0016800D01*
X0190600Y0018198D01*
X0188198Y0020600D01*
X0186800Y0020600D01*
X0186800Y0016800D01*
X0186200Y0016800D01*
X0186200Y0020600D01*
X0184802Y0020600D01*
X0182400Y0018198D01*
X0182400Y0016800D01*
X0186200Y0016800D01*
X0186200Y0016200D01*
X0182400Y0016200D01*
X0182400Y0014802D01*
X0184802Y0012400D01*
X0186200Y0012484D02*
X0186800Y0012484D01*
X0186800Y0012400D02*
X0188198Y0012400D01*
X0190600Y0014802D01*
X0190600Y0016200D01*
X0186800Y0016200D01*
X0186800Y0012400D01*
X0186800Y0013482D02*
X0186200Y0013482D01*
X0188282Y0012484D02*
X0214718Y0012484D01*
X0214802Y0012400D02*
X0216200Y0012400D01*
X0216200Y0016200D01*
X0216800Y0016200D01*
X0216800Y0016800D01*
X0220600Y0016800D01*
X0220600Y0018198D01*
X0218198Y0020600D01*
X0216800Y0020600D01*
X0216800Y0016800D01*
X0216200Y0016800D01*
X0216200Y0020600D01*
X0214802Y0020600D01*
X0212400Y0018198D01*
X0212400Y0016800D01*
X0216200Y0016800D01*
X0216200Y0016200D01*
X0212400Y0016200D01*
X0212400Y0014802D01*
X0214802Y0012400D01*
X0216200Y0012484D02*
X0216800Y0012484D01*
X0216800Y0012400D02*
X0218198Y0012400D01*
X0220600Y0014802D01*
X0220600Y0016200D01*
X0216800Y0016200D01*
X0216800Y0012400D01*
X0216800Y0013482D02*
X0216200Y0013482D01*
X0218282Y0012484D02*
X0225701Y0012484D01*
X0225701Y0013482D02*
X0219280Y0013482D01*
X0220279Y0014481D02*
X0225701Y0014481D01*
X0225701Y0015479D02*
X0220600Y0015479D01*
X0216800Y0015479D02*
X0216200Y0015479D01*
X0216200Y0014481D02*
X0216800Y0014481D01*
X0212721Y0014481D02*
X0209996Y0014481D01*
X0210400Y0015479D02*
X0212400Y0015479D01*
X0210400Y0016478D02*
X0216200Y0016478D01*
X0216500Y0016500D02*
X0206500Y0006500D01*
X0176500Y0006500D01*
X0186500Y0016500D01*
X0186800Y0016478D02*
X0202600Y0016478D01*
X0202600Y0017476D02*
X0190600Y0017476D01*
X0190324Y0018475D02*
X0202959Y0018475D01*
X0203958Y0019473D02*
X0189325Y0019473D01*
X0186800Y0019473D02*
X0186200Y0019473D01*
X0186200Y0018475D02*
X0186800Y0018475D01*
X0183675Y0019473D02*
X0182019Y0019473D01*
X0182676Y0018475D02*
X0181020Y0018475D01*
X0180400Y0017476D02*
X0182400Y0017476D01*
X0180400Y0016478D02*
X0186200Y0016478D01*
X0186200Y0017476D02*
X0186800Y0017476D01*
X0186800Y0015479D02*
X0186200Y0015479D01*
X0186200Y0014481D02*
X0186800Y0014481D01*
X0190279Y0014481D02*
X0203004Y0014481D01*
X0202600Y0015479D02*
X0190600Y0015479D01*
X0189280Y0013482D02*
X0204002Y0013482D01*
X0208998Y0013482D02*
X0213720Y0013482D01*
X0216800Y0016478D02*
X0225701Y0016478D01*
X0225701Y0017476D02*
X0220600Y0017476D01*
X0220324Y0018475D02*
X0225701Y0018475D01*
X0225701Y0019473D02*
X0219325Y0019473D01*
X0216800Y0019473D02*
X0216200Y0019473D01*
X0216200Y0018475D02*
X0216800Y0018475D01*
X0213675Y0019473D02*
X0212019Y0019473D01*
X0212676Y0018475D02*
X0211020Y0018475D01*
X0210400Y0017476D02*
X0212400Y0017476D01*
X0216200Y0017476D02*
X0216800Y0017476D01*
X0216500Y0026500D02*
X0206500Y0016500D01*
X0207926Y0020472D02*
X0188327Y0020472D01*
X0186800Y0020472D02*
X0186200Y0020472D01*
X0184673Y0020472D02*
X0183017Y0020472D01*
X0184016Y0021470D02*
X0208925Y0021470D01*
X0209923Y0022469D02*
X0185014Y0022469D01*
X0186013Y0023467D02*
X0210922Y0023467D01*
X0211920Y0024466D02*
X0187011Y0024466D01*
X0188010Y0025464D02*
X0212919Y0025464D01*
X0213917Y0026463D02*
X0188300Y0026463D01*
X0186500Y0026500D02*
X0186500Y0046500D01*
X0176500Y0056500D01*
X0146500Y0056500D01*
X0151124Y0054421D02*
X0176033Y0054421D01*
X0177032Y0053423D02*
X0152123Y0053423D01*
X0153121Y0052424D02*
X0178030Y0052424D01*
X0179029Y0051426D02*
X0154120Y0051426D01*
X0155119Y0050427D02*
X0180027Y0050427D01*
X0181026Y0049429D02*
X0156117Y0049429D01*
X0157116Y0048430D02*
X0182024Y0048430D01*
X0183023Y0047432D02*
X0158114Y0047432D01*
X0158300Y0046433D02*
X0184021Y0046433D01*
X0184700Y0045434D02*
X0158300Y0045434D01*
X0158300Y0044436D02*
X0184700Y0044436D01*
X0184700Y0043437D02*
X0158300Y0043437D01*
X0158300Y0042439D02*
X0184700Y0042439D01*
X0184700Y0041440D02*
X0158300Y0041440D01*
X0158300Y0040442D02*
X0184700Y0040442D01*
X0184700Y0039443D02*
X0158300Y0039443D01*
X0158300Y0038445D02*
X0184700Y0038445D01*
X0184700Y0037446D02*
X0158300Y0037446D01*
X0158300Y0036448D02*
X0184700Y0036448D01*
X0184700Y0035449D02*
X0158300Y0035449D01*
X0158300Y0034451D02*
X0184700Y0034451D01*
X0184700Y0033452D02*
X0158300Y0033452D01*
X0158300Y0032454D02*
X0184700Y0032454D01*
X0184700Y0031455D02*
X0158300Y0031455D01*
X0158300Y0030457D02*
X0184700Y0030457D01*
X0184700Y0029458D02*
X0158300Y0029458D01*
X0158300Y0028460D02*
X0184700Y0028460D01*
X0184700Y0027461D02*
X0158300Y0027461D01*
X0158300Y0026463D02*
X0183917Y0026463D01*
X0182919Y0025464D02*
X0158010Y0025464D01*
X0156500Y0026500D02*
X0146500Y0016500D01*
X0150400Y0016478D02*
X0156200Y0016478D01*
X0156500Y0016500D02*
X0146500Y0006500D01*
X0121500Y0006500D01*
X0096500Y0006500D01*
X0089280Y0013482D02*
X0144002Y0013482D01*
X0143004Y0014481D02*
X0090279Y0014481D01*
X0090600Y0015479D02*
X0142600Y0015479D01*
X0142600Y0016478D02*
X0086800Y0016478D01*
X0086800Y0017476D02*
X0086200Y0017476D01*
X0082400Y0017476D02*
X0080400Y0017476D01*
X0080041Y0018475D02*
X0082676Y0018475D01*
X0083675Y0019473D02*
X0079042Y0019473D01*
X0075074Y0020472D02*
X0084673Y0020472D01*
X0086200Y0020472D02*
X0086800Y0020472D01*
X0088327Y0020472D02*
X0147926Y0020472D01*
X0143958Y0019473D02*
X0089325Y0019473D01*
X0090324Y0018475D02*
X0142959Y0018475D01*
X0142600Y0017476D02*
X0090600Y0017476D01*
X0086800Y0018475D02*
X0086200Y0018475D01*
X0086200Y0019473D02*
X0086800Y0019473D01*
X0086800Y0015479D02*
X0086200Y0015479D01*
X0086200Y0014481D02*
X0086800Y0014481D01*
X0082721Y0014481D02*
X0079996Y0014481D01*
X0080400Y0015479D02*
X0082400Y0015479D01*
X0071980Y0018475D02*
X0060324Y0018475D01*
X0059325Y0019473D02*
X0070981Y0019473D01*
X0056800Y0019473D02*
X0056200Y0019473D01*
X0056200Y0018475D02*
X0056800Y0018475D01*
X0053675Y0019473D02*
X0049042Y0019473D01*
X0050041Y0018475D02*
X0052676Y0018475D01*
X0052400Y0017476D02*
X0050400Y0017476D01*
X0050400Y0016478D02*
X0056200Y0016478D01*
X0056200Y0017476D02*
X0056800Y0017476D01*
X0056800Y0015479D02*
X0056200Y0015479D01*
X0056200Y0014481D02*
X0056800Y0014481D01*
X0052721Y0014481D02*
X0049996Y0014481D01*
X0050400Y0015479D02*
X0052400Y0015479D01*
X0053720Y0013482D02*
X0048998Y0013482D01*
X0026800Y0013482D02*
X0026200Y0013482D01*
X0026200Y0012484D02*
X0026800Y0012484D01*
X0024718Y0012484D02*
X0006000Y0012484D01*
X0006000Y0013482D02*
X0014002Y0013482D01*
X0013004Y0014481D02*
X0006000Y0014481D01*
X0006000Y0015479D02*
X0012600Y0015479D01*
X0018998Y0013482D02*
X0023720Y0013482D01*
X0022721Y0014481D02*
X0019996Y0014481D01*
X0020400Y0015479D02*
X0022400Y0015479D01*
X0026200Y0015479D02*
X0026800Y0015479D01*
X0026800Y0014481D02*
X0026200Y0014481D01*
X0006000Y0011485D02*
X0225701Y0011485D01*
X0225701Y0010487D02*
X0006000Y0010487D01*
X0006000Y0009488D02*
X0225701Y0009488D01*
X0225701Y0008490D02*
X0006000Y0008490D01*
X0006000Y0007491D02*
X0225701Y0007491D01*
X0225701Y0006493D02*
X0006000Y0006493D01*
X0068300Y0027461D02*
X0092993Y0027461D01*
X0091995Y0028460D02*
X0068300Y0028460D01*
X0068300Y0029458D02*
X0090996Y0029458D01*
X0089998Y0030457D02*
X0068300Y0030457D01*
X0068300Y0031455D02*
X0089700Y0031455D01*
X0089700Y0032454D02*
X0068300Y0032454D01*
X0068300Y0033452D02*
X0089700Y0033452D01*
X0089700Y0034451D02*
X0068300Y0034451D01*
X0068300Y0038445D02*
X0087050Y0038445D01*
X0087050Y0039443D02*
X0068300Y0039443D01*
X0068300Y0040442D02*
X0087050Y0040442D01*
X0087050Y0041440D02*
X0068300Y0041440D01*
X0068300Y0042439D02*
X0087050Y0042439D01*
X0087050Y0043437D02*
X0068300Y0043437D01*
X0068300Y0044436D02*
X0107701Y0044436D01*
X0107287Y0045434D02*
X0068300Y0045434D01*
X0068979Y0046433D02*
X0107200Y0046433D01*
X0107232Y0047432D02*
X0069977Y0047432D01*
X0091500Y0040500D02*
X0091500Y0031500D01*
X0096500Y0026500D01*
X0106500Y0026500D01*
X0111500Y0031500D01*
X0111500Y0046500D01*
X0115800Y0046433D02*
X0121000Y0046433D01*
X0121000Y0046000D02*
X0121000Y0047000D01*
X0121000Y0050977D01*
X0120446Y0050889D01*
X0119773Y0050670D01*
X0119141Y0050349D01*
X0118568Y0049932D01*
X0118068Y0049432D01*
X0117651Y0048859D01*
X0117330Y0048227D01*
X0117111Y0047554D01*
X0117023Y0047000D01*
X0121000Y0047000D01*
X0122000Y0047000D01*
X0122000Y0050977D01*
X0122554Y0050889D01*
X0123227Y0050670D01*
X0123859Y0050349D01*
X0124432Y0049932D01*
X0124932Y0049432D01*
X0125349Y0048859D01*
X0125670Y0048227D01*
X0125889Y0047554D01*
X0125977Y0047000D01*
X0122000Y0047000D01*
X0122000Y0046000D01*
X0125977Y0046000D01*
X0125889Y0045446D01*
X0125670Y0044773D01*
X0125349Y0044141D01*
X0124932Y0043568D01*
X0124432Y0043068D01*
X0123859Y0042651D01*
X0123227Y0042330D01*
X0122554Y0042111D01*
X0122000Y0042023D01*
X0122000Y0046000D01*
X0121000Y0046000D01*
X0117023Y0046000D01*
X0117111Y0045446D01*
X0117330Y0044773D01*
X0117651Y0044141D01*
X0118068Y0043568D01*
X0118568Y0043068D01*
X0119141Y0042651D01*
X0119773Y0042330D01*
X0120446Y0042111D01*
X0121000Y0042023D01*
X0121000Y0046000D01*
X0121000Y0045434D02*
X0122000Y0045434D01*
X0122000Y0044436D02*
X0121000Y0044436D01*
X0117501Y0044436D02*
X0115299Y0044436D01*
X0115713Y0045434D02*
X0117115Y0045434D01*
X0121500Y0046500D02*
X0121500Y0006500D01*
X0146500Y0006500D02*
X0176500Y0006500D01*
X0178998Y0013482D02*
X0183720Y0013482D01*
X0182721Y0014481D02*
X0179996Y0014481D01*
X0180400Y0015479D02*
X0182400Y0015479D01*
X0176500Y0016500D02*
X0186500Y0026500D01*
X0188300Y0027461D02*
X0214700Y0027461D01*
X0214700Y0028460D02*
X0188300Y0028460D01*
X0188300Y0029458D02*
X0214700Y0029458D01*
X0214700Y0030457D02*
X0188300Y0030457D01*
X0188300Y0031455D02*
X0214700Y0031455D01*
X0214700Y0032454D02*
X0188300Y0032454D01*
X0188300Y0033452D02*
X0214700Y0033452D01*
X0214700Y0034451D02*
X0188300Y0034451D01*
X0188300Y0035449D02*
X0214700Y0035449D01*
X0214700Y0036448D02*
X0188300Y0036448D01*
X0188300Y0037446D02*
X0214700Y0037446D01*
X0214700Y0038445D02*
X0188300Y0038445D01*
X0188300Y0039443D02*
X0214700Y0039443D01*
X0214700Y0040442D02*
X0188300Y0040442D01*
X0188300Y0041440D02*
X0214700Y0041440D01*
X0214700Y0042439D02*
X0188300Y0042439D01*
X0188300Y0043437D02*
X0214700Y0043437D01*
X0214700Y0044436D02*
X0188300Y0044436D01*
X0188300Y0045434D02*
X0214700Y0045434D01*
X0214021Y0046433D02*
X0188300Y0046433D01*
X0188114Y0047432D02*
X0213023Y0047432D01*
X0216500Y0046500D02*
X0206500Y0056500D01*
X0176500Y0056500D01*
X0181124Y0054421D02*
X0206033Y0054421D01*
X0207032Y0053423D02*
X0182123Y0053423D01*
X0183121Y0052424D02*
X0208030Y0052424D01*
X0209029Y0051426D02*
X0184120Y0051426D01*
X0185119Y0050427D02*
X0210027Y0050427D01*
X0211026Y0049429D02*
X0186117Y0049429D01*
X0187116Y0048430D02*
X0212024Y0048430D01*
X0215119Y0050427D02*
X0225701Y0050427D01*
X0225701Y0049429D02*
X0216117Y0049429D01*
X0217116Y0048430D02*
X0225701Y0048430D01*
X0225701Y0047432D02*
X0218114Y0047432D01*
X0218300Y0046433D02*
X0225701Y0046433D01*
X0225701Y0045434D02*
X0218300Y0045434D01*
X0218300Y0044436D02*
X0225701Y0044436D01*
X0225701Y0043437D02*
X0218300Y0043437D01*
X0218300Y0042439D02*
X0225701Y0042439D01*
X0225701Y0041440D02*
X0218300Y0041440D01*
X0218300Y0040442D02*
X0225701Y0040442D01*
X0225701Y0039443D02*
X0218300Y0039443D01*
X0218300Y0038445D02*
X0225701Y0038445D01*
X0225701Y0037446D02*
X0218300Y0037446D01*
X0218300Y0036448D02*
X0225701Y0036448D01*
X0225701Y0035449D02*
X0218300Y0035449D01*
X0218300Y0034451D02*
X0225701Y0034451D01*
X0225701Y0033452D02*
X0218300Y0033452D01*
X0218300Y0032454D02*
X0225701Y0032454D01*
X0225701Y0031455D02*
X0218300Y0031455D01*
X0218300Y0030457D02*
X0225701Y0030457D01*
X0225701Y0029458D02*
X0218300Y0029458D01*
X0218300Y0028460D02*
X0225701Y0028460D01*
X0225701Y0027461D02*
X0218300Y0027461D01*
X0218300Y0026463D02*
X0225701Y0026463D01*
X0225701Y0025464D02*
X0218010Y0025464D01*
X0216500Y0026500D02*
X0216500Y0046500D01*
X0214120Y0051426D02*
X0225701Y0051426D01*
X0225701Y0052424D02*
X0213121Y0052424D01*
X0212123Y0053423D02*
X0225701Y0053423D01*
X0225701Y0054421D02*
X0211124Y0054421D01*
X0210126Y0055420D02*
X0225701Y0055420D01*
X0225701Y0056418D02*
X0209127Y0056418D01*
X0154700Y0045434D02*
X0125885Y0045434D01*
X0125499Y0044436D02*
X0154700Y0044436D01*
X0154700Y0043437D02*
X0124801Y0043437D01*
X0123442Y0042439D02*
X0154700Y0042439D01*
X0154700Y0041440D02*
X0113300Y0041440D01*
X0113300Y0040442D02*
X0154700Y0040442D01*
X0154700Y0039443D02*
X0113300Y0039443D01*
X0113300Y0038445D02*
X0154700Y0038445D01*
X0154021Y0046433D02*
X0122000Y0046433D01*
X0122000Y0047432D02*
X0121000Y0047432D01*
X0117091Y0047432D02*
X0115768Y0047432D01*
X0115355Y0048430D02*
X0117433Y0048430D01*
X0118065Y0049429D02*
X0114653Y0049429D01*
X0113256Y0050427D02*
X0119295Y0050427D01*
X0121000Y0050427D02*
X0122000Y0050427D01*
X0122000Y0049429D02*
X0121000Y0049429D01*
X0121000Y0048430D02*
X0122000Y0048430D01*
X0124935Y0049429D02*
X0151026Y0049429D01*
X0150027Y0050427D02*
X0123705Y0050427D01*
X0125567Y0048430D02*
X0152024Y0048430D01*
X0153023Y0047432D02*
X0125909Y0047432D01*
X0122000Y0043437D02*
X0121000Y0043437D01*
X0121000Y0042439D02*
X0122000Y0042439D01*
X0119558Y0042439D02*
X0113300Y0042439D01*
X0114519Y0043437D02*
X0118199Y0043437D01*
X0109700Y0042439D02*
X0095950Y0042439D01*
X0095950Y0043437D02*
X0108481Y0043437D01*
X0109700Y0041440D02*
X0095950Y0041440D01*
X0095950Y0040442D02*
X0109700Y0040442D01*
X0109700Y0039443D02*
X0095950Y0039443D01*
X0095950Y0038445D02*
X0109700Y0038445D01*
X0109700Y0034451D02*
X0093300Y0034451D01*
X0093300Y0033452D02*
X0109700Y0033452D01*
X0109700Y0032454D02*
X0093300Y0032454D01*
X0094090Y0031455D02*
X0108910Y0031455D01*
X0107911Y0030457D02*
X0095089Y0030457D01*
X0096087Y0029458D02*
X0106913Y0029458D01*
X0105914Y0028460D02*
X0097086Y0028460D01*
X0150400Y0017476D02*
X0152400Y0017476D01*
X0152676Y0018475D02*
X0151020Y0018475D01*
X0152019Y0019473D02*
X0153675Y0019473D01*
X0156200Y0019473D02*
X0156800Y0019473D01*
X0156800Y0018475D02*
X0156200Y0018475D01*
X0159325Y0019473D02*
X0173958Y0019473D01*
X0172959Y0018475D02*
X0160324Y0018475D01*
X0160600Y0017476D02*
X0172600Y0017476D01*
X0172600Y0016478D02*
X0156800Y0016478D01*
X0156800Y0017476D02*
X0156200Y0017476D01*
X0156200Y0015479D02*
X0156800Y0015479D01*
X0156800Y0014481D02*
X0156200Y0014481D01*
X0160279Y0014481D02*
X0173004Y0014481D01*
X0172600Y0015479D02*
X0160600Y0015479D01*
X0159280Y0013482D02*
X0174002Y0013482D01*
X0153720Y0013482D02*
X0148998Y0013482D01*
X0149996Y0014481D02*
X0152721Y0014481D01*
X0152400Y0015479D02*
X0150400Y0015479D01*
X0153017Y0020472D02*
X0154673Y0020472D01*
X0154016Y0021470D02*
X0178925Y0021470D01*
X0179923Y0022469D02*
X0155014Y0022469D01*
X0156013Y0023467D02*
X0180922Y0023467D01*
X0181920Y0024466D02*
X0157011Y0024466D01*
X0156800Y0020472D02*
X0156200Y0020472D01*
X0158327Y0020472D02*
X0177926Y0020472D01*
X0213017Y0020472D02*
X0214673Y0020472D01*
X0214016Y0021470D02*
X0225701Y0021470D01*
X0225701Y0020472D02*
X0218327Y0020472D01*
X0216800Y0020472D02*
X0216200Y0020472D01*
X0215014Y0022469D02*
X0225701Y0022469D01*
X0225701Y0023467D02*
X0216013Y0023467D01*
X0217011Y0024466D02*
X0225701Y0024466D01*
X0041876Y0054421D02*
X0016967Y0054421D01*
X0015968Y0053423D02*
X0040877Y0053423D01*
X0014415Y0056961D02*
X0006000Y0048546D01*
X0006000Y0056961D01*
X0014415Y0056961D01*
X0013873Y0056418D02*
X0006000Y0056418D01*
X0006000Y0055420D02*
X0012874Y0055420D01*
X0011876Y0054421D02*
X0006000Y0054421D01*
X0006000Y0053423D02*
X0010877Y0053423D01*
X0009879Y0052424D02*
X0006000Y0052424D01*
X0006000Y0051426D02*
X0008880Y0051426D01*
X0007881Y0050427D02*
X0006000Y0050427D01*
X0006000Y0049429D02*
X0006883Y0049429D01*
M02*
