G75*
%MOIN*%
%OFA0B0*%
%FSLAX25Y25*%
%IPPOS*%
%LPD*%
%AMOC8*
5,1,8,0,0,1.08239X$1,22.5*
%
%ADD10C,0.00000*%
%ADD11C,0.00800*%
%ADD12C,0.01000*%
%ADD13C,0.00600*%
%ADD14C,0.00500*%
%ADD15C,0.00400*%
D10*
X0001500Y0001500D02*
X0001500Y0056461D01*
X0225201Y0056461D01*
X0225201Y0001500D01*
X0001500Y0001500D01*
D11*
X0026500Y0009000D02*
X0026500Y0024000D01*
X0012752Y0031388D02*
X0006388Y0037752D01*
X0020248Y0051612D01*
X0026612Y0045248D01*
X0012752Y0031388D01*
X0121500Y0024000D02*
X0121500Y0009000D01*
X0151500Y0009000D02*
X0151500Y0024000D01*
X0141612Y0035252D02*
X0135248Y0028888D01*
X0121388Y0042748D01*
X0127752Y0049112D01*
X0141612Y0035252D01*
X0156388Y0045248D02*
X0170248Y0031388D01*
X0176612Y0037752D01*
X0162752Y0051612D01*
X0156388Y0045248D01*
X0186388Y0045248D02*
X0192752Y0051612D01*
X0206612Y0037752D01*
X0200248Y0031388D01*
X0186388Y0045248D01*
X0186500Y0024000D02*
X0186500Y0009000D01*
X0216500Y0009000D02*
X0216500Y0024000D01*
D12*
X0216313Y0024243D01*
X0216121Y0024481D01*
X0215922Y0024714D01*
X0215718Y0024942D01*
X0215509Y0025165D01*
X0215294Y0025383D01*
X0215074Y0025596D01*
X0214849Y0025803D01*
X0214618Y0026005D01*
X0214383Y0026201D01*
X0214143Y0026391D01*
X0213899Y0026575D01*
X0213650Y0026753D01*
X0213396Y0026925D01*
X0213139Y0027091D01*
X0212878Y0027251D01*
X0212613Y0027404D01*
X0212344Y0027550D01*
X0212071Y0027690D01*
X0211796Y0027823D01*
X0211517Y0027949D01*
X0211235Y0028069D01*
X0210950Y0028181D01*
X0210663Y0028286D01*
X0210373Y0028385D01*
X0210081Y0028476D01*
X0209786Y0028560D01*
X0209490Y0028637D01*
X0209192Y0028707D01*
X0208892Y0028769D01*
X0208591Y0028824D01*
X0208289Y0028871D01*
X0207985Y0028911D01*
X0207681Y0028944D01*
X0207376Y0028969D01*
X0207070Y0028987D01*
X0206764Y0028997D01*
X0206458Y0029000D01*
X0206152Y0028995D01*
X0205846Y0028983D01*
X0205540Y0028963D01*
X0205236Y0028936D01*
X0204931Y0028901D01*
X0204628Y0028859D01*
X0204326Y0028810D01*
X0204025Y0028753D01*
X0203726Y0028688D01*
X0203428Y0028617D01*
X0203133Y0028538D01*
X0202839Y0028452D01*
X0202547Y0028359D01*
X0202258Y0028258D01*
X0201971Y0028151D01*
X0201687Y0028036D01*
X0201406Y0027915D01*
X0201128Y0027787D01*
X0200853Y0027652D01*
X0200582Y0027510D01*
X0200314Y0027362D01*
X0200050Y0027207D01*
X0199790Y0027046D01*
X0199534Y0026879D01*
X0199281Y0026705D01*
X0199034Y0026525D01*
X0198790Y0026339D01*
X0198552Y0026148D01*
X0198318Y0025950D01*
X0198089Y0025747D01*
X0197865Y0025538D01*
X0197646Y0025324D01*
X0197433Y0025104D01*
X0197225Y0024880D01*
X0197022Y0024650D01*
X0196826Y0024416D01*
X0196635Y0024176D01*
X0196450Y0023933D01*
X0196271Y0023684D01*
X0196098Y0023432D01*
X0195931Y0023175D01*
X0195771Y0022914D01*
X0195617Y0022649D01*
X0195470Y0022381D01*
X0195329Y0022109D01*
X0195195Y0021834D01*
X0195068Y0021555D01*
X0194947Y0021274D01*
X0194834Y0020989D01*
X0194728Y0020702D01*
X0194628Y0020413D01*
X0194536Y0020121D01*
X0194451Y0019827D01*
X0194373Y0019531D01*
X0194302Y0019233D01*
X0194239Y0018933D01*
X0194183Y0018632D01*
X0194135Y0018330D01*
X0194094Y0018027D01*
X0194060Y0017723D01*
X0194034Y0017418D01*
X0194015Y0017112D01*
X0194004Y0016806D01*
X0194000Y0016500D01*
X0194004Y0016194D01*
X0194015Y0015888D01*
X0194034Y0015582D01*
X0194060Y0015277D01*
X0194094Y0014973D01*
X0194135Y0014670D01*
X0194183Y0014368D01*
X0194239Y0014067D01*
X0194302Y0013767D01*
X0194373Y0013469D01*
X0194451Y0013173D01*
X0194536Y0012879D01*
X0194628Y0012587D01*
X0194728Y0012298D01*
X0194834Y0012011D01*
X0194947Y0011726D01*
X0195068Y0011445D01*
X0195195Y0011166D01*
X0195329Y0010891D01*
X0195470Y0010619D01*
X0195617Y0010351D01*
X0195771Y0010086D01*
X0195931Y0009825D01*
X0196098Y0009568D01*
X0196271Y0009316D01*
X0196450Y0009067D01*
X0196635Y0008824D01*
X0196826Y0008584D01*
X0197022Y0008350D01*
X0197225Y0008120D01*
X0197433Y0007896D01*
X0197646Y0007676D01*
X0197865Y0007462D01*
X0198089Y0007253D01*
X0198318Y0007050D01*
X0198552Y0006852D01*
X0198790Y0006661D01*
X0199034Y0006475D01*
X0199281Y0006295D01*
X0199534Y0006121D01*
X0199790Y0005954D01*
X0200050Y0005793D01*
X0200314Y0005638D01*
X0200582Y0005490D01*
X0200853Y0005348D01*
X0201128Y0005213D01*
X0201406Y0005085D01*
X0201687Y0004964D01*
X0201971Y0004849D01*
X0202258Y0004742D01*
X0202547Y0004641D01*
X0202839Y0004548D01*
X0203133Y0004462D01*
X0203428Y0004383D01*
X0203726Y0004312D01*
X0204025Y0004247D01*
X0204326Y0004190D01*
X0204628Y0004141D01*
X0204931Y0004099D01*
X0205236Y0004064D01*
X0205540Y0004037D01*
X0205846Y0004017D01*
X0206152Y0004005D01*
X0206458Y0004000D01*
X0206764Y0004003D01*
X0207070Y0004013D01*
X0207376Y0004031D01*
X0207681Y0004056D01*
X0207985Y0004089D01*
X0208289Y0004129D01*
X0208591Y0004176D01*
X0208892Y0004231D01*
X0209192Y0004293D01*
X0209490Y0004363D01*
X0209786Y0004440D01*
X0210081Y0004524D01*
X0210373Y0004615D01*
X0210663Y0004714D01*
X0210950Y0004819D01*
X0211235Y0004931D01*
X0211517Y0005051D01*
X0211796Y0005177D01*
X0212071Y0005310D01*
X0212344Y0005450D01*
X0212613Y0005596D01*
X0212878Y0005749D01*
X0213139Y0005909D01*
X0213396Y0006075D01*
X0213650Y0006247D01*
X0213899Y0006425D01*
X0214143Y0006609D01*
X0214383Y0006799D01*
X0214618Y0006995D01*
X0214849Y0007197D01*
X0215074Y0007404D01*
X0215294Y0007617D01*
X0215509Y0007835D01*
X0215718Y0008058D01*
X0215922Y0008286D01*
X0216121Y0008519D01*
X0216313Y0008757D01*
X0216500Y0009000D01*
X0186500Y0009000D02*
X0186313Y0008757D01*
X0186121Y0008519D01*
X0185922Y0008286D01*
X0185718Y0008058D01*
X0185509Y0007835D01*
X0185294Y0007617D01*
X0185074Y0007404D01*
X0184849Y0007197D01*
X0184618Y0006995D01*
X0184383Y0006799D01*
X0184143Y0006609D01*
X0183899Y0006425D01*
X0183650Y0006247D01*
X0183396Y0006075D01*
X0183139Y0005909D01*
X0182878Y0005749D01*
X0182613Y0005596D01*
X0182344Y0005450D01*
X0182071Y0005310D01*
X0181796Y0005177D01*
X0181517Y0005051D01*
X0181235Y0004931D01*
X0180950Y0004819D01*
X0180663Y0004714D01*
X0180373Y0004615D01*
X0180081Y0004524D01*
X0179786Y0004440D01*
X0179490Y0004363D01*
X0179192Y0004293D01*
X0178892Y0004231D01*
X0178591Y0004176D01*
X0178289Y0004129D01*
X0177985Y0004089D01*
X0177681Y0004056D01*
X0177376Y0004031D01*
X0177070Y0004013D01*
X0176764Y0004003D01*
X0176458Y0004000D01*
X0176152Y0004005D01*
X0175846Y0004017D01*
X0175540Y0004037D01*
X0175236Y0004064D01*
X0174931Y0004099D01*
X0174628Y0004141D01*
X0174326Y0004190D01*
X0174025Y0004247D01*
X0173726Y0004312D01*
X0173428Y0004383D01*
X0173133Y0004462D01*
X0172839Y0004548D01*
X0172547Y0004641D01*
X0172258Y0004742D01*
X0171971Y0004849D01*
X0171687Y0004964D01*
X0171406Y0005085D01*
X0171128Y0005213D01*
X0170853Y0005348D01*
X0170582Y0005490D01*
X0170314Y0005638D01*
X0170050Y0005793D01*
X0169790Y0005954D01*
X0169534Y0006121D01*
X0169281Y0006295D01*
X0169034Y0006475D01*
X0168790Y0006661D01*
X0168552Y0006852D01*
X0168318Y0007050D01*
X0168089Y0007253D01*
X0167865Y0007462D01*
X0167646Y0007676D01*
X0167433Y0007896D01*
X0167225Y0008120D01*
X0167022Y0008350D01*
X0166826Y0008584D01*
X0166635Y0008824D01*
X0166450Y0009067D01*
X0166271Y0009316D01*
X0166098Y0009568D01*
X0165931Y0009825D01*
X0165771Y0010086D01*
X0165617Y0010351D01*
X0165470Y0010619D01*
X0165329Y0010891D01*
X0165195Y0011166D01*
X0165068Y0011445D01*
X0164947Y0011726D01*
X0164834Y0012011D01*
X0164728Y0012298D01*
X0164628Y0012587D01*
X0164536Y0012879D01*
X0164451Y0013173D01*
X0164373Y0013469D01*
X0164302Y0013767D01*
X0164239Y0014067D01*
X0164183Y0014368D01*
X0164135Y0014670D01*
X0164094Y0014973D01*
X0164060Y0015277D01*
X0164034Y0015582D01*
X0164015Y0015888D01*
X0164004Y0016194D01*
X0164000Y0016500D01*
X0164004Y0016806D01*
X0164015Y0017112D01*
X0164034Y0017418D01*
X0164060Y0017723D01*
X0164094Y0018027D01*
X0164135Y0018330D01*
X0164183Y0018632D01*
X0164239Y0018933D01*
X0164302Y0019233D01*
X0164373Y0019531D01*
X0164451Y0019827D01*
X0164536Y0020121D01*
X0164628Y0020413D01*
X0164728Y0020702D01*
X0164834Y0020989D01*
X0164947Y0021274D01*
X0165068Y0021555D01*
X0165195Y0021834D01*
X0165329Y0022109D01*
X0165470Y0022381D01*
X0165617Y0022649D01*
X0165771Y0022914D01*
X0165931Y0023175D01*
X0166098Y0023432D01*
X0166271Y0023684D01*
X0166450Y0023933D01*
X0166635Y0024176D01*
X0166826Y0024416D01*
X0167022Y0024650D01*
X0167225Y0024880D01*
X0167433Y0025104D01*
X0167646Y0025324D01*
X0167865Y0025538D01*
X0168089Y0025747D01*
X0168318Y0025950D01*
X0168552Y0026148D01*
X0168790Y0026339D01*
X0169034Y0026525D01*
X0169281Y0026705D01*
X0169534Y0026879D01*
X0169790Y0027046D01*
X0170050Y0027207D01*
X0170314Y0027362D01*
X0170582Y0027510D01*
X0170853Y0027652D01*
X0171128Y0027787D01*
X0171406Y0027915D01*
X0171687Y0028036D01*
X0171971Y0028151D01*
X0172258Y0028258D01*
X0172547Y0028359D01*
X0172839Y0028452D01*
X0173133Y0028538D01*
X0173428Y0028617D01*
X0173726Y0028688D01*
X0174025Y0028753D01*
X0174326Y0028810D01*
X0174628Y0028859D01*
X0174931Y0028901D01*
X0175236Y0028936D01*
X0175540Y0028963D01*
X0175846Y0028983D01*
X0176152Y0028995D01*
X0176458Y0029000D01*
X0176764Y0028997D01*
X0177070Y0028987D01*
X0177376Y0028969D01*
X0177681Y0028944D01*
X0177985Y0028911D01*
X0178289Y0028871D01*
X0178591Y0028824D01*
X0178892Y0028769D01*
X0179192Y0028707D01*
X0179490Y0028637D01*
X0179786Y0028560D01*
X0180081Y0028476D01*
X0180373Y0028385D01*
X0180663Y0028286D01*
X0180950Y0028181D01*
X0181235Y0028069D01*
X0181517Y0027949D01*
X0181796Y0027823D01*
X0182071Y0027690D01*
X0182344Y0027550D01*
X0182613Y0027404D01*
X0182878Y0027251D01*
X0183139Y0027091D01*
X0183396Y0026925D01*
X0183650Y0026753D01*
X0183899Y0026575D01*
X0184143Y0026391D01*
X0184383Y0026201D01*
X0184618Y0026005D01*
X0184849Y0025803D01*
X0185074Y0025596D01*
X0185294Y0025383D01*
X0185509Y0025165D01*
X0185718Y0024942D01*
X0185922Y0024714D01*
X0186121Y0024481D01*
X0186313Y0024243D01*
X0186500Y0024000D01*
X0151500Y0024000D02*
X0151313Y0024243D01*
X0151121Y0024481D01*
X0150922Y0024714D01*
X0150718Y0024942D01*
X0150509Y0025165D01*
X0150294Y0025383D01*
X0150074Y0025596D01*
X0149849Y0025803D01*
X0149618Y0026005D01*
X0149383Y0026201D01*
X0149143Y0026391D01*
X0148899Y0026575D01*
X0148650Y0026753D01*
X0148396Y0026925D01*
X0148139Y0027091D01*
X0147878Y0027251D01*
X0147613Y0027404D01*
X0147344Y0027550D01*
X0147071Y0027690D01*
X0146796Y0027823D01*
X0146517Y0027949D01*
X0146235Y0028069D01*
X0145950Y0028181D01*
X0145663Y0028286D01*
X0145373Y0028385D01*
X0145081Y0028476D01*
X0144786Y0028560D01*
X0144490Y0028637D01*
X0144192Y0028707D01*
X0143892Y0028769D01*
X0143591Y0028824D01*
X0143289Y0028871D01*
X0142985Y0028911D01*
X0142681Y0028944D01*
X0142376Y0028969D01*
X0142070Y0028987D01*
X0141764Y0028997D01*
X0141458Y0029000D01*
X0141152Y0028995D01*
X0140846Y0028983D01*
X0140540Y0028963D01*
X0140236Y0028936D01*
X0139931Y0028901D01*
X0139628Y0028859D01*
X0139326Y0028810D01*
X0139025Y0028753D01*
X0138726Y0028688D01*
X0138428Y0028617D01*
X0138133Y0028538D01*
X0137839Y0028452D01*
X0137547Y0028359D01*
X0137258Y0028258D01*
X0136971Y0028151D01*
X0136687Y0028036D01*
X0136406Y0027915D01*
X0136128Y0027787D01*
X0135853Y0027652D01*
X0135582Y0027510D01*
X0135314Y0027362D01*
X0135050Y0027207D01*
X0134790Y0027046D01*
X0134534Y0026879D01*
X0134281Y0026705D01*
X0134034Y0026525D01*
X0133790Y0026339D01*
X0133552Y0026148D01*
X0133318Y0025950D01*
X0133089Y0025747D01*
X0132865Y0025538D01*
X0132646Y0025324D01*
X0132433Y0025104D01*
X0132225Y0024880D01*
X0132022Y0024650D01*
X0131826Y0024416D01*
X0131635Y0024176D01*
X0131450Y0023933D01*
X0131271Y0023684D01*
X0131098Y0023432D01*
X0130931Y0023175D01*
X0130771Y0022914D01*
X0130617Y0022649D01*
X0130470Y0022381D01*
X0130329Y0022109D01*
X0130195Y0021834D01*
X0130068Y0021555D01*
X0129947Y0021274D01*
X0129834Y0020989D01*
X0129728Y0020702D01*
X0129628Y0020413D01*
X0129536Y0020121D01*
X0129451Y0019827D01*
X0129373Y0019531D01*
X0129302Y0019233D01*
X0129239Y0018933D01*
X0129183Y0018632D01*
X0129135Y0018330D01*
X0129094Y0018027D01*
X0129060Y0017723D01*
X0129034Y0017418D01*
X0129015Y0017112D01*
X0129004Y0016806D01*
X0129000Y0016500D01*
X0129004Y0016194D01*
X0129015Y0015888D01*
X0129034Y0015582D01*
X0129060Y0015277D01*
X0129094Y0014973D01*
X0129135Y0014670D01*
X0129183Y0014368D01*
X0129239Y0014067D01*
X0129302Y0013767D01*
X0129373Y0013469D01*
X0129451Y0013173D01*
X0129536Y0012879D01*
X0129628Y0012587D01*
X0129728Y0012298D01*
X0129834Y0012011D01*
X0129947Y0011726D01*
X0130068Y0011445D01*
X0130195Y0011166D01*
X0130329Y0010891D01*
X0130470Y0010619D01*
X0130617Y0010351D01*
X0130771Y0010086D01*
X0130931Y0009825D01*
X0131098Y0009568D01*
X0131271Y0009316D01*
X0131450Y0009067D01*
X0131635Y0008824D01*
X0131826Y0008584D01*
X0132022Y0008350D01*
X0132225Y0008120D01*
X0132433Y0007896D01*
X0132646Y0007676D01*
X0132865Y0007462D01*
X0133089Y0007253D01*
X0133318Y0007050D01*
X0133552Y0006852D01*
X0133790Y0006661D01*
X0134034Y0006475D01*
X0134281Y0006295D01*
X0134534Y0006121D01*
X0134790Y0005954D01*
X0135050Y0005793D01*
X0135314Y0005638D01*
X0135582Y0005490D01*
X0135853Y0005348D01*
X0136128Y0005213D01*
X0136406Y0005085D01*
X0136687Y0004964D01*
X0136971Y0004849D01*
X0137258Y0004742D01*
X0137547Y0004641D01*
X0137839Y0004548D01*
X0138133Y0004462D01*
X0138428Y0004383D01*
X0138726Y0004312D01*
X0139025Y0004247D01*
X0139326Y0004190D01*
X0139628Y0004141D01*
X0139931Y0004099D01*
X0140236Y0004064D01*
X0140540Y0004037D01*
X0140846Y0004017D01*
X0141152Y0004005D01*
X0141458Y0004000D01*
X0141764Y0004003D01*
X0142070Y0004013D01*
X0142376Y0004031D01*
X0142681Y0004056D01*
X0142985Y0004089D01*
X0143289Y0004129D01*
X0143591Y0004176D01*
X0143892Y0004231D01*
X0144192Y0004293D01*
X0144490Y0004363D01*
X0144786Y0004440D01*
X0145081Y0004524D01*
X0145373Y0004615D01*
X0145663Y0004714D01*
X0145950Y0004819D01*
X0146235Y0004931D01*
X0146517Y0005051D01*
X0146796Y0005177D01*
X0147071Y0005310D01*
X0147344Y0005450D01*
X0147613Y0005596D01*
X0147878Y0005749D01*
X0148139Y0005909D01*
X0148396Y0006075D01*
X0148650Y0006247D01*
X0148899Y0006425D01*
X0149143Y0006609D01*
X0149383Y0006799D01*
X0149618Y0006995D01*
X0149849Y0007197D01*
X0150074Y0007404D01*
X0150294Y0007617D01*
X0150509Y0007835D01*
X0150718Y0008058D01*
X0150922Y0008286D01*
X0151121Y0008519D01*
X0151313Y0008757D01*
X0151500Y0009000D01*
X0121500Y0009000D02*
X0121313Y0008757D01*
X0121121Y0008519D01*
X0120922Y0008286D01*
X0120718Y0008058D01*
X0120509Y0007835D01*
X0120294Y0007617D01*
X0120074Y0007404D01*
X0119849Y0007197D01*
X0119618Y0006995D01*
X0119383Y0006799D01*
X0119143Y0006609D01*
X0118899Y0006425D01*
X0118650Y0006247D01*
X0118396Y0006075D01*
X0118139Y0005909D01*
X0117878Y0005749D01*
X0117613Y0005596D01*
X0117344Y0005450D01*
X0117071Y0005310D01*
X0116796Y0005177D01*
X0116517Y0005051D01*
X0116235Y0004931D01*
X0115950Y0004819D01*
X0115663Y0004714D01*
X0115373Y0004615D01*
X0115081Y0004524D01*
X0114786Y0004440D01*
X0114490Y0004363D01*
X0114192Y0004293D01*
X0113892Y0004231D01*
X0113591Y0004176D01*
X0113289Y0004129D01*
X0112985Y0004089D01*
X0112681Y0004056D01*
X0112376Y0004031D01*
X0112070Y0004013D01*
X0111764Y0004003D01*
X0111458Y0004000D01*
X0111152Y0004005D01*
X0110846Y0004017D01*
X0110540Y0004037D01*
X0110236Y0004064D01*
X0109931Y0004099D01*
X0109628Y0004141D01*
X0109326Y0004190D01*
X0109025Y0004247D01*
X0108726Y0004312D01*
X0108428Y0004383D01*
X0108133Y0004462D01*
X0107839Y0004548D01*
X0107547Y0004641D01*
X0107258Y0004742D01*
X0106971Y0004849D01*
X0106687Y0004964D01*
X0106406Y0005085D01*
X0106128Y0005213D01*
X0105853Y0005348D01*
X0105582Y0005490D01*
X0105314Y0005638D01*
X0105050Y0005793D01*
X0104790Y0005954D01*
X0104534Y0006121D01*
X0104281Y0006295D01*
X0104034Y0006475D01*
X0103790Y0006661D01*
X0103552Y0006852D01*
X0103318Y0007050D01*
X0103089Y0007253D01*
X0102865Y0007462D01*
X0102646Y0007676D01*
X0102433Y0007896D01*
X0102225Y0008120D01*
X0102022Y0008350D01*
X0101826Y0008584D01*
X0101635Y0008824D01*
X0101450Y0009067D01*
X0101271Y0009316D01*
X0101098Y0009568D01*
X0100931Y0009825D01*
X0100771Y0010086D01*
X0100617Y0010351D01*
X0100470Y0010619D01*
X0100329Y0010891D01*
X0100195Y0011166D01*
X0100068Y0011445D01*
X0099947Y0011726D01*
X0099834Y0012011D01*
X0099728Y0012298D01*
X0099628Y0012587D01*
X0099536Y0012879D01*
X0099451Y0013173D01*
X0099373Y0013469D01*
X0099302Y0013767D01*
X0099239Y0014067D01*
X0099183Y0014368D01*
X0099135Y0014670D01*
X0099094Y0014973D01*
X0099060Y0015277D01*
X0099034Y0015582D01*
X0099015Y0015888D01*
X0099004Y0016194D01*
X0099000Y0016500D01*
X0099004Y0016806D01*
X0099015Y0017112D01*
X0099034Y0017418D01*
X0099060Y0017723D01*
X0099094Y0018027D01*
X0099135Y0018330D01*
X0099183Y0018632D01*
X0099239Y0018933D01*
X0099302Y0019233D01*
X0099373Y0019531D01*
X0099451Y0019827D01*
X0099536Y0020121D01*
X0099628Y0020413D01*
X0099728Y0020702D01*
X0099834Y0020989D01*
X0099947Y0021274D01*
X0100068Y0021555D01*
X0100195Y0021834D01*
X0100329Y0022109D01*
X0100470Y0022381D01*
X0100617Y0022649D01*
X0100771Y0022914D01*
X0100931Y0023175D01*
X0101098Y0023432D01*
X0101271Y0023684D01*
X0101450Y0023933D01*
X0101635Y0024176D01*
X0101826Y0024416D01*
X0102022Y0024650D01*
X0102225Y0024880D01*
X0102433Y0025104D01*
X0102646Y0025324D01*
X0102865Y0025538D01*
X0103089Y0025747D01*
X0103318Y0025950D01*
X0103552Y0026148D01*
X0103790Y0026339D01*
X0104034Y0026525D01*
X0104281Y0026705D01*
X0104534Y0026879D01*
X0104790Y0027046D01*
X0105050Y0027207D01*
X0105314Y0027362D01*
X0105582Y0027510D01*
X0105853Y0027652D01*
X0106128Y0027787D01*
X0106406Y0027915D01*
X0106687Y0028036D01*
X0106971Y0028151D01*
X0107258Y0028258D01*
X0107547Y0028359D01*
X0107839Y0028452D01*
X0108133Y0028538D01*
X0108428Y0028617D01*
X0108726Y0028688D01*
X0109025Y0028753D01*
X0109326Y0028810D01*
X0109628Y0028859D01*
X0109931Y0028901D01*
X0110236Y0028936D01*
X0110540Y0028963D01*
X0110846Y0028983D01*
X0111152Y0028995D01*
X0111458Y0029000D01*
X0111764Y0028997D01*
X0112070Y0028987D01*
X0112376Y0028969D01*
X0112681Y0028944D01*
X0112985Y0028911D01*
X0113289Y0028871D01*
X0113591Y0028824D01*
X0113892Y0028769D01*
X0114192Y0028707D01*
X0114490Y0028637D01*
X0114786Y0028560D01*
X0115081Y0028476D01*
X0115373Y0028385D01*
X0115663Y0028286D01*
X0115950Y0028181D01*
X0116235Y0028069D01*
X0116517Y0027949D01*
X0116796Y0027823D01*
X0117071Y0027690D01*
X0117344Y0027550D01*
X0117613Y0027404D01*
X0117878Y0027251D01*
X0118139Y0027091D01*
X0118396Y0026925D01*
X0118650Y0026753D01*
X0118899Y0026575D01*
X0119143Y0026391D01*
X0119383Y0026201D01*
X0119618Y0026005D01*
X0119849Y0025803D01*
X0120074Y0025596D01*
X0120294Y0025383D01*
X0120509Y0025165D01*
X0120718Y0024942D01*
X0120922Y0024714D01*
X0121121Y0024481D01*
X0121313Y0024243D01*
X0121500Y0024000D01*
X0090831Y0032219D02*
X0032169Y0032219D01*
X0032169Y0054856D01*
X0090831Y0054856D01*
X0090831Y0032219D01*
X0081579Y0032445D02*
X0081579Y0034413D01*
X0041421Y0034413D02*
X0041421Y0032445D01*
X0026500Y0024000D02*
X0026313Y0024243D01*
X0026121Y0024481D01*
X0025922Y0024714D01*
X0025718Y0024942D01*
X0025509Y0025165D01*
X0025294Y0025383D01*
X0025074Y0025596D01*
X0024849Y0025803D01*
X0024618Y0026005D01*
X0024383Y0026201D01*
X0024143Y0026391D01*
X0023899Y0026575D01*
X0023650Y0026753D01*
X0023396Y0026925D01*
X0023139Y0027091D01*
X0022878Y0027251D01*
X0022613Y0027404D01*
X0022344Y0027550D01*
X0022071Y0027690D01*
X0021796Y0027823D01*
X0021517Y0027949D01*
X0021235Y0028069D01*
X0020950Y0028181D01*
X0020663Y0028286D01*
X0020373Y0028385D01*
X0020081Y0028476D01*
X0019786Y0028560D01*
X0019490Y0028637D01*
X0019192Y0028707D01*
X0018892Y0028769D01*
X0018591Y0028824D01*
X0018289Y0028871D01*
X0017985Y0028911D01*
X0017681Y0028944D01*
X0017376Y0028969D01*
X0017070Y0028987D01*
X0016764Y0028997D01*
X0016458Y0029000D01*
X0016152Y0028995D01*
X0015846Y0028983D01*
X0015540Y0028963D01*
X0015236Y0028936D01*
X0014931Y0028901D01*
X0014628Y0028859D01*
X0014326Y0028810D01*
X0014025Y0028753D01*
X0013726Y0028688D01*
X0013428Y0028617D01*
X0013133Y0028538D01*
X0012839Y0028452D01*
X0012547Y0028359D01*
X0012258Y0028258D01*
X0011971Y0028151D01*
X0011687Y0028036D01*
X0011406Y0027915D01*
X0011128Y0027787D01*
X0010853Y0027652D01*
X0010582Y0027510D01*
X0010314Y0027362D01*
X0010050Y0027207D01*
X0009790Y0027046D01*
X0009534Y0026879D01*
X0009281Y0026705D01*
X0009034Y0026525D01*
X0008790Y0026339D01*
X0008552Y0026148D01*
X0008318Y0025950D01*
X0008089Y0025747D01*
X0007865Y0025538D01*
X0007646Y0025324D01*
X0007433Y0025104D01*
X0007225Y0024880D01*
X0007022Y0024650D01*
X0006826Y0024416D01*
X0006635Y0024176D01*
X0006450Y0023933D01*
X0006271Y0023684D01*
X0006098Y0023432D01*
X0005931Y0023175D01*
X0005771Y0022914D01*
X0005617Y0022649D01*
X0005470Y0022381D01*
X0005329Y0022109D01*
X0005195Y0021834D01*
X0005068Y0021555D01*
X0004947Y0021274D01*
X0004834Y0020989D01*
X0004728Y0020702D01*
X0004628Y0020413D01*
X0004536Y0020121D01*
X0004451Y0019827D01*
X0004373Y0019531D01*
X0004302Y0019233D01*
X0004239Y0018933D01*
X0004183Y0018632D01*
X0004135Y0018330D01*
X0004094Y0018027D01*
X0004060Y0017723D01*
X0004034Y0017418D01*
X0004015Y0017112D01*
X0004004Y0016806D01*
X0004000Y0016500D01*
X0004004Y0016194D01*
X0004015Y0015888D01*
X0004034Y0015582D01*
X0004060Y0015277D01*
X0004094Y0014973D01*
X0004135Y0014670D01*
X0004183Y0014368D01*
X0004239Y0014067D01*
X0004302Y0013767D01*
X0004373Y0013469D01*
X0004451Y0013173D01*
X0004536Y0012879D01*
X0004628Y0012587D01*
X0004728Y0012298D01*
X0004834Y0012011D01*
X0004947Y0011726D01*
X0005068Y0011445D01*
X0005195Y0011166D01*
X0005329Y0010891D01*
X0005470Y0010619D01*
X0005617Y0010351D01*
X0005771Y0010086D01*
X0005931Y0009825D01*
X0006098Y0009568D01*
X0006271Y0009316D01*
X0006450Y0009067D01*
X0006635Y0008824D01*
X0006826Y0008584D01*
X0007022Y0008350D01*
X0007225Y0008120D01*
X0007433Y0007896D01*
X0007646Y0007676D01*
X0007865Y0007462D01*
X0008089Y0007253D01*
X0008318Y0007050D01*
X0008552Y0006852D01*
X0008790Y0006661D01*
X0009034Y0006475D01*
X0009281Y0006295D01*
X0009534Y0006121D01*
X0009790Y0005954D01*
X0010050Y0005793D01*
X0010314Y0005638D01*
X0010582Y0005490D01*
X0010853Y0005348D01*
X0011128Y0005213D01*
X0011406Y0005085D01*
X0011687Y0004964D01*
X0011971Y0004849D01*
X0012258Y0004742D01*
X0012547Y0004641D01*
X0012839Y0004548D01*
X0013133Y0004462D01*
X0013428Y0004383D01*
X0013726Y0004312D01*
X0014025Y0004247D01*
X0014326Y0004190D01*
X0014628Y0004141D01*
X0014931Y0004099D01*
X0015236Y0004064D01*
X0015540Y0004037D01*
X0015846Y0004017D01*
X0016152Y0004005D01*
X0016458Y0004000D01*
X0016764Y0004003D01*
X0017070Y0004013D01*
X0017376Y0004031D01*
X0017681Y0004056D01*
X0017985Y0004089D01*
X0018289Y0004129D01*
X0018591Y0004176D01*
X0018892Y0004231D01*
X0019192Y0004293D01*
X0019490Y0004363D01*
X0019786Y0004440D01*
X0020081Y0004524D01*
X0020373Y0004615D01*
X0020663Y0004714D01*
X0020950Y0004819D01*
X0021235Y0004931D01*
X0021517Y0005051D01*
X0021796Y0005177D01*
X0022071Y0005310D01*
X0022344Y0005450D01*
X0022613Y0005596D01*
X0022878Y0005749D01*
X0023139Y0005909D01*
X0023396Y0006075D01*
X0023650Y0006247D01*
X0023899Y0006425D01*
X0024143Y0006609D01*
X0024383Y0006799D01*
X0024618Y0006995D01*
X0024849Y0007197D01*
X0025074Y0007404D01*
X0025294Y0007617D01*
X0025509Y0007835D01*
X0025718Y0008058D01*
X0025922Y0008286D01*
X0026121Y0008519D01*
X0026313Y0008757D01*
X0026500Y0009000D01*
D13*
X0006500Y0016500D02*
X0006503Y0016745D01*
X0006512Y0016991D01*
X0006527Y0017236D01*
X0006548Y0017480D01*
X0006575Y0017724D01*
X0006608Y0017967D01*
X0006647Y0018210D01*
X0006692Y0018451D01*
X0006743Y0018691D01*
X0006800Y0018930D01*
X0006862Y0019167D01*
X0006931Y0019403D01*
X0007005Y0019637D01*
X0007085Y0019869D01*
X0007170Y0020099D01*
X0007261Y0020327D01*
X0007358Y0020552D01*
X0007460Y0020776D01*
X0007568Y0020996D01*
X0007681Y0021214D01*
X0007799Y0021429D01*
X0007923Y0021641D01*
X0008051Y0021850D01*
X0008185Y0022056D01*
X0008324Y0022258D01*
X0008468Y0022457D01*
X0008617Y0022652D01*
X0008770Y0022844D01*
X0008928Y0023032D01*
X0009090Y0023216D01*
X0009258Y0023395D01*
X0009429Y0023571D01*
X0009605Y0023742D01*
X0009784Y0023910D01*
X0009968Y0024072D01*
X0010156Y0024230D01*
X0010348Y0024383D01*
X0010543Y0024532D01*
X0010742Y0024676D01*
X0010944Y0024815D01*
X0011150Y0024949D01*
X0011359Y0025077D01*
X0011571Y0025201D01*
X0011786Y0025319D01*
X0012004Y0025432D01*
X0012224Y0025540D01*
X0012448Y0025642D01*
X0012673Y0025739D01*
X0012901Y0025830D01*
X0013131Y0025915D01*
X0013363Y0025995D01*
X0013597Y0026069D01*
X0013833Y0026138D01*
X0014070Y0026200D01*
X0014309Y0026257D01*
X0014549Y0026308D01*
X0014790Y0026353D01*
X0015033Y0026392D01*
X0015276Y0026425D01*
X0015520Y0026452D01*
X0015764Y0026473D01*
X0016009Y0026488D01*
X0016255Y0026497D01*
X0016500Y0026500D01*
X0016745Y0026497D01*
X0016991Y0026488D01*
X0017236Y0026473D01*
X0017480Y0026452D01*
X0017724Y0026425D01*
X0017967Y0026392D01*
X0018210Y0026353D01*
X0018451Y0026308D01*
X0018691Y0026257D01*
X0018930Y0026200D01*
X0019167Y0026138D01*
X0019403Y0026069D01*
X0019637Y0025995D01*
X0019869Y0025915D01*
X0020099Y0025830D01*
X0020327Y0025739D01*
X0020552Y0025642D01*
X0020776Y0025540D01*
X0020996Y0025432D01*
X0021214Y0025319D01*
X0021429Y0025201D01*
X0021641Y0025077D01*
X0021850Y0024949D01*
X0022056Y0024815D01*
X0022258Y0024676D01*
X0022457Y0024532D01*
X0022652Y0024383D01*
X0022844Y0024230D01*
X0023032Y0024072D01*
X0023216Y0023910D01*
X0023395Y0023742D01*
X0023571Y0023571D01*
X0023742Y0023395D01*
X0023910Y0023216D01*
X0024072Y0023032D01*
X0024230Y0022844D01*
X0024383Y0022652D01*
X0024532Y0022457D01*
X0024676Y0022258D01*
X0024815Y0022056D01*
X0024949Y0021850D01*
X0025077Y0021641D01*
X0025201Y0021429D01*
X0025319Y0021214D01*
X0025432Y0020996D01*
X0025540Y0020776D01*
X0025642Y0020552D01*
X0025739Y0020327D01*
X0025830Y0020099D01*
X0025915Y0019869D01*
X0025995Y0019637D01*
X0026069Y0019403D01*
X0026138Y0019167D01*
X0026200Y0018930D01*
X0026257Y0018691D01*
X0026308Y0018451D01*
X0026353Y0018210D01*
X0026392Y0017967D01*
X0026425Y0017724D01*
X0026452Y0017480D01*
X0026473Y0017236D01*
X0026488Y0016991D01*
X0026497Y0016745D01*
X0026500Y0016500D01*
X0026497Y0016255D01*
X0026488Y0016009D01*
X0026473Y0015764D01*
X0026452Y0015520D01*
X0026425Y0015276D01*
X0026392Y0015033D01*
X0026353Y0014790D01*
X0026308Y0014549D01*
X0026257Y0014309D01*
X0026200Y0014070D01*
X0026138Y0013833D01*
X0026069Y0013597D01*
X0025995Y0013363D01*
X0025915Y0013131D01*
X0025830Y0012901D01*
X0025739Y0012673D01*
X0025642Y0012448D01*
X0025540Y0012224D01*
X0025432Y0012004D01*
X0025319Y0011786D01*
X0025201Y0011571D01*
X0025077Y0011359D01*
X0024949Y0011150D01*
X0024815Y0010944D01*
X0024676Y0010742D01*
X0024532Y0010543D01*
X0024383Y0010348D01*
X0024230Y0010156D01*
X0024072Y0009968D01*
X0023910Y0009784D01*
X0023742Y0009605D01*
X0023571Y0009429D01*
X0023395Y0009258D01*
X0023216Y0009090D01*
X0023032Y0008928D01*
X0022844Y0008770D01*
X0022652Y0008617D01*
X0022457Y0008468D01*
X0022258Y0008324D01*
X0022056Y0008185D01*
X0021850Y0008051D01*
X0021641Y0007923D01*
X0021429Y0007799D01*
X0021214Y0007681D01*
X0020996Y0007568D01*
X0020776Y0007460D01*
X0020552Y0007358D01*
X0020327Y0007261D01*
X0020099Y0007170D01*
X0019869Y0007085D01*
X0019637Y0007005D01*
X0019403Y0006931D01*
X0019167Y0006862D01*
X0018930Y0006800D01*
X0018691Y0006743D01*
X0018451Y0006692D01*
X0018210Y0006647D01*
X0017967Y0006608D01*
X0017724Y0006575D01*
X0017480Y0006548D01*
X0017236Y0006527D01*
X0016991Y0006512D01*
X0016745Y0006503D01*
X0016500Y0006500D01*
X0016255Y0006503D01*
X0016009Y0006512D01*
X0015764Y0006527D01*
X0015520Y0006548D01*
X0015276Y0006575D01*
X0015033Y0006608D01*
X0014790Y0006647D01*
X0014549Y0006692D01*
X0014309Y0006743D01*
X0014070Y0006800D01*
X0013833Y0006862D01*
X0013597Y0006931D01*
X0013363Y0007005D01*
X0013131Y0007085D01*
X0012901Y0007170D01*
X0012673Y0007261D01*
X0012448Y0007358D01*
X0012224Y0007460D01*
X0012004Y0007568D01*
X0011786Y0007681D01*
X0011571Y0007799D01*
X0011359Y0007923D01*
X0011150Y0008051D01*
X0010944Y0008185D01*
X0010742Y0008324D01*
X0010543Y0008468D01*
X0010348Y0008617D01*
X0010156Y0008770D01*
X0009968Y0008928D01*
X0009784Y0009090D01*
X0009605Y0009258D01*
X0009429Y0009429D01*
X0009258Y0009605D01*
X0009090Y0009784D01*
X0008928Y0009968D01*
X0008770Y0010156D01*
X0008617Y0010348D01*
X0008468Y0010543D01*
X0008324Y0010742D01*
X0008185Y0010944D01*
X0008051Y0011150D01*
X0007923Y0011359D01*
X0007799Y0011571D01*
X0007681Y0011786D01*
X0007568Y0012004D01*
X0007460Y0012224D01*
X0007358Y0012448D01*
X0007261Y0012673D01*
X0007170Y0012901D01*
X0007085Y0013131D01*
X0007005Y0013363D01*
X0006931Y0013597D01*
X0006862Y0013833D01*
X0006800Y0014070D01*
X0006743Y0014309D01*
X0006692Y0014549D01*
X0006647Y0014790D01*
X0006608Y0015033D01*
X0006575Y0015276D01*
X0006548Y0015520D01*
X0006527Y0015764D01*
X0006512Y0016009D01*
X0006503Y0016255D01*
X0006500Y0016500D01*
X0005893Y0039803D02*
X0004053Y0041643D01*
X0004973Y0042563D01*
X0005587Y0042563D01*
X0006200Y0041950D01*
X0006200Y0041336D01*
X0005280Y0040416D01*
X0005893Y0041030D02*
X0007120Y0041030D01*
X0007057Y0042806D02*
X0008284Y0044033D01*
X0008897Y0042806D02*
X0007057Y0044647D01*
X0007057Y0042806D01*
X0101500Y0016500D02*
X0101503Y0016745D01*
X0101512Y0016991D01*
X0101527Y0017236D01*
X0101548Y0017480D01*
X0101575Y0017724D01*
X0101608Y0017967D01*
X0101647Y0018210D01*
X0101692Y0018451D01*
X0101743Y0018691D01*
X0101800Y0018930D01*
X0101862Y0019167D01*
X0101931Y0019403D01*
X0102005Y0019637D01*
X0102085Y0019869D01*
X0102170Y0020099D01*
X0102261Y0020327D01*
X0102358Y0020552D01*
X0102460Y0020776D01*
X0102568Y0020996D01*
X0102681Y0021214D01*
X0102799Y0021429D01*
X0102923Y0021641D01*
X0103051Y0021850D01*
X0103185Y0022056D01*
X0103324Y0022258D01*
X0103468Y0022457D01*
X0103617Y0022652D01*
X0103770Y0022844D01*
X0103928Y0023032D01*
X0104090Y0023216D01*
X0104258Y0023395D01*
X0104429Y0023571D01*
X0104605Y0023742D01*
X0104784Y0023910D01*
X0104968Y0024072D01*
X0105156Y0024230D01*
X0105348Y0024383D01*
X0105543Y0024532D01*
X0105742Y0024676D01*
X0105944Y0024815D01*
X0106150Y0024949D01*
X0106359Y0025077D01*
X0106571Y0025201D01*
X0106786Y0025319D01*
X0107004Y0025432D01*
X0107224Y0025540D01*
X0107448Y0025642D01*
X0107673Y0025739D01*
X0107901Y0025830D01*
X0108131Y0025915D01*
X0108363Y0025995D01*
X0108597Y0026069D01*
X0108833Y0026138D01*
X0109070Y0026200D01*
X0109309Y0026257D01*
X0109549Y0026308D01*
X0109790Y0026353D01*
X0110033Y0026392D01*
X0110276Y0026425D01*
X0110520Y0026452D01*
X0110764Y0026473D01*
X0111009Y0026488D01*
X0111255Y0026497D01*
X0111500Y0026500D01*
X0111745Y0026497D01*
X0111991Y0026488D01*
X0112236Y0026473D01*
X0112480Y0026452D01*
X0112724Y0026425D01*
X0112967Y0026392D01*
X0113210Y0026353D01*
X0113451Y0026308D01*
X0113691Y0026257D01*
X0113930Y0026200D01*
X0114167Y0026138D01*
X0114403Y0026069D01*
X0114637Y0025995D01*
X0114869Y0025915D01*
X0115099Y0025830D01*
X0115327Y0025739D01*
X0115552Y0025642D01*
X0115776Y0025540D01*
X0115996Y0025432D01*
X0116214Y0025319D01*
X0116429Y0025201D01*
X0116641Y0025077D01*
X0116850Y0024949D01*
X0117056Y0024815D01*
X0117258Y0024676D01*
X0117457Y0024532D01*
X0117652Y0024383D01*
X0117844Y0024230D01*
X0118032Y0024072D01*
X0118216Y0023910D01*
X0118395Y0023742D01*
X0118571Y0023571D01*
X0118742Y0023395D01*
X0118910Y0023216D01*
X0119072Y0023032D01*
X0119230Y0022844D01*
X0119383Y0022652D01*
X0119532Y0022457D01*
X0119676Y0022258D01*
X0119815Y0022056D01*
X0119949Y0021850D01*
X0120077Y0021641D01*
X0120201Y0021429D01*
X0120319Y0021214D01*
X0120432Y0020996D01*
X0120540Y0020776D01*
X0120642Y0020552D01*
X0120739Y0020327D01*
X0120830Y0020099D01*
X0120915Y0019869D01*
X0120995Y0019637D01*
X0121069Y0019403D01*
X0121138Y0019167D01*
X0121200Y0018930D01*
X0121257Y0018691D01*
X0121308Y0018451D01*
X0121353Y0018210D01*
X0121392Y0017967D01*
X0121425Y0017724D01*
X0121452Y0017480D01*
X0121473Y0017236D01*
X0121488Y0016991D01*
X0121497Y0016745D01*
X0121500Y0016500D01*
X0121497Y0016255D01*
X0121488Y0016009D01*
X0121473Y0015764D01*
X0121452Y0015520D01*
X0121425Y0015276D01*
X0121392Y0015033D01*
X0121353Y0014790D01*
X0121308Y0014549D01*
X0121257Y0014309D01*
X0121200Y0014070D01*
X0121138Y0013833D01*
X0121069Y0013597D01*
X0120995Y0013363D01*
X0120915Y0013131D01*
X0120830Y0012901D01*
X0120739Y0012673D01*
X0120642Y0012448D01*
X0120540Y0012224D01*
X0120432Y0012004D01*
X0120319Y0011786D01*
X0120201Y0011571D01*
X0120077Y0011359D01*
X0119949Y0011150D01*
X0119815Y0010944D01*
X0119676Y0010742D01*
X0119532Y0010543D01*
X0119383Y0010348D01*
X0119230Y0010156D01*
X0119072Y0009968D01*
X0118910Y0009784D01*
X0118742Y0009605D01*
X0118571Y0009429D01*
X0118395Y0009258D01*
X0118216Y0009090D01*
X0118032Y0008928D01*
X0117844Y0008770D01*
X0117652Y0008617D01*
X0117457Y0008468D01*
X0117258Y0008324D01*
X0117056Y0008185D01*
X0116850Y0008051D01*
X0116641Y0007923D01*
X0116429Y0007799D01*
X0116214Y0007681D01*
X0115996Y0007568D01*
X0115776Y0007460D01*
X0115552Y0007358D01*
X0115327Y0007261D01*
X0115099Y0007170D01*
X0114869Y0007085D01*
X0114637Y0007005D01*
X0114403Y0006931D01*
X0114167Y0006862D01*
X0113930Y0006800D01*
X0113691Y0006743D01*
X0113451Y0006692D01*
X0113210Y0006647D01*
X0112967Y0006608D01*
X0112724Y0006575D01*
X0112480Y0006548D01*
X0112236Y0006527D01*
X0111991Y0006512D01*
X0111745Y0006503D01*
X0111500Y0006500D01*
X0111255Y0006503D01*
X0111009Y0006512D01*
X0110764Y0006527D01*
X0110520Y0006548D01*
X0110276Y0006575D01*
X0110033Y0006608D01*
X0109790Y0006647D01*
X0109549Y0006692D01*
X0109309Y0006743D01*
X0109070Y0006800D01*
X0108833Y0006862D01*
X0108597Y0006931D01*
X0108363Y0007005D01*
X0108131Y0007085D01*
X0107901Y0007170D01*
X0107673Y0007261D01*
X0107448Y0007358D01*
X0107224Y0007460D01*
X0107004Y0007568D01*
X0106786Y0007681D01*
X0106571Y0007799D01*
X0106359Y0007923D01*
X0106150Y0008051D01*
X0105944Y0008185D01*
X0105742Y0008324D01*
X0105543Y0008468D01*
X0105348Y0008617D01*
X0105156Y0008770D01*
X0104968Y0008928D01*
X0104784Y0009090D01*
X0104605Y0009258D01*
X0104429Y0009429D01*
X0104258Y0009605D01*
X0104090Y0009784D01*
X0103928Y0009968D01*
X0103770Y0010156D01*
X0103617Y0010348D01*
X0103468Y0010543D01*
X0103324Y0010742D01*
X0103185Y0010944D01*
X0103051Y0011150D01*
X0102923Y0011359D01*
X0102799Y0011571D01*
X0102681Y0011786D01*
X0102568Y0012004D01*
X0102460Y0012224D01*
X0102358Y0012448D01*
X0102261Y0012673D01*
X0102170Y0012901D01*
X0102085Y0013131D01*
X0102005Y0013363D01*
X0101931Y0013597D01*
X0101862Y0013833D01*
X0101800Y0014070D01*
X0101743Y0014309D01*
X0101692Y0014549D01*
X0101647Y0014790D01*
X0101608Y0015033D01*
X0101575Y0015276D01*
X0101548Y0015520D01*
X0101527Y0015764D01*
X0101512Y0016009D01*
X0101503Y0016255D01*
X0101500Y0016500D01*
X0129699Y0028214D02*
X0130926Y0026987D01*
X0130313Y0027601D02*
X0132153Y0029441D01*
X0130926Y0029441D01*
X0130376Y0030604D02*
X0129763Y0029991D01*
X0129149Y0029991D01*
X0128229Y0030911D01*
X0127616Y0030298D02*
X0129456Y0032138D01*
X0130376Y0031218D01*
X0130376Y0030604D01*
X0128842Y0030298D02*
X0128843Y0029071D01*
X0162616Y0032798D02*
X0164456Y0034638D01*
X0165376Y0033718D01*
X0165376Y0033104D01*
X0164763Y0032491D01*
X0164149Y0032491D01*
X0163229Y0033411D01*
X0163842Y0032798D02*
X0163843Y0031571D01*
X0165006Y0031021D02*
X0165006Y0030407D01*
X0165619Y0029794D01*
X0166233Y0029794D01*
X0166539Y0030101D01*
X0166539Y0030714D01*
X0166233Y0031021D01*
X0166539Y0030714D02*
X0167153Y0030714D01*
X0167459Y0031021D01*
X0167459Y0031634D01*
X0166846Y0032248D01*
X0166233Y0032248D01*
X0192616Y0032798D02*
X0194456Y0034638D01*
X0195376Y0033718D01*
X0195376Y0033104D01*
X0194763Y0032491D01*
X0194149Y0032491D01*
X0193229Y0033411D01*
X0193842Y0032798D02*
X0193843Y0031571D01*
X0194699Y0030714D02*
X0197153Y0030714D01*
X0197459Y0031021D01*
X0197459Y0031634D01*
X0196846Y0032248D01*
X0196233Y0032248D01*
X0194699Y0030714D02*
X0195926Y0029487D01*
X0196500Y0016500D02*
X0196503Y0016745D01*
X0196512Y0016991D01*
X0196527Y0017236D01*
X0196548Y0017480D01*
X0196575Y0017724D01*
X0196608Y0017967D01*
X0196647Y0018210D01*
X0196692Y0018451D01*
X0196743Y0018691D01*
X0196800Y0018930D01*
X0196862Y0019167D01*
X0196931Y0019403D01*
X0197005Y0019637D01*
X0197085Y0019869D01*
X0197170Y0020099D01*
X0197261Y0020327D01*
X0197358Y0020552D01*
X0197460Y0020776D01*
X0197568Y0020996D01*
X0197681Y0021214D01*
X0197799Y0021429D01*
X0197923Y0021641D01*
X0198051Y0021850D01*
X0198185Y0022056D01*
X0198324Y0022258D01*
X0198468Y0022457D01*
X0198617Y0022652D01*
X0198770Y0022844D01*
X0198928Y0023032D01*
X0199090Y0023216D01*
X0199258Y0023395D01*
X0199429Y0023571D01*
X0199605Y0023742D01*
X0199784Y0023910D01*
X0199968Y0024072D01*
X0200156Y0024230D01*
X0200348Y0024383D01*
X0200543Y0024532D01*
X0200742Y0024676D01*
X0200944Y0024815D01*
X0201150Y0024949D01*
X0201359Y0025077D01*
X0201571Y0025201D01*
X0201786Y0025319D01*
X0202004Y0025432D01*
X0202224Y0025540D01*
X0202448Y0025642D01*
X0202673Y0025739D01*
X0202901Y0025830D01*
X0203131Y0025915D01*
X0203363Y0025995D01*
X0203597Y0026069D01*
X0203833Y0026138D01*
X0204070Y0026200D01*
X0204309Y0026257D01*
X0204549Y0026308D01*
X0204790Y0026353D01*
X0205033Y0026392D01*
X0205276Y0026425D01*
X0205520Y0026452D01*
X0205764Y0026473D01*
X0206009Y0026488D01*
X0206255Y0026497D01*
X0206500Y0026500D01*
X0206745Y0026497D01*
X0206991Y0026488D01*
X0207236Y0026473D01*
X0207480Y0026452D01*
X0207724Y0026425D01*
X0207967Y0026392D01*
X0208210Y0026353D01*
X0208451Y0026308D01*
X0208691Y0026257D01*
X0208930Y0026200D01*
X0209167Y0026138D01*
X0209403Y0026069D01*
X0209637Y0025995D01*
X0209869Y0025915D01*
X0210099Y0025830D01*
X0210327Y0025739D01*
X0210552Y0025642D01*
X0210776Y0025540D01*
X0210996Y0025432D01*
X0211214Y0025319D01*
X0211429Y0025201D01*
X0211641Y0025077D01*
X0211850Y0024949D01*
X0212056Y0024815D01*
X0212258Y0024676D01*
X0212457Y0024532D01*
X0212652Y0024383D01*
X0212844Y0024230D01*
X0213032Y0024072D01*
X0213216Y0023910D01*
X0213395Y0023742D01*
X0213571Y0023571D01*
X0213742Y0023395D01*
X0213910Y0023216D01*
X0214072Y0023032D01*
X0214230Y0022844D01*
X0214383Y0022652D01*
X0214532Y0022457D01*
X0214676Y0022258D01*
X0214815Y0022056D01*
X0214949Y0021850D01*
X0215077Y0021641D01*
X0215201Y0021429D01*
X0215319Y0021214D01*
X0215432Y0020996D01*
X0215540Y0020776D01*
X0215642Y0020552D01*
X0215739Y0020327D01*
X0215830Y0020099D01*
X0215915Y0019869D01*
X0215995Y0019637D01*
X0216069Y0019403D01*
X0216138Y0019167D01*
X0216200Y0018930D01*
X0216257Y0018691D01*
X0216308Y0018451D01*
X0216353Y0018210D01*
X0216392Y0017967D01*
X0216425Y0017724D01*
X0216452Y0017480D01*
X0216473Y0017236D01*
X0216488Y0016991D01*
X0216497Y0016745D01*
X0216500Y0016500D01*
X0216497Y0016255D01*
X0216488Y0016009D01*
X0216473Y0015764D01*
X0216452Y0015520D01*
X0216425Y0015276D01*
X0216392Y0015033D01*
X0216353Y0014790D01*
X0216308Y0014549D01*
X0216257Y0014309D01*
X0216200Y0014070D01*
X0216138Y0013833D01*
X0216069Y0013597D01*
X0215995Y0013363D01*
X0215915Y0013131D01*
X0215830Y0012901D01*
X0215739Y0012673D01*
X0215642Y0012448D01*
X0215540Y0012224D01*
X0215432Y0012004D01*
X0215319Y0011786D01*
X0215201Y0011571D01*
X0215077Y0011359D01*
X0214949Y0011150D01*
X0214815Y0010944D01*
X0214676Y0010742D01*
X0214532Y0010543D01*
X0214383Y0010348D01*
X0214230Y0010156D01*
X0214072Y0009968D01*
X0213910Y0009784D01*
X0213742Y0009605D01*
X0213571Y0009429D01*
X0213395Y0009258D01*
X0213216Y0009090D01*
X0213032Y0008928D01*
X0212844Y0008770D01*
X0212652Y0008617D01*
X0212457Y0008468D01*
X0212258Y0008324D01*
X0212056Y0008185D01*
X0211850Y0008051D01*
X0211641Y0007923D01*
X0211429Y0007799D01*
X0211214Y0007681D01*
X0210996Y0007568D01*
X0210776Y0007460D01*
X0210552Y0007358D01*
X0210327Y0007261D01*
X0210099Y0007170D01*
X0209869Y0007085D01*
X0209637Y0007005D01*
X0209403Y0006931D01*
X0209167Y0006862D01*
X0208930Y0006800D01*
X0208691Y0006743D01*
X0208451Y0006692D01*
X0208210Y0006647D01*
X0207967Y0006608D01*
X0207724Y0006575D01*
X0207480Y0006548D01*
X0207236Y0006527D01*
X0206991Y0006512D01*
X0206745Y0006503D01*
X0206500Y0006500D01*
X0206255Y0006503D01*
X0206009Y0006512D01*
X0205764Y0006527D01*
X0205520Y0006548D01*
X0205276Y0006575D01*
X0205033Y0006608D01*
X0204790Y0006647D01*
X0204549Y0006692D01*
X0204309Y0006743D01*
X0204070Y0006800D01*
X0203833Y0006862D01*
X0203597Y0006931D01*
X0203363Y0007005D01*
X0203131Y0007085D01*
X0202901Y0007170D01*
X0202673Y0007261D01*
X0202448Y0007358D01*
X0202224Y0007460D01*
X0202004Y0007568D01*
X0201786Y0007681D01*
X0201571Y0007799D01*
X0201359Y0007923D01*
X0201150Y0008051D01*
X0200944Y0008185D01*
X0200742Y0008324D01*
X0200543Y0008468D01*
X0200348Y0008617D01*
X0200156Y0008770D01*
X0199968Y0008928D01*
X0199784Y0009090D01*
X0199605Y0009258D01*
X0199429Y0009429D01*
X0199258Y0009605D01*
X0199090Y0009784D01*
X0198928Y0009968D01*
X0198770Y0010156D01*
X0198617Y0010348D01*
X0198468Y0010543D01*
X0198324Y0010742D01*
X0198185Y0010944D01*
X0198051Y0011150D01*
X0197923Y0011359D01*
X0197799Y0011571D01*
X0197681Y0011786D01*
X0197568Y0012004D01*
X0197460Y0012224D01*
X0197358Y0012448D01*
X0197261Y0012673D01*
X0197170Y0012901D01*
X0197085Y0013131D01*
X0197005Y0013363D01*
X0196931Y0013597D01*
X0196862Y0013833D01*
X0196800Y0014070D01*
X0196743Y0014309D01*
X0196692Y0014549D01*
X0196647Y0014790D01*
X0196608Y0015033D01*
X0196575Y0015276D01*
X0196548Y0015520D01*
X0196527Y0015764D01*
X0196512Y0016009D01*
X0196503Y0016255D01*
X0196500Y0016500D01*
X0166500Y0016500D02*
X0166503Y0016745D01*
X0166512Y0016991D01*
X0166527Y0017236D01*
X0166548Y0017480D01*
X0166575Y0017724D01*
X0166608Y0017967D01*
X0166647Y0018210D01*
X0166692Y0018451D01*
X0166743Y0018691D01*
X0166800Y0018930D01*
X0166862Y0019167D01*
X0166931Y0019403D01*
X0167005Y0019637D01*
X0167085Y0019869D01*
X0167170Y0020099D01*
X0167261Y0020327D01*
X0167358Y0020552D01*
X0167460Y0020776D01*
X0167568Y0020996D01*
X0167681Y0021214D01*
X0167799Y0021429D01*
X0167923Y0021641D01*
X0168051Y0021850D01*
X0168185Y0022056D01*
X0168324Y0022258D01*
X0168468Y0022457D01*
X0168617Y0022652D01*
X0168770Y0022844D01*
X0168928Y0023032D01*
X0169090Y0023216D01*
X0169258Y0023395D01*
X0169429Y0023571D01*
X0169605Y0023742D01*
X0169784Y0023910D01*
X0169968Y0024072D01*
X0170156Y0024230D01*
X0170348Y0024383D01*
X0170543Y0024532D01*
X0170742Y0024676D01*
X0170944Y0024815D01*
X0171150Y0024949D01*
X0171359Y0025077D01*
X0171571Y0025201D01*
X0171786Y0025319D01*
X0172004Y0025432D01*
X0172224Y0025540D01*
X0172448Y0025642D01*
X0172673Y0025739D01*
X0172901Y0025830D01*
X0173131Y0025915D01*
X0173363Y0025995D01*
X0173597Y0026069D01*
X0173833Y0026138D01*
X0174070Y0026200D01*
X0174309Y0026257D01*
X0174549Y0026308D01*
X0174790Y0026353D01*
X0175033Y0026392D01*
X0175276Y0026425D01*
X0175520Y0026452D01*
X0175764Y0026473D01*
X0176009Y0026488D01*
X0176255Y0026497D01*
X0176500Y0026500D01*
X0176745Y0026497D01*
X0176991Y0026488D01*
X0177236Y0026473D01*
X0177480Y0026452D01*
X0177724Y0026425D01*
X0177967Y0026392D01*
X0178210Y0026353D01*
X0178451Y0026308D01*
X0178691Y0026257D01*
X0178930Y0026200D01*
X0179167Y0026138D01*
X0179403Y0026069D01*
X0179637Y0025995D01*
X0179869Y0025915D01*
X0180099Y0025830D01*
X0180327Y0025739D01*
X0180552Y0025642D01*
X0180776Y0025540D01*
X0180996Y0025432D01*
X0181214Y0025319D01*
X0181429Y0025201D01*
X0181641Y0025077D01*
X0181850Y0024949D01*
X0182056Y0024815D01*
X0182258Y0024676D01*
X0182457Y0024532D01*
X0182652Y0024383D01*
X0182844Y0024230D01*
X0183032Y0024072D01*
X0183216Y0023910D01*
X0183395Y0023742D01*
X0183571Y0023571D01*
X0183742Y0023395D01*
X0183910Y0023216D01*
X0184072Y0023032D01*
X0184230Y0022844D01*
X0184383Y0022652D01*
X0184532Y0022457D01*
X0184676Y0022258D01*
X0184815Y0022056D01*
X0184949Y0021850D01*
X0185077Y0021641D01*
X0185201Y0021429D01*
X0185319Y0021214D01*
X0185432Y0020996D01*
X0185540Y0020776D01*
X0185642Y0020552D01*
X0185739Y0020327D01*
X0185830Y0020099D01*
X0185915Y0019869D01*
X0185995Y0019637D01*
X0186069Y0019403D01*
X0186138Y0019167D01*
X0186200Y0018930D01*
X0186257Y0018691D01*
X0186308Y0018451D01*
X0186353Y0018210D01*
X0186392Y0017967D01*
X0186425Y0017724D01*
X0186452Y0017480D01*
X0186473Y0017236D01*
X0186488Y0016991D01*
X0186497Y0016745D01*
X0186500Y0016500D01*
X0186497Y0016255D01*
X0186488Y0016009D01*
X0186473Y0015764D01*
X0186452Y0015520D01*
X0186425Y0015276D01*
X0186392Y0015033D01*
X0186353Y0014790D01*
X0186308Y0014549D01*
X0186257Y0014309D01*
X0186200Y0014070D01*
X0186138Y0013833D01*
X0186069Y0013597D01*
X0185995Y0013363D01*
X0185915Y0013131D01*
X0185830Y0012901D01*
X0185739Y0012673D01*
X0185642Y0012448D01*
X0185540Y0012224D01*
X0185432Y0012004D01*
X0185319Y0011786D01*
X0185201Y0011571D01*
X0185077Y0011359D01*
X0184949Y0011150D01*
X0184815Y0010944D01*
X0184676Y0010742D01*
X0184532Y0010543D01*
X0184383Y0010348D01*
X0184230Y0010156D01*
X0184072Y0009968D01*
X0183910Y0009784D01*
X0183742Y0009605D01*
X0183571Y0009429D01*
X0183395Y0009258D01*
X0183216Y0009090D01*
X0183032Y0008928D01*
X0182844Y0008770D01*
X0182652Y0008617D01*
X0182457Y0008468D01*
X0182258Y0008324D01*
X0182056Y0008185D01*
X0181850Y0008051D01*
X0181641Y0007923D01*
X0181429Y0007799D01*
X0181214Y0007681D01*
X0180996Y0007568D01*
X0180776Y0007460D01*
X0180552Y0007358D01*
X0180327Y0007261D01*
X0180099Y0007170D01*
X0179869Y0007085D01*
X0179637Y0007005D01*
X0179403Y0006931D01*
X0179167Y0006862D01*
X0178930Y0006800D01*
X0178691Y0006743D01*
X0178451Y0006692D01*
X0178210Y0006647D01*
X0177967Y0006608D01*
X0177724Y0006575D01*
X0177480Y0006548D01*
X0177236Y0006527D01*
X0176991Y0006512D01*
X0176745Y0006503D01*
X0176500Y0006500D01*
X0176255Y0006503D01*
X0176009Y0006512D01*
X0175764Y0006527D01*
X0175520Y0006548D01*
X0175276Y0006575D01*
X0175033Y0006608D01*
X0174790Y0006647D01*
X0174549Y0006692D01*
X0174309Y0006743D01*
X0174070Y0006800D01*
X0173833Y0006862D01*
X0173597Y0006931D01*
X0173363Y0007005D01*
X0173131Y0007085D01*
X0172901Y0007170D01*
X0172673Y0007261D01*
X0172448Y0007358D01*
X0172224Y0007460D01*
X0172004Y0007568D01*
X0171786Y0007681D01*
X0171571Y0007799D01*
X0171359Y0007923D01*
X0171150Y0008051D01*
X0170944Y0008185D01*
X0170742Y0008324D01*
X0170543Y0008468D01*
X0170348Y0008617D01*
X0170156Y0008770D01*
X0169968Y0008928D01*
X0169784Y0009090D01*
X0169605Y0009258D01*
X0169429Y0009429D01*
X0169258Y0009605D01*
X0169090Y0009784D01*
X0168928Y0009968D01*
X0168770Y0010156D01*
X0168617Y0010348D01*
X0168468Y0010543D01*
X0168324Y0010742D01*
X0168185Y0010944D01*
X0168051Y0011150D01*
X0167923Y0011359D01*
X0167799Y0011571D01*
X0167681Y0011786D01*
X0167568Y0012004D01*
X0167460Y0012224D01*
X0167358Y0012448D01*
X0167261Y0012673D01*
X0167170Y0012901D01*
X0167085Y0013131D01*
X0167005Y0013363D01*
X0166931Y0013597D01*
X0166862Y0013833D01*
X0166800Y0014070D01*
X0166743Y0014309D01*
X0166692Y0014549D01*
X0166647Y0014790D01*
X0166608Y0015033D01*
X0166575Y0015276D01*
X0166548Y0015520D01*
X0166527Y0015764D01*
X0166512Y0016009D01*
X0166503Y0016255D01*
X0166500Y0016500D01*
X0131500Y0016500D02*
X0131503Y0016745D01*
X0131512Y0016991D01*
X0131527Y0017236D01*
X0131548Y0017480D01*
X0131575Y0017724D01*
X0131608Y0017967D01*
X0131647Y0018210D01*
X0131692Y0018451D01*
X0131743Y0018691D01*
X0131800Y0018930D01*
X0131862Y0019167D01*
X0131931Y0019403D01*
X0132005Y0019637D01*
X0132085Y0019869D01*
X0132170Y0020099D01*
X0132261Y0020327D01*
X0132358Y0020552D01*
X0132460Y0020776D01*
X0132568Y0020996D01*
X0132681Y0021214D01*
X0132799Y0021429D01*
X0132923Y0021641D01*
X0133051Y0021850D01*
X0133185Y0022056D01*
X0133324Y0022258D01*
X0133468Y0022457D01*
X0133617Y0022652D01*
X0133770Y0022844D01*
X0133928Y0023032D01*
X0134090Y0023216D01*
X0134258Y0023395D01*
X0134429Y0023571D01*
X0134605Y0023742D01*
X0134784Y0023910D01*
X0134968Y0024072D01*
X0135156Y0024230D01*
X0135348Y0024383D01*
X0135543Y0024532D01*
X0135742Y0024676D01*
X0135944Y0024815D01*
X0136150Y0024949D01*
X0136359Y0025077D01*
X0136571Y0025201D01*
X0136786Y0025319D01*
X0137004Y0025432D01*
X0137224Y0025540D01*
X0137448Y0025642D01*
X0137673Y0025739D01*
X0137901Y0025830D01*
X0138131Y0025915D01*
X0138363Y0025995D01*
X0138597Y0026069D01*
X0138833Y0026138D01*
X0139070Y0026200D01*
X0139309Y0026257D01*
X0139549Y0026308D01*
X0139790Y0026353D01*
X0140033Y0026392D01*
X0140276Y0026425D01*
X0140520Y0026452D01*
X0140764Y0026473D01*
X0141009Y0026488D01*
X0141255Y0026497D01*
X0141500Y0026500D01*
X0141745Y0026497D01*
X0141991Y0026488D01*
X0142236Y0026473D01*
X0142480Y0026452D01*
X0142724Y0026425D01*
X0142967Y0026392D01*
X0143210Y0026353D01*
X0143451Y0026308D01*
X0143691Y0026257D01*
X0143930Y0026200D01*
X0144167Y0026138D01*
X0144403Y0026069D01*
X0144637Y0025995D01*
X0144869Y0025915D01*
X0145099Y0025830D01*
X0145327Y0025739D01*
X0145552Y0025642D01*
X0145776Y0025540D01*
X0145996Y0025432D01*
X0146214Y0025319D01*
X0146429Y0025201D01*
X0146641Y0025077D01*
X0146850Y0024949D01*
X0147056Y0024815D01*
X0147258Y0024676D01*
X0147457Y0024532D01*
X0147652Y0024383D01*
X0147844Y0024230D01*
X0148032Y0024072D01*
X0148216Y0023910D01*
X0148395Y0023742D01*
X0148571Y0023571D01*
X0148742Y0023395D01*
X0148910Y0023216D01*
X0149072Y0023032D01*
X0149230Y0022844D01*
X0149383Y0022652D01*
X0149532Y0022457D01*
X0149676Y0022258D01*
X0149815Y0022056D01*
X0149949Y0021850D01*
X0150077Y0021641D01*
X0150201Y0021429D01*
X0150319Y0021214D01*
X0150432Y0020996D01*
X0150540Y0020776D01*
X0150642Y0020552D01*
X0150739Y0020327D01*
X0150830Y0020099D01*
X0150915Y0019869D01*
X0150995Y0019637D01*
X0151069Y0019403D01*
X0151138Y0019167D01*
X0151200Y0018930D01*
X0151257Y0018691D01*
X0151308Y0018451D01*
X0151353Y0018210D01*
X0151392Y0017967D01*
X0151425Y0017724D01*
X0151452Y0017480D01*
X0151473Y0017236D01*
X0151488Y0016991D01*
X0151497Y0016745D01*
X0151500Y0016500D01*
X0151497Y0016255D01*
X0151488Y0016009D01*
X0151473Y0015764D01*
X0151452Y0015520D01*
X0151425Y0015276D01*
X0151392Y0015033D01*
X0151353Y0014790D01*
X0151308Y0014549D01*
X0151257Y0014309D01*
X0151200Y0014070D01*
X0151138Y0013833D01*
X0151069Y0013597D01*
X0150995Y0013363D01*
X0150915Y0013131D01*
X0150830Y0012901D01*
X0150739Y0012673D01*
X0150642Y0012448D01*
X0150540Y0012224D01*
X0150432Y0012004D01*
X0150319Y0011786D01*
X0150201Y0011571D01*
X0150077Y0011359D01*
X0149949Y0011150D01*
X0149815Y0010944D01*
X0149676Y0010742D01*
X0149532Y0010543D01*
X0149383Y0010348D01*
X0149230Y0010156D01*
X0149072Y0009968D01*
X0148910Y0009784D01*
X0148742Y0009605D01*
X0148571Y0009429D01*
X0148395Y0009258D01*
X0148216Y0009090D01*
X0148032Y0008928D01*
X0147844Y0008770D01*
X0147652Y0008617D01*
X0147457Y0008468D01*
X0147258Y0008324D01*
X0147056Y0008185D01*
X0146850Y0008051D01*
X0146641Y0007923D01*
X0146429Y0007799D01*
X0146214Y0007681D01*
X0145996Y0007568D01*
X0145776Y0007460D01*
X0145552Y0007358D01*
X0145327Y0007261D01*
X0145099Y0007170D01*
X0144869Y0007085D01*
X0144637Y0007005D01*
X0144403Y0006931D01*
X0144167Y0006862D01*
X0143930Y0006800D01*
X0143691Y0006743D01*
X0143451Y0006692D01*
X0143210Y0006647D01*
X0142967Y0006608D01*
X0142724Y0006575D01*
X0142480Y0006548D01*
X0142236Y0006527D01*
X0141991Y0006512D01*
X0141745Y0006503D01*
X0141500Y0006500D01*
X0141255Y0006503D01*
X0141009Y0006512D01*
X0140764Y0006527D01*
X0140520Y0006548D01*
X0140276Y0006575D01*
X0140033Y0006608D01*
X0139790Y0006647D01*
X0139549Y0006692D01*
X0139309Y0006743D01*
X0139070Y0006800D01*
X0138833Y0006862D01*
X0138597Y0006931D01*
X0138363Y0007005D01*
X0138131Y0007085D01*
X0137901Y0007170D01*
X0137673Y0007261D01*
X0137448Y0007358D01*
X0137224Y0007460D01*
X0137004Y0007568D01*
X0136786Y0007681D01*
X0136571Y0007799D01*
X0136359Y0007923D01*
X0136150Y0008051D01*
X0135944Y0008185D01*
X0135742Y0008324D01*
X0135543Y0008468D01*
X0135348Y0008617D01*
X0135156Y0008770D01*
X0134968Y0008928D01*
X0134784Y0009090D01*
X0134605Y0009258D01*
X0134429Y0009429D01*
X0134258Y0009605D01*
X0134090Y0009784D01*
X0133928Y0009968D01*
X0133770Y0010156D01*
X0133617Y0010348D01*
X0133468Y0010543D01*
X0133324Y0010742D01*
X0133185Y0010944D01*
X0133051Y0011150D01*
X0132923Y0011359D01*
X0132799Y0011571D01*
X0132681Y0011786D01*
X0132568Y0012004D01*
X0132460Y0012224D01*
X0132358Y0012448D01*
X0132261Y0012673D01*
X0132170Y0012901D01*
X0132085Y0013131D01*
X0132005Y0013363D01*
X0131931Y0013597D01*
X0131862Y0013833D01*
X0131800Y0014070D01*
X0131743Y0014309D01*
X0131692Y0014549D01*
X0131647Y0014790D01*
X0131608Y0015033D01*
X0131575Y0015276D01*
X0131548Y0015520D01*
X0131527Y0015764D01*
X0131512Y0016009D01*
X0131503Y0016255D01*
X0131500Y0016500D01*
D14*
X0131856Y0018850D02*
X0128854Y0018850D01*
X0128854Y0023354D01*
X0131856Y0023354D01*
X0133458Y0023354D02*
X0135710Y0023354D01*
X0136460Y0022603D01*
X0136460Y0019601D01*
X0135710Y0018850D01*
X0133458Y0018850D01*
X0133458Y0023354D01*
X0138062Y0021853D02*
X0139563Y0023354D01*
X0139563Y0018850D01*
X0138062Y0018850D02*
X0141064Y0018850D01*
X0130355Y0021102D02*
X0128854Y0021102D01*
X0127253Y0018850D02*
X0124250Y0018850D01*
X0124250Y0023354D01*
X0154250Y0023354D02*
X0154250Y0018850D01*
X0157253Y0018850D01*
X0158854Y0018850D02*
X0161856Y0018850D01*
X0163458Y0018850D02*
X0165710Y0018850D01*
X0166460Y0019601D01*
X0166460Y0022603D01*
X0165710Y0023354D01*
X0163458Y0023354D01*
X0163458Y0018850D01*
X0168062Y0018850D02*
X0171064Y0021853D01*
X0171064Y0022603D01*
X0170314Y0023354D01*
X0168812Y0023354D01*
X0168062Y0022603D01*
X0161856Y0023354D02*
X0158854Y0023354D01*
X0158854Y0018850D01*
X0158854Y0021102D02*
X0160355Y0021102D01*
X0168062Y0018850D02*
X0171064Y0018850D01*
X0189250Y0018850D02*
X0192253Y0018850D01*
X0193854Y0018850D02*
X0196856Y0018850D01*
X0198458Y0018850D02*
X0200710Y0018850D01*
X0201460Y0019601D01*
X0201460Y0022603D01*
X0200710Y0023354D01*
X0198458Y0023354D01*
X0198458Y0018850D01*
X0193854Y0018850D02*
X0193854Y0023354D01*
X0196856Y0023354D01*
X0203062Y0021102D02*
X0205314Y0023354D01*
X0205314Y0018850D01*
X0206064Y0021102D02*
X0203062Y0021102D01*
X0195355Y0021102D02*
X0193854Y0021102D01*
X0189250Y0023354D02*
X0189250Y0018850D01*
X0219250Y0018850D02*
X0222253Y0018850D01*
X0223854Y0018850D02*
X0226856Y0018850D01*
X0228458Y0018850D02*
X0230710Y0018850D01*
X0231460Y0019601D01*
X0231460Y0022603D01*
X0230710Y0023354D01*
X0228458Y0023354D01*
X0228458Y0018850D01*
X0223854Y0018850D02*
X0223854Y0023354D01*
X0226856Y0023354D01*
X0233062Y0022603D02*
X0233812Y0023354D01*
X0235314Y0023354D01*
X0236064Y0022603D01*
X0236064Y0021853D01*
X0235314Y0021102D01*
X0236064Y0020351D01*
X0236064Y0019601D01*
X0235314Y0018850D01*
X0233812Y0018850D01*
X0233062Y0019601D01*
X0234563Y0021102D02*
X0235314Y0021102D01*
X0225355Y0021102D02*
X0223854Y0021102D01*
X0219250Y0023354D02*
X0219250Y0018850D01*
X0046064Y0019601D02*
X0045314Y0018850D01*
X0043812Y0018850D01*
X0043062Y0019601D01*
X0041460Y0019601D02*
X0041460Y0022603D01*
X0040710Y0023354D01*
X0038458Y0023354D01*
X0038458Y0018850D01*
X0040710Y0018850D01*
X0041460Y0019601D01*
X0043062Y0021102D02*
X0044563Y0021853D01*
X0045314Y0021853D01*
X0046064Y0021102D01*
X0046064Y0019601D01*
X0043062Y0021102D02*
X0043062Y0023354D01*
X0046064Y0023354D01*
X0036856Y0023354D02*
X0033854Y0023354D01*
X0033854Y0018850D01*
X0036856Y0018850D01*
X0032253Y0018850D02*
X0029250Y0018850D01*
X0029250Y0023354D01*
X0033854Y0021102D02*
X0035355Y0021102D01*
D15*
X0029587Y0033275D02*
X0025984Y0035677D01*
X0027185Y0036958D02*
X0025984Y0038159D01*
X0029587Y0038159D01*
X0029587Y0036958D02*
X0029587Y0039360D01*
X0029587Y0035677D02*
X0025984Y0033275D01*
M02*
