G75*
%MOIN*%
%OFA0B0*%
%FSLAX25Y25*%
%IPPOS*%
%LPD*%
%AMOC8*
5,1,8,0,0,1.08239X$1,22.5*
%
%ADD10OC8,0.06000*%
%ADD11R,0.05918X0.07099*%
%ADD12C,0.06800*%
D10*
X0047595Y0058933D03*
X0047595Y0068933D03*
X0142595Y0068933D03*
X0142595Y0058933D03*
X0172595Y0058933D03*
X0172595Y0068933D03*
X0207595Y0068933D03*
X0207595Y0058933D03*
X0237595Y0058933D03*
X0237595Y0068933D03*
D11*
G36*
X0234755Y0086791D02*
X0238939Y0082607D01*
X0233921Y0077589D01*
X0229737Y0081773D01*
X0234755Y0086791D01*
G37*
G36*
X0226269Y0095277D02*
X0230453Y0091093D01*
X0225435Y0086075D01*
X0221251Y0090259D01*
X0226269Y0095277D01*
G37*
G36*
X0204755Y0086791D02*
X0208939Y0082607D01*
X0203921Y0077589D01*
X0199737Y0081773D01*
X0204755Y0086791D01*
G37*
G36*
X0196269Y0095277D02*
X0200453Y0091093D01*
X0195435Y0086075D01*
X0191251Y0090259D01*
X0196269Y0095277D01*
G37*
X0113595Y0073933D03*
X0101595Y0073933D03*
G36*
X0063939Y0090259D02*
X0059755Y0086075D01*
X0054737Y0091093D01*
X0058921Y0095277D01*
X0063939Y0090259D01*
G37*
G36*
X0055453Y0081773D02*
X0051269Y0077589D01*
X0046251Y0082607D01*
X0050435Y0086791D01*
X0055453Y0081773D01*
G37*
D12*
X0077595Y0085933D02*
X0077595Y0091933D01*
X0087595Y0091933D02*
X0087595Y0085933D01*
X0097595Y0085933D02*
X0097595Y0091933D01*
X0107595Y0091933D02*
X0107595Y0085933D01*
X0117595Y0085933D02*
X0117595Y0091933D01*
M02*
