G75*
%MOIN*%
%OFA0B0*%
%FSLAX25Y25*%
%IPPOS*%
%LPD*%
%AMOC8*
5,1,8,0,0,1.08239X$1,22.5*
%
%ADD10OC8,0.05200*%
%ADD11R,0.05118X0.06299*%
%ADD12C,0.06000*%
%ADD13C,0.01000*%
D10*
X0047595Y0058933D03*
X0047595Y0068933D03*
X0077595Y0068933D03*
X0077595Y0058933D03*
X0112595Y0058933D03*
X0112595Y0068933D03*
X0142595Y0068933D03*
X0142595Y0058933D03*
X0237595Y0058933D03*
X0237595Y0068933D03*
D11*
G36*
X0234755Y0086226D02*
X0238374Y0082607D01*
X0233921Y0078154D01*
X0230302Y0081773D01*
X0234755Y0086226D01*
G37*
G36*
X0226269Y0094712D02*
X0229888Y0091093D01*
X0225435Y0086640D01*
X0221816Y0090259D01*
X0226269Y0094712D01*
G37*
G36*
X0128374Y0090259D02*
X0124755Y0086640D01*
X0120302Y0091093D01*
X0123921Y0094712D01*
X0128374Y0090259D01*
G37*
G36*
X0119888Y0081773D02*
X0116269Y0078154D01*
X0111816Y0082607D01*
X0115435Y0086226D01*
X0119888Y0081773D01*
G37*
G36*
X0093374Y0090259D02*
X0089755Y0086640D01*
X0085302Y0091093D01*
X0088921Y0094712D01*
X0093374Y0090259D01*
G37*
G36*
X0084888Y0081773D02*
X0081269Y0078154D01*
X0076816Y0082607D01*
X0080435Y0086226D01*
X0084888Y0081773D01*
G37*
G36*
X0063374Y0090259D02*
X0059755Y0086640D01*
X0055302Y0091093D01*
X0058921Y0094712D01*
X0063374Y0090259D01*
G37*
G36*
X0054888Y0081773D02*
X0051269Y0078154D01*
X0046816Y0082607D01*
X0050435Y0086226D01*
X0054888Y0081773D01*
G37*
D12*
X0167595Y0085933D02*
X0167595Y0091933D01*
X0177595Y0091933D02*
X0177595Y0085933D01*
X0187595Y0085933D02*
X0187595Y0091933D01*
X0197595Y0091933D02*
X0197595Y0085933D01*
X0207595Y0085933D02*
X0207595Y0091933D01*
D13*
X0207595Y0088933D02*
X0207595Y0058933D01*
X0237595Y0058933D01*
X0237595Y0068933D02*
X0237595Y0078933D01*
X0234338Y0082190D01*
X0225852Y0090676D02*
X0217595Y0098933D01*
X0202595Y0098933D01*
X0197595Y0093933D01*
X0197595Y0088933D01*
X0187595Y0088933D02*
X0187595Y0083933D01*
X0182595Y0078933D01*
X0127595Y0078933D01*
X0112595Y0093933D01*
X0092595Y0093933D01*
X0089338Y0090676D01*
X0080852Y0082190D02*
X0077595Y0078933D01*
X0077595Y0068933D01*
X0077595Y0058933D02*
X0112595Y0058933D01*
X0142595Y0058933D01*
X0207595Y0058933D01*
X0142595Y0068933D02*
X0112595Y0068933D01*
X0112595Y0078933D01*
X0115852Y0082190D01*
X0124338Y0090676D02*
X0127595Y0093933D01*
X0162595Y0093933D01*
X0167595Y0088933D01*
X0177595Y0088933D02*
X0177595Y0093933D01*
X0172595Y0098933D01*
X0067595Y0098933D01*
X0059338Y0090676D01*
X0050852Y0082190D02*
X0047595Y0078933D01*
X0047595Y0068933D01*
X0047595Y0058933D02*
X0077595Y0058933D01*
M02*
