G75*
%MOIN*%
%OFA0B0*%
%FSLAX25Y25*%
%IPPOS*%
%LPD*%
%AMOC8*
5,1,8,0,0,1.08239X$1,22.5*
%
%ADD10C,0.00100*%
%ADD11C,0.00800*%
%ADD12C,0.01000*%
%ADD13C,0.00600*%
%ADD14C,0.00500*%
%ADD15C,0.00400*%
D10*
X0042595Y0053933D02*
X0242595Y0053933D01*
X0242595Y0083933D01*
X0222595Y0103933D01*
X0062595Y0103933D01*
X0042595Y0083933D01*
X0042595Y0053933D01*
D11*
X0040095Y0053933D02*
X0055095Y0053933D01*
X0097795Y0069433D02*
X0097795Y0078433D01*
X0117395Y0078433D01*
X0117395Y0069433D01*
X0097795Y0069433D01*
X0135095Y0053933D02*
X0150095Y0053933D01*
X0165095Y0053933D02*
X0180095Y0053933D01*
X0200095Y0053933D02*
X0215095Y0053933D01*
X0230095Y0053933D02*
X0245095Y0053933D01*
X0233843Y0076321D02*
X0240207Y0082685D01*
X0226347Y0096545D01*
X0219984Y0090181D01*
X0233843Y0076321D01*
X0210207Y0082685D02*
X0203843Y0076321D01*
X0189984Y0090181D01*
X0196347Y0096545D01*
X0210207Y0082685D01*
X0065207Y0090181D02*
X0051347Y0076321D01*
X0044984Y0082685D01*
X0058843Y0096545D01*
X0065207Y0090181D01*
D12*
X0077516Y0081846D02*
X0077516Y0079878D01*
X0068264Y0079652D02*
X0126926Y0079652D01*
X0126926Y0102289D01*
X0068264Y0102289D01*
X0068264Y0079652D01*
X0055095Y0053933D02*
X0055338Y0054120D01*
X0055576Y0054312D01*
X0055809Y0054511D01*
X0056037Y0054715D01*
X0056260Y0054924D01*
X0056478Y0055139D01*
X0056691Y0055359D01*
X0056898Y0055584D01*
X0057100Y0055815D01*
X0057296Y0056050D01*
X0057486Y0056290D01*
X0057670Y0056534D01*
X0057848Y0056783D01*
X0058020Y0057037D01*
X0058186Y0057294D01*
X0058346Y0057555D01*
X0058499Y0057820D01*
X0058645Y0058089D01*
X0058785Y0058362D01*
X0058918Y0058637D01*
X0059044Y0058916D01*
X0059164Y0059198D01*
X0059276Y0059483D01*
X0059381Y0059770D01*
X0059480Y0060060D01*
X0059571Y0060352D01*
X0059655Y0060647D01*
X0059732Y0060943D01*
X0059802Y0061241D01*
X0059864Y0061541D01*
X0059919Y0061842D01*
X0059966Y0062144D01*
X0060006Y0062448D01*
X0060039Y0062752D01*
X0060064Y0063057D01*
X0060082Y0063363D01*
X0060092Y0063669D01*
X0060095Y0063975D01*
X0060090Y0064281D01*
X0060078Y0064587D01*
X0060058Y0064893D01*
X0060031Y0065197D01*
X0059996Y0065502D01*
X0059954Y0065805D01*
X0059905Y0066107D01*
X0059848Y0066408D01*
X0059783Y0066707D01*
X0059712Y0067005D01*
X0059633Y0067300D01*
X0059547Y0067594D01*
X0059454Y0067886D01*
X0059353Y0068175D01*
X0059246Y0068462D01*
X0059131Y0068746D01*
X0059010Y0069027D01*
X0058882Y0069305D01*
X0058747Y0069580D01*
X0058605Y0069851D01*
X0058457Y0070119D01*
X0058302Y0070383D01*
X0058141Y0070643D01*
X0057974Y0070899D01*
X0057800Y0071152D01*
X0057620Y0071399D01*
X0057434Y0071643D01*
X0057243Y0071881D01*
X0057045Y0072115D01*
X0056842Y0072344D01*
X0056633Y0072568D01*
X0056419Y0072787D01*
X0056199Y0073000D01*
X0055975Y0073208D01*
X0055745Y0073411D01*
X0055511Y0073607D01*
X0055271Y0073798D01*
X0055028Y0073983D01*
X0054779Y0074162D01*
X0054527Y0074335D01*
X0054270Y0074502D01*
X0054009Y0074662D01*
X0053744Y0074816D01*
X0053476Y0074963D01*
X0053204Y0075104D01*
X0052929Y0075238D01*
X0052650Y0075365D01*
X0052369Y0075486D01*
X0052084Y0075599D01*
X0051797Y0075705D01*
X0051508Y0075805D01*
X0051216Y0075897D01*
X0050922Y0075982D01*
X0050626Y0076060D01*
X0050328Y0076131D01*
X0050028Y0076194D01*
X0049727Y0076250D01*
X0049425Y0076298D01*
X0049122Y0076339D01*
X0048818Y0076373D01*
X0048513Y0076399D01*
X0048207Y0076418D01*
X0047901Y0076429D01*
X0047595Y0076433D01*
X0047289Y0076429D01*
X0046983Y0076418D01*
X0046677Y0076399D01*
X0046372Y0076373D01*
X0046068Y0076339D01*
X0045765Y0076298D01*
X0045463Y0076250D01*
X0045162Y0076194D01*
X0044862Y0076131D01*
X0044564Y0076060D01*
X0044268Y0075982D01*
X0043974Y0075897D01*
X0043682Y0075805D01*
X0043393Y0075705D01*
X0043106Y0075599D01*
X0042821Y0075486D01*
X0042540Y0075365D01*
X0042261Y0075238D01*
X0041986Y0075104D01*
X0041714Y0074963D01*
X0041446Y0074816D01*
X0041181Y0074662D01*
X0040920Y0074502D01*
X0040663Y0074335D01*
X0040411Y0074162D01*
X0040162Y0073983D01*
X0039919Y0073798D01*
X0039679Y0073607D01*
X0039445Y0073411D01*
X0039215Y0073208D01*
X0038991Y0073000D01*
X0038771Y0072787D01*
X0038557Y0072568D01*
X0038348Y0072344D01*
X0038145Y0072115D01*
X0037947Y0071881D01*
X0037756Y0071643D01*
X0037570Y0071399D01*
X0037390Y0071152D01*
X0037216Y0070899D01*
X0037049Y0070643D01*
X0036888Y0070383D01*
X0036733Y0070119D01*
X0036585Y0069851D01*
X0036443Y0069580D01*
X0036308Y0069305D01*
X0036180Y0069027D01*
X0036059Y0068746D01*
X0035944Y0068462D01*
X0035837Y0068175D01*
X0035736Y0067886D01*
X0035643Y0067594D01*
X0035557Y0067300D01*
X0035478Y0067005D01*
X0035407Y0066707D01*
X0035342Y0066408D01*
X0035285Y0066107D01*
X0035236Y0065805D01*
X0035194Y0065502D01*
X0035159Y0065197D01*
X0035132Y0064893D01*
X0035112Y0064587D01*
X0035100Y0064281D01*
X0035095Y0063975D01*
X0035098Y0063669D01*
X0035108Y0063363D01*
X0035126Y0063057D01*
X0035151Y0062752D01*
X0035184Y0062448D01*
X0035224Y0062144D01*
X0035271Y0061842D01*
X0035326Y0061541D01*
X0035388Y0061241D01*
X0035458Y0060943D01*
X0035535Y0060647D01*
X0035619Y0060352D01*
X0035710Y0060060D01*
X0035809Y0059770D01*
X0035914Y0059483D01*
X0036026Y0059198D01*
X0036146Y0058916D01*
X0036272Y0058637D01*
X0036405Y0058362D01*
X0036545Y0058089D01*
X0036691Y0057820D01*
X0036844Y0057555D01*
X0037004Y0057294D01*
X0037170Y0057037D01*
X0037342Y0056783D01*
X0037520Y0056534D01*
X0037704Y0056290D01*
X0037894Y0056050D01*
X0038090Y0055815D01*
X0038292Y0055584D01*
X0038499Y0055359D01*
X0038712Y0055139D01*
X0038930Y0054924D01*
X0039153Y0054715D01*
X0039381Y0054511D01*
X0039614Y0054312D01*
X0039852Y0054120D01*
X0040095Y0053933D01*
X0117674Y0079878D02*
X0117674Y0081846D01*
X0135095Y0053933D02*
X0134852Y0054120D01*
X0134614Y0054312D01*
X0134381Y0054511D01*
X0134153Y0054715D01*
X0133930Y0054924D01*
X0133712Y0055139D01*
X0133499Y0055359D01*
X0133292Y0055584D01*
X0133090Y0055815D01*
X0132894Y0056050D01*
X0132704Y0056290D01*
X0132520Y0056534D01*
X0132342Y0056783D01*
X0132170Y0057037D01*
X0132004Y0057294D01*
X0131844Y0057555D01*
X0131691Y0057820D01*
X0131545Y0058089D01*
X0131405Y0058362D01*
X0131272Y0058637D01*
X0131146Y0058916D01*
X0131026Y0059198D01*
X0130914Y0059483D01*
X0130809Y0059770D01*
X0130710Y0060060D01*
X0130619Y0060352D01*
X0130535Y0060647D01*
X0130458Y0060943D01*
X0130388Y0061241D01*
X0130326Y0061541D01*
X0130271Y0061842D01*
X0130224Y0062144D01*
X0130184Y0062448D01*
X0130151Y0062752D01*
X0130126Y0063057D01*
X0130108Y0063363D01*
X0130098Y0063669D01*
X0130095Y0063975D01*
X0130100Y0064281D01*
X0130112Y0064587D01*
X0130132Y0064893D01*
X0130159Y0065197D01*
X0130194Y0065502D01*
X0130236Y0065805D01*
X0130285Y0066107D01*
X0130342Y0066408D01*
X0130407Y0066707D01*
X0130478Y0067005D01*
X0130557Y0067300D01*
X0130643Y0067594D01*
X0130736Y0067886D01*
X0130837Y0068175D01*
X0130944Y0068462D01*
X0131059Y0068746D01*
X0131180Y0069027D01*
X0131308Y0069305D01*
X0131443Y0069580D01*
X0131585Y0069851D01*
X0131733Y0070119D01*
X0131888Y0070383D01*
X0132049Y0070643D01*
X0132216Y0070899D01*
X0132390Y0071152D01*
X0132570Y0071399D01*
X0132756Y0071643D01*
X0132947Y0071881D01*
X0133145Y0072115D01*
X0133348Y0072344D01*
X0133557Y0072568D01*
X0133771Y0072787D01*
X0133991Y0073000D01*
X0134215Y0073208D01*
X0134445Y0073411D01*
X0134679Y0073607D01*
X0134919Y0073798D01*
X0135162Y0073983D01*
X0135411Y0074162D01*
X0135663Y0074335D01*
X0135920Y0074502D01*
X0136181Y0074662D01*
X0136446Y0074816D01*
X0136714Y0074963D01*
X0136986Y0075104D01*
X0137261Y0075238D01*
X0137540Y0075365D01*
X0137821Y0075486D01*
X0138106Y0075599D01*
X0138393Y0075705D01*
X0138682Y0075805D01*
X0138974Y0075897D01*
X0139268Y0075982D01*
X0139564Y0076060D01*
X0139862Y0076131D01*
X0140162Y0076194D01*
X0140463Y0076250D01*
X0140765Y0076298D01*
X0141068Y0076339D01*
X0141372Y0076373D01*
X0141677Y0076399D01*
X0141983Y0076418D01*
X0142289Y0076429D01*
X0142595Y0076433D01*
X0142901Y0076429D01*
X0143207Y0076418D01*
X0143513Y0076399D01*
X0143818Y0076373D01*
X0144122Y0076339D01*
X0144425Y0076298D01*
X0144727Y0076250D01*
X0145028Y0076194D01*
X0145328Y0076131D01*
X0145626Y0076060D01*
X0145922Y0075982D01*
X0146216Y0075897D01*
X0146508Y0075805D01*
X0146797Y0075705D01*
X0147084Y0075599D01*
X0147369Y0075486D01*
X0147650Y0075365D01*
X0147929Y0075238D01*
X0148204Y0075104D01*
X0148476Y0074963D01*
X0148744Y0074816D01*
X0149009Y0074662D01*
X0149270Y0074502D01*
X0149527Y0074335D01*
X0149779Y0074162D01*
X0150028Y0073983D01*
X0150271Y0073798D01*
X0150511Y0073607D01*
X0150745Y0073411D01*
X0150975Y0073208D01*
X0151199Y0073000D01*
X0151419Y0072787D01*
X0151633Y0072568D01*
X0151842Y0072344D01*
X0152045Y0072115D01*
X0152243Y0071881D01*
X0152434Y0071643D01*
X0152620Y0071399D01*
X0152800Y0071152D01*
X0152974Y0070899D01*
X0153141Y0070643D01*
X0153302Y0070383D01*
X0153457Y0070119D01*
X0153605Y0069851D01*
X0153747Y0069580D01*
X0153882Y0069305D01*
X0154010Y0069027D01*
X0154131Y0068746D01*
X0154246Y0068462D01*
X0154353Y0068175D01*
X0154454Y0067886D01*
X0154547Y0067594D01*
X0154633Y0067300D01*
X0154712Y0067005D01*
X0154783Y0066707D01*
X0154848Y0066408D01*
X0154905Y0066107D01*
X0154954Y0065805D01*
X0154996Y0065502D01*
X0155031Y0065197D01*
X0155058Y0064893D01*
X0155078Y0064587D01*
X0155090Y0064281D01*
X0155095Y0063975D01*
X0155092Y0063669D01*
X0155082Y0063363D01*
X0155064Y0063057D01*
X0155039Y0062752D01*
X0155006Y0062448D01*
X0154966Y0062144D01*
X0154919Y0061842D01*
X0154864Y0061541D01*
X0154802Y0061241D01*
X0154732Y0060943D01*
X0154655Y0060647D01*
X0154571Y0060352D01*
X0154480Y0060060D01*
X0154381Y0059770D01*
X0154276Y0059483D01*
X0154164Y0059198D01*
X0154044Y0058916D01*
X0153918Y0058637D01*
X0153785Y0058362D01*
X0153645Y0058089D01*
X0153499Y0057820D01*
X0153346Y0057555D01*
X0153186Y0057294D01*
X0153020Y0057037D01*
X0152848Y0056783D01*
X0152670Y0056534D01*
X0152486Y0056290D01*
X0152296Y0056050D01*
X0152100Y0055815D01*
X0151898Y0055584D01*
X0151691Y0055359D01*
X0151478Y0055139D01*
X0151260Y0054924D01*
X0151037Y0054715D01*
X0150809Y0054511D01*
X0150576Y0054312D01*
X0150338Y0054120D01*
X0150095Y0053933D01*
X0165095Y0053933D02*
X0164852Y0054120D01*
X0164614Y0054312D01*
X0164381Y0054511D01*
X0164153Y0054715D01*
X0163930Y0054924D01*
X0163712Y0055139D01*
X0163499Y0055359D01*
X0163292Y0055584D01*
X0163090Y0055815D01*
X0162894Y0056050D01*
X0162704Y0056290D01*
X0162520Y0056534D01*
X0162342Y0056783D01*
X0162170Y0057037D01*
X0162004Y0057294D01*
X0161844Y0057555D01*
X0161691Y0057820D01*
X0161545Y0058089D01*
X0161405Y0058362D01*
X0161272Y0058637D01*
X0161146Y0058916D01*
X0161026Y0059198D01*
X0160914Y0059483D01*
X0160809Y0059770D01*
X0160710Y0060060D01*
X0160619Y0060352D01*
X0160535Y0060647D01*
X0160458Y0060943D01*
X0160388Y0061241D01*
X0160326Y0061541D01*
X0160271Y0061842D01*
X0160224Y0062144D01*
X0160184Y0062448D01*
X0160151Y0062752D01*
X0160126Y0063057D01*
X0160108Y0063363D01*
X0160098Y0063669D01*
X0160095Y0063975D01*
X0160100Y0064281D01*
X0160112Y0064587D01*
X0160132Y0064893D01*
X0160159Y0065197D01*
X0160194Y0065502D01*
X0160236Y0065805D01*
X0160285Y0066107D01*
X0160342Y0066408D01*
X0160407Y0066707D01*
X0160478Y0067005D01*
X0160557Y0067300D01*
X0160643Y0067594D01*
X0160736Y0067886D01*
X0160837Y0068175D01*
X0160944Y0068462D01*
X0161059Y0068746D01*
X0161180Y0069027D01*
X0161308Y0069305D01*
X0161443Y0069580D01*
X0161585Y0069851D01*
X0161733Y0070119D01*
X0161888Y0070383D01*
X0162049Y0070643D01*
X0162216Y0070899D01*
X0162390Y0071152D01*
X0162570Y0071399D01*
X0162756Y0071643D01*
X0162947Y0071881D01*
X0163145Y0072115D01*
X0163348Y0072344D01*
X0163557Y0072568D01*
X0163771Y0072787D01*
X0163991Y0073000D01*
X0164215Y0073208D01*
X0164445Y0073411D01*
X0164679Y0073607D01*
X0164919Y0073798D01*
X0165162Y0073983D01*
X0165411Y0074162D01*
X0165663Y0074335D01*
X0165920Y0074502D01*
X0166181Y0074662D01*
X0166446Y0074816D01*
X0166714Y0074963D01*
X0166986Y0075104D01*
X0167261Y0075238D01*
X0167540Y0075365D01*
X0167821Y0075486D01*
X0168106Y0075599D01*
X0168393Y0075705D01*
X0168682Y0075805D01*
X0168974Y0075897D01*
X0169268Y0075982D01*
X0169564Y0076060D01*
X0169862Y0076131D01*
X0170162Y0076194D01*
X0170463Y0076250D01*
X0170765Y0076298D01*
X0171068Y0076339D01*
X0171372Y0076373D01*
X0171677Y0076399D01*
X0171983Y0076418D01*
X0172289Y0076429D01*
X0172595Y0076433D01*
X0172901Y0076429D01*
X0173207Y0076418D01*
X0173513Y0076399D01*
X0173818Y0076373D01*
X0174122Y0076339D01*
X0174425Y0076298D01*
X0174727Y0076250D01*
X0175028Y0076194D01*
X0175328Y0076131D01*
X0175626Y0076060D01*
X0175922Y0075982D01*
X0176216Y0075897D01*
X0176508Y0075805D01*
X0176797Y0075705D01*
X0177084Y0075599D01*
X0177369Y0075486D01*
X0177650Y0075365D01*
X0177929Y0075238D01*
X0178204Y0075104D01*
X0178476Y0074963D01*
X0178744Y0074816D01*
X0179009Y0074662D01*
X0179270Y0074502D01*
X0179527Y0074335D01*
X0179779Y0074162D01*
X0180028Y0073983D01*
X0180271Y0073798D01*
X0180511Y0073607D01*
X0180745Y0073411D01*
X0180975Y0073208D01*
X0181199Y0073000D01*
X0181419Y0072787D01*
X0181633Y0072568D01*
X0181842Y0072344D01*
X0182045Y0072115D01*
X0182243Y0071881D01*
X0182434Y0071643D01*
X0182620Y0071399D01*
X0182800Y0071152D01*
X0182974Y0070899D01*
X0183141Y0070643D01*
X0183302Y0070383D01*
X0183457Y0070119D01*
X0183605Y0069851D01*
X0183747Y0069580D01*
X0183882Y0069305D01*
X0184010Y0069027D01*
X0184131Y0068746D01*
X0184246Y0068462D01*
X0184353Y0068175D01*
X0184454Y0067886D01*
X0184547Y0067594D01*
X0184633Y0067300D01*
X0184712Y0067005D01*
X0184783Y0066707D01*
X0184848Y0066408D01*
X0184905Y0066107D01*
X0184954Y0065805D01*
X0184996Y0065502D01*
X0185031Y0065197D01*
X0185058Y0064893D01*
X0185078Y0064587D01*
X0185090Y0064281D01*
X0185095Y0063975D01*
X0185092Y0063669D01*
X0185082Y0063363D01*
X0185064Y0063057D01*
X0185039Y0062752D01*
X0185006Y0062448D01*
X0184966Y0062144D01*
X0184919Y0061842D01*
X0184864Y0061541D01*
X0184802Y0061241D01*
X0184732Y0060943D01*
X0184655Y0060647D01*
X0184571Y0060352D01*
X0184480Y0060060D01*
X0184381Y0059770D01*
X0184276Y0059483D01*
X0184164Y0059198D01*
X0184044Y0058916D01*
X0183918Y0058637D01*
X0183785Y0058362D01*
X0183645Y0058089D01*
X0183499Y0057820D01*
X0183346Y0057555D01*
X0183186Y0057294D01*
X0183020Y0057037D01*
X0182848Y0056783D01*
X0182670Y0056534D01*
X0182486Y0056290D01*
X0182296Y0056050D01*
X0182100Y0055815D01*
X0181898Y0055584D01*
X0181691Y0055359D01*
X0181478Y0055139D01*
X0181260Y0054924D01*
X0181037Y0054715D01*
X0180809Y0054511D01*
X0180576Y0054312D01*
X0180338Y0054120D01*
X0180095Y0053933D01*
X0200095Y0053933D02*
X0199852Y0054120D01*
X0199614Y0054312D01*
X0199381Y0054511D01*
X0199153Y0054715D01*
X0198930Y0054924D01*
X0198712Y0055139D01*
X0198499Y0055359D01*
X0198292Y0055584D01*
X0198090Y0055815D01*
X0197894Y0056050D01*
X0197704Y0056290D01*
X0197520Y0056534D01*
X0197342Y0056783D01*
X0197170Y0057037D01*
X0197004Y0057294D01*
X0196844Y0057555D01*
X0196691Y0057820D01*
X0196545Y0058089D01*
X0196405Y0058362D01*
X0196272Y0058637D01*
X0196146Y0058916D01*
X0196026Y0059198D01*
X0195914Y0059483D01*
X0195809Y0059770D01*
X0195710Y0060060D01*
X0195619Y0060352D01*
X0195535Y0060647D01*
X0195458Y0060943D01*
X0195388Y0061241D01*
X0195326Y0061541D01*
X0195271Y0061842D01*
X0195224Y0062144D01*
X0195184Y0062448D01*
X0195151Y0062752D01*
X0195126Y0063057D01*
X0195108Y0063363D01*
X0195098Y0063669D01*
X0195095Y0063975D01*
X0195100Y0064281D01*
X0195112Y0064587D01*
X0195132Y0064893D01*
X0195159Y0065197D01*
X0195194Y0065502D01*
X0195236Y0065805D01*
X0195285Y0066107D01*
X0195342Y0066408D01*
X0195407Y0066707D01*
X0195478Y0067005D01*
X0195557Y0067300D01*
X0195643Y0067594D01*
X0195736Y0067886D01*
X0195837Y0068175D01*
X0195944Y0068462D01*
X0196059Y0068746D01*
X0196180Y0069027D01*
X0196308Y0069305D01*
X0196443Y0069580D01*
X0196585Y0069851D01*
X0196733Y0070119D01*
X0196888Y0070383D01*
X0197049Y0070643D01*
X0197216Y0070899D01*
X0197390Y0071152D01*
X0197570Y0071399D01*
X0197756Y0071643D01*
X0197947Y0071881D01*
X0198145Y0072115D01*
X0198348Y0072344D01*
X0198557Y0072568D01*
X0198771Y0072787D01*
X0198991Y0073000D01*
X0199215Y0073208D01*
X0199445Y0073411D01*
X0199679Y0073607D01*
X0199919Y0073798D01*
X0200162Y0073983D01*
X0200411Y0074162D01*
X0200663Y0074335D01*
X0200920Y0074502D01*
X0201181Y0074662D01*
X0201446Y0074816D01*
X0201714Y0074963D01*
X0201986Y0075104D01*
X0202261Y0075238D01*
X0202540Y0075365D01*
X0202821Y0075486D01*
X0203106Y0075599D01*
X0203393Y0075705D01*
X0203682Y0075805D01*
X0203974Y0075897D01*
X0204268Y0075982D01*
X0204564Y0076060D01*
X0204862Y0076131D01*
X0205162Y0076194D01*
X0205463Y0076250D01*
X0205765Y0076298D01*
X0206068Y0076339D01*
X0206372Y0076373D01*
X0206677Y0076399D01*
X0206983Y0076418D01*
X0207289Y0076429D01*
X0207595Y0076433D01*
X0207901Y0076429D01*
X0208207Y0076418D01*
X0208513Y0076399D01*
X0208818Y0076373D01*
X0209122Y0076339D01*
X0209425Y0076298D01*
X0209727Y0076250D01*
X0210028Y0076194D01*
X0210328Y0076131D01*
X0210626Y0076060D01*
X0210922Y0075982D01*
X0211216Y0075897D01*
X0211508Y0075805D01*
X0211797Y0075705D01*
X0212084Y0075599D01*
X0212369Y0075486D01*
X0212650Y0075365D01*
X0212929Y0075238D01*
X0213204Y0075104D01*
X0213476Y0074963D01*
X0213744Y0074816D01*
X0214009Y0074662D01*
X0214270Y0074502D01*
X0214527Y0074335D01*
X0214779Y0074162D01*
X0215028Y0073983D01*
X0215271Y0073798D01*
X0215511Y0073607D01*
X0215745Y0073411D01*
X0215975Y0073208D01*
X0216199Y0073000D01*
X0216419Y0072787D01*
X0216633Y0072568D01*
X0216842Y0072344D01*
X0217045Y0072115D01*
X0217243Y0071881D01*
X0217434Y0071643D01*
X0217620Y0071399D01*
X0217800Y0071152D01*
X0217974Y0070899D01*
X0218141Y0070643D01*
X0218302Y0070383D01*
X0218457Y0070119D01*
X0218605Y0069851D01*
X0218747Y0069580D01*
X0218882Y0069305D01*
X0219010Y0069027D01*
X0219131Y0068746D01*
X0219246Y0068462D01*
X0219353Y0068175D01*
X0219454Y0067886D01*
X0219547Y0067594D01*
X0219633Y0067300D01*
X0219712Y0067005D01*
X0219783Y0066707D01*
X0219848Y0066408D01*
X0219905Y0066107D01*
X0219954Y0065805D01*
X0219996Y0065502D01*
X0220031Y0065197D01*
X0220058Y0064893D01*
X0220078Y0064587D01*
X0220090Y0064281D01*
X0220095Y0063975D01*
X0220092Y0063669D01*
X0220082Y0063363D01*
X0220064Y0063057D01*
X0220039Y0062752D01*
X0220006Y0062448D01*
X0219966Y0062144D01*
X0219919Y0061842D01*
X0219864Y0061541D01*
X0219802Y0061241D01*
X0219732Y0060943D01*
X0219655Y0060647D01*
X0219571Y0060352D01*
X0219480Y0060060D01*
X0219381Y0059770D01*
X0219276Y0059483D01*
X0219164Y0059198D01*
X0219044Y0058916D01*
X0218918Y0058637D01*
X0218785Y0058362D01*
X0218645Y0058089D01*
X0218499Y0057820D01*
X0218346Y0057555D01*
X0218186Y0057294D01*
X0218020Y0057037D01*
X0217848Y0056783D01*
X0217670Y0056534D01*
X0217486Y0056290D01*
X0217296Y0056050D01*
X0217100Y0055815D01*
X0216898Y0055584D01*
X0216691Y0055359D01*
X0216478Y0055139D01*
X0216260Y0054924D01*
X0216037Y0054715D01*
X0215809Y0054511D01*
X0215576Y0054312D01*
X0215338Y0054120D01*
X0215095Y0053933D01*
X0230095Y0053933D02*
X0229852Y0054120D01*
X0229614Y0054312D01*
X0229381Y0054511D01*
X0229153Y0054715D01*
X0228930Y0054924D01*
X0228712Y0055139D01*
X0228499Y0055359D01*
X0228292Y0055584D01*
X0228090Y0055815D01*
X0227894Y0056050D01*
X0227704Y0056290D01*
X0227520Y0056534D01*
X0227342Y0056783D01*
X0227170Y0057037D01*
X0227004Y0057294D01*
X0226844Y0057555D01*
X0226691Y0057820D01*
X0226545Y0058089D01*
X0226405Y0058362D01*
X0226272Y0058637D01*
X0226146Y0058916D01*
X0226026Y0059198D01*
X0225914Y0059483D01*
X0225809Y0059770D01*
X0225710Y0060060D01*
X0225619Y0060352D01*
X0225535Y0060647D01*
X0225458Y0060943D01*
X0225388Y0061241D01*
X0225326Y0061541D01*
X0225271Y0061842D01*
X0225224Y0062144D01*
X0225184Y0062448D01*
X0225151Y0062752D01*
X0225126Y0063057D01*
X0225108Y0063363D01*
X0225098Y0063669D01*
X0225095Y0063975D01*
X0225100Y0064281D01*
X0225112Y0064587D01*
X0225132Y0064893D01*
X0225159Y0065197D01*
X0225194Y0065502D01*
X0225236Y0065805D01*
X0225285Y0066107D01*
X0225342Y0066408D01*
X0225407Y0066707D01*
X0225478Y0067005D01*
X0225557Y0067300D01*
X0225643Y0067594D01*
X0225736Y0067886D01*
X0225837Y0068175D01*
X0225944Y0068462D01*
X0226059Y0068746D01*
X0226180Y0069027D01*
X0226308Y0069305D01*
X0226443Y0069580D01*
X0226585Y0069851D01*
X0226733Y0070119D01*
X0226888Y0070383D01*
X0227049Y0070643D01*
X0227216Y0070899D01*
X0227390Y0071152D01*
X0227570Y0071399D01*
X0227756Y0071643D01*
X0227947Y0071881D01*
X0228145Y0072115D01*
X0228348Y0072344D01*
X0228557Y0072568D01*
X0228771Y0072787D01*
X0228991Y0073000D01*
X0229215Y0073208D01*
X0229445Y0073411D01*
X0229679Y0073607D01*
X0229919Y0073798D01*
X0230162Y0073983D01*
X0230411Y0074162D01*
X0230663Y0074335D01*
X0230920Y0074502D01*
X0231181Y0074662D01*
X0231446Y0074816D01*
X0231714Y0074963D01*
X0231986Y0075104D01*
X0232261Y0075238D01*
X0232540Y0075365D01*
X0232821Y0075486D01*
X0233106Y0075599D01*
X0233393Y0075705D01*
X0233682Y0075805D01*
X0233974Y0075897D01*
X0234268Y0075982D01*
X0234564Y0076060D01*
X0234862Y0076131D01*
X0235162Y0076194D01*
X0235463Y0076250D01*
X0235765Y0076298D01*
X0236068Y0076339D01*
X0236372Y0076373D01*
X0236677Y0076399D01*
X0236983Y0076418D01*
X0237289Y0076429D01*
X0237595Y0076433D01*
X0237901Y0076429D01*
X0238207Y0076418D01*
X0238513Y0076399D01*
X0238818Y0076373D01*
X0239122Y0076339D01*
X0239425Y0076298D01*
X0239727Y0076250D01*
X0240028Y0076194D01*
X0240328Y0076131D01*
X0240626Y0076060D01*
X0240922Y0075982D01*
X0241216Y0075897D01*
X0241508Y0075805D01*
X0241797Y0075705D01*
X0242084Y0075599D01*
X0242369Y0075486D01*
X0242650Y0075365D01*
X0242929Y0075238D01*
X0243204Y0075104D01*
X0243476Y0074963D01*
X0243744Y0074816D01*
X0244009Y0074662D01*
X0244270Y0074502D01*
X0244527Y0074335D01*
X0244779Y0074162D01*
X0245028Y0073983D01*
X0245271Y0073798D01*
X0245511Y0073607D01*
X0245745Y0073411D01*
X0245975Y0073208D01*
X0246199Y0073000D01*
X0246419Y0072787D01*
X0246633Y0072568D01*
X0246842Y0072344D01*
X0247045Y0072115D01*
X0247243Y0071881D01*
X0247434Y0071643D01*
X0247620Y0071399D01*
X0247800Y0071152D01*
X0247974Y0070899D01*
X0248141Y0070643D01*
X0248302Y0070383D01*
X0248457Y0070119D01*
X0248605Y0069851D01*
X0248747Y0069580D01*
X0248882Y0069305D01*
X0249010Y0069027D01*
X0249131Y0068746D01*
X0249246Y0068462D01*
X0249353Y0068175D01*
X0249454Y0067886D01*
X0249547Y0067594D01*
X0249633Y0067300D01*
X0249712Y0067005D01*
X0249783Y0066707D01*
X0249848Y0066408D01*
X0249905Y0066107D01*
X0249954Y0065805D01*
X0249996Y0065502D01*
X0250031Y0065197D01*
X0250058Y0064893D01*
X0250078Y0064587D01*
X0250090Y0064281D01*
X0250095Y0063975D01*
X0250092Y0063669D01*
X0250082Y0063363D01*
X0250064Y0063057D01*
X0250039Y0062752D01*
X0250006Y0062448D01*
X0249966Y0062144D01*
X0249919Y0061842D01*
X0249864Y0061541D01*
X0249802Y0061241D01*
X0249732Y0060943D01*
X0249655Y0060647D01*
X0249571Y0060352D01*
X0249480Y0060060D01*
X0249381Y0059770D01*
X0249276Y0059483D01*
X0249164Y0059198D01*
X0249044Y0058916D01*
X0248918Y0058637D01*
X0248785Y0058362D01*
X0248645Y0058089D01*
X0248499Y0057820D01*
X0248346Y0057555D01*
X0248186Y0057294D01*
X0248020Y0057037D01*
X0247848Y0056783D01*
X0247670Y0056534D01*
X0247486Y0056290D01*
X0247296Y0056050D01*
X0247100Y0055815D01*
X0246898Y0055584D01*
X0246691Y0055359D01*
X0246478Y0055139D01*
X0246260Y0054924D01*
X0246037Y0054715D01*
X0245809Y0054511D01*
X0245576Y0054312D01*
X0245338Y0054120D01*
X0245095Y0053933D01*
D13*
X0227595Y0063933D02*
X0227598Y0064178D01*
X0227607Y0064424D01*
X0227622Y0064669D01*
X0227643Y0064913D01*
X0227670Y0065157D01*
X0227703Y0065400D01*
X0227742Y0065643D01*
X0227787Y0065884D01*
X0227838Y0066124D01*
X0227895Y0066363D01*
X0227957Y0066600D01*
X0228026Y0066836D01*
X0228100Y0067070D01*
X0228180Y0067302D01*
X0228265Y0067532D01*
X0228356Y0067760D01*
X0228453Y0067985D01*
X0228555Y0068209D01*
X0228663Y0068429D01*
X0228776Y0068647D01*
X0228894Y0068862D01*
X0229018Y0069074D01*
X0229146Y0069283D01*
X0229280Y0069489D01*
X0229419Y0069691D01*
X0229563Y0069890D01*
X0229712Y0070085D01*
X0229865Y0070277D01*
X0230023Y0070465D01*
X0230185Y0070649D01*
X0230353Y0070828D01*
X0230524Y0071004D01*
X0230700Y0071175D01*
X0230879Y0071343D01*
X0231063Y0071505D01*
X0231251Y0071663D01*
X0231443Y0071816D01*
X0231638Y0071965D01*
X0231837Y0072109D01*
X0232039Y0072248D01*
X0232245Y0072382D01*
X0232454Y0072510D01*
X0232666Y0072634D01*
X0232881Y0072752D01*
X0233099Y0072865D01*
X0233319Y0072973D01*
X0233543Y0073075D01*
X0233768Y0073172D01*
X0233996Y0073263D01*
X0234226Y0073348D01*
X0234458Y0073428D01*
X0234692Y0073502D01*
X0234928Y0073571D01*
X0235165Y0073633D01*
X0235404Y0073690D01*
X0235644Y0073741D01*
X0235885Y0073786D01*
X0236128Y0073825D01*
X0236371Y0073858D01*
X0236615Y0073885D01*
X0236859Y0073906D01*
X0237104Y0073921D01*
X0237350Y0073930D01*
X0237595Y0073933D01*
X0237840Y0073930D01*
X0238086Y0073921D01*
X0238331Y0073906D01*
X0238575Y0073885D01*
X0238819Y0073858D01*
X0239062Y0073825D01*
X0239305Y0073786D01*
X0239546Y0073741D01*
X0239786Y0073690D01*
X0240025Y0073633D01*
X0240262Y0073571D01*
X0240498Y0073502D01*
X0240732Y0073428D01*
X0240964Y0073348D01*
X0241194Y0073263D01*
X0241422Y0073172D01*
X0241647Y0073075D01*
X0241871Y0072973D01*
X0242091Y0072865D01*
X0242309Y0072752D01*
X0242524Y0072634D01*
X0242736Y0072510D01*
X0242945Y0072382D01*
X0243151Y0072248D01*
X0243353Y0072109D01*
X0243552Y0071965D01*
X0243747Y0071816D01*
X0243939Y0071663D01*
X0244127Y0071505D01*
X0244311Y0071343D01*
X0244490Y0071175D01*
X0244666Y0071004D01*
X0244837Y0070828D01*
X0245005Y0070649D01*
X0245167Y0070465D01*
X0245325Y0070277D01*
X0245478Y0070085D01*
X0245627Y0069890D01*
X0245771Y0069691D01*
X0245910Y0069489D01*
X0246044Y0069283D01*
X0246172Y0069074D01*
X0246296Y0068862D01*
X0246414Y0068647D01*
X0246527Y0068429D01*
X0246635Y0068209D01*
X0246737Y0067985D01*
X0246834Y0067760D01*
X0246925Y0067532D01*
X0247010Y0067302D01*
X0247090Y0067070D01*
X0247164Y0066836D01*
X0247233Y0066600D01*
X0247295Y0066363D01*
X0247352Y0066124D01*
X0247403Y0065884D01*
X0247448Y0065643D01*
X0247487Y0065400D01*
X0247520Y0065157D01*
X0247547Y0064913D01*
X0247568Y0064669D01*
X0247583Y0064424D01*
X0247592Y0064178D01*
X0247595Y0063933D01*
X0247592Y0063688D01*
X0247583Y0063442D01*
X0247568Y0063197D01*
X0247547Y0062953D01*
X0247520Y0062709D01*
X0247487Y0062466D01*
X0247448Y0062223D01*
X0247403Y0061982D01*
X0247352Y0061742D01*
X0247295Y0061503D01*
X0247233Y0061266D01*
X0247164Y0061030D01*
X0247090Y0060796D01*
X0247010Y0060564D01*
X0246925Y0060334D01*
X0246834Y0060106D01*
X0246737Y0059881D01*
X0246635Y0059657D01*
X0246527Y0059437D01*
X0246414Y0059219D01*
X0246296Y0059004D01*
X0246172Y0058792D01*
X0246044Y0058583D01*
X0245910Y0058377D01*
X0245771Y0058175D01*
X0245627Y0057976D01*
X0245478Y0057781D01*
X0245325Y0057589D01*
X0245167Y0057401D01*
X0245005Y0057217D01*
X0244837Y0057038D01*
X0244666Y0056862D01*
X0244490Y0056691D01*
X0244311Y0056523D01*
X0244127Y0056361D01*
X0243939Y0056203D01*
X0243747Y0056050D01*
X0243552Y0055901D01*
X0243353Y0055757D01*
X0243151Y0055618D01*
X0242945Y0055484D01*
X0242736Y0055356D01*
X0242524Y0055232D01*
X0242309Y0055114D01*
X0242091Y0055001D01*
X0241871Y0054893D01*
X0241647Y0054791D01*
X0241422Y0054694D01*
X0241194Y0054603D01*
X0240964Y0054518D01*
X0240732Y0054438D01*
X0240498Y0054364D01*
X0240262Y0054295D01*
X0240025Y0054233D01*
X0239786Y0054176D01*
X0239546Y0054125D01*
X0239305Y0054080D01*
X0239062Y0054041D01*
X0238819Y0054008D01*
X0238575Y0053981D01*
X0238331Y0053960D01*
X0238086Y0053945D01*
X0237840Y0053936D01*
X0237595Y0053933D01*
X0237350Y0053936D01*
X0237104Y0053945D01*
X0236859Y0053960D01*
X0236615Y0053981D01*
X0236371Y0054008D01*
X0236128Y0054041D01*
X0235885Y0054080D01*
X0235644Y0054125D01*
X0235404Y0054176D01*
X0235165Y0054233D01*
X0234928Y0054295D01*
X0234692Y0054364D01*
X0234458Y0054438D01*
X0234226Y0054518D01*
X0233996Y0054603D01*
X0233768Y0054694D01*
X0233543Y0054791D01*
X0233319Y0054893D01*
X0233099Y0055001D01*
X0232881Y0055114D01*
X0232666Y0055232D01*
X0232454Y0055356D01*
X0232245Y0055484D01*
X0232039Y0055618D01*
X0231837Y0055757D01*
X0231638Y0055901D01*
X0231443Y0056050D01*
X0231251Y0056203D01*
X0231063Y0056361D01*
X0230879Y0056523D01*
X0230700Y0056691D01*
X0230524Y0056862D01*
X0230353Y0057038D01*
X0230185Y0057217D01*
X0230023Y0057401D01*
X0229865Y0057589D01*
X0229712Y0057781D01*
X0229563Y0057976D01*
X0229419Y0058175D01*
X0229280Y0058377D01*
X0229146Y0058583D01*
X0229018Y0058792D01*
X0228894Y0059004D01*
X0228776Y0059219D01*
X0228663Y0059437D01*
X0228555Y0059657D01*
X0228453Y0059881D01*
X0228356Y0060106D01*
X0228265Y0060334D01*
X0228180Y0060564D01*
X0228100Y0060796D01*
X0228026Y0061030D01*
X0227957Y0061266D01*
X0227895Y0061503D01*
X0227838Y0061742D01*
X0227787Y0061982D01*
X0227742Y0062223D01*
X0227703Y0062466D01*
X0227670Y0062709D01*
X0227643Y0062953D01*
X0227622Y0063197D01*
X0227607Y0063442D01*
X0227598Y0063688D01*
X0227595Y0063933D01*
X0197595Y0063933D02*
X0197598Y0064178D01*
X0197607Y0064424D01*
X0197622Y0064669D01*
X0197643Y0064913D01*
X0197670Y0065157D01*
X0197703Y0065400D01*
X0197742Y0065643D01*
X0197787Y0065884D01*
X0197838Y0066124D01*
X0197895Y0066363D01*
X0197957Y0066600D01*
X0198026Y0066836D01*
X0198100Y0067070D01*
X0198180Y0067302D01*
X0198265Y0067532D01*
X0198356Y0067760D01*
X0198453Y0067985D01*
X0198555Y0068209D01*
X0198663Y0068429D01*
X0198776Y0068647D01*
X0198894Y0068862D01*
X0199018Y0069074D01*
X0199146Y0069283D01*
X0199280Y0069489D01*
X0199419Y0069691D01*
X0199563Y0069890D01*
X0199712Y0070085D01*
X0199865Y0070277D01*
X0200023Y0070465D01*
X0200185Y0070649D01*
X0200353Y0070828D01*
X0200524Y0071004D01*
X0200700Y0071175D01*
X0200879Y0071343D01*
X0201063Y0071505D01*
X0201251Y0071663D01*
X0201443Y0071816D01*
X0201638Y0071965D01*
X0201837Y0072109D01*
X0202039Y0072248D01*
X0202245Y0072382D01*
X0202454Y0072510D01*
X0202666Y0072634D01*
X0202881Y0072752D01*
X0203099Y0072865D01*
X0203319Y0072973D01*
X0203543Y0073075D01*
X0203768Y0073172D01*
X0203996Y0073263D01*
X0204226Y0073348D01*
X0204458Y0073428D01*
X0204692Y0073502D01*
X0204928Y0073571D01*
X0205165Y0073633D01*
X0205404Y0073690D01*
X0205644Y0073741D01*
X0205885Y0073786D01*
X0206128Y0073825D01*
X0206371Y0073858D01*
X0206615Y0073885D01*
X0206859Y0073906D01*
X0207104Y0073921D01*
X0207350Y0073930D01*
X0207595Y0073933D01*
X0207840Y0073930D01*
X0208086Y0073921D01*
X0208331Y0073906D01*
X0208575Y0073885D01*
X0208819Y0073858D01*
X0209062Y0073825D01*
X0209305Y0073786D01*
X0209546Y0073741D01*
X0209786Y0073690D01*
X0210025Y0073633D01*
X0210262Y0073571D01*
X0210498Y0073502D01*
X0210732Y0073428D01*
X0210964Y0073348D01*
X0211194Y0073263D01*
X0211422Y0073172D01*
X0211647Y0073075D01*
X0211871Y0072973D01*
X0212091Y0072865D01*
X0212309Y0072752D01*
X0212524Y0072634D01*
X0212736Y0072510D01*
X0212945Y0072382D01*
X0213151Y0072248D01*
X0213353Y0072109D01*
X0213552Y0071965D01*
X0213747Y0071816D01*
X0213939Y0071663D01*
X0214127Y0071505D01*
X0214311Y0071343D01*
X0214490Y0071175D01*
X0214666Y0071004D01*
X0214837Y0070828D01*
X0215005Y0070649D01*
X0215167Y0070465D01*
X0215325Y0070277D01*
X0215478Y0070085D01*
X0215627Y0069890D01*
X0215771Y0069691D01*
X0215910Y0069489D01*
X0216044Y0069283D01*
X0216172Y0069074D01*
X0216296Y0068862D01*
X0216414Y0068647D01*
X0216527Y0068429D01*
X0216635Y0068209D01*
X0216737Y0067985D01*
X0216834Y0067760D01*
X0216925Y0067532D01*
X0217010Y0067302D01*
X0217090Y0067070D01*
X0217164Y0066836D01*
X0217233Y0066600D01*
X0217295Y0066363D01*
X0217352Y0066124D01*
X0217403Y0065884D01*
X0217448Y0065643D01*
X0217487Y0065400D01*
X0217520Y0065157D01*
X0217547Y0064913D01*
X0217568Y0064669D01*
X0217583Y0064424D01*
X0217592Y0064178D01*
X0217595Y0063933D01*
X0217592Y0063688D01*
X0217583Y0063442D01*
X0217568Y0063197D01*
X0217547Y0062953D01*
X0217520Y0062709D01*
X0217487Y0062466D01*
X0217448Y0062223D01*
X0217403Y0061982D01*
X0217352Y0061742D01*
X0217295Y0061503D01*
X0217233Y0061266D01*
X0217164Y0061030D01*
X0217090Y0060796D01*
X0217010Y0060564D01*
X0216925Y0060334D01*
X0216834Y0060106D01*
X0216737Y0059881D01*
X0216635Y0059657D01*
X0216527Y0059437D01*
X0216414Y0059219D01*
X0216296Y0059004D01*
X0216172Y0058792D01*
X0216044Y0058583D01*
X0215910Y0058377D01*
X0215771Y0058175D01*
X0215627Y0057976D01*
X0215478Y0057781D01*
X0215325Y0057589D01*
X0215167Y0057401D01*
X0215005Y0057217D01*
X0214837Y0057038D01*
X0214666Y0056862D01*
X0214490Y0056691D01*
X0214311Y0056523D01*
X0214127Y0056361D01*
X0213939Y0056203D01*
X0213747Y0056050D01*
X0213552Y0055901D01*
X0213353Y0055757D01*
X0213151Y0055618D01*
X0212945Y0055484D01*
X0212736Y0055356D01*
X0212524Y0055232D01*
X0212309Y0055114D01*
X0212091Y0055001D01*
X0211871Y0054893D01*
X0211647Y0054791D01*
X0211422Y0054694D01*
X0211194Y0054603D01*
X0210964Y0054518D01*
X0210732Y0054438D01*
X0210498Y0054364D01*
X0210262Y0054295D01*
X0210025Y0054233D01*
X0209786Y0054176D01*
X0209546Y0054125D01*
X0209305Y0054080D01*
X0209062Y0054041D01*
X0208819Y0054008D01*
X0208575Y0053981D01*
X0208331Y0053960D01*
X0208086Y0053945D01*
X0207840Y0053936D01*
X0207595Y0053933D01*
X0207350Y0053936D01*
X0207104Y0053945D01*
X0206859Y0053960D01*
X0206615Y0053981D01*
X0206371Y0054008D01*
X0206128Y0054041D01*
X0205885Y0054080D01*
X0205644Y0054125D01*
X0205404Y0054176D01*
X0205165Y0054233D01*
X0204928Y0054295D01*
X0204692Y0054364D01*
X0204458Y0054438D01*
X0204226Y0054518D01*
X0203996Y0054603D01*
X0203768Y0054694D01*
X0203543Y0054791D01*
X0203319Y0054893D01*
X0203099Y0055001D01*
X0202881Y0055114D01*
X0202666Y0055232D01*
X0202454Y0055356D01*
X0202245Y0055484D01*
X0202039Y0055618D01*
X0201837Y0055757D01*
X0201638Y0055901D01*
X0201443Y0056050D01*
X0201251Y0056203D01*
X0201063Y0056361D01*
X0200879Y0056523D01*
X0200700Y0056691D01*
X0200524Y0056862D01*
X0200353Y0057038D01*
X0200185Y0057217D01*
X0200023Y0057401D01*
X0199865Y0057589D01*
X0199712Y0057781D01*
X0199563Y0057976D01*
X0199419Y0058175D01*
X0199280Y0058377D01*
X0199146Y0058583D01*
X0199018Y0058792D01*
X0198894Y0059004D01*
X0198776Y0059219D01*
X0198663Y0059437D01*
X0198555Y0059657D01*
X0198453Y0059881D01*
X0198356Y0060106D01*
X0198265Y0060334D01*
X0198180Y0060564D01*
X0198100Y0060796D01*
X0198026Y0061030D01*
X0197957Y0061266D01*
X0197895Y0061503D01*
X0197838Y0061742D01*
X0197787Y0061982D01*
X0197742Y0062223D01*
X0197703Y0062466D01*
X0197670Y0062709D01*
X0197643Y0062953D01*
X0197622Y0063197D01*
X0197607Y0063442D01*
X0197598Y0063688D01*
X0197595Y0063933D01*
X0199214Y0074727D02*
X0198601Y0075341D01*
X0198601Y0075954D01*
X0199828Y0075954D02*
X0200134Y0075647D01*
X0200134Y0075034D01*
X0199828Y0074727D01*
X0199214Y0074727D01*
X0200134Y0075647D02*
X0200748Y0075647D01*
X0201055Y0075954D01*
X0201055Y0076567D01*
X0200441Y0077181D01*
X0199828Y0077181D01*
X0198971Y0078037D02*
X0198358Y0077424D01*
X0197744Y0077424D01*
X0196824Y0078344D01*
X0196211Y0077731D02*
X0198051Y0079571D01*
X0198971Y0078651D01*
X0198971Y0078037D01*
X0197438Y0077731D02*
X0197438Y0076504D01*
X0162595Y0063933D02*
X0162598Y0064178D01*
X0162607Y0064424D01*
X0162622Y0064669D01*
X0162643Y0064913D01*
X0162670Y0065157D01*
X0162703Y0065400D01*
X0162742Y0065643D01*
X0162787Y0065884D01*
X0162838Y0066124D01*
X0162895Y0066363D01*
X0162957Y0066600D01*
X0163026Y0066836D01*
X0163100Y0067070D01*
X0163180Y0067302D01*
X0163265Y0067532D01*
X0163356Y0067760D01*
X0163453Y0067985D01*
X0163555Y0068209D01*
X0163663Y0068429D01*
X0163776Y0068647D01*
X0163894Y0068862D01*
X0164018Y0069074D01*
X0164146Y0069283D01*
X0164280Y0069489D01*
X0164419Y0069691D01*
X0164563Y0069890D01*
X0164712Y0070085D01*
X0164865Y0070277D01*
X0165023Y0070465D01*
X0165185Y0070649D01*
X0165353Y0070828D01*
X0165524Y0071004D01*
X0165700Y0071175D01*
X0165879Y0071343D01*
X0166063Y0071505D01*
X0166251Y0071663D01*
X0166443Y0071816D01*
X0166638Y0071965D01*
X0166837Y0072109D01*
X0167039Y0072248D01*
X0167245Y0072382D01*
X0167454Y0072510D01*
X0167666Y0072634D01*
X0167881Y0072752D01*
X0168099Y0072865D01*
X0168319Y0072973D01*
X0168543Y0073075D01*
X0168768Y0073172D01*
X0168996Y0073263D01*
X0169226Y0073348D01*
X0169458Y0073428D01*
X0169692Y0073502D01*
X0169928Y0073571D01*
X0170165Y0073633D01*
X0170404Y0073690D01*
X0170644Y0073741D01*
X0170885Y0073786D01*
X0171128Y0073825D01*
X0171371Y0073858D01*
X0171615Y0073885D01*
X0171859Y0073906D01*
X0172104Y0073921D01*
X0172350Y0073930D01*
X0172595Y0073933D01*
X0172840Y0073930D01*
X0173086Y0073921D01*
X0173331Y0073906D01*
X0173575Y0073885D01*
X0173819Y0073858D01*
X0174062Y0073825D01*
X0174305Y0073786D01*
X0174546Y0073741D01*
X0174786Y0073690D01*
X0175025Y0073633D01*
X0175262Y0073571D01*
X0175498Y0073502D01*
X0175732Y0073428D01*
X0175964Y0073348D01*
X0176194Y0073263D01*
X0176422Y0073172D01*
X0176647Y0073075D01*
X0176871Y0072973D01*
X0177091Y0072865D01*
X0177309Y0072752D01*
X0177524Y0072634D01*
X0177736Y0072510D01*
X0177945Y0072382D01*
X0178151Y0072248D01*
X0178353Y0072109D01*
X0178552Y0071965D01*
X0178747Y0071816D01*
X0178939Y0071663D01*
X0179127Y0071505D01*
X0179311Y0071343D01*
X0179490Y0071175D01*
X0179666Y0071004D01*
X0179837Y0070828D01*
X0180005Y0070649D01*
X0180167Y0070465D01*
X0180325Y0070277D01*
X0180478Y0070085D01*
X0180627Y0069890D01*
X0180771Y0069691D01*
X0180910Y0069489D01*
X0181044Y0069283D01*
X0181172Y0069074D01*
X0181296Y0068862D01*
X0181414Y0068647D01*
X0181527Y0068429D01*
X0181635Y0068209D01*
X0181737Y0067985D01*
X0181834Y0067760D01*
X0181925Y0067532D01*
X0182010Y0067302D01*
X0182090Y0067070D01*
X0182164Y0066836D01*
X0182233Y0066600D01*
X0182295Y0066363D01*
X0182352Y0066124D01*
X0182403Y0065884D01*
X0182448Y0065643D01*
X0182487Y0065400D01*
X0182520Y0065157D01*
X0182547Y0064913D01*
X0182568Y0064669D01*
X0182583Y0064424D01*
X0182592Y0064178D01*
X0182595Y0063933D01*
X0182592Y0063688D01*
X0182583Y0063442D01*
X0182568Y0063197D01*
X0182547Y0062953D01*
X0182520Y0062709D01*
X0182487Y0062466D01*
X0182448Y0062223D01*
X0182403Y0061982D01*
X0182352Y0061742D01*
X0182295Y0061503D01*
X0182233Y0061266D01*
X0182164Y0061030D01*
X0182090Y0060796D01*
X0182010Y0060564D01*
X0181925Y0060334D01*
X0181834Y0060106D01*
X0181737Y0059881D01*
X0181635Y0059657D01*
X0181527Y0059437D01*
X0181414Y0059219D01*
X0181296Y0059004D01*
X0181172Y0058792D01*
X0181044Y0058583D01*
X0180910Y0058377D01*
X0180771Y0058175D01*
X0180627Y0057976D01*
X0180478Y0057781D01*
X0180325Y0057589D01*
X0180167Y0057401D01*
X0180005Y0057217D01*
X0179837Y0057038D01*
X0179666Y0056862D01*
X0179490Y0056691D01*
X0179311Y0056523D01*
X0179127Y0056361D01*
X0178939Y0056203D01*
X0178747Y0056050D01*
X0178552Y0055901D01*
X0178353Y0055757D01*
X0178151Y0055618D01*
X0177945Y0055484D01*
X0177736Y0055356D01*
X0177524Y0055232D01*
X0177309Y0055114D01*
X0177091Y0055001D01*
X0176871Y0054893D01*
X0176647Y0054791D01*
X0176422Y0054694D01*
X0176194Y0054603D01*
X0175964Y0054518D01*
X0175732Y0054438D01*
X0175498Y0054364D01*
X0175262Y0054295D01*
X0175025Y0054233D01*
X0174786Y0054176D01*
X0174546Y0054125D01*
X0174305Y0054080D01*
X0174062Y0054041D01*
X0173819Y0054008D01*
X0173575Y0053981D01*
X0173331Y0053960D01*
X0173086Y0053945D01*
X0172840Y0053936D01*
X0172595Y0053933D01*
X0172350Y0053936D01*
X0172104Y0053945D01*
X0171859Y0053960D01*
X0171615Y0053981D01*
X0171371Y0054008D01*
X0171128Y0054041D01*
X0170885Y0054080D01*
X0170644Y0054125D01*
X0170404Y0054176D01*
X0170165Y0054233D01*
X0169928Y0054295D01*
X0169692Y0054364D01*
X0169458Y0054438D01*
X0169226Y0054518D01*
X0168996Y0054603D01*
X0168768Y0054694D01*
X0168543Y0054791D01*
X0168319Y0054893D01*
X0168099Y0055001D01*
X0167881Y0055114D01*
X0167666Y0055232D01*
X0167454Y0055356D01*
X0167245Y0055484D01*
X0167039Y0055618D01*
X0166837Y0055757D01*
X0166638Y0055901D01*
X0166443Y0056050D01*
X0166251Y0056203D01*
X0166063Y0056361D01*
X0165879Y0056523D01*
X0165700Y0056691D01*
X0165524Y0056862D01*
X0165353Y0057038D01*
X0165185Y0057217D01*
X0165023Y0057401D01*
X0164865Y0057589D01*
X0164712Y0057781D01*
X0164563Y0057976D01*
X0164419Y0058175D01*
X0164280Y0058377D01*
X0164146Y0058583D01*
X0164018Y0058792D01*
X0163894Y0059004D01*
X0163776Y0059219D01*
X0163663Y0059437D01*
X0163555Y0059657D01*
X0163453Y0059881D01*
X0163356Y0060106D01*
X0163265Y0060334D01*
X0163180Y0060564D01*
X0163100Y0060796D01*
X0163026Y0061030D01*
X0162957Y0061266D01*
X0162895Y0061503D01*
X0162838Y0061742D01*
X0162787Y0061982D01*
X0162742Y0062223D01*
X0162703Y0062466D01*
X0162670Y0062709D01*
X0162643Y0062953D01*
X0162622Y0063197D01*
X0162607Y0063442D01*
X0162598Y0063688D01*
X0162595Y0063933D01*
X0132595Y0063933D02*
X0132598Y0064178D01*
X0132607Y0064424D01*
X0132622Y0064669D01*
X0132643Y0064913D01*
X0132670Y0065157D01*
X0132703Y0065400D01*
X0132742Y0065643D01*
X0132787Y0065884D01*
X0132838Y0066124D01*
X0132895Y0066363D01*
X0132957Y0066600D01*
X0133026Y0066836D01*
X0133100Y0067070D01*
X0133180Y0067302D01*
X0133265Y0067532D01*
X0133356Y0067760D01*
X0133453Y0067985D01*
X0133555Y0068209D01*
X0133663Y0068429D01*
X0133776Y0068647D01*
X0133894Y0068862D01*
X0134018Y0069074D01*
X0134146Y0069283D01*
X0134280Y0069489D01*
X0134419Y0069691D01*
X0134563Y0069890D01*
X0134712Y0070085D01*
X0134865Y0070277D01*
X0135023Y0070465D01*
X0135185Y0070649D01*
X0135353Y0070828D01*
X0135524Y0071004D01*
X0135700Y0071175D01*
X0135879Y0071343D01*
X0136063Y0071505D01*
X0136251Y0071663D01*
X0136443Y0071816D01*
X0136638Y0071965D01*
X0136837Y0072109D01*
X0137039Y0072248D01*
X0137245Y0072382D01*
X0137454Y0072510D01*
X0137666Y0072634D01*
X0137881Y0072752D01*
X0138099Y0072865D01*
X0138319Y0072973D01*
X0138543Y0073075D01*
X0138768Y0073172D01*
X0138996Y0073263D01*
X0139226Y0073348D01*
X0139458Y0073428D01*
X0139692Y0073502D01*
X0139928Y0073571D01*
X0140165Y0073633D01*
X0140404Y0073690D01*
X0140644Y0073741D01*
X0140885Y0073786D01*
X0141128Y0073825D01*
X0141371Y0073858D01*
X0141615Y0073885D01*
X0141859Y0073906D01*
X0142104Y0073921D01*
X0142350Y0073930D01*
X0142595Y0073933D01*
X0142840Y0073930D01*
X0143086Y0073921D01*
X0143331Y0073906D01*
X0143575Y0073885D01*
X0143819Y0073858D01*
X0144062Y0073825D01*
X0144305Y0073786D01*
X0144546Y0073741D01*
X0144786Y0073690D01*
X0145025Y0073633D01*
X0145262Y0073571D01*
X0145498Y0073502D01*
X0145732Y0073428D01*
X0145964Y0073348D01*
X0146194Y0073263D01*
X0146422Y0073172D01*
X0146647Y0073075D01*
X0146871Y0072973D01*
X0147091Y0072865D01*
X0147309Y0072752D01*
X0147524Y0072634D01*
X0147736Y0072510D01*
X0147945Y0072382D01*
X0148151Y0072248D01*
X0148353Y0072109D01*
X0148552Y0071965D01*
X0148747Y0071816D01*
X0148939Y0071663D01*
X0149127Y0071505D01*
X0149311Y0071343D01*
X0149490Y0071175D01*
X0149666Y0071004D01*
X0149837Y0070828D01*
X0150005Y0070649D01*
X0150167Y0070465D01*
X0150325Y0070277D01*
X0150478Y0070085D01*
X0150627Y0069890D01*
X0150771Y0069691D01*
X0150910Y0069489D01*
X0151044Y0069283D01*
X0151172Y0069074D01*
X0151296Y0068862D01*
X0151414Y0068647D01*
X0151527Y0068429D01*
X0151635Y0068209D01*
X0151737Y0067985D01*
X0151834Y0067760D01*
X0151925Y0067532D01*
X0152010Y0067302D01*
X0152090Y0067070D01*
X0152164Y0066836D01*
X0152233Y0066600D01*
X0152295Y0066363D01*
X0152352Y0066124D01*
X0152403Y0065884D01*
X0152448Y0065643D01*
X0152487Y0065400D01*
X0152520Y0065157D01*
X0152547Y0064913D01*
X0152568Y0064669D01*
X0152583Y0064424D01*
X0152592Y0064178D01*
X0152595Y0063933D01*
X0152592Y0063688D01*
X0152583Y0063442D01*
X0152568Y0063197D01*
X0152547Y0062953D01*
X0152520Y0062709D01*
X0152487Y0062466D01*
X0152448Y0062223D01*
X0152403Y0061982D01*
X0152352Y0061742D01*
X0152295Y0061503D01*
X0152233Y0061266D01*
X0152164Y0061030D01*
X0152090Y0060796D01*
X0152010Y0060564D01*
X0151925Y0060334D01*
X0151834Y0060106D01*
X0151737Y0059881D01*
X0151635Y0059657D01*
X0151527Y0059437D01*
X0151414Y0059219D01*
X0151296Y0059004D01*
X0151172Y0058792D01*
X0151044Y0058583D01*
X0150910Y0058377D01*
X0150771Y0058175D01*
X0150627Y0057976D01*
X0150478Y0057781D01*
X0150325Y0057589D01*
X0150167Y0057401D01*
X0150005Y0057217D01*
X0149837Y0057038D01*
X0149666Y0056862D01*
X0149490Y0056691D01*
X0149311Y0056523D01*
X0149127Y0056361D01*
X0148939Y0056203D01*
X0148747Y0056050D01*
X0148552Y0055901D01*
X0148353Y0055757D01*
X0148151Y0055618D01*
X0147945Y0055484D01*
X0147736Y0055356D01*
X0147524Y0055232D01*
X0147309Y0055114D01*
X0147091Y0055001D01*
X0146871Y0054893D01*
X0146647Y0054791D01*
X0146422Y0054694D01*
X0146194Y0054603D01*
X0145964Y0054518D01*
X0145732Y0054438D01*
X0145498Y0054364D01*
X0145262Y0054295D01*
X0145025Y0054233D01*
X0144786Y0054176D01*
X0144546Y0054125D01*
X0144305Y0054080D01*
X0144062Y0054041D01*
X0143819Y0054008D01*
X0143575Y0053981D01*
X0143331Y0053960D01*
X0143086Y0053945D01*
X0142840Y0053936D01*
X0142595Y0053933D01*
X0142350Y0053936D01*
X0142104Y0053945D01*
X0141859Y0053960D01*
X0141615Y0053981D01*
X0141371Y0054008D01*
X0141128Y0054041D01*
X0140885Y0054080D01*
X0140644Y0054125D01*
X0140404Y0054176D01*
X0140165Y0054233D01*
X0139928Y0054295D01*
X0139692Y0054364D01*
X0139458Y0054438D01*
X0139226Y0054518D01*
X0138996Y0054603D01*
X0138768Y0054694D01*
X0138543Y0054791D01*
X0138319Y0054893D01*
X0138099Y0055001D01*
X0137881Y0055114D01*
X0137666Y0055232D01*
X0137454Y0055356D01*
X0137245Y0055484D01*
X0137039Y0055618D01*
X0136837Y0055757D01*
X0136638Y0055901D01*
X0136443Y0056050D01*
X0136251Y0056203D01*
X0136063Y0056361D01*
X0135879Y0056523D01*
X0135700Y0056691D01*
X0135524Y0056862D01*
X0135353Y0057038D01*
X0135185Y0057217D01*
X0135023Y0057401D01*
X0134865Y0057589D01*
X0134712Y0057781D01*
X0134563Y0057976D01*
X0134419Y0058175D01*
X0134280Y0058377D01*
X0134146Y0058583D01*
X0134018Y0058792D01*
X0133894Y0059004D01*
X0133776Y0059219D01*
X0133663Y0059437D01*
X0133555Y0059657D01*
X0133453Y0059881D01*
X0133356Y0060106D01*
X0133265Y0060334D01*
X0133180Y0060564D01*
X0133100Y0060796D01*
X0133026Y0061030D01*
X0132957Y0061266D01*
X0132895Y0061503D01*
X0132838Y0061742D01*
X0132787Y0061982D01*
X0132742Y0062223D01*
X0132703Y0062466D01*
X0132670Y0062709D01*
X0132643Y0062953D01*
X0132622Y0063197D01*
X0132607Y0063442D01*
X0132598Y0063688D01*
X0132595Y0063933D01*
X0115683Y0065033D02*
X0113949Y0065033D01*
X0114816Y0065033D02*
X0114816Y0067635D01*
X0113949Y0066768D01*
X0112737Y0067202D02*
X0112737Y0066334D01*
X0112303Y0065900D01*
X0111002Y0065900D01*
X0111002Y0065033D02*
X0111002Y0067635D01*
X0112303Y0067635D01*
X0112737Y0067202D01*
X0111870Y0065900D02*
X0112737Y0065033D01*
X0037595Y0063933D02*
X0037598Y0064178D01*
X0037607Y0064424D01*
X0037622Y0064669D01*
X0037643Y0064913D01*
X0037670Y0065157D01*
X0037703Y0065400D01*
X0037742Y0065643D01*
X0037787Y0065884D01*
X0037838Y0066124D01*
X0037895Y0066363D01*
X0037957Y0066600D01*
X0038026Y0066836D01*
X0038100Y0067070D01*
X0038180Y0067302D01*
X0038265Y0067532D01*
X0038356Y0067760D01*
X0038453Y0067985D01*
X0038555Y0068209D01*
X0038663Y0068429D01*
X0038776Y0068647D01*
X0038894Y0068862D01*
X0039018Y0069074D01*
X0039146Y0069283D01*
X0039280Y0069489D01*
X0039419Y0069691D01*
X0039563Y0069890D01*
X0039712Y0070085D01*
X0039865Y0070277D01*
X0040023Y0070465D01*
X0040185Y0070649D01*
X0040353Y0070828D01*
X0040524Y0071004D01*
X0040700Y0071175D01*
X0040879Y0071343D01*
X0041063Y0071505D01*
X0041251Y0071663D01*
X0041443Y0071816D01*
X0041638Y0071965D01*
X0041837Y0072109D01*
X0042039Y0072248D01*
X0042245Y0072382D01*
X0042454Y0072510D01*
X0042666Y0072634D01*
X0042881Y0072752D01*
X0043099Y0072865D01*
X0043319Y0072973D01*
X0043543Y0073075D01*
X0043768Y0073172D01*
X0043996Y0073263D01*
X0044226Y0073348D01*
X0044458Y0073428D01*
X0044692Y0073502D01*
X0044928Y0073571D01*
X0045165Y0073633D01*
X0045404Y0073690D01*
X0045644Y0073741D01*
X0045885Y0073786D01*
X0046128Y0073825D01*
X0046371Y0073858D01*
X0046615Y0073885D01*
X0046859Y0073906D01*
X0047104Y0073921D01*
X0047350Y0073930D01*
X0047595Y0073933D01*
X0047840Y0073930D01*
X0048086Y0073921D01*
X0048331Y0073906D01*
X0048575Y0073885D01*
X0048819Y0073858D01*
X0049062Y0073825D01*
X0049305Y0073786D01*
X0049546Y0073741D01*
X0049786Y0073690D01*
X0050025Y0073633D01*
X0050262Y0073571D01*
X0050498Y0073502D01*
X0050732Y0073428D01*
X0050964Y0073348D01*
X0051194Y0073263D01*
X0051422Y0073172D01*
X0051647Y0073075D01*
X0051871Y0072973D01*
X0052091Y0072865D01*
X0052309Y0072752D01*
X0052524Y0072634D01*
X0052736Y0072510D01*
X0052945Y0072382D01*
X0053151Y0072248D01*
X0053353Y0072109D01*
X0053552Y0071965D01*
X0053747Y0071816D01*
X0053939Y0071663D01*
X0054127Y0071505D01*
X0054311Y0071343D01*
X0054490Y0071175D01*
X0054666Y0071004D01*
X0054837Y0070828D01*
X0055005Y0070649D01*
X0055167Y0070465D01*
X0055325Y0070277D01*
X0055478Y0070085D01*
X0055627Y0069890D01*
X0055771Y0069691D01*
X0055910Y0069489D01*
X0056044Y0069283D01*
X0056172Y0069074D01*
X0056296Y0068862D01*
X0056414Y0068647D01*
X0056527Y0068429D01*
X0056635Y0068209D01*
X0056737Y0067985D01*
X0056834Y0067760D01*
X0056925Y0067532D01*
X0057010Y0067302D01*
X0057090Y0067070D01*
X0057164Y0066836D01*
X0057233Y0066600D01*
X0057295Y0066363D01*
X0057352Y0066124D01*
X0057403Y0065884D01*
X0057448Y0065643D01*
X0057487Y0065400D01*
X0057520Y0065157D01*
X0057547Y0064913D01*
X0057568Y0064669D01*
X0057583Y0064424D01*
X0057592Y0064178D01*
X0057595Y0063933D01*
X0057592Y0063688D01*
X0057583Y0063442D01*
X0057568Y0063197D01*
X0057547Y0062953D01*
X0057520Y0062709D01*
X0057487Y0062466D01*
X0057448Y0062223D01*
X0057403Y0061982D01*
X0057352Y0061742D01*
X0057295Y0061503D01*
X0057233Y0061266D01*
X0057164Y0061030D01*
X0057090Y0060796D01*
X0057010Y0060564D01*
X0056925Y0060334D01*
X0056834Y0060106D01*
X0056737Y0059881D01*
X0056635Y0059657D01*
X0056527Y0059437D01*
X0056414Y0059219D01*
X0056296Y0059004D01*
X0056172Y0058792D01*
X0056044Y0058583D01*
X0055910Y0058377D01*
X0055771Y0058175D01*
X0055627Y0057976D01*
X0055478Y0057781D01*
X0055325Y0057589D01*
X0055167Y0057401D01*
X0055005Y0057217D01*
X0054837Y0057038D01*
X0054666Y0056862D01*
X0054490Y0056691D01*
X0054311Y0056523D01*
X0054127Y0056361D01*
X0053939Y0056203D01*
X0053747Y0056050D01*
X0053552Y0055901D01*
X0053353Y0055757D01*
X0053151Y0055618D01*
X0052945Y0055484D01*
X0052736Y0055356D01*
X0052524Y0055232D01*
X0052309Y0055114D01*
X0052091Y0055001D01*
X0051871Y0054893D01*
X0051647Y0054791D01*
X0051422Y0054694D01*
X0051194Y0054603D01*
X0050964Y0054518D01*
X0050732Y0054438D01*
X0050498Y0054364D01*
X0050262Y0054295D01*
X0050025Y0054233D01*
X0049786Y0054176D01*
X0049546Y0054125D01*
X0049305Y0054080D01*
X0049062Y0054041D01*
X0048819Y0054008D01*
X0048575Y0053981D01*
X0048331Y0053960D01*
X0048086Y0053945D01*
X0047840Y0053936D01*
X0047595Y0053933D01*
X0047350Y0053936D01*
X0047104Y0053945D01*
X0046859Y0053960D01*
X0046615Y0053981D01*
X0046371Y0054008D01*
X0046128Y0054041D01*
X0045885Y0054080D01*
X0045644Y0054125D01*
X0045404Y0054176D01*
X0045165Y0054233D01*
X0044928Y0054295D01*
X0044692Y0054364D01*
X0044458Y0054438D01*
X0044226Y0054518D01*
X0043996Y0054603D01*
X0043768Y0054694D01*
X0043543Y0054791D01*
X0043319Y0054893D01*
X0043099Y0055001D01*
X0042881Y0055114D01*
X0042666Y0055232D01*
X0042454Y0055356D01*
X0042245Y0055484D01*
X0042039Y0055618D01*
X0041837Y0055757D01*
X0041638Y0055901D01*
X0041443Y0056050D01*
X0041251Y0056203D01*
X0041063Y0056361D01*
X0040879Y0056523D01*
X0040700Y0056691D01*
X0040524Y0056862D01*
X0040353Y0057038D01*
X0040185Y0057217D01*
X0040023Y0057401D01*
X0039865Y0057589D01*
X0039712Y0057781D01*
X0039563Y0057976D01*
X0039419Y0058175D01*
X0039280Y0058377D01*
X0039146Y0058583D01*
X0039018Y0058792D01*
X0038894Y0059004D01*
X0038776Y0059219D01*
X0038663Y0059437D01*
X0038555Y0059657D01*
X0038453Y0059881D01*
X0038356Y0060106D01*
X0038265Y0060334D01*
X0038180Y0060564D01*
X0038100Y0060796D01*
X0038026Y0061030D01*
X0037957Y0061266D01*
X0037895Y0061503D01*
X0037838Y0061742D01*
X0037787Y0061982D01*
X0037742Y0062223D01*
X0037703Y0062466D01*
X0037670Y0062709D01*
X0037643Y0062953D01*
X0037622Y0063197D01*
X0037607Y0063442D01*
X0037598Y0063688D01*
X0037595Y0063933D01*
X0044489Y0084736D02*
X0042648Y0086576D01*
X0043569Y0087496D01*
X0044182Y0087496D01*
X0044795Y0086883D01*
X0044795Y0086269D01*
X0043875Y0085349D01*
X0044489Y0085963D02*
X0045715Y0085963D01*
X0045652Y0087740D02*
X0046879Y0088966D01*
X0047492Y0087740D02*
X0045652Y0089580D01*
X0045652Y0087740D01*
X0226211Y0077731D02*
X0228051Y0079571D01*
X0228971Y0078651D01*
X0228971Y0078037D01*
X0228358Y0077424D01*
X0227744Y0077424D01*
X0226824Y0078344D01*
X0227438Y0077731D02*
X0227438Y0076504D01*
X0228294Y0075647D02*
X0230748Y0075647D01*
X0231055Y0075954D01*
X0231055Y0076567D01*
X0230441Y0077181D01*
X0229828Y0077181D01*
X0228294Y0075647D02*
X0229521Y0074421D01*
D14*
X0054445Y0033267D02*
X0049941Y0033267D01*
X0054445Y0033267D02*
X0054445Y0036270D01*
X0054445Y0037871D02*
X0054445Y0040874D01*
X0054445Y0042475D02*
X0054445Y0044727D01*
X0053695Y0045478D01*
X0050692Y0045478D01*
X0049941Y0044727D01*
X0049941Y0042475D01*
X0054445Y0042475D01*
X0049941Y0040874D02*
X0049941Y0037871D01*
X0054445Y0037871D01*
X0052193Y0037871D02*
X0052193Y0039373D01*
X0052193Y0047079D02*
X0049941Y0047079D01*
X0049941Y0050082D01*
X0051443Y0049331D02*
X0051443Y0048580D01*
X0052193Y0047079D01*
X0053695Y0047079D02*
X0054445Y0047830D01*
X0054445Y0049331D01*
X0053695Y0050082D01*
X0052193Y0050082D01*
X0051443Y0049331D01*
X0144941Y0049331D02*
X0144941Y0047830D01*
X0145692Y0047079D01*
X0145692Y0045478D02*
X0144941Y0044727D01*
X0144941Y0042475D01*
X0149445Y0042475D01*
X0149445Y0044727D01*
X0148695Y0045478D01*
X0145692Y0045478D01*
X0149445Y0047079D02*
X0146443Y0050082D01*
X0145692Y0050082D01*
X0144941Y0049331D01*
X0149445Y0050082D02*
X0149445Y0047079D01*
X0149445Y0040874D02*
X0149445Y0037871D01*
X0144941Y0037871D01*
X0144941Y0040874D01*
X0147193Y0039373D02*
X0147193Y0037871D01*
X0149445Y0036270D02*
X0149445Y0033267D01*
X0144941Y0033267D01*
X0174941Y0033267D02*
X0179445Y0033267D01*
X0179445Y0036270D01*
X0179445Y0037871D02*
X0179445Y0040874D01*
X0179445Y0042475D02*
X0179445Y0044727D01*
X0178695Y0045478D01*
X0175692Y0045478D01*
X0174941Y0044727D01*
X0174941Y0042475D01*
X0179445Y0042475D01*
X0174941Y0040874D02*
X0174941Y0037871D01*
X0179445Y0037871D01*
X0177193Y0037871D02*
X0177193Y0039373D01*
X0176443Y0047079D02*
X0174941Y0048580D01*
X0179445Y0048580D01*
X0179445Y0047079D02*
X0179445Y0050082D01*
X0209941Y0049331D02*
X0212193Y0047079D01*
X0212193Y0050082D01*
X0214445Y0049331D02*
X0209941Y0049331D01*
X0210692Y0045478D02*
X0209941Y0044727D01*
X0209941Y0042475D01*
X0214445Y0042475D01*
X0214445Y0044727D01*
X0213695Y0045478D01*
X0210692Y0045478D01*
X0209941Y0040874D02*
X0209941Y0037871D01*
X0214445Y0037871D01*
X0214445Y0040874D01*
X0212193Y0039373D02*
X0212193Y0037871D01*
X0214445Y0036270D02*
X0214445Y0033267D01*
X0209941Y0033267D01*
X0239941Y0033267D02*
X0244445Y0033267D01*
X0244445Y0036270D01*
X0244445Y0037871D02*
X0244445Y0040874D01*
X0244445Y0042475D02*
X0244445Y0044727D01*
X0243695Y0045478D01*
X0240692Y0045478D01*
X0239941Y0044727D01*
X0239941Y0042475D01*
X0244445Y0042475D01*
X0239941Y0040874D02*
X0239941Y0037871D01*
X0244445Y0037871D01*
X0242193Y0037871D02*
X0242193Y0039373D01*
X0240692Y0047079D02*
X0239941Y0047830D01*
X0239941Y0049331D01*
X0240692Y0050082D01*
X0241443Y0050082D01*
X0242193Y0049331D01*
X0242944Y0050082D01*
X0243695Y0050082D01*
X0244445Y0049331D01*
X0244445Y0047830D01*
X0243695Y0047079D01*
X0242193Y0048580D02*
X0242193Y0049331D01*
D15*
X0065683Y0080708D02*
X0062079Y0083110D01*
X0062680Y0084391D02*
X0062079Y0084992D01*
X0062079Y0086193D01*
X0062680Y0086793D01*
X0063280Y0086793D01*
X0065683Y0084391D01*
X0065683Y0086793D01*
X0065683Y0083110D02*
X0062079Y0080708D01*
M02*
