G75*
%MOIN*%
%OFA0B0*%
%FSLAX25Y25*%
%IPPOS*%
%LPD*%
%AMOC8*
5,1,8,0,0,1.08239X$1,22.5*
%
%ADD10C,0.00000*%
%ADD11C,0.00800*%
%ADD12C,0.01000*%
%ADD13C,0.00600*%
%ADD14C,0.00500*%
%ADD15C,0.00400*%
D10*
X0001500Y0001500D02*
X0001500Y0086461D01*
X0140201Y0086461D01*
X0140201Y0001500D01*
X0001500Y0001500D01*
D11*
X0047000Y0041700D02*
X0056000Y0041700D01*
X0056000Y0061300D01*
X0047000Y0061300D01*
X0047000Y0041700D01*
X0031500Y0044000D02*
X0031500Y0059000D01*
X0041700Y0074500D02*
X0041700Y0083500D01*
X0061300Y0083500D01*
X0061300Y0074500D01*
X0041700Y0074500D01*
X0071500Y0029000D02*
X0071500Y0014000D01*
X0101500Y0014000D02*
X0101500Y0029000D01*
X0131500Y0029000D02*
X0131500Y0014000D01*
D12*
X0131313Y0013757D01*
X0131121Y0013519D01*
X0130922Y0013286D01*
X0130718Y0013058D01*
X0130509Y0012835D01*
X0130294Y0012617D01*
X0130074Y0012404D01*
X0129849Y0012197D01*
X0129618Y0011995D01*
X0129383Y0011799D01*
X0129143Y0011609D01*
X0128899Y0011425D01*
X0128650Y0011247D01*
X0128396Y0011075D01*
X0128139Y0010909D01*
X0127878Y0010749D01*
X0127613Y0010596D01*
X0127344Y0010450D01*
X0127071Y0010310D01*
X0126796Y0010177D01*
X0126517Y0010051D01*
X0126235Y0009931D01*
X0125950Y0009819D01*
X0125663Y0009714D01*
X0125373Y0009615D01*
X0125081Y0009524D01*
X0124786Y0009440D01*
X0124490Y0009363D01*
X0124192Y0009293D01*
X0123892Y0009231D01*
X0123591Y0009176D01*
X0123289Y0009129D01*
X0122985Y0009089D01*
X0122681Y0009056D01*
X0122376Y0009031D01*
X0122070Y0009013D01*
X0121764Y0009003D01*
X0121458Y0009000D01*
X0121152Y0009005D01*
X0120846Y0009017D01*
X0120540Y0009037D01*
X0120236Y0009064D01*
X0119931Y0009099D01*
X0119628Y0009141D01*
X0119326Y0009190D01*
X0119025Y0009247D01*
X0118726Y0009312D01*
X0118428Y0009383D01*
X0118133Y0009462D01*
X0117839Y0009548D01*
X0117547Y0009641D01*
X0117258Y0009742D01*
X0116971Y0009849D01*
X0116687Y0009964D01*
X0116406Y0010085D01*
X0116128Y0010213D01*
X0115853Y0010348D01*
X0115582Y0010490D01*
X0115314Y0010638D01*
X0115050Y0010793D01*
X0114790Y0010954D01*
X0114534Y0011121D01*
X0114281Y0011295D01*
X0114034Y0011475D01*
X0113790Y0011661D01*
X0113552Y0011852D01*
X0113318Y0012050D01*
X0113089Y0012253D01*
X0112865Y0012462D01*
X0112646Y0012676D01*
X0112433Y0012896D01*
X0112225Y0013120D01*
X0112022Y0013350D01*
X0111826Y0013584D01*
X0111635Y0013824D01*
X0111450Y0014067D01*
X0111271Y0014316D01*
X0111098Y0014568D01*
X0110931Y0014825D01*
X0110771Y0015086D01*
X0110617Y0015351D01*
X0110470Y0015619D01*
X0110329Y0015891D01*
X0110195Y0016166D01*
X0110068Y0016445D01*
X0109947Y0016726D01*
X0109834Y0017011D01*
X0109728Y0017298D01*
X0109628Y0017587D01*
X0109536Y0017879D01*
X0109451Y0018173D01*
X0109373Y0018469D01*
X0109302Y0018767D01*
X0109239Y0019067D01*
X0109183Y0019368D01*
X0109135Y0019670D01*
X0109094Y0019973D01*
X0109060Y0020277D01*
X0109034Y0020582D01*
X0109015Y0020888D01*
X0109004Y0021194D01*
X0109000Y0021500D01*
X0109004Y0021806D01*
X0109015Y0022112D01*
X0109034Y0022418D01*
X0109060Y0022723D01*
X0109094Y0023027D01*
X0109135Y0023330D01*
X0109183Y0023632D01*
X0109239Y0023933D01*
X0109302Y0024233D01*
X0109373Y0024531D01*
X0109451Y0024827D01*
X0109536Y0025121D01*
X0109628Y0025413D01*
X0109728Y0025702D01*
X0109834Y0025989D01*
X0109947Y0026274D01*
X0110068Y0026555D01*
X0110195Y0026834D01*
X0110329Y0027109D01*
X0110470Y0027381D01*
X0110617Y0027649D01*
X0110771Y0027914D01*
X0110931Y0028175D01*
X0111098Y0028432D01*
X0111271Y0028684D01*
X0111450Y0028933D01*
X0111635Y0029176D01*
X0111826Y0029416D01*
X0112022Y0029650D01*
X0112225Y0029880D01*
X0112433Y0030104D01*
X0112646Y0030324D01*
X0112865Y0030538D01*
X0113089Y0030747D01*
X0113318Y0030950D01*
X0113552Y0031148D01*
X0113790Y0031339D01*
X0114034Y0031525D01*
X0114281Y0031705D01*
X0114534Y0031879D01*
X0114790Y0032046D01*
X0115050Y0032207D01*
X0115314Y0032362D01*
X0115582Y0032510D01*
X0115853Y0032652D01*
X0116128Y0032787D01*
X0116406Y0032915D01*
X0116687Y0033036D01*
X0116971Y0033151D01*
X0117258Y0033258D01*
X0117547Y0033359D01*
X0117839Y0033452D01*
X0118133Y0033538D01*
X0118428Y0033617D01*
X0118726Y0033688D01*
X0119025Y0033753D01*
X0119326Y0033810D01*
X0119628Y0033859D01*
X0119931Y0033901D01*
X0120236Y0033936D01*
X0120540Y0033963D01*
X0120846Y0033983D01*
X0121152Y0033995D01*
X0121458Y0034000D01*
X0121764Y0033997D01*
X0122070Y0033987D01*
X0122376Y0033969D01*
X0122681Y0033944D01*
X0122985Y0033911D01*
X0123289Y0033871D01*
X0123591Y0033824D01*
X0123892Y0033769D01*
X0124192Y0033707D01*
X0124490Y0033637D01*
X0124786Y0033560D01*
X0125081Y0033476D01*
X0125373Y0033385D01*
X0125663Y0033286D01*
X0125950Y0033181D01*
X0126235Y0033069D01*
X0126517Y0032949D01*
X0126796Y0032823D01*
X0127071Y0032690D01*
X0127344Y0032550D01*
X0127613Y0032404D01*
X0127878Y0032251D01*
X0128139Y0032091D01*
X0128396Y0031925D01*
X0128650Y0031753D01*
X0128899Y0031575D01*
X0129143Y0031391D01*
X0129383Y0031201D01*
X0129618Y0031005D01*
X0129849Y0030803D01*
X0130074Y0030596D01*
X0130294Y0030383D01*
X0130509Y0030165D01*
X0130718Y0029942D01*
X0130922Y0029714D01*
X0131121Y0029481D01*
X0131313Y0029243D01*
X0131500Y0029000D01*
X0101500Y0029000D02*
X0101313Y0029243D01*
X0101121Y0029481D01*
X0100922Y0029714D01*
X0100718Y0029942D01*
X0100509Y0030165D01*
X0100294Y0030383D01*
X0100074Y0030596D01*
X0099849Y0030803D01*
X0099618Y0031005D01*
X0099383Y0031201D01*
X0099143Y0031391D01*
X0098899Y0031575D01*
X0098650Y0031753D01*
X0098396Y0031925D01*
X0098139Y0032091D01*
X0097878Y0032251D01*
X0097613Y0032404D01*
X0097344Y0032550D01*
X0097071Y0032690D01*
X0096796Y0032823D01*
X0096517Y0032949D01*
X0096235Y0033069D01*
X0095950Y0033181D01*
X0095663Y0033286D01*
X0095373Y0033385D01*
X0095081Y0033476D01*
X0094786Y0033560D01*
X0094490Y0033637D01*
X0094192Y0033707D01*
X0093892Y0033769D01*
X0093591Y0033824D01*
X0093289Y0033871D01*
X0092985Y0033911D01*
X0092681Y0033944D01*
X0092376Y0033969D01*
X0092070Y0033987D01*
X0091764Y0033997D01*
X0091458Y0034000D01*
X0091152Y0033995D01*
X0090846Y0033983D01*
X0090540Y0033963D01*
X0090236Y0033936D01*
X0089931Y0033901D01*
X0089628Y0033859D01*
X0089326Y0033810D01*
X0089025Y0033753D01*
X0088726Y0033688D01*
X0088428Y0033617D01*
X0088133Y0033538D01*
X0087839Y0033452D01*
X0087547Y0033359D01*
X0087258Y0033258D01*
X0086971Y0033151D01*
X0086687Y0033036D01*
X0086406Y0032915D01*
X0086128Y0032787D01*
X0085853Y0032652D01*
X0085582Y0032510D01*
X0085314Y0032362D01*
X0085050Y0032207D01*
X0084790Y0032046D01*
X0084534Y0031879D01*
X0084281Y0031705D01*
X0084034Y0031525D01*
X0083790Y0031339D01*
X0083552Y0031148D01*
X0083318Y0030950D01*
X0083089Y0030747D01*
X0082865Y0030538D01*
X0082646Y0030324D01*
X0082433Y0030104D01*
X0082225Y0029880D01*
X0082022Y0029650D01*
X0081826Y0029416D01*
X0081635Y0029176D01*
X0081450Y0028933D01*
X0081271Y0028684D01*
X0081098Y0028432D01*
X0080931Y0028175D01*
X0080771Y0027914D01*
X0080617Y0027649D01*
X0080470Y0027381D01*
X0080329Y0027109D01*
X0080195Y0026834D01*
X0080068Y0026555D01*
X0079947Y0026274D01*
X0079834Y0025989D01*
X0079728Y0025702D01*
X0079628Y0025413D01*
X0079536Y0025121D01*
X0079451Y0024827D01*
X0079373Y0024531D01*
X0079302Y0024233D01*
X0079239Y0023933D01*
X0079183Y0023632D01*
X0079135Y0023330D01*
X0079094Y0023027D01*
X0079060Y0022723D01*
X0079034Y0022418D01*
X0079015Y0022112D01*
X0079004Y0021806D01*
X0079000Y0021500D01*
X0079004Y0021194D01*
X0079015Y0020888D01*
X0079034Y0020582D01*
X0079060Y0020277D01*
X0079094Y0019973D01*
X0079135Y0019670D01*
X0079183Y0019368D01*
X0079239Y0019067D01*
X0079302Y0018767D01*
X0079373Y0018469D01*
X0079451Y0018173D01*
X0079536Y0017879D01*
X0079628Y0017587D01*
X0079728Y0017298D01*
X0079834Y0017011D01*
X0079947Y0016726D01*
X0080068Y0016445D01*
X0080195Y0016166D01*
X0080329Y0015891D01*
X0080470Y0015619D01*
X0080617Y0015351D01*
X0080771Y0015086D01*
X0080931Y0014825D01*
X0081098Y0014568D01*
X0081271Y0014316D01*
X0081450Y0014067D01*
X0081635Y0013824D01*
X0081826Y0013584D01*
X0082022Y0013350D01*
X0082225Y0013120D01*
X0082433Y0012896D01*
X0082646Y0012676D01*
X0082865Y0012462D01*
X0083089Y0012253D01*
X0083318Y0012050D01*
X0083552Y0011852D01*
X0083790Y0011661D01*
X0084034Y0011475D01*
X0084281Y0011295D01*
X0084534Y0011121D01*
X0084790Y0010954D01*
X0085050Y0010793D01*
X0085314Y0010638D01*
X0085582Y0010490D01*
X0085853Y0010348D01*
X0086128Y0010213D01*
X0086406Y0010085D01*
X0086687Y0009964D01*
X0086971Y0009849D01*
X0087258Y0009742D01*
X0087547Y0009641D01*
X0087839Y0009548D01*
X0088133Y0009462D01*
X0088428Y0009383D01*
X0088726Y0009312D01*
X0089025Y0009247D01*
X0089326Y0009190D01*
X0089628Y0009141D01*
X0089931Y0009099D01*
X0090236Y0009064D01*
X0090540Y0009037D01*
X0090846Y0009017D01*
X0091152Y0009005D01*
X0091458Y0009000D01*
X0091764Y0009003D01*
X0092070Y0009013D01*
X0092376Y0009031D01*
X0092681Y0009056D01*
X0092985Y0009089D01*
X0093289Y0009129D01*
X0093591Y0009176D01*
X0093892Y0009231D01*
X0094192Y0009293D01*
X0094490Y0009363D01*
X0094786Y0009440D01*
X0095081Y0009524D01*
X0095373Y0009615D01*
X0095663Y0009714D01*
X0095950Y0009819D01*
X0096235Y0009931D01*
X0096517Y0010051D01*
X0096796Y0010177D01*
X0097071Y0010310D01*
X0097344Y0010450D01*
X0097613Y0010596D01*
X0097878Y0010749D01*
X0098139Y0010909D01*
X0098396Y0011075D01*
X0098650Y0011247D01*
X0098899Y0011425D01*
X0099143Y0011609D01*
X0099383Y0011799D01*
X0099618Y0011995D01*
X0099849Y0012197D01*
X0100074Y0012404D01*
X0100294Y0012617D01*
X0100509Y0012835D01*
X0100718Y0013058D01*
X0100922Y0013286D01*
X0101121Y0013519D01*
X0101313Y0013757D01*
X0101500Y0014000D01*
X0071500Y0014000D02*
X0071313Y0013757D01*
X0071121Y0013519D01*
X0070922Y0013286D01*
X0070718Y0013058D01*
X0070509Y0012835D01*
X0070294Y0012617D01*
X0070074Y0012404D01*
X0069849Y0012197D01*
X0069618Y0011995D01*
X0069383Y0011799D01*
X0069143Y0011609D01*
X0068899Y0011425D01*
X0068650Y0011247D01*
X0068396Y0011075D01*
X0068139Y0010909D01*
X0067878Y0010749D01*
X0067613Y0010596D01*
X0067344Y0010450D01*
X0067071Y0010310D01*
X0066796Y0010177D01*
X0066517Y0010051D01*
X0066235Y0009931D01*
X0065950Y0009819D01*
X0065663Y0009714D01*
X0065373Y0009615D01*
X0065081Y0009524D01*
X0064786Y0009440D01*
X0064490Y0009363D01*
X0064192Y0009293D01*
X0063892Y0009231D01*
X0063591Y0009176D01*
X0063289Y0009129D01*
X0062985Y0009089D01*
X0062681Y0009056D01*
X0062376Y0009031D01*
X0062070Y0009013D01*
X0061764Y0009003D01*
X0061458Y0009000D01*
X0061152Y0009005D01*
X0060846Y0009017D01*
X0060540Y0009037D01*
X0060236Y0009064D01*
X0059931Y0009099D01*
X0059628Y0009141D01*
X0059326Y0009190D01*
X0059025Y0009247D01*
X0058726Y0009312D01*
X0058428Y0009383D01*
X0058133Y0009462D01*
X0057839Y0009548D01*
X0057547Y0009641D01*
X0057258Y0009742D01*
X0056971Y0009849D01*
X0056687Y0009964D01*
X0056406Y0010085D01*
X0056128Y0010213D01*
X0055853Y0010348D01*
X0055582Y0010490D01*
X0055314Y0010638D01*
X0055050Y0010793D01*
X0054790Y0010954D01*
X0054534Y0011121D01*
X0054281Y0011295D01*
X0054034Y0011475D01*
X0053790Y0011661D01*
X0053552Y0011852D01*
X0053318Y0012050D01*
X0053089Y0012253D01*
X0052865Y0012462D01*
X0052646Y0012676D01*
X0052433Y0012896D01*
X0052225Y0013120D01*
X0052022Y0013350D01*
X0051826Y0013584D01*
X0051635Y0013824D01*
X0051450Y0014067D01*
X0051271Y0014316D01*
X0051098Y0014568D01*
X0050931Y0014825D01*
X0050771Y0015086D01*
X0050617Y0015351D01*
X0050470Y0015619D01*
X0050329Y0015891D01*
X0050195Y0016166D01*
X0050068Y0016445D01*
X0049947Y0016726D01*
X0049834Y0017011D01*
X0049728Y0017298D01*
X0049628Y0017587D01*
X0049536Y0017879D01*
X0049451Y0018173D01*
X0049373Y0018469D01*
X0049302Y0018767D01*
X0049239Y0019067D01*
X0049183Y0019368D01*
X0049135Y0019670D01*
X0049094Y0019973D01*
X0049060Y0020277D01*
X0049034Y0020582D01*
X0049015Y0020888D01*
X0049004Y0021194D01*
X0049000Y0021500D01*
X0049004Y0021806D01*
X0049015Y0022112D01*
X0049034Y0022418D01*
X0049060Y0022723D01*
X0049094Y0023027D01*
X0049135Y0023330D01*
X0049183Y0023632D01*
X0049239Y0023933D01*
X0049302Y0024233D01*
X0049373Y0024531D01*
X0049451Y0024827D01*
X0049536Y0025121D01*
X0049628Y0025413D01*
X0049728Y0025702D01*
X0049834Y0025989D01*
X0049947Y0026274D01*
X0050068Y0026555D01*
X0050195Y0026834D01*
X0050329Y0027109D01*
X0050470Y0027381D01*
X0050617Y0027649D01*
X0050771Y0027914D01*
X0050931Y0028175D01*
X0051098Y0028432D01*
X0051271Y0028684D01*
X0051450Y0028933D01*
X0051635Y0029176D01*
X0051826Y0029416D01*
X0052022Y0029650D01*
X0052225Y0029880D01*
X0052433Y0030104D01*
X0052646Y0030324D01*
X0052865Y0030538D01*
X0053089Y0030747D01*
X0053318Y0030950D01*
X0053552Y0031148D01*
X0053790Y0031339D01*
X0054034Y0031525D01*
X0054281Y0031705D01*
X0054534Y0031879D01*
X0054790Y0032046D01*
X0055050Y0032207D01*
X0055314Y0032362D01*
X0055582Y0032510D01*
X0055853Y0032652D01*
X0056128Y0032787D01*
X0056406Y0032915D01*
X0056687Y0033036D01*
X0056971Y0033151D01*
X0057258Y0033258D01*
X0057547Y0033359D01*
X0057839Y0033452D01*
X0058133Y0033538D01*
X0058428Y0033617D01*
X0058726Y0033688D01*
X0059025Y0033753D01*
X0059326Y0033810D01*
X0059628Y0033859D01*
X0059931Y0033901D01*
X0060236Y0033936D01*
X0060540Y0033963D01*
X0060846Y0033983D01*
X0061152Y0033995D01*
X0061458Y0034000D01*
X0061764Y0033997D01*
X0062070Y0033987D01*
X0062376Y0033969D01*
X0062681Y0033944D01*
X0062985Y0033911D01*
X0063289Y0033871D01*
X0063591Y0033824D01*
X0063892Y0033769D01*
X0064192Y0033707D01*
X0064490Y0033637D01*
X0064786Y0033560D01*
X0065081Y0033476D01*
X0065373Y0033385D01*
X0065663Y0033286D01*
X0065950Y0033181D01*
X0066235Y0033069D01*
X0066517Y0032949D01*
X0066796Y0032823D01*
X0067071Y0032690D01*
X0067344Y0032550D01*
X0067613Y0032404D01*
X0067878Y0032251D01*
X0068139Y0032091D01*
X0068396Y0031925D01*
X0068650Y0031753D01*
X0068899Y0031575D01*
X0069143Y0031391D01*
X0069383Y0031201D01*
X0069618Y0031005D01*
X0069849Y0030803D01*
X0070074Y0030596D01*
X0070294Y0030383D01*
X0070509Y0030165D01*
X0070718Y0029942D01*
X0070922Y0029714D01*
X0071121Y0029481D01*
X0071313Y0029243D01*
X0071500Y0029000D01*
X0031500Y0044000D02*
X0031313Y0043757D01*
X0031121Y0043519D01*
X0030922Y0043286D01*
X0030718Y0043058D01*
X0030509Y0042835D01*
X0030294Y0042617D01*
X0030074Y0042404D01*
X0029849Y0042197D01*
X0029618Y0041995D01*
X0029383Y0041799D01*
X0029143Y0041609D01*
X0028899Y0041425D01*
X0028650Y0041247D01*
X0028396Y0041075D01*
X0028139Y0040909D01*
X0027878Y0040749D01*
X0027613Y0040596D01*
X0027344Y0040450D01*
X0027071Y0040310D01*
X0026796Y0040177D01*
X0026517Y0040051D01*
X0026235Y0039931D01*
X0025950Y0039819D01*
X0025663Y0039714D01*
X0025373Y0039615D01*
X0025081Y0039524D01*
X0024786Y0039440D01*
X0024490Y0039363D01*
X0024192Y0039293D01*
X0023892Y0039231D01*
X0023591Y0039176D01*
X0023289Y0039129D01*
X0022985Y0039089D01*
X0022681Y0039056D01*
X0022376Y0039031D01*
X0022070Y0039013D01*
X0021764Y0039003D01*
X0021458Y0039000D01*
X0021152Y0039005D01*
X0020846Y0039017D01*
X0020540Y0039037D01*
X0020236Y0039064D01*
X0019931Y0039099D01*
X0019628Y0039141D01*
X0019326Y0039190D01*
X0019025Y0039247D01*
X0018726Y0039312D01*
X0018428Y0039383D01*
X0018133Y0039462D01*
X0017839Y0039548D01*
X0017547Y0039641D01*
X0017258Y0039742D01*
X0016971Y0039849D01*
X0016687Y0039964D01*
X0016406Y0040085D01*
X0016128Y0040213D01*
X0015853Y0040348D01*
X0015582Y0040490D01*
X0015314Y0040638D01*
X0015050Y0040793D01*
X0014790Y0040954D01*
X0014534Y0041121D01*
X0014281Y0041295D01*
X0014034Y0041475D01*
X0013790Y0041661D01*
X0013552Y0041852D01*
X0013318Y0042050D01*
X0013089Y0042253D01*
X0012865Y0042462D01*
X0012646Y0042676D01*
X0012433Y0042896D01*
X0012225Y0043120D01*
X0012022Y0043350D01*
X0011826Y0043584D01*
X0011635Y0043824D01*
X0011450Y0044067D01*
X0011271Y0044316D01*
X0011098Y0044568D01*
X0010931Y0044825D01*
X0010771Y0045086D01*
X0010617Y0045351D01*
X0010470Y0045619D01*
X0010329Y0045891D01*
X0010195Y0046166D01*
X0010068Y0046445D01*
X0009947Y0046726D01*
X0009834Y0047011D01*
X0009728Y0047298D01*
X0009628Y0047587D01*
X0009536Y0047879D01*
X0009451Y0048173D01*
X0009373Y0048469D01*
X0009302Y0048767D01*
X0009239Y0049067D01*
X0009183Y0049368D01*
X0009135Y0049670D01*
X0009094Y0049973D01*
X0009060Y0050277D01*
X0009034Y0050582D01*
X0009015Y0050888D01*
X0009004Y0051194D01*
X0009000Y0051500D01*
X0009004Y0051806D01*
X0009015Y0052112D01*
X0009034Y0052418D01*
X0009060Y0052723D01*
X0009094Y0053027D01*
X0009135Y0053330D01*
X0009183Y0053632D01*
X0009239Y0053933D01*
X0009302Y0054233D01*
X0009373Y0054531D01*
X0009451Y0054827D01*
X0009536Y0055121D01*
X0009628Y0055413D01*
X0009728Y0055702D01*
X0009834Y0055989D01*
X0009947Y0056274D01*
X0010068Y0056555D01*
X0010195Y0056834D01*
X0010329Y0057109D01*
X0010470Y0057381D01*
X0010617Y0057649D01*
X0010771Y0057914D01*
X0010931Y0058175D01*
X0011098Y0058432D01*
X0011271Y0058684D01*
X0011450Y0058933D01*
X0011635Y0059176D01*
X0011826Y0059416D01*
X0012022Y0059650D01*
X0012225Y0059880D01*
X0012433Y0060104D01*
X0012646Y0060324D01*
X0012865Y0060538D01*
X0013089Y0060747D01*
X0013318Y0060950D01*
X0013552Y0061148D01*
X0013790Y0061339D01*
X0014034Y0061525D01*
X0014281Y0061705D01*
X0014534Y0061879D01*
X0014790Y0062046D01*
X0015050Y0062207D01*
X0015314Y0062362D01*
X0015582Y0062510D01*
X0015853Y0062652D01*
X0016128Y0062787D01*
X0016406Y0062915D01*
X0016687Y0063036D01*
X0016971Y0063151D01*
X0017258Y0063258D01*
X0017547Y0063359D01*
X0017839Y0063452D01*
X0018133Y0063538D01*
X0018428Y0063617D01*
X0018726Y0063688D01*
X0019025Y0063753D01*
X0019326Y0063810D01*
X0019628Y0063859D01*
X0019931Y0063901D01*
X0020236Y0063936D01*
X0020540Y0063963D01*
X0020846Y0063983D01*
X0021152Y0063995D01*
X0021458Y0064000D01*
X0021764Y0063997D01*
X0022070Y0063987D01*
X0022376Y0063969D01*
X0022681Y0063944D01*
X0022985Y0063911D01*
X0023289Y0063871D01*
X0023591Y0063824D01*
X0023892Y0063769D01*
X0024192Y0063707D01*
X0024490Y0063637D01*
X0024786Y0063560D01*
X0025081Y0063476D01*
X0025373Y0063385D01*
X0025663Y0063286D01*
X0025950Y0063181D01*
X0026235Y0063069D01*
X0026517Y0062949D01*
X0026796Y0062823D01*
X0027071Y0062690D01*
X0027344Y0062550D01*
X0027613Y0062404D01*
X0027878Y0062251D01*
X0028139Y0062091D01*
X0028396Y0061925D01*
X0028650Y0061753D01*
X0028899Y0061575D01*
X0029143Y0061391D01*
X0029383Y0061201D01*
X0029618Y0061005D01*
X0029849Y0060803D01*
X0030074Y0060596D01*
X0030294Y0060383D01*
X0030509Y0060165D01*
X0030718Y0059942D01*
X0030922Y0059714D01*
X0031121Y0059481D01*
X0031313Y0059243D01*
X0031500Y0059000D01*
X0077012Y0062219D02*
X0077012Y0084856D01*
X0115988Y0084856D01*
X0115988Y0062219D01*
X0077012Y0062219D01*
X0086264Y0062445D02*
X0086264Y0064413D01*
X0106343Y0064413D02*
X0106343Y0062445D01*
D13*
X0047481Y0085300D02*
X0045747Y0085300D01*
X0047481Y0087035D01*
X0047481Y0087469D01*
X0047048Y0087902D01*
X0046180Y0087902D01*
X0045747Y0087469D01*
X0044535Y0087469D02*
X0044535Y0086601D01*
X0044101Y0086167D01*
X0042800Y0086167D01*
X0042800Y0085300D02*
X0042800Y0087902D01*
X0044101Y0087902D01*
X0044535Y0087469D01*
X0043667Y0086167D02*
X0044535Y0085300D01*
X0011500Y0051500D02*
X0011503Y0051745D01*
X0011512Y0051991D01*
X0011527Y0052236D01*
X0011548Y0052480D01*
X0011575Y0052724D01*
X0011608Y0052967D01*
X0011647Y0053210D01*
X0011692Y0053451D01*
X0011743Y0053691D01*
X0011800Y0053930D01*
X0011862Y0054167D01*
X0011931Y0054403D01*
X0012005Y0054637D01*
X0012085Y0054869D01*
X0012170Y0055099D01*
X0012261Y0055327D01*
X0012358Y0055552D01*
X0012460Y0055776D01*
X0012568Y0055996D01*
X0012681Y0056214D01*
X0012799Y0056429D01*
X0012923Y0056641D01*
X0013051Y0056850D01*
X0013185Y0057056D01*
X0013324Y0057258D01*
X0013468Y0057457D01*
X0013617Y0057652D01*
X0013770Y0057844D01*
X0013928Y0058032D01*
X0014090Y0058216D01*
X0014258Y0058395D01*
X0014429Y0058571D01*
X0014605Y0058742D01*
X0014784Y0058910D01*
X0014968Y0059072D01*
X0015156Y0059230D01*
X0015348Y0059383D01*
X0015543Y0059532D01*
X0015742Y0059676D01*
X0015944Y0059815D01*
X0016150Y0059949D01*
X0016359Y0060077D01*
X0016571Y0060201D01*
X0016786Y0060319D01*
X0017004Y0060432D01*
X0017224Y0060540D01*
X0017448Y0060642D01*
X0017673Y0060739D01*
X0017901Y0060830D01*
X0018131Y0060915D01*
X0018363Y0060995D01*
X0018597Y0061069D01*
X0018833Y0061138D01*
X0019070Y0061200D01*
X0019309Y0061257D01*
X0019549Y0061308D01*
X0019790Y0061353D01*
X0020033Y0061392D01*
X0020276Y0061425D01*
X0020520Y0061452D01*
X0020764Y0061473D01*
X0021009Y0061488D01*
X0021255Y0061497D01*
X0021500Y0061500D01*
X0021745Y0061497D01*
X0021991Y0061488D01*
X0022236Y0061473D01*
X0022480Y0061452D01*
X0022724Y0061425D01*
X0022967Y0061392D01*
X0023210Y0061353D01*
X0023451Y0061308D01*
X0023691Y0061257D01*
X0023930Y0061200D01*
X0024167Y0061138D01*
X0024403Y0061069D01*
X0024637Y0060995D01*
X0024869Y0060915D01*
X0025099Y0060830D01*
X0025327Y0060739D01*
X0025552Y0060642D01*
X0025776Y0060540D01*
X0025996Y0060432D01*
X0026214Y0060319D01*
X0026429Y0060201D01*
X0026641Y0060077D01*
X0026850Y0059949D01*
X0027056Y0059815D01*
X0027258Y0059676D01*
X0027457Y0059532D01*
X0027652Y0059383D01*
X0027844Y0059230D01*
X0028032Y0059072D01*
X0028216Y0058910D01*
X0028395Y0058742D01*
X0028571Y0058571D01*
X0028742Y0058395D01*
X0028910Y0058216D01*
X0029072Y0058032D01*
X0029230Y0057844D01*
X0029383Y0057652D01*
X0029532Y0057457D01*
X0029676Y0057258D01*
X0029815Y0057056D01*
X0029949Y0056850D01*
X0030077Y0056641D01*
X0030201Y0056429D01*
X0030319Y0056214D01*
X0030432Y0055996D01*
X0030540Y0055776D01*
X0030642Y0055552D01*
X0030739Y0055327D01*
X0030830Y0055099D01*
X0030915Y0054869D01*
X0030995Y0054637D01*
X0031069Y0054403D01*
X0031138Y0054167D01*
X0031200Y0053930D01*
X0031257Y0053691D01*
X0031308Y0053451D01*
X0031353Y0053210D01*
X0031392Y0052967D01*
X0031425Y0052724D01*
X0031452Y0052480D01*
X0031473Y0052236D01*
X0031488Y0051991D01*
X0031497Y0051745D01*
X0031500Y0051500D01*
X0031497Y0051255D01*
X0031488Y0051009D01*
X0031473Y0050764D01*
X0031452Y0050520D01*
X0031425Y0050276D01*
X0031392Y0050033D01*
X0031353Y0049790D01*
X0031308Y0049549D01*
X0031257Y0049309D01*
X0031200Y0049070D01*
X0031138Y0048833D01*
X0031069Y0048597D01*
X0030995Y0048363D01*
X0030915Y0048131D01*
X0030830Y0047901D01*
X0030739Y0047673D01*
X0030642Y0047448D01*
X0030540Y0047224D01*
X0030432Y0047004D01*
X0030319Y0046786D01*
X0030201Y0046571D01*
X0030077Y0046359D01*
X0029949Y0046150D01*
X0029815Y0045944D01*
X0029676Y0045742D01*
X0029532Y0045543D01*
X0029383Y0045348D01*
X0029230Y0045156D01*
X0029072Y0044968D01*
X0028910Y0044784D01*
X0028742Y0044605D01*
X0028571Y0044429D01*
X0028395Y0044258D01*
X0028216Y0044090D01*
X0028032Y0043928D01*
X0027844Y0043770D01*
X0027652Y0043617D01*
X0027457Y0043468D01*
X0027258Y0043324D01*
X0027056Y0043185D01*
X0026850Y0043051D01*
X0026641Y0042923D01*
X0026429Y0042799D01*
X0026214Y0042681D01*
X0025996Y0042568D01*
X0025776Y0042460D01*
X0025552Y0042358D01*
X0025327Y0042261D01*
X0025099Y0042170D01*
X0024869Y0042085D01*
X0024637Y0042005D01*
X0024403Y0041931D01*
X0024167Y0041862D01*
X0023930Y0041800D01*
X0023691Y0041743D01*
X0023451Y0041692D01*
X0023210Y0041647D01*
X0022967Y0041608D01*
X0022724Y0041575D01*
X0022480Y0041548D01*
X0022236Y0041527D01*
X0021991Y0041512D01*
X0021745Y0041503D01*
X0021500Y0041500D01*
X0021255Y0041503D01*
X0021009Y0041512D01*
X0020764Y0041527D01*
X0020520Y0041548D01*
X0020276Y0041575D01*
X0020033Y0041608D01*
X0019790Y0041647D01*
X0019549Y0041692D01*
X0019309Y0041743D01*
X0019070Y0041800D01*
X0018833Y0041862D01*
X0018597Y0041931D01*
X0018363Y0042005D01*
X0018131Y0042085D01*
X0017901Y0042170D01*
X0017673Y0042261D01*
X0017448Y0042358D01*
X0017224Y0042460D01*
X0017004Y0042568D01*
X0016786Y0042681D01*
X0016571Y0042799D01*
X0016359Y0042923D01*
X0016150Y0043051D01*
X0015944Y0043185D01*
X0015742Y0043324D01*
X0015543Y0043468D01*
X0015348Y0043617D01*
X0015156Y0043770D01*
X0014968Y0043928D01*
X0014784Y0044090D01*
X0014605Y0044258D01*
X0014429Y0044429D01*
X0014258Y0044605D01*
X0014090Y0044784D01*
X0013928Y0044968D01*
X0013770Y0045156D01*
X0013617Y0045348D01*
X0013468Y0045543D01*
X0013324Y0045742D01*
X0013185Y0045944D01*
X0013051Y0046150D01*
X0012923Y0046359D01*
X0012799Y0046571D01*
X0012681Y0046786D01*
X0012568Y0047004D01*
X0012460Y0047224D01*
X0012358Y0047448D01*
X0012261Y0047673D01*
X0012170Y0047901D01*
X0012085Y0048131D01*
X0012005Y0048363D01*
X0011931Y0048597D01*
X0011862Y0048833D01*
X0011800Y0049070D01*
X0011743Y0049309D01*
X0011692Y0049549D01*
X0011647Y0049790D01*
X0011608Y0050033D01*
X0011575Y0050276D01*
X0011548Y0050520D01*
X0011527Y0050764D01*
X0011512Y0051009D01*
X0011503Y0051255D01*
X0011500Y0051500D01*
X0042598Y0046614D02*
X0043465Y0045747D01*
X0042598Y0046614D02*
X0045200Y0046614D01*
X0045200Y0045747D02*
X0045200Y0047481D01*
X0045200Y0044535D02*
X0044333Y0043667D01*
X0044333Y0044101D02*
X0043899Y0044535D01*
X0043031Y0044535D01*
X0042598Y0044101D01*
X0042598Y0042800D01*
X0045200Y0042800D01*
X0044333Y0042800D02*
X0044333Y0044101D01*
X0051500Y0021500D02*
X0051503Y0021745D01*
X0051512Y0021991D01*
X0051527Y0022236D01*
X0051548Y0022480D01*
X0051575Y0022724D01*
X0051608Y0022967D01*
X0051647Y0023210D01*
X0051692Y0023451D01*
X0051743Y0023691D01*
X0051800Y0023930D01*
X0051862Y0024167D01*
X0051931Y0024403D01*
X0052005Y0024637D01*
X0052085Y0024869D01*
X0052170Y0025099D01*
X0052261Y0025327D01*
X0052358Y0025552D01*
X0052460Y0025776D01*
X0052568Y0025996D01*
X0052681Y0026214D01*
X0052799Y0026429D01*
X0052923Y0026641D01*
X0053051Y0026850D01*
X0053185Y0027056D01*
X0053324Y0027258D01*
X0053468Y0027457D01*
X0053617Y0027652D01*
X0053770Y0027844D01*
X0053928Y0028032D01*
X0054090Y0028216D01*
X0054258Y0028395D01*
X0054429Y0028571D01*
X0054605Y0028742D01*
X0054784Y0028910D01*
X0054968Y0029072D01*
X0055156Y0029230D01*
X0055348Y0029383D01*
X0055543Y0029532D01*
X0055742Y0029676D01*
X0055944Y0029815D01*
X0056150Y0029949D01*
X0056359Y0030077D01*
X0056571Y0030201D01*
X0056786Y0030319D01*
X0057004Y0030432D01*
X0057224Y0030540D01*
X0057448Y0030642D01*
X0057673Y0030739D01*
X0057901Y0030830D01*
X0058131Y0030915D01*
X0058363Y0030995D01*
X0058597Y0031069D01*
X0058833Y0031138D01*
X0059070Y0031200D01*
X0059309Y0031257D01*
X0059549Y0031308D01*
X0059790Y0031353D01*
X0060033Y0031392D01*
X0060276Y0031425D01*
X0060520Y0031452D01*
X0060764Y0031473D01*
X0061009Y0031488D01*
X0061255Y0031497D01*
X0061500Y0031500D01*
X0061745Y0031497D01*
X0061991Y0031488D01*
X0062236Y0031473D01*
X0062480Y0031452D01*
X0062724Y0031425D01*
X0062967Y0031392D01*
X0063210Y0031353D01*
X0063451Y0031308D01*
X0063691Y0031257D01*
X0063930Y0031200D01*
X0064167Y0031138D01*
X0064403Y0031069D01*
X0064637Y0030995D01*
X0064869Y0030915D01*
X0065099Y0030830D01*
X0065327Y0030739D01*
X0065552Y0030642D01*
X0065776Y0030540D01*
X0065996Y0030432D01*
X0066214Y0030319D01*
X0066429Y0030201D01*
X0066641Y0030077D01*
X0066850Y0029949D01*
X0067056Y0029815D01*
X0067258Y0029676D01*
X0067457Y0029532D01*
X0067652Y0029383D01*
X0067844Y0029230D01*
X0068032Y0029072D01*
X0068216Y0028910D01*
X0068395Y0028742D01*
X0068571Y0028571D01*
X0068742Y0028395D01*
X0068910Y0028216D01*
X0069072Y0028032D01*
X0069230Y0027844D01*
X0069383Y0027652D01*
X0069532Y0027457D01*
X0069676Y0027258D01*
X0069815Y0027056D01*
X0069949Y0026850D01*
X0070077Y0026641D01*
X0070201Y0026429D01*
X0070319Y0026214D01*
X0070432Y0025996D01*
X0070540Y0025776D01*
X0070642Y0025552D01*
X0070739Y0025327D01*
X0070830Y0025099D01*
X0070915Y0024869D01*
X0070995Y0024637D01*
X0071069Y0024403D01*
X0071138Y0024167D01*
X0071200Y0023930D01*
X0071257Y0023691D01*
X0071308Y0023451D01*
X0071353Y0023210D01*
X0071392Y0022967D01*
X0071425Y0022724D01*
X0071452Y0022480D01*
X0071473Y0022236D01*
X0071488Y0021991D01*
X0071497Y0021745D01*
X0071500Y0021500D01*
X0071497Y0021255D01*
X0071488Y0021009D01*
X0071473Y0020764D01*
X0071452Y0020520D01*
X0071425Y0020276D01*
X0071392Y0020033D01*
X0071353Y0019790D01*
X0071308Y0019549D01*
X0071257Y0019309D01*
X0071200Y0019070D01*
X0071138Y0018833D01*
X0071069Y0018597D01*
X0070995Y0018363D01*
X0070915Y0018131D01*
X0070830Y0017901D01*
X0070739Y0017673D01*
X0070642Y0017448D01*
X0070540Y0017224D01*
X0070432Y0017004D01*
X0070319Y0016786D01*
X0070201Y0016571D01*
X0070077Y0016359D01*
X0069949Y0016150D01*
X0069815Y0015944D01*
X0069676Y0015742D01*
X0069532Y0015543D01*
X0069383Y0015348D01*
X0069230Y0015156D01*
X0069072Y0014968D01*
X0068910Y0014784D01*
X0068742Y0014605D01*
X0068571Y0014429D01*
X0068395Y0014258D01*
X0068216Y0014090D01*
X0068032Y0013928D01*
X0067844Y0013770D01*
X0067652Y0013617D01*
X0067457Y0013468D01*
X0067258Y0013324D01*
X0067056Y0013185D01*
X0066850Y0013051D01*
X0066641Y0012923D01*
X0066429Y0012799D01*
X0066214Y0012681D01*
X0065996Y0012568D01*
X0065776Y0012460D01*
X0065552Y0012358D01*
X0065327Y0012261D01*
X0065099Y0012170D01*
X0064869Y0012085D01*
X0064637Y0012005D01*
X0064403Y0011931D01*
X0064167Y0011862D01*
X0063930Y0011800D01*
X0063691Y0011743D01*
X0063451Y0011692D01*
X0063210Y0011647D01*
X0062967Y0011608D01*
X0062724Y0011575D01*
X0062480Y0011548D01*
X0062236Y0011527D01*
X0061991Y0011512D01*
X0061745Y0011503D01*
X0061500Y0011500D01*
X0061255Y0011503D01*
X0061009Y0011512D01*
X0060764Y0011527D01*
X0060520Y0011548D01*
X0060276Y0011575D01*
X0060033Y0011608D01*
X0059790Y0011647D01*
X0059549Y0011692D01*
X0059309Y0011743D01*
X0059070Y0011800D01*
X0058833Y0011862D01*
X0058597Y0011931D01*
X0058363Y0012005D01*
X0058131Y0012085D01*
X0057901Y0012170D01*
X0057673Y0012261D01*
X0057448Y0012358D01*
X0057224Y0012460D01*
X0057004Y0012568D01*
X0056786Y0012681D01*
X0056571Y0012799D01*
X0056359Y0012923D01*
X0056150Y0013051D01*
X0055944Y0013185D01*
X0055742Y0013324D01*
X0055543Y0013468D01*
X0055348Y0013617D01*
X0055156Y0013770D01*
X0054968Y0013928D01*
X0054784Y0014090D01*
X0054605Y0014258D01*
X0054429Y0014429D01*
X0054258Y0014605D01*
X0054090Y0014784D01*
X0053928Y0014968D01*
X0053770Y0015156D01*
X0053617Y0015348D01*
X0053468Y0015543D01*
X0053324Y0015742D01*
X0053185Y0015944D01*
X0053051Y0016150D01*
X0052923Y0016359D01*
X0052799Y0016571D01*
X0052681Y0016786D01*
X0052568Y0017004D01*
X0052460Y0017224D01*
X0052358Y0017448D01*
X0052261Y0017673D01*
X0052170Y0017901D01*
X0052085Y0018131D01*
X0052005Y0018363D01*
X0051931Y0018597D01*
X0051862Y0018833D01*
X0051800Y0019070D01*
X0051743Y0019309D01*
X0051692Y0019549D01*
X0051647Y0019790D01*
X0051608Y0020033D01*
X0051575Y0020276D01*
X0051548Y0020520D01*
X0051527Y0020764D01*
X0051512Y0021009D01*
X0051503Y0021255D01*
X0051500Y0021500D01*
X0081500Y0021500D02*
X0081503Y0021745D01*
X0081512Y0021991D01*
X0081527Y0022236D01*
X0081548Y0022480D01*
X0081575Y0022724D01*
X0081608Y0022967D01*
X0081647Y0023210D01*
X0081692Y0023451D01*
X0081743Y0023691D01*
X0081800Y0023930D01*
X0081862Y0024167D01*
X0081931Y0024403D01*
X0082005Y0024637D01*
X0082085Y0024869D01*
X0082170Y0025099D01*
X0082261Y0025327D01*
X0082358Y0025552D01*
X0082460Y0025776D01*
X0082568Y0025996D01*
X0082681Y0026214D01*
X0082799Y0026429D01*
X0082923Y0026641D01*
X0083051Y0026850D01*
X0083185Y0027056D01*
X0083324Y0027258D01*
X0083468Y0027457D01*
X0083617Y0027652D01*
X0083770Y0027844D01*
X0083928Y0028032D01*
X0084090Y0028216D01*
X0084258Y0028395D01*
X0084429Y0028571D01*
X0084605Y0028742D01*
X0084784Y0028910D01*
X0084968Y0029072D01*
X0085156Y0029230D01*
X0085348Y0029383D01*
X0085543Y0029532D01*
X0085742Y0029676D01*
X0085944Y0029815D01*
X0086150Y0029949D01*
X0086359Y0030077D01*
X0086571Y0030201D01*
X0086786Y0030319D01*
X0087004Y0030432D01*
X0087224Y0030540D01*
X0087448Y0030642D01*
X0087673Y0030739D01*
X0087901Y0030830D01*
X0088131Y0030915D01*
X0088363Y0030995D01*
X0088597Y0031069D01*
X0088833Y0031138D01*
X0089070Y0031200D01*
X0089309Y0031257D01*
X0089549Y0031308D01*
X0089790Y0031353D01*
X0090033Y0031392D01*
X0090276Y0031425D01*
X0090520Y0031452D01*
X0090764Y0031473D01*
X0091009Y0031488D01*
X0091255Y0031497D01*
X0091500Y0031500D01*
X0091745Y0031497D01*
X0091991Y0031488D01*
X0092236Y0031473D01*
X0092480Y0031452D01*
X0092724Y0031425D01*
X0092967Y0031392D01*
X0093210Y0031353D01*
X0093451Y0031308D01*
X0093691Y0031257D01*
X0093930Y0031200D01*
X0094167Y0031138D01*
X0094403Y0031069D01*
X0094637Y0030995D01*
X0094869Y0030915D01*
X0095099Y0030830D01*
X0095327Y0030739D01*
X0095552Y0030642D01*
X0095776Y0030540D01*
X0095996Y0030432D01*
X0096214Y0030319D01*
X0096429Y0030201D01*
X0096641Y0030077D01*
X0096850Y0029949D01*
X0097056Y0029815D01*
X0097258Y0029676D01*
X0097457Y0029532D01*
X0097652Y0029383D01*
X0097844Y0029230D01*
X0098032Y0029072D01*
X0098216Y0028910D01*
X0098395Y0028742D01*
X0098571Y0028571D01*
X0098742Y0028395D01*
X0098910Y0028216D01*
X0099072Y0028032D01*
X0099230Y0027844D01*
X0099383Y0027652D01*
X0099532Y0027457D01*
X0099676Y0027258D01*
X0099815Y0027056D01*
X0099949Y0026850D01*
X0100077Y0026641D01*
X0100201Y0026429D01*
X0100319Y0026214D01*
X0100432Y0025996D01*
X0100540Y0025776D01*
X0100642Y0025552D01*
X0100739Y0025327D01*
X0100830Y0025099D01*
X0100915Y0024869D01*
X0100995Y0024637D01*
X0101069Y0024403D01*
X0101138Y0024167D01*
X0101200Y0023930D01*
X0101257Y0023691D01*
X0101308Y0023451D01*
X0101353Y0023210D01*
X0101392Y0022967D01*
X0101425Y0022724D01*
X0101452Y0022480D01*
X0101473Y0022236D01*
X0101488Y0021991D01*
X0101497Y0021745D01*
X0101500Y0021500D01*
X0101497Y0021255D01*
X0101488Y0021009D01*
X0101473Y0020764D01*
X0101452Y0020520D01*
X0101425Y0020276D01*
X0101392Y0020033D01*
X0101353Y0019790D01*
X0101308Y0019549D01*
X0101257Y0019309D01*
X0101200Y0019070D01*
X0101138Y0018833D01*
X0101069Y0018597D01*
X0100995Y0018363D01*
X0100915Y0018131D01*
X0100830Y0017901D01*
X0100739Y0017673D01*
X0100642Y0017448D01*
X0100540Y0017224D01*
X0100432Y0017004D01*
X0100319Y0016786D01*
X0100201Y0016571D01*
X0100077Y0016359D01*
X0099949Y0016150D01*
X0099815Y0015944D01*
X0099676Y0015742D01*
X0099532Y0015543D01*
X0099383Y0015348D01*
X0099230Y0015156D01*
X0099072Y0014968D01*
X0098910Y0014784D01*
X0098742Y0014605D01*
X0098571Y0014429D01*
X0098395Y0014258D01*
X0098216Y0014090D01*
X0098032Y0013928D01*
X0097844Y0013770D01*
X0097652Y0013617D01*
X0097457Y0013468D01*
X0097258Y0013324D01*
X0097056Y0013185D01*
X0096850Y0013051D01*
X0096641Y0012923D01*
X0096429Y0012799D01*
X0096214Y0012681D01*
X0095996Y0012568D01*
X0095776Y0012460D01*
X0095552Y0012358D01*
X0095327Y0012261D01*
X0095099Y0012170D01*
X0094869Y0012085D01*
X0094637Y0012005D01*
X0094403Y0011931D01*
X0094167Y0011862D01*
X0093930Y0011800D01*
X0093691Y0011743D01*
X0093451Y0011692D01*
X0093210Y0011647D01*
X0092967Y0011608D01*
X0092724Y0011575D01*
X0092480Y0011548D01*
X0092236Y0011527D01*
X0091991Y0011512D01*
X0091745Y0011503D01*
X0091500Y0011500D01*
X0091255Y0011503D01*
X0091009Y0011512D01*
X0090764Y0011527D01*
X0090520Y0011548D01*
X0090276Y0011575D01*
X0090033Y0011608D01*
X0089790Y0011647D01*
X0089549Y0011692D01*
X0089309Y0011743D01*
X0089070Y0011800D01*
X0088833Y0011862D01*
X0088597Y0011931D01*
X0088363Y0012005D01*
X0088131Y0012085D01*
X0087901Y0012170D01*
X0087673Y0012261D01*
X0087448Y0012358D01*
X0087224Y0012460D01*
X0087004Y0012568D01*
X0086786Y0012681D01*
X0086571Y0012799D01*
X0086359Y0012923D01*
X0086150Y0013051D01*
X0085944Y0013185D01*
X0085742Y0013324D01*
X0085543Y0013468D01*
X0085348Y0013617D01*
X0085156Y0013770D01*
X0084968Y0013928D01*
X0084784Y0014090D01*
X0084605Y0014258D01*
X0084429Y0014429D01*
X0084258Y0014605D01*
X0084090Y0014784D01*
X0083928Y0014968D01*
X0083770Y0015156D01*
X0083617Y0015348D01*
X0083468Y0015543D01*
X0083324Y0015742D01*
X0083185Y0015944D01*
X0083051Y0016150D01*
X0082923Y0016359D01*
X0082799Y0016571D01*
X0082681Y0016786D01*
X0082568Y0017004D01*
X0082460Y0017224D01*
X0082358Y0017448D01*
X0082261Y0017673D01*
X0082170Y0017901D01*
X0082085Y0018131D01*
X0082005Y0018363D01*
X0081931Y0018597D01*
X0081862Y0018833D01*
X0081800Y0019070D01*
X0081743Y0019309D01*
X0081692Y0019549D01*
X0081647Y0019790D01*
X0081608Y0020033D01*
X0081575Y0020276D01*
X0081548Y0020520D01*
X0081527Y0020764D01*
X0081512Y0021009D01*
X0081503Y0021255D01*
X0081500Y0021500D01*
X0111500Y0021500D02*
X0111503Y0021745D01*
X0111512Y0021991D01*
X0111527Y0022236D01*
X0111548Y0022480D01*
X0111575Y0022724D01*
X0111608Y0022967D01*
X0111647Y0023210D01*
X0111692Y0023451D01*
X0111743Y0023691D01*
X0111800Y0023930D01*
X0111862Y0024167D01*
X0111931Y0024403D01*
X0112005Y0024637D01*
X0112085Y0024869D01*
X0112170Y0025099D01*
X0112261Y0025327D01*
X0112358Y0025552D01*
X0112460Y0025776D01*
X0112568Y0025996D01*
X0112681Y0026214D01*
X0112799Y0026429D01*
X0112923Y0026641D01*
X0113051Y0026850D01*
X0113185Y0027056D01*
X0113324Y0027258D01*
X0113468Y0027457D01*
X0113617Y0027652D01*
X0113770Y0027844D01*
X0113928Y0028032D01*
X0114090Y0028216D01*
X0114258Y0028395D01*
X0114429Y0028571D01*
X0114605Y0028742D01*
X0114784Y0028910D01*
X0114968Y0029072D01*
X0115156Y0029230D01*
X0115348Y0029383D01*
X0115543Y0029532D01*
X0115742Y0029676D01*
X0115944Y0029815D01*
X0116150Y0029949D01*
X0116359Y0030077D01*
X0116571Y0030201D01*
X0116786Y0030319D01*
X0117004Y0030432D01*
X0117224Y0030540D01*
X0117448Y0030642D01*
X0117673Y0030739D01*
X0117901Y0030830D01*
X0118131Y0030915D01*
X0118363Y0030995D01*
X0118597Y0031069D01*
X0118833Y0031138D01*
X0119070Y0031200D01*
X0119309Y0031257D01*
X0119549Y0031308D01*
X0119790Y0031353D01*
X0120033Y0031392D01*
X0120276Y0031425D01*
X0120520Y0031452D01*
X0120764Y0031473D01*
X0121009Y0031488D01*
X0121255Y0031497D01*
X0121500Y0031500D01*
X0121745Y0031497D01*
X0121991Y0031488D01*
X0122236Y0031473D01*
X0122480Y0031452D01*
X0122724Y0031425D01*
X0122967Y0031392D01*
X0123210Y0031353D01*
X0123451Y0031308D01*
X0123691Y0031257D01*
X0123930Y0031200D01*
X0124167Y0031138D01*
X0124403Y0031069D01*
X0124637Y0030995D01*
X0124869Y0030915D01*
X0125099Y0030830D01*
X0125327Y0030739D01*
X0125552Y0030642D01*
X0125776Y0030540D01*
X0125996Y0030432D01*
X0126214Y0030319D01*
X0126429Y0030201D01*
X0126641Y0030077D01*
X0126850Y0029949D01*
X0127056Y0029815D01*
X0127258Y0029676D01*
X0127457Y0029532D01*
X0127652Y0029383D01*
X0127844Y0029230D01*
X0128032Y0029072D01*
X0128216Y0028910D01*
X0128395Y0028742D01*
X0128571Y0028571D01*
X0128742Y0028395D01*
X0128910Y0028216D01*
X0129072Y0028032D01*
X0129230Y0027844D01*
X0129383Y0027652D01*
X0129532Y0027457D01*
X0129676Y0027258D01*
X0129815Y0027056D01*
X0129949Y0026850D01*
X0130077Y0026641D01*
X0130201Y0026429D01*
X0130319Y0026214D01*
X0130432Y0025996D01*
X0130540Y0025776D01*
X0130642Y0025552D01*
X0130739Y0025327D01*
X0130830Y0025099D01*
X0130915Y0024869D01*
X0130995Y0024637D01*
X0131069Y0024403D01*
X0131138Y0024167D01*
X0131200Y0023930D01*
X0131257Y0023691D01*
X0131308Y0023451D01*
X0131353Y0023210D01*
X0131392Y0022967D01*
X0131425Y0022724D01*
X0131452Y0022480D01*
X0131473Y0022236D01*
X0131488Y0021991D01*
X0131497Y0021745D01*
X0131500Y0021500D01*
X0131497Y0021255D01*
X0131488Y0021009D01*
X0131473Y0020764D01*
X0131452Y0020520D01*
X0131425Y0020276D01*
X0131392Y0020033D01*
X0131353Y0019790D01*
X0131308Y0019549D01*
X0131257Y0019309D01*
X0131200Y0019070D01*
X0131138Y0018833D01*
X0131069Y0018597D01*
X0130995Y0018363D01*
X0130915Y0018131D01*
X0130830Y0017901D01*
X0130739Y0017673D01*
X0130642Y0017448D01*
X0130540Y0017224D01*
X0130432Y0017004D01*
X0130319Y0016786D01*
X0130201Y0016571D01*
X0130077Y0016359D01*
X0129949Y0016150D01*
X0129815Y0015944D01*
X0129676Y0015742D01*
X0129532Y0015543D01*
X0129383Y0015348D01*
X0129230Y0015156D01*
X0129072Y0014968D01*
X0128910Y0014784D01*
X0128742Y0014605D01*
X0128571Y0014429D01*
X0128395Y0014258D01*
X0128216Y0014090D01*
X0128032Y0013928D01*
X0127844Y0013770D01*
X0127652Y0013617D01*
X0127457Y0013468D01*
X0127258Y0013324D01*
X0127056Y0013185D01*
X0126850Y0013051D01*
X0126641Y0012923D01*
X0126429Y0012799D01*
X0126214Y0012681D01*
X0125996Y0012568D01*
X0125776Y0012460D01*
X0125552Y0012358D01*
X0125327Y0012261D01*
X0125099Y0012170D01*
X0124869Y0012085D01*
X0124637Y0012005D01*
X0124403Y0011931D01*
X0124167Y0011862D01*
X0123930Y0011800D01*
X0123691Y0011743D01*
X0123451Y0011692D01*
X0123210Y0011647D01*
X0122967Y0011608D01*
X0122724Y0011575D01*
X0122480Y0011548D01*
X0122236Y0011527D01*
X0121991Y0011512D01*
X0121745Y0011503D01*
X0121500Y0011500D01*
X0121255Y0011503D01*
X0121009Y0011512D01*
X0120764Y0011527D01*
X0120520Y0011548D01*
X0120276Y0011575D01*
X0120033Y0011608D01*
X0119790Y0011647D01*
X0119549Y0011692D01*
X0119309Y0011743D01*
X0119070Y0011800D01*
X0118833Y0011862D01*
X0118597Y0011931D01*
X0118363Y0012005D01*
X0118131Y0012085D01*
X0117901Y0012170D01*
X0117673Y0012261D01*
X0117448Y0012358D01*
X0117224Y0012460D01*
X0117004Y0012568D01*
X0116786Y0012681D01*
X0116571Y0012799D01*
X0116359Y0012923D01*
X0116150Y0013051D01*
X0115944Y0013185D01*
X0115742Y0013324D01*
X0115543Y0013468D01*
X0115348Y0013617D01*
X0115156Y0013770D01*
X0114968Y0013928D01*
X0114784Y0014090D01*
X0114605Y0014258D01*
X0114429Y0014429D01*
X0114258Y0014605D01*
X0114090Y0014784D01*
X0113928Y0014968D01*
X0113770Y0015156D01*
X0113617Y0015348D01*
X0113468Y0015543D01*
X0113324Y0015742D01*
X0113185Y0015944D01*
X0113051Y0016150D01*
X0112923Y0016359D01*
X0112799Y0016571D01*
X0112681Y0016786D01*
X0112568Y0017004D01*
X0112460Y0017224D01*
X0112358Y0017448D01*
X0112261Y0017673D01*
X0112170Y0017901D01*
X0112085Y0018131D01*
X0112005Y0018363D01*
X0111931Y0018597D01*
X0111862Y0018833D01*
X0111800Y0019070D01*
X0111743Y0019309D01*
X0111692Y0019549D01*
X0111647Y0019790D01*
X0111608Y0020033D01*
X0111575Y0020276D01*
X0111548Y0020520D01*
X0111527Y0020764D01*
X0111512Y0021009D01*
X0111503Y0021255D01*
X0111500Y0021500D01*
D14*
X0111856Y0023850D02*
X0108854Y0023850D01*
X0108854Y0028354D01*
X0111856Y0028354D01*
X0113458Y0028354D02*
X0115710Y0028354D01*
X0116460Y0027603D01*
X0116460Y0024601D01*
X0115710Y0023850D01*
X0113458Y0023850D01*
X0113458Y0028354D01*
X0110355Y0026102D02*
X0108854Y0026102D01*
X0107253Y0023850D02*
X0104250Y0023850D01*
X0104250Y0028354D01*
X0091064Y0027603D02*
X0091064Y0026853D01*
X0090314Y0026102D01*
X0091064Y0025351D01*
X0091064Y0024601D01*
X0090314Y0023850D01*
X0088812Y0023850D01*
X0088062Y0024601D01*
X0086460Y0024601D02*
X0086460Y0027603D01*
X0085710Y0028354D01*
X0083458Y0028354D01*
X0083458Y0023850D01*
X0085710Y0023850D01*
X0086460Y0024601D01*
X0089563Y0026102D02*
X0090314Y0026102D01*
X0091064Y0027603D02*
X0090314Y0028354D01*
X0088812Y0028354D01*
X0088062Y0027603D01*
X0081856Y0028354D02*
X0078854Y0028354D01*
X0078854Y0023850D01*
X0081856Y0023850D01*
X0080355Y0026102D02*
X0078854Y0026102D01*
X0077253Y0023850D02*
X0074250Y0023850D01*
X0074250Y0028354D01*
X0050314Y0053850D02*
X0050314Y0058354D01*
X0048062Y0056102D01*
X0051064Y0056102D01*
X0046460Y0054601D02*
X0046460Y0057603D01*
X0045710Y0058354D01*
X0043458Y0058354D01*
X0043458Y0053850D01*
X0045710Y0053850D01*
X0046460Y0054601D01*
X0041856Y0053850D02*
X0038854Y0053850D01*
X0038854Y0058354D01*
X0041856Y0058354D01*
X0040355Y0056102D02*
X0038854Y0056102D01*
X0037253Y0053850D02*
X0034250Y0053850D01*
X0034250Y0058354D01*
X0118062Y0027603D02*
X0118812Y0028354D01*
X0120314Y0028354D01*
X0121064Y0027603D01*
X0121064Y0026853D01*
X0118062Y0023850D01*
X0121064Y0023850D01*
X0134250Y0023850D02*
X0137253Y0023850D01*
X0138854Y0023850D02*
X0141856Y0023850D01*
X0143458Y0023850D02*
X0145710Y0023850D01*
X0146460Y0024601D01*
X0146460Y0027603D01*
X0145710Y0028354D01*
X0143458Y0028354D01*
X0143458Y0023850D01*
X0140355Y0026102D02*
X0138854Y0026102D01*
X0138854Y0028354D02*
X0138854Y0023850D01*
X0134250Y0023850D02*
X0134250Y0028354D01*
X0138854Y0028354D02*
X0141856Y0028354D01*
X0148062Y0026853D02*
X0149563Y0028354D01*
X0149563Y0023850D01*
X0148062Y0023850D02*
X0151064Y0023850D01*
D15*
X0074430Y0063669D02*
X0070827Y0066071D01*
X0072028Y0067352D02*
X0070827Y0068553D01*
X0074430Y0068553D01*
X0074430Y0067352D02*
X0074430Y0069754D01*
X0074430Y0066071D02*
X0070827Y0063669D01*
M02*
