G75*
%MOIN*%
%OFA0B0*%
%FSLAX25Y25*%
%IPPOS*%
%LPD*%
%AMOC8*
5,1,8,0,0,1.08239X$1,22.5*
%
%ADD10C,0.00000*%
%ADD11C,0.00800*%
%ADD12C,0.01000*%
%ADD13C,0.00600*%
%ADD14C,0.00500*%
%ADD15C,0.00400*%
D10*
X0001552Y0001500D02*
X0001552Y0086461D01*
X0140253Y0086461D01*
X0140253Y0001500D01*
X0001552Y0001500D01*
D11*
X0031552Y0014000D02*
X0031552Y0029000D01*
X0016052Y0044200D02*
X0007052Y0044200D01*
X0007052Y0063800D01*
X0016052Y0063800D01*
X0016052Y0044200D01*
X0061552Y0029000D02*
X0061552Y0014000D01*
X0091552Y0014000D02*
X0091552Y0029000D01*
X0131552Y0044000D02*
X0131552Y0059000D01*
X0096352Y0057000D02*
X0096352Y0066000D01*
X0076752Y0066000D01*
X0076752Y0057000D01*
X0096352Y0057000D01*
D12*
X0131552Y0059000D02*
X0131365Y0059243D01*
X0131173Y0059481D01*
X0130974Y0059714D01*
X0130770Y0059942D01*
X0130561Y0060165D01*
X0130346Y0060383D01*
X0130126Y0060596D01*
X0129901Y0060803D01*
X0129670Y0061005D01*
X0129435Y0061201D01*
X0129195Y0061391D01*
X0128951Y0061575D01*
X0128702Y0061753D01*
X0128448Y0061925D01*
X0128191Y0062091D01*
X0127930Y0062251D01*
X0127665Y0062404D01*
X0127396Y0062550D01*
X0127123Y0062690D01*
X0126848Y0062823D01*
X0126569Y0062949D01*
X0126287Y0063069D01*
X0126002Y0063181D01*
X0125715Y0063286D01*
X0125425Y0063385D01*
X0125133Y0063476D01*
X0124838Y0063560D01*
X0124542Y0063637D01*
X0124244Y0063707D01*
X0123944Y0063769D01*
X0123643Y0063824D01*
X0123341Y0063871D01*
X0123037Y0063911D01*
X0122733Y0063944D01*
X0122428Y0063969D01*
X0122122Y0063987D01*
X0121816Y0063997D01*
X0121510Y0064000D01*
X0121204Y0063995D01*
X0120898Y0063983D01*
X0120592Y0063963D01*
X0120288Y0063936D01*
X0119983Y0063901D01*
X0119680Y0063859D01*
X0119378Y0063810D01*
X0119077Y0063753D01*
X0118778Y0063688D01*
X0118480Y0063617D01*
X0118185Y0063538D01*
X0117891Y0063452D01*
X0117599Y0063359D01*
X0117310Y0063258D01*
X0117023Y0063151D01*
X0116739Y0063036D01*
X0116458Y0062915D01*
X0116180Y0062787D01*
X0115905Y0062652D01*
X0115634Y0062510D01*
X0115366Y0062362D01*
X0115102Y0062207D01*
X0114842Y0062046D01*
X0114586Y0061879D01*
X0114333Y0061705D01*
X0114086Y0061525D01*
X0113842Y0061339D01*
X0113604Y0061148D01*
X0113370Y0060950D01*
X0113141Y0060747D01*
X0112917Y0060538D01*
X0112698Y0060324D01*
X0112485Y0060104D01*
X0112277Y0059880D01*
X0112074Y0059650D01*
X0111878Y0059416D01*
X0111687Y0059176D01*
X0111502Y0058933D01*
X0111323Y0058684D01*
X0111150Y0058432D01*
X0110983Y0058175D01*
X0110823Y0057914D01*
X0110669Y0057649D01*
X0110522Y0057381D01*
X0110381Y0057109D01*
X0110247Y0056834D01*
X0110120Y0056555D01*
X0109999Y0056274D01*
X0109886Y0055989D01*
X0109780Y0055702D01*
X0109680Y0055413D01*
X0109588Y0055121D01*
X0109503Y0054827D01*
X0109425Y0054531D01*
X0109354Y0054233D01*
X0109291Y0053933D01*
X0109235Y0053632D01*
X0109187Y0053330D01*
X0109146Y0053027D01*
X0109112Y0052723D01*
X0109086Y0052418D01*
X0109067Y0052112D01*
X0109056Y0051806D01*
X0109052Y0051500D01*
X0109056Y0051194D01*
X0109067Y0050888D01*
X0109086Y0050582D01*
X0109112Y0050277D01*
X0109146Y0049973D01*
X0109187Y0049670D01*
X0109235Y0049368D01*
X0109291Y0049067D01*
X0109354Y0048767D01*
X0109425Y0048469D01*
X0109503Y0048173D01*
X0109588Y0047879D01*
X0109680Y0047587D01*
X0109780Y0047298D01*
X0109886Y0047011D01*
X0109999Y0046726D01*
X0110120Y0046445D01*
X0110247Y0046166D01*
X0110381Y0045891D01*
X0110522Y0045619D01*
X0110669Y0045351D01*
X0110823Y0045086D01*
X0110983Y0044825D01*
X0111150Y0044568D01*
X0111323Y0044316D01*
X0111502Y0044067D01*
X0111687Y0043824D01*
X0111878Y0043584D01*
X0112074Y0043350D01*
X0112277Y0043120D01*
X0112485Y0042896D01*
X0112698Y0042676D01*
X0112917Y0042462D01*
X0113141Y0042253D01*
X0113370Y0042050D01*
X0113604Y0041852D01*
X0113842Y0041661D01*
X0114086Y0041475D01*
X0114333Y0041295D01*
X0114586Y0041121D01*
X0114842Y0040954D01*
X0115102Y0040793D01*
X0115366Y0040638D01*
X0115634Y0040490D01*
X0115905Y0040348D01*
X0116180Y0040213D01*
X0116458Y0040085D01*
X0116739Y0039964D01*
X0117023Y0039849D01*
X0117310Y0039742D01*
X0117599Y0039641D01*
X0117891Y0039548D01*
X0118185Y0039462D01*
X0118480Y0039383D01*
X0118778Y0039312D01*
X0119077Y0039247D01*
X0119378Y0039190D01*
X0119680Y0039141D01*
X0119983Y0039099D01*
X0120288Y0039064D01*
X0120592Y0039037D01*
X0120898Y0039017D01*
X0121204Y0039005D01*
X0121510Y0039000D01*
X0121816Y0039003D01*
X0122122Y0039013D01*
X0122428Y0039031D01*
X0122733Y0039056D01*
X0123037Y0039089D01*
X0123341Y0039129D01*
X0123643Y0039176D01*
X0123944Y0039231D01*
X0124244Y0039293D01*
X0124542Y0039363D01*
X0124838Y0039440D01*
X0125133Y0039524D01*
X0125425Y0039615D01*
X0125715Y0039714D01*
X0126002Y0039819D01*
X0126287Y0039931D01*
X0126569Y0040051D01*
X0126848Y0040177D01*
X0127123Y0040310D01*
X0127396Y0040450D01*
X0127665Y0040596D01*
X0127930Y0040749D01*
X0128191Y0040909D01*
X0128448Y0041075D01*
X0128702Y0041247D01*
X0128951Y0041425D01*
X0129195Y0041609D01*
X0129435Y0041799D01*
X0129670Y0041995D01*
X0129901Y0042197D01*
X0130126Y0042404D01*
X0130346Y0042617D01*
X0130561Y0042835D01*
X0130770Y0043058D01*
X0130974Y0043286D01*
X0131173Y0043519D01*
X0131365Y0043757D01*
X0131552Y0044000D01*
X0091552Y0029000D02*
X0091365Y0029243D01*
X0091173Y0029481D01*
X0090974Y0029714D01*
X0090770Y0029942D01*
X0090561Y0030165D01*
X0090346Y0030383D01*
X0090126Y0030596D01*
X0089901Y0030803D01*
X0089670Y0031005D01*
X0089435Y0031201D01*
X0089195Y0031391D01*
X0088951Y0031575D01*
X0088702Y0031753D01*
X0088448Y0031925D01*
X0088191Y0032091D01*
X0087930Y0032251D01*
X0087665Y0032404D01*
X0087396Y0032550D01*
X0087123Y0032690D01*
X0086848Y0032823D01*
X0086569Y0032949D01*
X0086287Y0033069D01*
X0086002Y0033181D01*
X0085715Y0033286D01*
X0085425Y0033385D01*
X0085133Y0033476D01*
X0084838Y0033560D01*
X0084542Y0033637D01*
X0084244Y0033707D01*
X0083944Y0033769D01*
X0083643Y0033824D01*
X0083341Y0033871D01*
X0083037Y0033911D01*
X0082733Y0033944D01*
X0082428Y0033969D01*
X0082122Y0033987D01*
X0081816Y0033997D01*
X0081510Y0034000D01*
X0081204Y0033995D01*
X0080898Y0033983D01*
X0080592Y0033963D01*
X0080288Y0033936D01*
X0079983Y0033901D01*
X0079680Y0033859D01*
X0079378Y0033810D01*
X0079077Y0033753D01*
X0078778Y0033688D01*
X0078480Y0033617D01*
X0078185Y0033538D01*
X0077891Y0033452D01*
X0077599Y0033359D01*
X0077310Y0033258D01*
X0077023Y0033151D01*
X0076739Y0033036D01*
X0076458Y0032915D01*
X0076180Y0032787D01*
X0075905Y0032652D01*
X0075634Y0032510D01*
X0075366Y0032362D01*
X0075102Y0032207D01*
X0074842Y0032046D01*
X0074586Y0031879D01*
X0074333Y0031705D01*
X0074086Y0031525D01*
X0073842Y0031339D01*
X0073604Y0031148D01*
X0073370Y0030950D01*
X0073141Y0030747D01*
X0072917Y0030538D01*
X0072698Y0030324D01*
X0072485Y0030104D01*
X0072277Y0029880D01*
X0072074Y0029650D01*
X0071878Y0029416D01*
X0071687Y0029176D01*
X0071502Y0028933D01*
X0071323Y0028684D01*
X0071150Y0028432D01*
X0070983Y0028175D01*
X0070823Y0027914D01*
X0070669Y0027649D01*
X0070522Y0027381D01*
X0070381Y0027109D01*
X0070247Y0026834D01*
X0070120Y0026555D01*
X0069999Y0026274D01*
X0069886Y0025989D01*
X0069780Y0025702D01*
X0069680Y0025413D01*
X0069588Y0025121D01*
X0069503Y0024827D01*
X0069425Y0024531D01*
X0069354Y0024233D01*
X0069291Y0023933D01*
X0069235Y0023632D01*
X0069187Y0023330D01*
X0069146Y0023027D01*
X0069112Y0022723D01*
X0069086Y0022418D01*
X0069067Y0022112D01*
X0069056Y0021806D01*
X0069052Y0021500D01*
X0069056Y0021194D01*
X0069067Y0020888D01*
X0069086Y0020582D01*
X0069112Y0020277D01*
X0069146Y0019973D01*
X0069187Y0019670D01*
X0069235Y0019368D01*
X0069291Y0019067D01*
X0069354Y0018767D01*
X0069425Y0018469D01*
X0069503Y0018173D01*
X0069588Y0017879D01*
X0069680Y0017587D01*
X0069780Y0017298D01*
X0069886Y0017011D01*
X0069999Y0016726D01*
X0070120Y0016445D01*
X0070247Y0016166D01*
X0070381Y0015891D01*
X0070522Y0015619D01*
X0070669Y0015351D01*
X0070823Y0015086D01*
X0070983Y0014825D01*
X0071150Y0014568D01*
X0071323Y0014316D01*
X0071502Y0014067D01*
X0071687Y0013824D01*
X0071878Y0013584D01*
X0072074Y0013350D01*
X0072277Y0013120D01*
X0072485Y0012896D01*
X0072698Y0012676D01*
X0072917Y0012462D01*
X0073141Y0012253D01*
X0073370Y0012050D01*
X0073604Y0011852D01*
X0073842Y0011661D01*
X0074086Y0011475D01*
X0074333Y0011295D01*
X0074586Y0011121D01*
X0074842Y0010954D01*
X0075102Y0010793D01*
X0075366Y0010638D01*
X0075634Y0010490D01*
X0075905Y0010348D01*
X0076180Y0010213D01*
X0076458Y0010085D01*
X0076739Y0009964D01*
X0077023Y0009849D01*
X0077310Y0009742D01*
X0077599Y0009641D01*
X0077891Y0009548D01*
X0078185Y0009462D01*
X0078480Y0009383D01*
X0078778Y0009312D01*
X0079077Y0009247D01*
X0079378Y0009190D01*
X0079680Y0009141D01*
X0079983Y0009099D01*
X0080288Y0009064D01*
X0080592Y0009037D01*
X0080898Y0009017D01*
X0081204Y0009005D01*
X0081510Y0009000D01*
X0081816Y0009003D01*
X0082122Y0009013D01*
X0082428Y0009031D01*
X0082733Y0009056D01*
X0083037Y0009089D01*
X0083341Y0009129D01*
X0083643Y0009176D01*
X0083944Y0009231D01*
X0084244Y0009293D01*
X0084542Y0009363D01*
X0084838Y0009440D01*
X0085133Y0009524D01*
X0085425Y0009615D01*
X0085715Y0009714D01*
X0086002Y0009819D01*
X0086287Y0009931D01*
X0086569Y0010051D01*
X0086848Y0010177D01*
X0087123Y0010310D01*
X0087396Y0010450D01*
X0087665Y0010596D01*
X0087930Y0010749D01*
X0088191Y0010909D01*
X0088448Y0011075D01*
X0088702Y0011247D01*
X0088951Y0011425D01*
X0089195Y0011609D01*
X0089435Y0011799D01*
X0089670Y0011995D01*
X0089901Y0012197D01*
X0090126Y0012404D01*
X0090346Y0012617D01*
X0090561Y0012835D01*
X0090770Y0013058D01*
X0090974Y0013286D01*
X0091173Y0013519D01*
X0091365Y0013757D01*
X0091552Y0014000D01*
X0061552Y0014000D02*
X0061365Y0013757D01*
X0061173Y0013519D01*
X0060974Y0013286D01*
X0060770Y0013058D01*
X0060561Y0012835D01*
X0060346Y0012617D01*
X0060126Y0012404D01*
X0059901Y0012197D01*
X0059670Y0011995D01*
X0059435Y0011799D01*
X0059195Y0011609D01*
X0058951Y0011425D01*
X0058702Y0011247D01*
X0058448Y0011075D01*
X0058191Y0010909D01*
X0057930Y0010749D01*
X0057665Y0010596D01*
X0057396Y0010450D01*
X0057123Y0010310D01*
X0056848Y0010177D01*
X0056569Y0010051D01*
X0056287Y0009931D01*
X0056002Y0009819D01*
X0055715Y0009714D01*
X0055425Y0009615D01*
X0055133Y0009524D01*
X0054838Y0009440D01*
X0054542Y0009363D01*
X0054244Y0009293D01*
X0053944Y0009231D01*
X0053643Y0009176D01*
X0053341Y0009129D01*
X0053037Y0009089D01*
X0052733Y0009056D01*
X0052428Y0009031D01*
X0052122Y0009013D01*
X0051816Y0009003D01*
X0051510Y0009000D01*
X0051204Y0009005D01*
X0050898Y0009017D01*
X0050592Y0009037D01*
X0050288Y0009064D01*
X0049983Y0009099D01*
X0049680Y0009141D01*
X0049378Y0009190D01*
X0049077Y0009247D01*
X0048778Y0009312D01*
X0048480Y0009383D01*
X0048185Y0009462D01*
X0047891Y0009548D01*
X0047599Y0009641D01*
X0047310Y0009742D01*
X0047023Y0009849D01*
X0046739Y0009964D01*
X0046458Y0010085D01*
X0046180Y0010213D01*
X0045905Y0010348D01*
X0045634Y0010490D01*
X0045366Y0010638D01*
X0045102Y0010793D01*
X0044842Y0010954D01*
X0044586Y0011121D01*
X0044333Y0011295D01*
X0044086Y0011475D01*
X0043842Y0011661D01*
X0043604Y0011852D01*
X0043370Y0012050D01*
X0043141Y0012253D01*
X0042917Y0012462D01*
X0042698Y0012676D01*
X0042485Y0012896D01*
X0042277Y0013120D01*
X0042074Y0013350D01*
X0041878Y0013584D01*
X0041687Y0013824D01*
X0041502Y0014067D01*
X0041323Y0014316D01*
X0041150Y0014568D01*
X0040983Y0014825D01*
X0040823Y0015086D01*
X0040669Y0015351D01*
X0040522Y0015619D01*
X0040381Y0015891D01*
X0040247Y0016166D01*
X0040120Y0016445D01*
X0039999Y0016726D01*
X0039886Y0017011D01*
X0039780Y0017298D01*
X0039680Y0017587D01*
X0039588Y0017879D01*
X0039503Y0018173D01*
X0039425Y0018469D01*
X0039354Y0018767D01*
X0039291Y0019067D01*
X0039235Y0019368D01*
X0039187Y0019670D01*
X0039146Y0019973D01*
X0039112Y0020277D01*
X0039086Y0020582D01*
X0039067Y0020888D01*
X0039056Y0021194D01*
X0039052Y0021500D01*
X0039056Y0021806D01*
X0039067Y0022112D01*
X0039086Y0022418D01*
X0039112Y0022723D01*
X0039146Y0023027D01*
X0039187Y0023330D01*
X0039235Y0023632D01*
X0039291Y0023933D01*
X0039354Y0024233D01*
X0039425Y0024531D01*
X0039503Y0024827D01*
X0039588Y0025121D01*
X0039680Y0025413D01*
X0039780Y0025702D01*
X0039886Y0025989D01*
X0039999Y0026274D01*
X0040120Y0026555D01*
X0040247Y0026834D01*
X0040381Y0027109D01*
X0040522Y0027381D01*
X0040669Y0027649D01*
X0040823Y0027914D01*
X0040983Y0028175D01*
X0041150Y0028432D01*
X0041323Y0028684D01*
X0041502Y0028933D01*
X0041687Y0029176D01*
X0041878Y0029416D01*
X0042074Y0029650D01*
X0042277Y0029880D01*
X0042485Y0030104D01*
X0042698Y0030324D01*
X0042917Y0030538D01*
X0043141Y0030747D01*
X0043370Y0030950D01*
X0043604Y0031148D01*
X0043842Y0031339D01*
X0044086Y0031525D01*
X0044333Y0031705D01*
X0044586Y0031879D01*
X0044842Y0032046D01*
X0045102Y0032207D01*
X0045366Y0032362D01*
X0045634Y0032510D01*
X0045905Y0032652D01*
X0046180Y0032787D01*
X0046458Y0032915D01*
X0046739Y0033036D01*
X0047023Y0033151D01*
X0047310Y0033258D01*
X0047599Y0033359D01*
X0047891Y0033452D01*
X0048185Y0033538D01*
X0048480Y0033617D01*
X0048778Y0033688D01*
X0049077Y0033753D01*
X0049378Y0033810D01*
X0049680Y0033859D01*
X0049983Y0033901D01*
X0050288Y0033936D01*
X0050592Y0033963D01*
X0050898Y0033983D01*
X0051204Y0033995D01*
X0051510Y0034000D01*
X0051816Y0033997D01*
X0052122Y0033987D01*
X0052428Y0033969D01*
X0052733Y0033944D01*
X0053037Y0033911D01*
X0053341Y0033871D01*
X0053643Y0033824D01*
X0053944Y0033769D01*
X0054244Y0033707D01*
X0054542Y0033637D01*
X0054838Y0033560D01*
X0055133Y0033476D01*
X0055425Y0033385D01*
X0055715Y0033286D01*
X0056002Y0033181D01*
X0056287Y0033069D01*
X0056569Y0032949D01*
X0056848Y0032823D01*
X0057123Y0032690D01*
X0057396Y0032550D01*
X0057665Y0032404D01*
X0057930Y0032251D01*
X0058191Y0032091D01*
X0058448Y0031925D01*
X0058702Y0031753D01*
X0058951Y0031575D01*
X0059195Y0031391D01*
X0059435Y0031201D01*
X0059670Y0031005D01*
X0059901Y0030803D01*
X0060126Y0030596D01*
X0060346Y0030383D01*
X0060561Y0030165D01*
X0060770Y0029942D01*
X0060974Y0029714D01*
X0061173Y0029481D01*
X0061365Y0029243D01*
X0061552Y0029000D01*
X0031552Y0029000D02*
X0031365Y0029243D01*
X0031173Y0029481D01*
X0030974Y0029714D01*
X0030770Y0029942D01*
X0030561Y0030165D01*
X0030346Y0030383D01*
X0030126Y0030596D01*
X0029901Y0030803D01*
X0029670Y0031005D01*
X0029435Y0031201D01*
X0029195Y0031391D01*
X0028951Y0031575D01*
X0028702Y0031753D01*
X0028448Y0031925D01*
X0028191Y0032091D01*
X0027930Y0032251D01*
X0027665Y0032404D01*
X0027396Y0032550D01*
X0027123Y0032690D01*
X0026848Y0032823D01*
X0026569Y0032949D01*
X0026287Y0033069D01*
X0026002Y0033181D01*
X0025715Y0033286D01*
X0025425Y0033385D01*
X0025133Y0033476D01*
X0024838Y0033560D01*
X0024542Y0033637D01*
X0024244Y0033707D01*
X0023944Y0033769D01*
X0023643Y0033824D01*
X0023341Y0033871D01*
X0023037Y0033911D01*
X0022733Y0033944D01*
X0022428Y0033969D01*
X0022122Y0033987D01*
X0021816Y0033997D01*
X0021510Y0034000D01*
X0021204Y0033995D01*
X0020898Y0033983D01*
X0020592Y0033963D01*
X0020288Y0033936D01*
X0019983Y0033901D01*
X0019680Y0033859D01*
X0019378Y0033810D01*
X0019077Y0033753D01*
X0018778Y0033688D01*
X0018480Y0033617D01*
X0018185Y0033538D01*
X0017891Y0033452D01*
X0017599Y0033359D01*
X0017310Y0033258D01*
X0017023Y0033151D01*
X0016739Y0033036D01*
X0016458Y0032915D01*
X0016180Y0032787D01*
X0015905Y0032652D01*
X0015634Y0032510D01*
X0015366Y0032362D01*
X0015102Y0032207D01*
X0014842Y0032046D01*
X0014586Y0031879D01*
X0014333Y0031705D01*
X0014086Y0031525D01*
X0013842Y0031339D01*
X0013604Y0031148D01*
X0013370Y0030950D01*
X0013141Y0030747D01*
X0012917Y0030538D01*
X0012698Y0030324D01*
X0012485Y0030104D01*
X0012277Y0029880D01*
X0012074Y0029650D01*
X0011878Y0029416D01*
X0011687Y0029176D01*
X0011502Y0028933D01*
X0011323Y0028684D01*
X0011150Y0028432D01*
X0010983Y0028175D01*
X0010823Y0027914D01*
X0010669Y0027649D01*
X0010522Y0027381D01*
X0010381Y0027109D01*
X0010247Y0026834D01*
X0010120Y0026555D01*
X0009999Y0026274D01*
X0009886Y0025989D01*
X0009780Y0025702D01*
X0009680Y0025413D01*
X0009588Y0025121D01*
X0009503Y0024827D01*
X0009425Y0024531D01*
X0009354Y0024233D01*
X0009291Y0023933D01*
X0009235Y0023632D01*
X0009187Y0023330D01*
X0009146Y0023027D01*
X0009112Y0022723D01*
X0009086Y0022418D01*
X0009067Y0022112D01*
X0009056Y0021806D01*
X0009052Y0021500D01*
X0009056Y0021194D01*
X0009067Y0020888D01*
X0009086Y0020582D01*
X0009112Y0020277D01*
X0009146Y0019973D01*
X0009187Y0019670D01*
X0009235Y0019368D01*
X0009291Y0019067D01*
X0009354Y0018767D01*
X0009425Y0018469D01*
X0009503Y0018173D01*
X0009588Y0017879D01*
X0009680Y0017587D01*
X0009780Y0017298D01*
X0009886Y0017011D01*
X0009999Y0016726D01*
X0010120Y0016445D01*
X0010247Y0016166D01*
X0010381Y0015891D01*
X0010522Y0015619D01*
X0010669Y0015351D01*
X0010823Y0015086D01*
X0010983Y0014825D01*
X0011150Y0014568D01*
X0011323Y0014316D01*
X0011502Y0014067D01*
X0011687Y0013824D01*
X0011878Y0013584D01*
X0012074Y0013350D01*
X0012277Y0013120D01*
X0012485Y0012896D01*
X0012698Y0012676D01*
X0012917Y0012462D01*
X0013141Y0012253D01*
X0013370Y0012050D01*
X0013604Y0011852D01*
X0013842Y0011661D01*
X0014086Y0011475D01*
X0014333Y0011295D01*
X0014586Y0011121D01*
X0014842Y0010954D01*
X0015102Y0010793D01*
X0015366Y0010638D01*
X0015634Y0010490D01*
X0015905Y0010348D01*
X0016180Y0010213D01*
X0016458Y0010085D01*
X0016739Y0009964D01*
X0017023Y0009849D01*
X0017310Y0009742D01*
X0017599Y0009641D01*
X0017891Y0009548D01*
X0018185Y0009462D01*
X0018480Y0009383D01*
X0018778Y0009312D01*
X0019077Y0009247D01*
X0019378Y0009190D01*
X0019680Y0009141D01*
X0019983Y0009099D01*
X0020288Y0009064D01*
X0020592Y0009037D01*
X0020898Y0009017D01*
X0021204Y0009005D01*
X0021510Y0009000D01*
X0021816Y0009003D01*
X0022122Y0009013D01*
X0022428Y0009031D01*
X0022733Y0009056D01*
X0023037Y0009089D01*
X0023341Y0009129D01*
X0023643Y0009176D01*
X0023944Y0009231D01*
X0024244Y0009293D01*
X0024542Y0009363D01*
X0024838Y0009440D01*
X0025133Y0009524D01*
X0025425Y0009615D01*
X0025715Y0009714D01*
X0026002Y0009819D01*
X0026287Y0009931D01*
X0026569Y0010051D01*
X0026848Y0010177D01*
X0027123Y0010310D01*
X0027396Y0010450D01*
X0027665Y0010596D01*
X0027930Y0010749D01*
X0028191Y0010909D01*
X0028448Y0011075D01*
X0028702Y0011247D01*
X0028951Y0011425D01*
X0029195Y0011609D01*
X0029435Y0011799D01*
X0029670Y0011995D01*
X0029901Y0012197D01*
X0030126Y0012404D01*
X0030346Y0012617D01*
X0030561Y0012835D01*
X0030770Y0013058D01*
X0030974Y0013286D01*
X0031173Y0013519D01*
X0031365Y0013757D01*
X0031552Y0014000D01*
X0027064Y0062219D02*
X0066040Y0062219D01*
X0066040Y0084856D01*
X0027064Y0084856D01*
X0027064Y0062219D01*
X0036316Y0062445D02*
X0036316Y0064413D01*
X0056395Y0064413D02*
X0056395Y0062445D01*
D13*
X0089959Y0055202D02*
X0089959Y0052600D01*
X0089959Y0053467D02*
X0091260Y0053467D01*
X0091694Y0053901D01*
X0091694Y0054769D01*
X0091260Y0055202D01*
X0089959Y0055202D01*
X0090826Y0053467D02*
X0091694Y0052600D01*
X0092905Y0052600D02*
X0094640Y0054335D01*
X0094640Y0054769D01*
X0094207Y0055202D01*
X0093339Y0055202D01*
X0092905Y0054769D01*
X0092905Y0052600D02*
X0094640Y0052600D01*
X0111552Y0051500D02*
X0111555Y0051745D01*
X0111564Y0051991D01*
X0111579Y0052236D01*
X0111600Y0052480D01*
X0111627Y0052724D01*
X0111660Y0052967D01*
X0111699Y0053210D01*
X0111744Y0053451D01*
X0111795Y0053691D01*
X0111852Y0053930D01*
X0111914Y0054167D01*
X0111983Y0054403D01*
X0112057Y0054637D01*
X0112137Y0054869D01*
X0112222Y0055099D01*
X0112313Y0055327D01*
X0112410Y0055552D01*
X0112512Y0055776D01*
X0112620Y0055996D01*
X0112733Y0056214D01*
X0112851Y0056429D01*
X0112975Y0056641D01*
X0113103Y0056850D01*
X0113237Y0057056D01*
X0113376Y0057258D01*
X0113520Y0057457D01*
X0113669Y0057652D01*
X0113822Y0057844D01*
X0113980Y0058032D01*
X0114142Y0058216D01*
X0114310Y0058395D01*
X0114481Y0058571D01*
X0114657Y0058742D01*
X0114836Y0058910D01*
X0115020Y0059072D01*
X0115208Y0059230D01*
X0115400Y0059383D01*
X0115595Y0059532D01*
X0115794Y0059676D01*
X0115996Y0059815D01*
X0116202Y0059949D01*
X0116411Y0060077D01*
X0116623Y0060201D01*
X0116838Y0060319D01*
X0117056Y0060432D01*
X0117276Y0060540D01*
X0117500Y0060642D01*
X0117725Y0060739D01*
X0117953Y0060830D01*
X0118183Y0060915D01*
X0118415Y0060995D01*
X0118649Y0061069D01*
X0118885Y0061138D01*
X0119122Y0061200D01*
X0119361Y0061257D01*
X0119601Y0061308D01*
X0119842Y0061353D01*
X0120085Y0061392D01*
X0120328Y0061425D01*
X0120572Y0061452D01*
X0120816Y0061473D01*
X0121061Y0061488D01*
X0121307Y0061497D01*
X0121552Y0061500D01*
X0121797Y0061497D01*
X0122043Y0061488D01*
X0122288Y0061473D01*
X0122532Y0061452D01*
X0122776Y0061425D01*
X0123019Y0061392D01*
X0123262Y0061353D01*
X0123503Y0061308D01*
X0123743Y0061257D01*
X0123982Y0061200D01*
X0124219Y0061138D01*
X0124455Y0061069D01*
X0124689Y0060995D01*
X0124921Y0060915D01*
X0125151Y0060830D01*
X0125379Y0060739D01*
X0125604Y0060642D01*
X0125828Y0060540D01*
X0126048Y0060432D01*
X0126266Y0060319D01*
X0126481Y0060201D01*
X0126693Y0060077D01*
X0126902Y0059949D01*
X0127108Y0059815D01*
X0127310Y0059676D01*
X0127509Y0059532D01*
X0127704Y0059383D01*
X0127896Y0059230D01*
X0128084Y0059072D01*
X0128268Y0058910D01*
X0128447Y0058742D01*
X0128623Y0058571D01*
X0128794Y0058395D01*
X0128962Y0058216D01*
X0129124Y0058032D01*
X0129282Y0057844D01*
X0129435Y0057652D01*
X0129584Y0057457D01*
X0129728Y0057258D01*
X0129867Y0057056D01*
X0130001Y0056850D01*
X0130129Y0056641D01*
X0130253Y0056429D01*
X0130371Y0056214D01*
X0130484Y0055996D01*
X0130592Y0055776D01*
X0130694Y0055552D01*
X0130791Y0055327D01*
X0130882Y0055099D01*
X0130967Y0054869D01*
X0131047Y0054637D01*
X0131121Y0054403D01*
X0131190Y0054167D01*
X0131252Y0053930D01*
X0131309Y0053691D01*
X0131360Y0053451D01*
X0131405Y0053210D01*
X0131444Y0052967D01*
X0131477Y0052724D01*
X0131504Y0052480D01*
X0131525Y0052236D01*
X0131540Y0051991D01*
X0131549Y0051745D01*
X0131552Y0051500D01*
X0131549Y0051255D01*
X0131540Y0051009D01*
X0131525Y0050764D01*
X0131504Y0050520D01*
X0131477Y0050276D01*
X0131444Y0050033D01*
X0131405Y0049790D01*
X0131360Y0049549D01*
X0131309Y0049309D01*
X0131252Y0049070D01*
X0131190Y0048833D01*
X0131121Y0048597D01*
X0131047Y0048363D01*
X0130967Y0048131D01*
X0130882Y0047901D01*
X0130791Y0047673D01*
X0130694Y0047448D01*
X0130592Y0047224D01*
X0130484Y0047004D01*
X0130371Y0046786D01*
X0130253Y0046571D01*
X0130129Y0046359D01*
X0130001Y0046150D01*
X0129867Y0045944D01*
X0129728Y0045742D01*
X0129584Y0045543D01*
X0129435Y0045348D01*
X0129282Y0045156D01*
X0129124Y0044968D01*
X0128962Y0044784D01*
X0128794Y0044605D01*
X0128623Y0044429D01*
X0128447Y0044258D01*
X0128268Y0044090D01*
X0128084Y0043928D01*
X0127896Y0043770D01*
X0127704Y0043617D01*
X0127509Y0043468D01*
X0127310Y0043324D01*
X0127108Y0043185D01*
X0126902Y0043051D01*
X0126693Y0042923D01*
X0126481Y0042799D01*
X0126266Y0042681D01*
X0126048Y0042568D01*
X0125828Y0042460D01*
X0125604Y0042358D01*
X0125379Y0042261D01*
X0125151Y0042170D01*
X0124921Y0042085D01*
X0124689Y0042005D01*
X0124455Y0041931D01*
X0124219Y0041862D01*
X0123982Y0041800D01*
X0123743Y0041743D01*
X0123503Y0041692D01*
X0123262Y0041647D01*
X0123019Y0041608D01*
X0122776Y0041575D01*
X0122532Y0041548D01*
X0122288Y0041527D01*
X0122043Y0041512D01*
X0121797Y0041503D01*
X0121552Y0041500D01*
X0121307Y0041503D01*
X0121061Y0041512D01*
X0120816Y0041527D01*
X0120572Y0041548D01*
X0120328Y0041575D01*
X0120085Y0041608D01*
X0119842Y0041647D01*
X0119601Y0041692D01*
X0119361Y0041743D01*
X0119122Y0041800D01*
X0118885Y0041862D01*
X0118649Y0041931D01*
X0118415Y0042005D01*
X0118183Y0042085D01*
X0117953Y0042170D01*
X0117725Y0042261D01*
X0117500Y0042358D01*
X0117276Y0042460D01*
X0117056Y0042568D01*
X0116838Y0042681D01*
X0116623Y0042799D01*
X0116411Y0042923D01*
X0116202Y0043051D01*
X0115996Y0043185D01*
X0115794Y0043324D01*
X0115595Y0043468D01*
X0115400Y0043617D01*
X0115208Y0043770D01*
X0115020Y0043928D01*
X0114836Y0044090D01*
X0114657Y0044258D01*
X0114481Y0044429D01*
X0114310Y0044605D01*
X0114142Y0044784D01*
X0113980Y0044968D01*
X0113822Y0045156D01*
X0113669Y0045348D01*
X0113520Y0045543D01*
X0113376Y0045742D01*
X0113237Y0045944D01*
X0113103Y0046150D01*
X0112975Y0046359D01*
X0112851Y0046571D01*
X0112733Y0046786D01*
X0112620Y0047004D01*
X0112512Y0047224D01*
X0112410Y0047448D01*
X0112313Y0047673D01*
X0112222Y0047901D01*
X0112137Y0048131D01*
X0112057Y0048363D01*
X0111983Y0048597D01*
X0111914Y0048833D01*
X0111852Y0049070D01*
X0111795Y0049309D01*
X0111744Y0049549D01*
X0111699Y0049790D01*
X0111660Y0050033D01*
X0111627Y0050276D01*
X0111600Y0050520D01*
X0111579Y0050764D01*
X0111564Y0051009D01*
X0111555Y0051255D01*
X0111552Y0051500D01*
X0071552Y0021500D02*
X0071555Y0021745D01*
X0071564Y0021991D01*
X0071579Y0022236D01*
X0071600Y0022480D01*
X0071627Y0022724D01*
X0071660Y0022967D01*
X0071699Y0023210D01*
X0071744Y0023451D01*
X0071795Y0023691D01*
X0071852Y0023930D01*
X0071914Y0024167D01*
X0071983Y0024403D01*
X0072057Y0024637D01*
X0072137Y0024869D01*
X0072222Y0025099D01*
X0072313Y0025327D01*
X0072410Y0025552D01*
X0072512Y0025776D01*
X0072620Y0025996D01*
X0072733Y0026214D01*
X0072851Y0026429D01*
X0072975Y0026641D01*
X0073103Y0026850D01*
X0073237Y0027056D01*
X0073376Y0027258D01*
X0073520Y0027457D01*
X0073669Y0027652D01*
X0073822Y0027844D01*
X0073980Y0028032D01*
X0074142Y0028216D01*
X0074310Y0028395D01*
X0074481Y0028571D01*
X0074657Y0028742D01*
X0074836Y0028910D01*
X0075020Y0029072D01*
X0075208Y0029230D01*
X0075400Y0029383D01*
X0075595Y0029532D01*
X0075794Y0029676D01*
X0075996Y0029815D01*
X0076202Y0029949D01*
X0076411Y0030077D01*
X0076623Y0030201D01*
X0076838Y0030319D01*
X0077056Y0030432D01*
X0077276Y0030540D01*
X0077500Y0030642D01*
X0077725Y0030739D01*
X0077953Y0030830D01*
X0078183Y0030915D01*
X0078415Y0030995D01*
X0078649Y0031069D01*
X0078885Y0031138D01*
X0079122Y0031200D01*
X0079361Y0031257D01*
X0079601Y0031308D01*
X0079842Y0031353D01*
X0080085Y0031392D01*
X0080328Y0031425D01*
X0080572Y0031452D01*
X0080816Y0031473D01*
X0081061Y0031488D01*
X0081307Y0031497D01*
X0081552Y0031500D01*
X0081797Y0031497D01*
X0082043Y0031488D01*
X0082288Y0031473D01*
X0082532Y0031452D01*
X0082776Y0031425D01*
X0083019Y0031392D01*
X0083262Y0031353D01*
X0083503Y0031308D01*
X0083743Y0031257D01*
X0083982Y0031200D01*
X0084219Y0031138D01*
X0084455Y0031069D01*
X0084689Y0030995D01*
X0084921Y0030915D01*
X0085151Y0030830D01*
X0085379Y0030739D01*
X0085604Y0030642D01*
X0085828Y0030540D01*
X0086048Y0030432D01*
X0086266Y0030319D01*
X0086481Y0030201D01*
X0086693Y0030077D01*
X0086902Y0029949D01*
X0087108Y0029815D01*
X0087310Y0029676D01*
X0087509Y0029532D01*
X0087704Y0029383D01*
X0087896Y0029230D01*
X0088084Y0029072D01*
X0088268Y0028910D01*
X0088447Y0028742D01*
X0088623Y0028571D01*
X0088794Y0028395D01*
X0088962Y0028216D01*
X0089124Y0028032D01*
X0089282Y0027844D01*
X0089435Y0027652D01*
X0089584Y0027457D01*
X0089728Y0027258D01*
X0089867Y0027056D01*
X0090001Y0026850D01*
X0090129Y0026641D01*
X0090253Y0026429D01*
X0090371Y0026214D01*
X0090484Y0025996D01*
X0090592Y0025776D01*
X0090694Y0025552D01*
X0090791Y0025327D01*
X0090882Y0025099D01*
X0090967Y0024869D01*
X0091047Y0024637D01*
X0091121Y0024403D01*
X0091190Y0024167D01*
X0091252Y0023930D01*
X0091309Y0023691D01*
X0091360Y0023451D01*
X0091405Y0023210D01*
X0091444Y0022967D01*
X0091477Y0022724D01*
X0091504Y0022480D01*
X0091525Y0022236D01*
X0091540Y0021991D01*
X0091549Y0021745D01*
X0091552Y0021500D01*
X0091549Y0021255D01*
X0091540Y0021009D01*
X0091525Y0020764D01*
X0091504Y0020520D01*
X0091477Y0020276D01*
X0091444Y0020033D01*
X0091405Y0019790D01*
X0091360Y0019549D01*
X0091309Y0019309D01*
X0091252Y0019070D01*
X0091190Y0018833D01*
X0091121Y0018597D01*
X0091047Y0018363D01*
X0090967Y0018131D01*
X0090882Y0017901D01*
X0090791Y0017673D01*
X0090694Y0017448D01*
X0090592Y0017224D01*
X0090484Y0017004D01*
X0090371Y0016786D01*
X0090253Y0016571D01*
X0090129Y0016359D01*
X0090001Y0016150D01*
X0089867Y0015944D01*
X0089728Y0015742D01*
X0089584Y0015543D01*
X0089435Y0015348D01*
X0089282Y0015156D01*
X0089124Y0014968D01*
X0088962Y0014784D01*
X0088794Y0014605D01*
X0088623Y0014429D01*
X0088447Y0014258D01*
X0088268Y0014090D01*
X0088084Y0013928D01*
X0087896Y0013770D01*
X0087704Y0013617D01*
X0087509Y0013468D01*
X0087310Y0013324D01*
X0087108Y0013185D01*
X0086902Y0013051D01*
X0086693Y0012923D01*
X0086481Y0012799D01*
X0086266Y0012681D01*
X0086048Y0012568D01*
X0085828Y0012460D01*
X0085604Y0012358D01*
X0085379Y0012261D01*
X0085151Y0012170D01*
X0084921Y0012085D01*
X0084689Y0012005D01*
X0084455Y0011931D01*
X0084219Y0011862D01*
X0083982Y0011800D01*
X0083743Y0011743D01*
X0083503Y0011692D01*
X0083262Y0011647D01*
X0083019Y0011608D01*
X0082776Y0011575D01*
X0082532Y0011548D01*
X0082288Y0011527D01*
X0082043Y0011512D01*
X0081797Y0011503D01*
X0081552Y0011500D01*
X0081307Y0011503D01*
X0081061Y0011512D01*
X0080816Y0011527D01*
X0080572Y0011548D01*
X0080328Y0011575D01*
X0080085Y0011608D01*
X0079842Y0011647D01*
X0079601Y0011692D01*
X0079361Y0011743D01*
X0079122Y0011800D01*
X0078885Y0011862D01*
X0078649Y0011931D01*
X0078415Y0012005D01*
X0078183Y0012085D01*
X0077953Y0012170D01*
X0077725Y0012261D01*
X0077500Y0012358D01*
X0077276Y0012460D01*
X0077056Y0012568D01*
X0076838Y0012681D01*
X0076623Y0012799D01*
X0076411Y0012923D01*
X0076202Y0013051D01*
X0075996Y0013185D01*
X0075794Y0013324D01*
X0075595Y0013468D01*
X0075400Y0013617D01*
X0075208Y0013770D01*
X0075020Y0013928D01*
X0074836Y0014090D01*
X0074657Y0014258D01*
X0074481Y0014429D01*
X0074310Y0014605D01*
X0074142Y0014784D01*
X0073980Y0014968D01*
X0073822Y0015156D01*
X0073669Y0015348D01*
X0073520Y0015543D01*
X0073376Y0015742D01*
X0073237Y0015944D01*
X0073103Y0016150D01*
X0072975Y0016359D01*
X0072851Y0016571D01*
X0072733Y0016786D01*
X0072620Y0017004D01*
X0072512Y0017224D01*
X0072410Y0017448D01*
X0072313Y0017673D01*
X0072222Y0017901D01*
X0072137Y0018131D01*
X0072057Y0018363D01*
X0071983Y0018597D01*
X0071914Y0018833D01*
X0071852Y0019070D01*
X0071795Y0019309D01*
X0071744Y0019549D01*
X0071699Y0019790D01*
X0071660Y0020033D01*
X0071627Y0020276D01*
X0071600Y0020520D01*
X0071579Y0020764D01*
X0071564Y0021009D01*
X0071555Y0021255D01*
X0071552Y0021500D01*
X0041552Y0021500D02*
X0041555Y0021745D01*
X0041564Y0021991D01*
X0041579Y0022236D01*
X0041600Y0022480D01*
X0041627Y0022724D01*
X0041660Y0022967D01*
X0041699Y0023210D01*
X0041744Y0023451D01*
X0041795Y0023691D01*
X0041852Y0023930D01*
X0041914Y0024167D01*
X0041983Y0024403D01*
X0042057Y0024637D01*
X0042137Y0024869D01*
X0042222Y0025099D01*
X0042313Y0025327D01*
X0042410Y0025552D01*
X0042512Y0025776D01*
X0042620Y0025996D01*
X0042733Y0026214D01*
X0042851Y0026429D01*
X0042975Y0026641D01*
X0043103Y0026850D01*
X0043237Y0027056D01*
X0043376Y0027258D01*
X0043520Y0027457D01*
X0043669Y0027652D01*
X0043822Y0027844D01*
X0043980Y0028032D01*
X0044142Y0028216D01*
X0044310Y0028395D01*
X0044481Y0028571D01*
X0044657Y0028742D01*
X0044836Y0028910D01*
X0045020Y0029072D01*
X0045208Y0029230D01*
X0045400Y0029383D01*
X0045595Y0029532D01*
X0045794Y0029676D01*
X0045996Y0029815D01*
X0046202Y0029949D01*
X0046411Y0030077D01*
X0046623Y0030201D01*
X0046838Y0030319D01*
X0047056Y0030432D01*
X0047276Y0030540D01*
X0047500Y0030642D01*
X0047725Y0030739D01*
X0047953Y0030830D01*
X0048183Y0030915D01*
X0048415Y0030995D01*
X0048649Y0031069D01*
X0048885Y0031138D01*
X0049122Y0031200D01*
X0049361Y0031257D01*
X0049601Y0031308D01*
X0049842Y0031353D01*
X0050085Y0031392D01*
X0050328Y0031425D01*
X0050572Y0031452D01*
X0050816Y0031473D01*
X0051061Y0031488D01*
X0051307Y0031497D01*
X0051552Y0031500D01*
X0051797Y0031497D01*
X0052043Y0031488D01*
X0052288Y0031473D01*
X0052532Y0031452D01*
X0052776Y0031425D01*
X0053019Y0031392D01*
X0053262Y0031353D01*
X0053503Y0031308D01*
X0053743Y0031257D01*
X0053982Y0031200D01*
X0054219Y0031138D01*
X0054455Y0031069D01*
X0054689Y0030995D01*
X0054921Y0030915D01*
X0055151Y0030830D01*
X0055379Y0030739D01*
X0055604Y0030642D01*
X0055828Y0030540D01*
X0056048Y0030432D01*
X0056266Y0030319D01*
X0056481Y0030201D01*
X0056693Y0030077D01*
X0056902Y0029949D01*
X0057108Y0029815D01*
X0057310Y0029676D01*
X0057509Y0029532D01*
X0057704Y0029383D01*
X0057896Y0029230D01*
X0058084Y0029072D01*
X0058268Y0028910D01*
X0058447Y0028742D01*
X0058623Y0028571D01*
X0058794Y0028395D01*
X0058962Y0028216D01*
X0059124Y0028032D01*
X0059282Y0027844D01*
X0059435Y0027652D01*
X0059584Y0027457D01*
X0059728Y0027258D01*
X0059867Y0027056D01*
X0060001Y0026850D01*
X0060129Y0026641D01*
X0060253Y0026429D01*
X0060371Y0026214D01*
X0060484Y0025996D01*
X0060592Y0025776D01*
X0060694Y0025552D01*
X0060791Y0025327D01*
X0060882Y0025099D01*
X0060967Y0024869D01*
X0061047Y0024637D01*
X0061121Y0024403D01*
X0061190Y0024167D01*
X0061252Y0023930D01*
X0061309Y0023691D01*
X0061360Y0023451D01*
X0061405Y0023210D01*
X0061444Y0022967D01*
X0061477Y0022724D01*
X0061504Y0022480D01*
X0061525Y0022236D01*
X0061540Y0021991D01*
X0061549Y0021745D01*
X0061552Y0021500D01*
X0061549Y0021255D01*
X0061540Y0021009D01*
X0061525Y0020764D01*
X0061504Y0020520D01*
X0061477Y0020276D01*
X0061444Y0020033D01*
X0061405Y0019790D01*
X0061360Y0019549D01*
X0061309Y0019309D01*
X0061252Y0019070D01*
X0061190Y0018833D01*
X0061121Y0018597D01*
X0061047Y0018363D01*
X0060967Y0018131D01*
X0060882Y0017901D01*
X0060791Y0017673D01*
X0060694Y0017448D01*
X0060592Y0017224D01*
X0060484Y0017004D01*
X0060371Y0016786D01*
X0060253Y0016571D01*
X0060129Y0016359D01*
X0060001Y0016150D01*
X0059867Y0015944D01*
X0059728Y0015742D01*
X0059584Y0015543D01*
X0059435Y0015348D01*
X0059282Y0015156D01*
X0059124Y0014968D01*
X0058962Y0014784D01*
X0058794Y0014605D01*
X0058623Y0014429D01*
X0058447Y0014258D01*
X0058268Y0014090D01*
X0058084Y0013928D01*
X0057896Y0013770D01*
X0057704Y0013617D01*
X0057509Y0013468D01*
X0057310Y0013324D01*
X0057108Y0013185D01*
X0056902Y0013051D01*
X0056693Y0012923D01*
X0056481Y0012799D01*
X0056266Y0012681D01*
X0056048Y0012568D01*
X0055828Y0012460D01*
X0055604Y0012358D01*
X0055379Y0012261D01*
X0055151Y0012170D01*
X0054921Y0012085D01*
X0054689Y0012005D01*
X0054455Y0011931D01*
X0054219Y0011862D01*
X0053982Y0011800D01*
X0053743Y0011743D01*
X0053503Y0011692D01*
X0053262Y0011647D01*
X0053019Y0011608D01*
X0052776Y0011575D01*
X0052532Y0011548D01*
X0052288Y0011527D01*
X0052043Y0011512D01*
X0051797Y0011503D01*
X0051552Y0011500D01*
X0051307Y0011503D01*
X0051061Y0011512D01*
X0050816Y0011527D01*
X0050572Y0011548D01*
X0050328Y0011575D01*
X0050085Y0011608D01*
X0049842Y0011647D01*
X0049601Y0011692D01*
X0049361Y0011743D01*
X0049122Y0011800D01*
X0048885Y0011862D01*
X0048649Y0011931D01*
X0048415Y0012005D01*
X0048183Y0012085D01*
X0047953Y0012170D01*
X0047725Y0012261D01*
X0047500Y0012358D01*
X0047276Y0012460D01*
X0047056Y0012568D01*
X0046838Y0012681D01*
X0046623Y0012799D01*
X0046411Y0012923D01*
X0046202Y0013051D01*
X0045996Y0013185D01*
X0045794Y0013324D01*
X0045595Y0013468D01*
X0045400Y0013617D01*
X0045208Y0013770D01*
X0045020Y0013928D01*
X0044836Y0014090D01*
X0044657Y0014258D01*
X0044481Y0014429D01*
X0044310Y0014605D01*
X0044142Y0014784D01*
X0043980Y0014968D01*
X0043822Y0015156D01*
X0043669Y0015348D01*
X0043520Y0015543D01*
X0043376Y0015742D01*
X0043237Y0015944D01*
X0043103Y0016150D01*
X0042975Y0016359D01*
X0042851Y0016571D01*
X0042733Y0016786D01*
X0042620Y0017004D01*
X0042512Y0017224D01*
X0042410Y0017448D01*
X0042313Y0017673D01*
X0042222Y0017901D01*
X0042137Y0018131D01*
X0042057Y0018363D01*
X0041983Y0018597D01*
X0041914Y0018833D01*
X0041852Y0019070D01*
X0041795Y0019309D01*
X0041744Y0019549D01*
X0041699Y0019790D01*
X0041660Y0020033D01*
X0041627Y0020276D01*
X0041600Y0020520D01*
X0041579Y0020764D01*
X0041564Y0021009D01*
X0041555Y0021255D01*
X0041552Y0021500D01*
X0011552Y0021500D02*
X0011555Y0021745D01*
X0011564Y0021991D01*
X0011579Y0022236D01*
X0011600Y0022480D01*
X0011627Y0022724D01*
X0011660Y0022967D01*
X0011699Y0023210D01*
X0011744Y0023451D01*
X0011795Y0023691D01*
X0011852Y0023930D01*
X0011914Y0024167D01*
X0011983Y0024403D01*
X0012057Y0024637D01*
X0012137Y0024869D01*
X0012222Y0025099D01*
X0012313Y0025327D01*
X0012410Y0025552D01*
X0012512Y0025776D01*
X0012620Y0025996D01*
X0012733Y0026214D01*
X0012851Y0026429D01*
X0012975Y0026641D01*
X0013103Y0026850D01*
X0013237Y0027056D01*
X0013376Y0027258D01*
X0013520Y0027457D01*
X0013669Y0027652D01*
X0013822Y0027844D01*
X0013980Y0028032D01*
X0014142Y0028216D01*
X0014310Y0028395D01*
X0014481Y0028571D01*
X0014657Y0028742D01*
X0014836Y0028910D01*
X0015020Y0029072D01*
X0015208Y0029230D01*
X0015400Y0029383D01*
X0015595Y0029532D01*
X0015794Y0029676D01*
X0015996Y0029815D01*
X0016202Y0029949D01*
X0016411Y0030077D01*
X0016623Y0030201D01*
X0016838Y0030319D01*
X0017056Y0030432D01*
X0017276Y0030540D01*
X0017500Y0030642D01*
X0017725Y0030739D01*
X0017953Y0030830D01*
X0018183Y0030915D01*
X0018415Y0030995D01*
X0018649Y0031069D01*
X0018885Y0031138D01*
X0019122Y0031200D01*
X0019361Y0031257D01*
X0019601Y0031308D01*
X0019842Y0031353D01*
X0020085Y0031392D01*
X0020328Y0031425D01*
X0020572Y0031452D01*
X0020816Y0031473D01*
X0021061Y0031488D01*
X0021307Y0031497D01*
X0021552Y0031500D01*
X0021797Y0031497D01*
X0022043Y0031488D01*
X0022288Y0031473D01*
X0022532Y0031452D01*
X0022776Y0031425D01*
X0023019Y0031392D01*
X0023262Y0031353D01*
X0023503Y0031308D01*
X0023743Y0031257D01*
X0023982Y0031200D01*
X0024219Y0031138D01*
X0024455Y0031069D01*
X0024689Y0030995D01*
X0024921Y0030915D01*
X0025151Y0030830D01*
X0025379Y0030739D01*
X0025604Y0030642D01*
X0025828Y0030540D01*
X0026048Y0030432D01*
X0026266Y0030319D01*
X0026481Y0030201D01*
X0026693Y0030077D01*
X0026902Y0029949D01*
X0027108Y0029815D01*
X0027310Y0029676D01*
X0027509Y0029532D01*
X0027704Y0029383D01*
X0027896Y0029230D01*
X0028084Y0029072D01*
X0028268Y0028910D01*
X0028447Y0028742D01*
X0028623Y0028571D01*
X0028794Y0028395D01*
X0028962Y0028216D01*
X0029124Y0028032D01*
X0029282Y0027844D01*
X0029435Y0027652D01*
X0029584Y0027457D01*
X0029728Y0027258D01*
X0029867Y0027056D01*
X0030001Y0026850D01*
X0030129Y0026641D01*
X0030253Y0026429D01*
X0030371Y0026214D01*
X0030484Y0025996D01*
X0030592Y0025776D01*
X0030694Y0025552D01*
X0030791Y0025327D01*
X0030882Y0025099D01*
X0030967Y0024869D01*
X0031047Y0024637D01*
X0031121Y0024403D01*
X0031190Y0024167D01*
X0031252Y0023930D01*
X0031309Y0023691D01*
X0031360Y0023451D01*
X0031405Y0023210D01*
X0031444Y0022967D01*
X0031477Y0022724D01*
X0031504Y0022480D01*
X0031525Y0022236D01*
X0031540Y0021991D01*
X0031549Y0021745D01*
X0031552Y0021500D01*
X0031549Y0021255D01*
X0031540Y0021009D01*
X0031525Y0020764D01*
X0031504Y0020520D01*
X0031477Y0020276D01*
X0031444Y0020033D01*
X0031405Y0019790D01*
X0031360Y0019549D01*
X0031309Y0019309D01*
X0031252Y0019070D01*
X0031190Y0018833D01*
X0031121Y0018597D01*
X0031047Y0018363D01*
X0030967Y0018131D01*
X0030882Y0017901D01*
X0030791Y0017673D01*
X0030694Y0017448D01*
X0030592Y0017224D01*
X0030484Y0017004D01*
X0030371Y0016786D01*
X0030253Y0016571D01*
X0030129Y0016359D01*
X0030001Y0016150D01*
X0029867Y0015944D01*
X0029728Y0015742D01*
X0029584Y0015543D01*
X0029435Y0015348D01*
X0029282Y0015156D01*
X0029124Y0014968D01*
X0028962Y0014784D01*
X0028794Y0014605D01*
X0028623Y0014429D01*
X0028447Y0014258D01*
X0028268Y0014090D01*
X0028084Y0013928D01*
X0027896Y0013770D01*
X0027704Y0013617D01*
X0027509Y0013468D01*
X0027310Y0013324D01*
X0027108Y0013185D01*
X0026902Y0013051D01*
X0026693Y0012923D01*
X0026481Y0012799D01*
X0026266Y0012681D01*
X0026048Y0012568D01*
X0025828Y0012460D01*
X0025604Y0012358D01*
X0025379Y0012261D01*
X0025151Y0012170D01*
X0024921Y0012085D01*
X0024689Y0012005D01*
X0024455Y0011931D01*
X0024219Y0011862D01*
X0023982Y0011800D01*
X0023743Y0011743D01*
X0023503Y0011692D01*
X0023262Y0011647D01*
X0023019Y0011608D01*
X0022776Y0011575D01*
X0022532Y0011548D01*
X0022288Y0011527D01*
X0022043Y0011512D01*
X0021797Y0011503D01*
X0021552Y0011500D01*
X0021307Y0011503D01*
X0021061Y0011512D01*
X0020816Y0011527D01*
X0020572Y0011548D01*
X0020328Y0011575D01*
X0020085Y0011608D01*
X0019842Y0011647D01*
X0019601Y0011692D01*
X0019361Y0011743D01*
X0019122Y0011800D01*
X0018885Y0011862D01*
X0018649Y0011931D01*
X0018415Y0012005D01*
X0018183Y0012085D01*
X0017953Y0012170D01*
X0017725Y0012261D01*
X0017500Y0012358D01*
X0017276Y0012460D01*
X0017056Y0012568D01*
X0016838Y0012681D01*
X0016623Y0012799D01*
X0016411Y0012923D01*
X0016202Y0013051D01*
X0015996Y0013185D01*
X0015794Y0013324D01*
X0015595Y0013468D01*
X0015400Y0013617D01*
X0015208Y0013770D01*
X0015020Y0013928D01*
X0014836Y0014090D01*
X0014657Y0014258D01*
X0014481Y0014429D01*
X0014310Y0014605D01*
X0014142Y0014784D01*
X0013980Y0014968D01*
X0013822Y0015156D01*
X0013669Y0015348D01*
X0013520Y0015543D01*
X0013376Y0015742D01*
X0013237Y0015944D01*
X0013103Y0016150D01*
X0012975Y0016359D01*
X0012851Y0016571D01*
X0012733Y0016786D01*
X0012620Y0017004D01*
X0012512Y0017224D01*
X0012410Y0017448D01*
X0012313Y0017673D01*
X0012222Y0017901D01*
X0012137Y0018131D01*
X0012057Y0018363D01*
X0011983Y0018597D01*
X0011914Y0018833D01*
X0011852Y0019070D01*
X0011795Y0019309D01*
X0011744Y0019549D01*
X0011699Y0019790D01*
X0011660Y0020033D01*
X0011627Y0020276D01*
X0011600Y0020520D01*
X0011579Y0020764D01*
X0011564Y0021009D01*
X0011555Y0021255D01*
X0011552Y0021500D01*
X0005252Y0045300D02*
X0002650Y0045300D01*
X0002650Y0046601D01*
X0003083Y0047035D01*
X0003951Y0047035D01*
X0004385Y0046601D01*
X0004385Y0045300D01*
X0004385Y0046167D02*
X0005252Y0047035D01*
X0005252Y0048247D02*
X0005252Y0049981D01*
X0005252Y0049114D02*
X0002650Y0049114D01*
X0003517Y0048247D01*
D14*
X0034302Y0028354D02*
X0034302Y0023850D01*
X0037305Y0023850D01*
X0038906Y0023850D02*
X0041908Y0023850D01*
X0043510Y0023850D02*
X0045762Y0023850D01*
X0046512Y0024601D01*
X0046512Y0027603D01*
X0045762Y0028354D01*
X0043510Y0028354D01*
X0043510Y0023850D01*
X0040407Y0026102D02*
X0038906Y0026102D01*
X0038906Y0028354D02*
X0038906Y0023850D01*
X0038906Y0028354D02*
X0041908Y0028354D01*
X0048114Y0026853D02*
X0049615Y0028354D01*
X0049615Y0023850D01*
X0048114Y0023850D02*
X0051116Y0023850D01*
X0064302Y0023850D02*
X0067305Y0023850D01*
X0068906Y0023850D02*
X0071908Y0023850D01*
X0073510Y0023850D02*
X0075762Y0023850D01*
X0076512Y0024601D01*
X0076512Y0027603D01*
X0075762Y0028354D01*
X0073510Y0028354D01*
X0073510Y0023850D01*
X0070407Y0026102D02*
X0068906Y0026102D01*
X0068906Y0028354D02*
X0068906Y0023850D01*
X0064302Y0023850D02*
X0064302Y0028354D01*
X0068906Y0028354D02*
X0071908Y0028354D01*
X0078114Y0027603D02*
X0078864Y0028354D01*
X0080366Y0028354D01*
X0081116Y0027603D01*
X0081116Y0026853D01*
X0078114Y0023850D01*
X0081116Y0023850D01*
X0094302Y0023850D02*
X0097305Y0023850D01*
X0098906Y0023850D02*
X0101908Y0023850D01*
X0103510Y0023850D02*
X0105762Y0023850D01*
X0106512Y0024601D01*
X0106512Y0027603D01*
X0105762Y0028354D01*
X0103510Y0028354D01*
X0103510Y0023850D01*
X0100407Y0026102D02*
X0098906Y0026102D01*
X0098906Y0028354D02*
X0098906Y0023850D01*
X0094302Y0023850D02*
X0094302Y0028354D01*
X0098906Y0028354D02*
X0101908Y0028354D01*
X0108114Y0027603D02*
X0108864Y0028354D01*
X0110366Y0028354D01*
X0111116Y0027603D01*
X0111116Y0026853D01*
X0110366Y0026102D01*
X0111116Y0025351D01*
X0111116Y0024601D01*
X0110366Y0023850D01*
X0108864Y0023850D01*
X0108114Y0024601D01*
X0109615Y0026102D02*
X0110366Y0026102D01*
X0134302Y0053850D02*
X0137305Y0053850D01*
X0138906Y0053850D02*
X0141908Y0053850D01*
X0143510Y0053850D02*
X0145762Y0053850D01*
X0146512Y0054601D01*
X0146512Y0057603D01*
X0145762Y0058354D01*
X0143510Y0058354D01*
X0143510Y0053850D01*
X0140407Y0056102D02*
X0138906Y0056102D01*
X0138906Y0058354D02*
X0138906Y0053850D01*
X0134302Y0053850D02*
X0134302Y0058354D01*
X0138906Y0058354D02*
X0141908Y0058354D01*
X0148114Y0056102D02*
X0151116Y0056102D01*
X0150366Y0058354D02*
X0148114Y0056102D01*
X0150366Y0053850D02*
X0150366Y0058354D01*
D15*
X0024482Y0063669D02*
X0020879Y0066071D01*
X0022080Y0067352D02*
X0020879Y0068553D01*
X0024482Y0068553D01*
X0024482Y0067352D02*
X0024482Y0069754D01*
X0024482Y0066071D02*
X0020879Y0063669D01*
M02*
