G75*
%MOIN*%
%OFA0B0*%
%FSLAX25Y25*%
%IPPOS*%
%LPD*%
%AMOC8*
5,1,8,0,0,1.08239X$1,22.5*
%
%ADD10OC8,0.05200*%
%ADD11R,0.06299X0.05118*%
%ADD12R,0.05118X0.06299*%
%ADD13C,0.06000*%
%ADD14C,0.01000*%
D10*
X0016552Y0021500D03*
X0026552Y0021500D03*
X0046552Y0021500D03*
X0056552Y0021500D03*
X0076552Y0021500D03*
X0086552Y0021500D03*
X0116552Y0051500D03*
X0126552Y0051500D03*
D11*
X0011552Y0048000D03*
X0011552Y0060000D03*
D12*
X0080552Y0061500D03*
X0092552Y0061500D03*
D13*
X0056552Y0071500D03*
X0046552Y0071500D03*
X0036552Y0071500D03*
D14*
X0006052Y0081961D02*
X0006052Y0006000D01*
X0135753Y0006000D01*
X0135753Y0081961D01*
X0006052Y0081961D01*
X0006052Y0081381D02*
X0135753Y0081381D01*
X0135753Y0080382D02*
X0006052Y0080382D01*
X0006052Y0079384D02*
X0135753Y0079384D01*
X0135753Y0078385D02*
X0006052Y0078385D01*
X0006052Y0077387D02*
X0135753Y0077387D01*
X0135753Y0076388D02*
X0006052Y0076388D01*
X0006052Y0075390D02*
X0034706Y0075390D01*
X0034116Y0075145D02*
X0035697Y0075800D01*
X0037407Y0075800D01*
X0038988Y0075145D01*
X0040197Y0073936D01*
X0040852Y0072355D01*
X0040852Y0070645D01*
X0040197Y0069064D01*
X0038988Y0067855D01*
X0037407Y0067200D01*
X0035697Y0067200D01*
X0034116Y0067855D01*
X0032907Y0069064D01*
X0032643Y0069700D01*
X0017298Y0069700D01*
X0013352Y0065754D01*
X0013352Y0063859D01*
X0015240Y0063859D01*
X0016002Y0063098D01*
X0016002Y0056902D01*
X0015240Y0056141D01*
X0007864Y0056141D01*
X0007102Y0056902D01*
X0007102Y0063098D01*
X0007864Y0063859D01*
X0009752Y0063859D01*
X0009752Y0067246D01*
X0014752Y0072246D01*
X0015806Y0073300D01*
X0032643Y0073300D01*
X0032907Y0073936D01*
X0034116Y0075145D01*
X0033362Y0074391D02*
X0006052Y0074391D01*
X0006052Y0073393D02*
X0032682Y0073393D01*
X0036552Y0071500D02*
X0016552Y0071500D01*
X0011552Y0066500D01*
X0011552Y0060000D01*
X0016002Y0060412D02*
X0055094Y0060412D01*
X0054752Y0060754D02*
X0055806Y0059700D01*
X0076693Y0059700D01*
X0076693Y0057812D01*
X0077454Y0057050D01*
X0083650Y0057050D01*
X0084411Y0057812D01*
X0084411Y0065188D01*
X0083650Y0065950D01*
X0077454Y0065950D01*
X0076693Y0065188D01*
X0076693Y0063300D01*
X0057298Y0063300D01*
X0050589Y0070009D01*
X0050852Y0070645D01*
X0050852Y0072355D01*
X0050197Y0073936D01*
X0048988Y0075145D01*
X0047407Y0075800D01*
X0045697Y0075800D01*
X0044116Y0075145D01*
X0042907Y0073936D01*
X0042252Y0072355D01*
X0042252Y0070645D01*
X0042907Y0069064D01*
X0044116Y0067855D01*
X0045697Y0067200D01*
X0047407Y0067200D01*
X0048043Y0067463D01*
X0054752Y0060754D01*
X0054096Y0061411D02*
X0016002Y0061411D01*
X0016002Y0062409D02*
X0053097Y0062409D01*
X0052099Y0063408D02*
X0015691Y0063408D01*
X0013352Y0064406D02*
X0051100Y0064406D01*
X0050102Y0065405D02*
X0013352Y0065405D01*
X0014001Y0066403D02*
X0049103Y0066403D01*
X0048105Y0067402D02*
X0047894Y0067402D01*
X0045210Y0067402D02*
X0037894Y0067402D01*
X0039533Y0068400D02*
X0043571Y0068400D01*
X0042768Y0069399D02*
X0040336Y0069399D01*
X0040750Y0070397D02*
X0042354Y0070397D01*
X0042252Y0071396D02*
X0040852Y0071396D01*
X0040836Y0072394D02*
X0042268Y0072394D01*
X0042682Y0073393D02*
X0040422Y0073393D01*
X0039742Y0074391D02*
X0043362Y0074391D01*
X0044706Y0075390D02*
X0038398Y0075390D01*
X0046552Y0071500D02*
X0056552Y0061500D01*
X0080552Y0061500D01*
X0084411Y0061411D02*
X0088693Y0061411D01*
X0088693Y0062409D02*
X0084411Y0062409D01*
X0084411Y0063408D02*
X0088693Y0063408D01*
X0088693Y0064406D02*
X0084411Y0064406D01*
X0084194Y0065405D02*
X0088910Y0065405D01*
X0088693Y0065188D02*
X0089454Y0065950D01*
X0095650Y0065950D01*
X0096411Y0065188D01*
X0096411Y0063300D01*
X0107298Y0063300D01*
X0108352Y0062246D01*
X0115198Y0055400D01*
X0118167Y0055400D01*
X0120452Y0053115D01*
X0120452Y0049885D01*
X0118167Y0047600D01*
X0114937Y0047600D01*
X0112652Y0049885D01*
X0112652Y0052854D01*
X0105806Y0059700D01*
X0096411Y0059700D01*
X0096411Y0057812D01*
X0095650Y0057050D01*
X0089454Y0057050D01*
X0088693Y0057812D01*
X0088693Y0065188D01*
X0092552Y0061500D02*
X0106552Y0061500D01*
X0116552Y0051500D01*
X0120452Y0051426D02*
X0126252Y0051426D01*
X0126252Y0051200D02*
X0126252Y0051800D01*
X0126252Y0055600D01*
X0124854Y0055600D01*
X0122452Y0053198D01*
X0122452Y0051800D01*
X0126252Y0051800D01*
X0126852Y0051800D01*
X0130652Y0051800D01*
X0130652Y0053198D01*
X0128250Y0055600D01*
X0126852Y0055600D01*
X0126852Y0051800D01*
X0126852Y0051200D01*
X0130652Y0051200D01*
X0130652Y0049802D01*
X0128250Y0047400D01*
X0126852Y0047400D01*
X0126852Y0051200D01*
X0126252Y0051200D01*
X0126252Y0047400D01*
X0124854Y0047400D01*
X0122452Y0049802D01*
X0122452Y0051200D01*
X0126252Y0051200D01*
X0126552Y0051500D02*
X0126552Y0026500D01*
X0106552Y0006500D01*
X0101552Y0006500D01*
X0086552Y0021500D01*
X0086852Y0021470D02*
X0135753Y0021470D01*
X0135753Y0022469D02*
X0090652Y0022469D01*
X0090652Y0021800D02*
X0090652Y0023198D01*
X0088250Y0025600D01*
X0086852Y0025600D01*
X0086852Y0021800D01*
X0090652Y0021800D01*
X0090652Y0021200D02*
X0086852Y0021200D01*
X0086852Y0021800D01*
X0086252Y0021800D01*
X0086252Y0025600D01*
X0084854Y0025600D01*
X0082452Y0023198D01*
X0082452Y0021800D01*
X0086252Y0021800D01*
X0086252Y0021200D01*
X0086852Y0021200D01*
X0086852Y0017400D01*
X0088250Y0017400D01*
X0090652Y0019802D01*
X0090652Y0021200D01*
X0090652Y0020472D02*
X0135753Y0020472D01*
X0135753Y0019473D02*
X0090323Y0019473D01*
X0089325Y0018475D02*
X0135753Y0018475D01*
X0135753Y0017476D02*
X0088326Y0017476D01*
X0086852Y0017476D02*
X0086252Y0017476D01*
X0086252Y0017400D02*
X0086252Y0021200D01*
X0082452Y0021200D01*
X0082452Y0019802D01*
X0084854Y0017400D01*
X0086252Y0017400D01*
X0086252Y0018475D02*
X0086852Y0018475D01*
X0086852Y0019473D02*
X0086252Y0019473D01*
X0086252Y0020472D02*
X0086852Y0020472D01*
X0086252Y0021470D02*
X0080452Y0021470D01*
X0080452Y0022469D02*
X0082452Y0022469D01*
X0082721Y0023467D02*
X0080100Y0023467D01*
X0080452Y0023115D02*
X0078167Y0025400D01*
X0075198Y0025400D01*
X0062298Y0038300D01*
X0017298Y0038300D01*
X0013352Y0042246D01*
X0013352Y0044141D01*
X0015240Y0044141D01*
X0016002Y0044902D01*
X0016002Y0051098D01*
X0015240Y0051859D01*
X0007864Y0051859D01*
X0007102Y0051098D01*
X0007102Y0044902D01*
X0007864Y0044141D01*
X0009752Y0044141D01*
X0009752Y0040754D01*
X0010806Y0039700D01*
X0010806Y0039700D01*
X0014752Y0035754D01*
X0014752Y0025215D01*
X0012652Y0023115D01*
X0012652Y0019885D01*
X0014937Y0017600D01*
X0018167Y0017600D01*
X0020452Y0019885D01*
X0020452Y0023115D01*
X0018352Y0025215D01*
X0018352Y0034700D01*
X0030806Y0034700D01*
X0042652Y0022854D01*
X0042652Y0019885D01*
X0044937Y0017600D01*
X0048167Y0017600D01*
X0050452Y0019885D01*
X0050452Y0023115D01*
X0048167Y0025400D01*
X0045198Y0025400D01*
X0035898Y0034700D01*
X0060806Y0034700D01*
X0072652Y0022854D01*
X0072652Y0019885D01*
X0074937Y0017600D01*
X0078167Y0017600D01*
X0080452Y0019885D01*
X0080452Y0023115D01*
X0079102Y0024466D02*
X0083719Y0024466D01*
X0084718Y0025464D02*
X0075133Y0025464D01*
X0074135Y0026463D02*
X0135753Y0026463D01*
X0135753Y0027461D02*
X0073136Y0027461D01*
X0072138Y0028460D02*
X0135753Y0028460D01*
X0135753Y0029458D02*
X0071139Y0029458D01*
X0070141Y0030457D02*
X0135753Y0030457D01*
X0135753Y0031455D02*
X0069142Y0031455D01*
X0068144Y0032454D02*
X0135753Y0032454D01*
X0135753Y0033452D02*
X0067145Y0033452D01*
X0066147Y0034451D02*
X0135753Y0034451D01*
X0135753Y0035449D02*
X0065148Y0035449D01*
X0064150Y0036448D02*
X0135753Y0036448D01*
X0135753Y0037446D02*
X0063151Y0037446D01*
X0061552Y0036500D02*
X0076552Y0021500D01*
X0072652Y0021470D02*
X0056852Y0021470D01*
X0056852Y0021200D02*
X0056852Y0021800D01*
X0060652Y0021800D01*
X0060652Y0023198D01*
X0058250Y0025600D01*
X0056852Y0025600D01*
X0056852Y0021800D01*
X0056252Y0021800D01*
X0056252Y0025600D01*
X0054854Y0025600D01*
X0052452Y0023198D01*
X0052452Y0021800D01*
X0056252Y0021800D01*
X0056252Y0021200D01*
X0056852Y0021200D01*
X0060652Y0021200D01*
X0060652Y0019802D01*
X0058250Y0017400D01*
X0056852Y0017400D01*
X0056852Y0021200D01*
X0056552Y0021500D02*
X0071552Y0006500D01*
X0101552Y0006500D01*
X0084778Y0017476D02*
X0058326Y0017476D01*
X0059325Y0018475D02*
X0074062Y0018475D01*
X0073063Y0019473D02*
X0060323Y0019473D01*
X0060652Y0020472D02*
X0072652Y0020472D01*
X0072652Y0022469D02*
X0060652Y0022469D01*
X0060383Y0023467D02*
X0072039Y0023467D01*
X0071041Y0024466D02*
X0059384Y0024466D01*
X0058386Y0025464D02*
X0070042Y0025464D01*
X0069044Y0026463D02*
X0044135Y0026463D01*
X0045133Y0025464D02*
X0054718Y0025464D01*
X0053719Y0024466D02*
X0049102Y0024466D01*
X0050100Y0023467D02*
X0052721Y0023467D01*
X0052452Y0022469D02*
X0050452Y0022469D01*
X0050452Y0021470D02*
X0056252Y0021470D01*
X0056252Y0021200D02*
X0052452Y0021200D01*
X0052452Y0019802D01*
X0054854Y0017400D01*
X0056252Y0017400D01*
X0056252Y0021200D01*
X0056252Y0020472D02*
X0056852Y0020472D01*
X0056852Y0019473D02*
X0056252Y0019473D01*
X0056252Y0018475D02*
X0056852Y0018475D01*
X0056852Y0017476D02*
X0056252Y0017476D01*
X0054778Y0017476D02*
X0028326Y0017476D01*
X0028250Y0017400D02*
X0030652Y0019802D01*
X0030652Y0021200D01*
X0026852Y0021200D01*
X0026852Y0021800D01*
X0030652Y0021800D01*
X0030652Y0023198D01*
X0028250Y0025600D01*
X0026852Y0025600D01*
X0026852Y0021800D01*
X0026252Y0021800D01*
X0026252Y0025600D01*
X0024854Y0025600D01*
X0022452Y0023198D01*
X0022452Y0021800D01*
X0026252Y0021800D01*
X0026252Y0021200D01*
X0026852Y0021200D01*
X0026852Y0017400D01*
X0028250Y0017400D01*
X0026852Y0017476D02*
X0026252Y0017476D01*
X0026252Y0017400D02*
X0026252Y0021200D01*
X0022452Y0021200D01*
X0022452Y0019802D01*
X0024854Y0017400D01*
X0026252Y0017400D01*
X0026252Y0018475D02*
X0026852Y0018475D01*
X0026852Y0019473D02*
X0026252Y0019473D01*
X0026252Y0020472D02*
X0026852Y0020472D01*
X0026852Y0021470D02*
X0042652Y0021470D01*
X0042652Y0022469D02*
X0030652Y0022469D01*
X0030383Y0023467D02*
X0042039Y0023467D01*
X0041041Y0024466D02*
X0029384Y0024466D01*
X0028386Y0025464D02*
X0040042Y0025464D01*
X0039044Y0026463D02*
X0018352Y0026463D01*
X0018352Y0027461D02*
X0038045Y0027461D01*
X0037047Y0028460D02*
X0018352Y0028460D01*
X0018352Y0029458D02*
X0036048Y0029458D01*
X0035050Y0030457D02*
X0018352Y0030457D01*
X0018352Y0031455D02*
X0034051Y0031455D01*
X0033053Y0032454D02*
X0018352Y0032454D01*
X0018352Y0033452D02*
X0032054Y0033452D01*
X0031056Y0034451D02*
X0018352Y0034451D01*
X0014752Y0034451D02*
X0006052Y0034451D01*
X0006052Y0033452D02*
X0014752Y0033452D01*
X0014752Y0032454D02*
X0006052Y0032454D01*
X0006052Y0031455D02*
X0014752Y0031455D01*
X0014752Y0030457D02*
X0006052Y0030457D01*
X0006052Y0029458D02*
X0014752Y0029458D01*
X0014752Y0028460D02*
X0006052Y0028460D01*
X0006052Y0027461D02*
X0014752Y0027461D01*
X0014752Y0026463D02*
X0006052Y0026463D01*
X0006052Y0025464D02*
X0014752Y0025464D01*
X0014002Y0024466D02*
X0006052Y0024466D01*
X0006052Y0023467D02*
X0013004Y0023467D01*
X0012652Y0022469D02*
X0006052Y0022469D01*
X0006052Y0021470D02*
X0012652Y0021470D01*
X0012652Y0020472D02*
X0006052Y0020472D01*
X0006052Y0019473D02*
X0013063Y0019473D01*
X0014062Y0018475D02*
X0006052Y0018475D01*
X0006052Y0017476D02*
X0024778Y0017476D01*
X0023779Y0018475D02*
X0019042Y0018475D01*
X0020041Y0019473D02*
X0022781Y0019473D01*
X0022452Y0020472D02*
X0020452Y0020472D01*
X0020452Y0021470D02*
X0026252Y0021470D01*
X0026552Y0021500D02*
X0041552Y0006500D01*
X0071552Y0006500D01*
X0079042Y0018475D02*
X0083779Y0018475D01*
X0082781Y0019473D02*
X0080041Y0019473D01*
X0080452Y0020472D02*
X0082452Y0020472D01*
X0086252Y0022469D02*
X0086852Y0022469D01*
X0086852Y0023467D02*
X0086252Y0023467D01*
X0086252Y0024466D02*
X0086852Y0024466D01*
X0086852Y0025464D02*
X0086252Y0025464D01*
X0088386Y0025464D02*
X0135753Y0025464D01*
X0135753Y0024466D02*
X0089384Y0024466D01*
X0090383Y0023467D02*
X0135753Y0023467D01*
X0135753Y0016478D02*
X0006052Y0016478D01*
X0006052Y0015479D02*
X0135753Y0015479D01*
X0135753Y0014481D02*
X0006052Y0014481D01*
X0006052Y0013482D02*
X0135753Y0013482D01*
X0135753Y0012484D02*
X0006052Y0012484D01*
X0006052Y0011485D02*
X0135753Y0011485D01*
X0135753Y0010487D02*
X0006052Y0010487D01*
X0006052Y0009488D02*
X0135753Y0009488D01*
X0135753Y0008490D02*
X0006052Y0008490D01*
X0006052Y0007491D02*
X0135753Y0007491D01*
X0135753Y0006493D02*
X0006052Y0006493D01*
X0029325Y0018475D02*
X0044062Y0018475D01*
X0043063Y0019473D02*
X0030323Y0019473D01*
X0030652Y0020472D02*
X0042652Y0020472D01*
X0046552Y0021500D02*
X0031552Y0036500D01*
X0061552Y0036500D01*
X0061056Y0034451D02*
X0036147Y0034451D01*
X0037145Y0033452D02*
X0062054Y0033452D01*
X0063053Y0032454D02*
X0038144Y0032454D01*
X0039142Y0031455D02*
X0064051Y0031455D01*
X0065050Y0030457D02*
X0040141Y0030457D01*
X0041139Y0029458D02*
X0066048Y0029458D01*
X0067047Y0028460D02*
X0042138Y0028460D01*
X0043136Y0027461D02*
X0068045Y0027461D01*
X0056852Y0025464D02*
X0056252Y0025464D01*
X0056252Y0024466D02*
X0056852Y0024466D01*
X0056852Y0023467D02*
X0056252Y0023467D01*
X0056252Y0022469D02*
X0056852Y0022469D01*
X0052452Y0020472D02*
X0050452Y0020472D01*
X0050041Y0019473D02*
X0052781Y0019473D01*
X0053779Y0018475D02*
X0049042Y0018475D01*
X0026852Y0022469D02*
X0026252Y0022469D01*
X0026252Y0023467D02*
X0026852Y0023467D01*
X0026852Y0024466D02*
X0026252Y0024466D01*
X0026252Y0025464D02*
X0026852Y0025464D01*
X0024718Y0025464D02*
X0018352Y0025464D01*
X0019102Y0024466D02*
X0023719Y0024466D01*
X0022721Y0023467D02*
X0020100Y0023467D01*
X0020452Y0022469D02*
X0022452Y0022469D01*
X0016552Y0021500D02*
X0016552Y0036500D01*
X0031552Y0036500D01*
X0017153Y0038445D02*
X0135753Y0038445D01*
X0135753Y0039443D02*
X0016154Y0039443D01*
X0015156Y0040442D02*
X0135753Y0040442D01*
X0135753Y0041440D02*
X0014157Y0041440D01*
X0013352Y0042439D02*
X0135753Y0042439D01*
X0135753Y0043437D02*
X0013352Y0043437D01*
X0015535Y0044436D02*
X0135753Y0044436D01*
X0135753Y0045434D02*
X0016002Y0045434D01*
X0016002Y0046433D02*
X0135753Y0046433D01*
X0135753Y0047432D02*
X0128282Y0047432D01*
X0129280Y0048430D02*
X0135753Y0048430D01*
X0135753Y0049429D02*
X0130279Y0049429D01*
X0130652Y0050427D02*
X0135753Y0050427D01*
X0135753Y0051426D02*
X0126852Y0051426D01*
X0126552Y0051500D02*
X0106552Y0071500D01*
X0056552Y0071500D01*
X0057052Y0071396D02*
X0135753Y0071396D01*
X0135753Y0072394D02*
X0060966Y0072394D01*
X0060941Y0072554D02*
X0060722Y0073227D01*
X0060401Y0073859D01*
X0059984Y0074432D01*
X0059484Y0074932D01*
X0058910Y0075349D01*
X0058279Y0075670D01*
X0057606Y0075889D01*
X0057052Y0075977D01*
X0057052Y0072000D01*
X0061029Y0072000D01*
X0060941Y0072554D01*
X0060638Y0073393D02*
X0135753Y0073393D01*
X0135753Y0074391D02*
X0060014Y0074391D01*
X0058830Y0075390D02*
X0135753Y0075390D01*
X0135753Y0070397D02*
X0060925Y0070397D01*
X0060941Y0070446D02*
X0061029Y0071000D01*
X0057052Y0071000D01*
X0057052Y0072000D01*
X0056052Y0072000D01*
X0056052Y0075977D01*
X0055498Y0075889D01*
X0054825Y0075670D01*
X0054193Y0075349D01*
X0053620Y0074932D01*
X0053120Y0074432D01*
X0052703Y0073859D01*
X0052382Y0073227D01*
X0052163Y0072554D01*
X0052075Y0072000D01*
X0056052Y0072000D01*
X0056052Y0071000D01*
X0057052Y0071000D01*
X0057052Y0067023D01*
X0057606Y0067111D01*
X0058279Y0067330D01*
X0058910Y0067651D01*
X0059484Y0068068D01*
X0059984Y0068568D01*
X0060401Y0069141D01*
X0060722Y0069773D01*
X0060941Y0070446D01*
X0060532Y0069399D02*
X0135753Y0069399D01*
X0135753Y0068400D02*
X0059816Y0068400D01*
X0058421Y0067402D02*
X0135753Y0067402D01*
X0135753Y0066403D02*
X0054194Y0066403D01*
X0054683Y0067402D02*
X0053196Y0067402D01*
X0053620Y0068068D02*
X0053120Y0068568D01*
X0052703Y0069141D01*
X0052382Y0069773D01*
X0052163Y0070446D01*
X0052075Y0071000D01*
X0056052Y0071000D01*
X0056052Y0067023D01*
X0055498Y0067111D01*
X0054825Y0067330D01*
X0054193Y0067651D01*
X0053620Y0068068D01*
X0053288Y0068400D02*
X0052197Y0068400D01*
X0052572Y0069399D02*
X0051199Y0069399D01*
X0050749Y0070397D02*
X0052179Y0070397D01*
X0050852Y0071396D02*
X0056052Y0071396D01*
X0056052Y0072394D02*
X0057052Y0072394D01*
X0057052Y0073393D02*
X0056052Y0073393D01*
X0056052Y0074391D02*
X0057052Y0074391D01*
X0057052Y0075390D02*
X0056052Y0075390D01*
X0054274Y0075390D02*
X0048398Y0075390D01*
X0049742Y0074391D02*
X0053090Y0074391D01*
X0052466Y0073393D02*
X0050422Y0073393D01*
X0050836Y0072394D02*
X0052138Y0072394D01*
X0056052Y0070397D02*
X0057052Y0070397D01*
X0057052Y0069399D02*
X0056052Y0069399D01*
X0056052Y0068400D02*
X0057052Y0068400D01*
X0057052Y0067402D02*
X0056052Y0067402D01*
X0055193Y0065405D02*
X0076910Y0065405D01*
X0076693Y0064406D02*
X0056191Y0064406D01*
X0057190Y0063408D02*
X0076693Y0063408D01*
X0076693Y0059414D02*
X0016002Y0059414D01*
X0016002Y0058415D02*
X0076693Y0058415D01*
X0077088Y0057417D02*
X0016002Y0057417D01*
X0015517Y0056418D02*
X0109088Y0056418D01*
X0108090Y0057417D02*
X0096016Y0057417D01*
X0096411Y0058415D02*
X0107091Y0058415D01*
X0106093Y0059414D02*
X0096411Y0059414D01*
X0096411Y0063408D02*
X0135753Y0063408D01*
X0135753Y0064406D02*
X0096411Y0064406D01*
X0096194Y0065405D02*
X0135753Y0065405D01*
X0135753Y0062409D02*
X0108188Y0062409D01*
X0109187Y0061411D02*
X0135753Y0061411D01*
X0135753Y0060412D02*
X0110185Y0060412D01*
X0111184Y0059414D02*
X0135753Y0059414D01*
X0135753Y0058415D02*
X0112182Y0058415D01*
X0113181Y0057417D02*
X0135753Y0057417D01*
X0135753Y0056418D02*
X0114179Y0056418D01*
X0115178Y0055420D02*
X0124673Y0055420D01*
X0123675Y0054421D02*
X0119146Y0054421D01*
X0120145Y0053423D02*
X0122676Y0053423D01*
X0122452Y0052424D02*
X0120452Y0052424D01*
X0120452Y0050427D02*
X0122452Y0050427D01*
X0122825Y0049429D02*
X0119996Y0049429D01*
X0118997Y0048430D02*
X0123824Y0048430D01*
X0124822Y0047432D02*
X0016002Y0047432D01*
X0016002Y0048430D02*
X0114107Y0048430D01*
X0113108Y0049429D02*
X0016002Y0049429D01*
X0016002Y0050427D02*
X0112652Y0050427D01*
X0112652Y0051426D02*
X0015674Y0051426D01*
X0011552Y0048000D02*
X0011552Y0041500D01*
X0016552Y0036500D01*
X0014752Y0035449D02*
X0006052Y0035449D01*
X0006052Y0036448D02*
X0014059Y0036448D01*
X0013060Y0037446D02*
X0006052Y0037446D01*
X0006052Y0038445D02*
X0012061Y0038445D01*
X0011063Y0039443D02*
X0006052Y0039443D01*
X0006052Y0040442D02*
X0010064Y0040442D01*
X0009752Y0041440D02*
X0006052Y0041440D01*
X0006052Y0042439D02*
X0009752Y0042439D01*
X0009752Y0043437D02*
X0006052Y0043437D01*
X0006052Y0044436D02*
X0007569Y0044436D01*
X0007102Y0045434D02*
X0006052Y0045434D01*
X0006052Y0046433D02*
X0007102Y0046433D01*
X0007102Y0047432D02*
X0006052Y0047432D01*
X0006052Y0048430D02*
X0007102Y0048430D01*
X0007102Y0049429D02*
X0006052Y0049429D01*
X0006052Y0050427D02*
X0007102Y0050427D01*
X0007430Y0051426D02*
X0006052Y0051426D01*
X0006052Y0052424D02*
X0112652Y0052424D01*
X0112084Y0053423D02*
X0006052Y0053423D01*
X0006052Y0054421D02*
X0111085Y0054421D01*
X0110087Y0055420D02*
X0006052Y0055420D01*
X0006052Y0056418D02*
X0007587Y0056418D01*
X0007102Y0057417D02*
X0006052Y0057417D01*
X0006052Y0058415D02*
X0007102Y0058415D01*
X0007102Y0059414D02*
X0006052Y0059414D01*
X0006052Y0060412D02*
X0007102Y0060412D01*
X0007102Y0061411D02*
X0006052Y0061411D01*
X0006052Y0062409D02*
X0007102Y0062409D01*
X0007413Y0063408D02*
X0006052Y0063408D01*
X0006052Y0064406D02*
X0009752Y0064406D01*
X0009752Y0065405D02*
X0006052Y0065405D01*
X0006052Y0066403D02*
X0009752Y0066403D01*
X0009908Y0067402D02*
X0006052Y0067402D01*
X0006052Y0068400D02*
X0010907Y0068400D01*
X0011905Y0069399D02*
X0006052Y0069399D01*
X0006052Y0070397D02*
X0012904Y0070397D01*
X0013902Y0071396D02*
X0006052Y0071396D01*
X0006052Y0072394D02*
X0014901Y0072394D01*
X0016996Y0069399D02*
X0032768Y0069399D01*
X0033571Y0068400D02*
X0015998Y0068400D01*
X0014999Y0067402D02*
X0035210Y0067402D01*
X0084411Y0060412D02*
X0088693Y0060412D01*
X0088693Y0059414D02*
X0084411Y0059414D01*
X0084411Y0058415D02*
X0088693Y0058415D01*
X0089088Y0057417D02*
X0084016Y0057417D01*
X0126252Y0055420D02*
X0126852Y0055420D01*
X0126852Y0054421D02*
X0126252Y0054421D01*
X0126252Y0053423D02*
X0126852Y0053423D01*
X0126852Y0052424D02*
X0126252Y0052424D01*
X0126252Y0050427D02*
X0126852Y0050427D01*
X0126852Y0049429D02*
X0126252Y0049429D01*
X0126252Y0048430D02*
X0126852Y0048430D01*
X0126852Y0047432D02*
X0126252Y0047432D01*
X0130652Y0052424D02*
X0135753Y0052424D01*
X0135753Y0053423D02*
X0130428Y0053423D01*
X0129429Y0054421D02*
X0135753Y0054421D01*
X0135753Y0055420D02*
X0128431Y0055420D01*
M02*
