G75*
%MOIN*%
%OFA0B0*%
%FSLAX25Y25*%
%IPPOS*%
%LPD*%
%AMOC8*
5,1,8,0,0,1.08239X$1,22.5*
%
%ADD10C,0.00100*%
%ADD11C,0.00800*%
%ADD12C,0.01000*%
%ADD13C,0.00600*%
%ADD14C,0.00500*%
%ADD15C,0.00400*%
%ADD16C,0.00787*%
D10*
X0042595Y0053933D02*
X0232595Y0053933D01*
X0232595Y0073933D01*
X0217595Y0088933D01*
X0057595Y0088933D01*
X0042595Y0073933D01*
X0042595Y0053933D01*
D11*
X0040095Y0053933D02*
X0055095Y0053933D01*
X0070095Y0053933D02*
X0085095Y0053933D01*
X0100095Y0053933D02*
X0115095Y0053933D01*
X0121343Y0066321D02*
X0107484Y0080181D01*
X0113847Y0086545D01*
X0127707Y0072685D01*
X0121343Y0066321D01*
X0160095Y0053933D02*
X0175095Y0053933D01*
X0190095Y0053933D02*
X0205095Y0053933D01*
X0220095Y0053933D02*
X0235095Y0053933D01*
D12*
X0235338Y0054120D01*
X0235576Y0054312D01*
X0235809Y0054511D01*
X0236037Y0054715D01*
X0236260Y0054924D01*
X0236478Y0055139D01*
X0236691Y0055359D01*
X0236898Y0055584D01*
X0237100Y0055815D01*
X0237296Y0056050D01*
X0237486Y0056290D01*
X0237670Y0056534D01*
X0237848Y0056783D01*
X0238020Y0057037D01*
X0238186Y0057294D01*
X0238346Y0057555D01*
X0238499Y0057820D01*
X0238645Y0058089D01*
X0238785Y0058362D01*
X0238918Y0058637D01*
X0239044Y0058916D01*
X0239164Y0059198D01*
X0239276Y0059483D01*
X0239381Y0059770D01*
X0239480Y0060060D01*
X0239571Y0060352D01*
X0239655Y0060647D01*
X0239732Y0060943D01*
X0239802Y0061241D01*
X0239864Y0061541D01*
X0239919Y0061842D01*
X0239966Y0062144D01*
X0240006Y0062448D01*
X0240039Y0062752D01*
X0240064Y0063057D01*
X0240082Y0063363D01*
X0240092Y0063669D01*
X0240095Y0063975D01*
X0240090Y0064281D01*
X0240078Y0064587D01*
X0240058Y0064893D01*
X0240031Y0065197D01*
X0239996Y0065502D01*
X0239954Y0065805D01*
X0239905Y0066107D01*
X0239848Y0066408D01*
X0239783Y0066707D01*
X0239712Y0067005D01*
X0239633Y0067300D01*
X0239547Y0067594D01*
X0239454Y0067886D01*
X0239353Y0068175D01*
X0239246Y0068462D01*
X0239131Y0068746D01*
X0239010Y0069027D01*
X0238882Y0069305D01*
X0238747Y0069580D01*
X0238605Y0069851D01*
X0238457Y0070119D01*
X0238302Y0070383D01*
X0238141Y0070643D01*
X0237974Y0070899D01*
X0237800Y0071152D01*
X0237620Y0071399D01*
X0237434Y0071643D01*
X0237243Y0071881D01*
X0237045Y0072115D01*
X0236842Y0072344D01*
X0236633Y0072568D01*
X0236419Y0072787D01*
X0236199Y0073000D01*
X0235975Y0073208D01*
X0235745Y0073411D01*
X0235511Y0073607D01*
X0235271Y0073798D01*
X0235028Y0073983D01*
X0234779Y0074162D01*
X0234527Y0074335D01*
X0234270Y0074502D01*
X0234009Y0074662D01*
X0233744Y0074816D01*
X0233476Y0074963D01*
X0233204Y0075104D01*
X0232929Y0075238D01*
X0232650Y0075365D01*
X0232369Y0075486D01*
X0232084Y0075599D01*
X0231797Y0075705D01*
X0231508Y0075805D01*
X0231216Y0075897D01*
X0230922Y0075982D01*
X0230626Y0076060D01*
X0230328Y0076131D01*
X0230028Y0076194D01*
X0229727Y0076250D01*
X0229425Y0076298D01*
X0229122Y0076339D01*
X0228818Y0076373D01*
X0228513Y0076399D01*
X0228207Y0076418D01*
X0227901Y0076429D01*
X0227595Y0076433D01*
X0227289Y0076429D01*
X0226983Y0076418D01*
X0226677Y0076399D01*
X0226372Y0076373D01*
X0226068Y0076339D01*
X0225765Y0076298D01*
X0225463Y0076250D01*
X0225162Y0076194D01*
X0224862Y0076131D01*
X0224564Y0076060D01*
X0224268Y0075982D01*
X0223974Y0075897D01*
X0223682Y0075805D01*
X0223393Y0075705D01*
X0223106Y0075599D01*
X0222821Y0075486D01*
X0222540Y0075365D01*
X0222261Y0075238D01*
X0221986Y0075104D01*
X0221714Y0074963D01*
X0221446Y0074816D01*
X0221181Y0074662D01*
X0220920Y0074502D01*
X0220663Y0074335D01*
X0220411Y0074162D01*
X0220162Y0073983D01*
X0219919Y0073798D01*
X0219679Y0073607D01*
X0219445Y0073411D01*
X0219215Y0073208D01*
X0218991Y0073000D01*
X0218771Y0072787D01*
X0218557Y0072568D01*
X0218348Y0072344D01*
X0218145Y0072115D01*
X0217947Y0071881D01*
X0217756Y0071643D01*
X0217570Y0071399D01*
X0217390Y0071152D01*
X0217216Y0070899D01*
X0217049Y0070643D01*
X0216888Y0070383D01*
X0216733Y0070119D01*
X0216585Y0069851D01*
X0216443Y0069580D01*
X0216308Y0069305D01*
X0216180Y0069027D01*
X0216059Y0068746D01*
X0215944Y0068462D01*
X0215837Y0068175D01*
X0215736Y0067886D01*
X0215643Y0067594D01*
X0215557Y0067300D01*
X0215478Y0067005D01*
X0215407Y0066707D01*
X0215342Y0066408D01*
X0215285Y0066107D01*
X0215236Y0065805D01*
X0215194Y0065502D01*
X0215159Y0065197D01*
X0215132Y0064893D01*
X0215112Y0064587D01*
X0215100Y0064281D01*
X0215095Y0063975D01*
X0215098Y0063669D01*
X0215108Y0063363D01*
X0215126Y0063057D01*
X0215151Y0062752D01*
X0215184Y0062448D01*
X0215224Y0062144D01*
X0215271Y0061842D01*
X0215326Y0061541D01*
X0215388Y0061241D01*
X0215458Y0060943D01*
X0215535Y0060647D01*
X0215619Y0060352D01*
X0215710Y0060060D01*
X0215809Y0059770D01*
X0215914Y0059483D01*
X0216026Y0059198D01*
X0216146Y0058916D01*
X0216272Y0058637D01*
X0216405Y0058362D01*
X0216545Y0058089D01*
X0216691Y0057820D01*
X0216844Y0057555D01*
X0217004Y0057294D01*
X0217170Y0057037D01*
X0217342Y0056783D01*
X0217520Y0056534D01*
X0217704Y0056290D01*
X0217894Y0056050D01*
X0218090Y0055815D01*
X0218292Y0055584D01*
X0218499Y0055359D01*
X0218712Y0055139D01*
X0218930Y0054924D01*
X0219153Y0054715D01*
X0219381Y0054511D01*
X0219614Y0054312D01*
X0219852Y0054120D01*
X0220095Y0053933D01*
X0205095Y0053933D02*
X0205338Y0054120D01*
X0205576Y0054312D01*
X0205809Y0054511D01*
X0206037Y0054715D01*
X0206260Y0054924D01*
X0206478Y0055139D01*
X0206691Y0055359D01*
X0206898Y0055584D01*
X0207100Y0055815D01*
X0207296Y0056050D01*
X0207486Y0056290D01*
X0207670Y0056534D01*
X0207848Y0056783D01*
X0208020Y0057037D01*
X0208186Y0057294D01*
X0208346Y0057555D01*
X0208499Y0057820D01*
X0208645Y0058089D01*
X0208785Y0058362D01*
X0208918Y0058637D01*
X0209044Y0058916D01*
X0209164Y0059198D01*
X0209276Y0059483D01*
X0209381Y0059770D01*
X0209480Y0060060D01*
X0209571Y0060352D01*
X0209655Y0060647D01*
X0209732Y0060943D01*
X0209802Y0061241D01*
X0209864Y0061541D01*
X0209919Y0061842D01*
X0209966Y0062144D01*
X0210006Y0062448D01*
X0210039Y0062752D01*
X0210064Y0063057D01*
X0210082Y0063363D01*
X0210092Y0063669D01*
X0210095Y0063975D01*
X0210090Y0064281D01*
X0210078Y0064587D01*
X0210058Y0064893D01*
X0210031Y0065197D01*
X0209996Y0065502D01*
X0209954Y0065805D01*
X0209905Y0066107D01*
X0209848Y0066408D01*
X0209783Y0066707D01*
X0209712Y0067005D01*
X0209633Y0067300D01*
X0209547Y0067594D01*
X0209454Y0067886D01*
X0209353Y0068175D01*
X0209246Y0068462D01*
X0209131Y0068746D01*
X0209010Y0069027D01*
X0208882Y0069305D01*
X0208747Y0069580D01*
X0208605Y0069851D01*
X0208457Y0070119D01*
X0208302Y0070383D01*
X0208141Y0070643D01*
X0207974Y0070899D01*
X0207800Y0071152D01*
X0207620Y0071399D01*
X0207434Y0071643D01*
X0207243Y0071881D01*
X0207045Y0072115D01*
X0206842Y0072344D01*
X0206633Y0072568D01*
X0206419Y0072787D01*
X0206199Y0073000D01*
X0205975Y0073208D01*
X0205745Y0073411D01*
X0205511Y0073607D01*
X0205271Y0073798D01*
X0205028Y0073983D01*
X0204779Y0074162D01*
X0204527Y0074335D01*
X0204270Y0074502D01*
X0204009Y0074662D01*
X0203744Y0074816D01*
X0203476Y0074963D01*
X0203204Y0075104D01*
X0202929Y0075238D01*
X0202650Y0075365D01*
X0202369Y0075486D01*
X0202084Y0075599D01*
X0201797Y0075705D01*
X0201508Y0075805D01*
X0201216Y0075897D01*
X0200922Y0075982D01*
X0200626Y0076060D01*
X0200328Y0076131D01*
X0200028Y0076194D01*
X0199727Y0076250D01*
X0199425Y0076298D01*
X0199122Y0076339D01*
X0198818Y0076373D01*
X0198513Y0076399D01*
X0198207Y0076418D01*
X0197901Y0076429D01*
X0197595Y0076433D01*
X0197289Y0076429D01*
X0196983Y0076418D01*
X0196677Y0076399D01*
X0196372Y0076373D01*
X0196068Y0076339D01*
X0195765Y0076298D01*
X0195463Y0076250D01*
X0195162Y0076194D01*
X0194862Y0076131D01*
X0194564Y0076060D01*
X0194268Y0075982D01*
X0193974Y0075897D01*
X0193682Y0075805D01*
X0193393Y0075705D01*
X0193106Y0075599D01*
X0192821Y0075486D01*
X0192540Y0075365D01*
X0192261Y0075238D01*
X0191986Y0075104D01*
X0191714Y0074963D01*
X0191446Y0074816D01*
X0191181Y0074662D01*
X0190920Y0074502D01*
X0190663Y0074335D01*
X0190411Y0074162D01*
X0190162Y0073983D01*
X0189919Y0073798D01*
X0189679Y0073607D01*
X0189445Y0073411D01*
X0189215Y0073208D01*
X0188991Y0073000D01*
X0188771Y0072787D01*
X0188557Y0072568D01*
X0188348Y0072344D01*
X0188145Y0072115D01*
X0187947Y0071881D01*
X0187756Y0071643D01*
X0187570Y0071399D01*
X0187390Y0071152D01*
X0187216Y0070899D01*
X0187049Y0070643D01*
X0186888Y0070383D01*
X0186733Y0070119D01*
X0186585Y0069851D01*
X0186443Y0069580D01*
X0186308Y0069305D01*
X0186180Y0069027D01*
X0186059Y0068746D01*
X0185944Y0068462D01*
X0185837Y0068175D01*
X0185736Y0067886D01*
X0185643Y0067594D01*
X0185557Y0067300D01*
X0185478Y0067005D01*
X0185407Y0066707D01*
X0185342Y0066408D01*
X0185285Y0066107D01*
X0185236Y0065805D01*
X0185194Y0065502D01*
X0185159Y0065197D01*
X0185132Y0064893D01*
X0185112Y0064587D01*
X0185100Y0064281D01*
X0185095Y0063975D01*
X0185098Y0063669D01*
X0185108Y0063363D01*
X0185126Y0063057D01*
X0185151Y0062752D01*
X0185184Y0062448D01*
X0185224Y0062144D01*
X0185271Y0061842D01*
X0185326Y0061541D01*
X0185388Y0061241D01*
X0185458Y0060943D01*
X0185535Y0060647D01*
X0185619Y0060352D01*
X0185710Y0060060D01*
X0185809Y0059770D01*
X0185914Y0059483D01*
X0186026Y0059198D01*
X0186146Y0058916D01*
X0186272Y0058637D01*
X0186405Y0058362D01*
X0186545Y0058089D01*
X0186691Y0057820D01*
X0186844Y0057555D01*
X0187004Y0057294D01*
X0187170Y0057037D01*
X0187342Y0056783D01*
X0187520Y0056534D01*
X0187704Y0056290D01*
X0187894Y0056050D01*
X0188090Y0055815D01*
X0188292Y0055584D01*
X0188499Y0055359D01*
X0188712Y0055139D01*
X0188930Y0054924D01*
X0189153Y0054715D01*
X0189381Y0054511D01*
X0189614Y0054312D01*
X0189852Y0054120D01*
X0190095Y0053933D01*
X0175095Y0053933D02*
X0175338Y0054120D01*
X0175576Y0054312D01*
X0175809Y0054511D01*
X0176037Y0054715D01*
X0176260Y0054924D01*
X0176478Y0055139D01*
X0176691Y0055359D01*
X0176898Y0055584D01*
X0177100Y0055815D01*
X0177296Y0056050D01*
X0177486Y0056290D01*
X0177670Y0056534D01*
X0177848Y0056783D01*
X0178020Y0057037D01*
X0178186Y0057294D01*
X0178346Y0057555D01*
X0178499Y0057820D01*
X0178645Y0058089D01*
X0178785Y0058362D01*
X0178918Y0058637D01*
X0179044Y0058916D01*
X0179164Y0059198D01*
X0179276Y0059483D01*
X0179381Y0059770D01*
X0179480Y0060060D01*
X0179571Y0060352D01*
X0179655Y0060647D01*
X0179732Y0060943D01*
X0179802Y0061241D01*
X0179864Y0061541D01*
X0179919Y0061842D01*
X0179966Y0062144D01*
X0180006Y0062448D01*
X0180039Y0062752D01*
X0180064Y0063057D01*
X0180082Y0063363D01*
X0180092Y0063669D01*
X0180095Y0063975D01*
X0180090Y0064281D01*
X0180078Y0064587D01*
X0180058Y0064893D01*
X0180031Y0065197D01*
X0179996Y0065502D01*
X0179954Y0065805D01*
X0179905Y0066107D01*
X0179848Y0066408D01*
X0179783Y0066707D01*
X0179712Y0067005D01*
X0179633Y0067300D01*
X0179547Y0067594D01*
X0179454Y0067886D01*
X0179353Y0068175D01*
X0179246Y0068462D01*
X0179131Y0068746D01*
X0179010Y0069027D01*
X0178882Y0069305D01*
X0178747Y0069580D01*
X0178605Y0069851D01*
X0178457Y0070119D01*
X0178302Y0070383D01*
X0178141Y0070643D01*
X0177974Y0070899D01*
X0177800Y0071152D01*
X0177620Y0071399D01*
X0177434Y0071643D01*
X0177243Y0071881D01*
X0177045Y0072115D01*
X0176842Y0072344D01*
X0176633Y0072568D01*
X0176419Y0072787D01*
X0176199Y0073000D01*
X0175975Y0073208D01*
X0175745Y0073411D01*
X0175511Y0073607D01*
X0175271Y0073798D01*
X0175028Y0073983D01*
X0174779Y0074162D01*
X0174527Y0074335D01*
X0174270Y0074502D01*
X0174009Y0074662D01*
X0173744Y0074816D01*
X0173476Y0074963D01*
X0173204Y0075104D01*
X0172929Y0075238D01*
X0172650Y0075365D01*
X0172369Y0075486D01*
X0172084Y0075599D01*
X0171797Y0075705D01*
X0171508Y0075805D01*
X0171216Y0075897D01*
X0170922Y0075982D01*
X0170626Y0076060D01*
X0170328Y0076131D01*
X0170028Y0076194D01*
X0169727Y0076250D01*
X0169425Y0076298D01*
X0169122Y0076339D01*
X0168818Y0076373D01*
X0168513Y0076399D01*
X0168207Y0076418D01*
X0167901Y0076429D01*
X0167595Y0076433D01*
X0167289Y0076429D01*
X0166983Y0076418D01*
X0166677Y0076399D01*
X0166372Y0076373D01*
X0166068Y0076339D01*
X0165765Y0076298D01*
X0165463Y0076250D01*
X0165162Y0076194D01*
X0164862Y0076131D01*
X0164564Y0076060D01*
X0164268Y0075982D01*
X0163974Y0075897D01*
X0163682Y0075805D01*
X0163393Y0075705D01*
X0163106Y0075599D01*
X0162821Y0075486D01*
X0162540Y0075365D01*
X0162261Y0075238D01*
X0161986Y0075104D01*
X0161714Y0074963D01*
X0161446Y0074816D01*
X0161181Y0074662D01*
X0160920Y0074502D01*
X0160663Y0074335D01*
X0160411Y0074162D01*
X0160162Y0073983D01*
X0159919Y0073798D01*
X0159679Y0073607D01*
X0159445Y0073411D01*
X0159215Y0073208D01*
X0158991Y0073000D01*
X0158771Y0072787D01*
X0158557Y0072568D01*
X0158348Y0072344D01*
X0158145Y0072115D01*
X0157947Y0071881D01*
X0157756Y0071643D01*
X0157570Y0071399D01*
X0157390Y0071152D01*
X0157216Y0070899D01*
X0157049Y0070643D01*
X0156888Y0070383D01*
X0156733Y0070119D01*
X0156585Y0069851D01*
X0156443Y0069580D01*
X0156308Y0069305D01*
X0156180Y0069027D01*
X0156059Y0068746D01*
X0155944Y0068462D01*
X0155837Y0068175D01*
X0155736Y0067886D01*
X0155643Y0067594D01*
X0155557Y0067300D01*
X0155478Y0067005D01*
X0155407Y0066707D01*
X0155342Y0066408D01*
X0155285Y0066107D01*
X0155236Y0065805D01*
X0155194Y0065502D01*
X0155159Y0065197D01*
X0155132Y0064893D01*
X0155112Y0064587D01*
X0155100Y0064281D01*
X0155095Y0063975D01*
X0155098Y0063669D01*
X0155108Y0063363D01*
X0155126Y0063057D01*
X0155151Y0062752D01*
X0155184Y0062448D01*
X0155224Y0062144D01*
X0155271Y0061842D01*
X0155326Y0061541D01*
X0155388Y0061241D01*
X0155458Y0060943D01*
X0155535Y0060647D01*
X0155619Y0060352D01*
X0155710Y0060060D01*
X0155809Y0059770D01*
X0155914Y0059483D01*
X0156026Y0059198D01*
X0156146Y0058916D01*
X0156272Y0058637D01*
X0156405Y0058362D01*
X0156545Y0058089D01*
X0156691Y0057820D01*
X0156844Y0057555D01*
X0157004Y0057294D01*
X0157170Y0057037D01*
X0157342Y0056783D01*
X0157520Y0056534D01*
X0157704Y0056290D01*
X0157894Y0056050D01*
X0158090Y0055815D01*
X0158292Y0055584D01*
X0158499Y0055359D01*
X0158712Y0055139D01*
X0158930Y0054924D01*
X0159153Y0054715D01*
X0159381Y0054511D01*
X0159614Y0054312D01*
X0159852Y0054120D01*
X0160095Y0053933D01*
X0152162Y0062152D02*
X0123028Y0062152D01*
X0123028Y0084789D01*
X0152162Y0084789D01*
X0152162Y0062152D01*
X0115095Y0053933D02*
X0115338Y0054120D01*
X0115576Y0054312D01*
X0115809Y0054511D01*
X0116037Y0054715D01*
X0116260Y0054924D01*
X0116478Y0055139D01*
X0116691Y0055359D01*
X0116898Y0055584D01*
X0117100Y0055815D01*
X0117296Y0056050D01*
X0117486Y0056290D01*
X0117670Y0056534D01*
X0117848Y0056783D01*
X0118020Y0057037D01*
X0118186Y0057294D01*
X0118346Y0057555D01*
X0118499Y0057820D01*
X0118645Y0058089D01*
X0118785Y0058362D01*
X0118918Y0058637D01*
X0119044Y0058916D01*
X0119164Y0059198D01*
X0119276Y0059483D01*
X0119381Y0059770D01*
X0119480Y0060060D01*
X0119571Y0060352D01*
X0119655Y0060647D01*
X0119732Y0060943D01*
X0119802Y0061241D01*
X0119864Y0061541D01*
X0119919Y0061842D01*
X0119966Y0062144D01*
X0120006Y0062448D01*
X0120039Y0062752D01*
X0120064Y0063057D01*
X0120082Y0063363D01*
X0120092Y0063669D01*
X0120095Y0063975D01*
X0120090Y0064281D01*
X0120078Y0064587D01*
X0120058Y0064893D01*
X0120031Y0065197D01*
X0119996Y0065502D01*
X0119954Y0065805D01*
X0119905Y0066107D01*
X0119848Y0066408D01*
X0119783Y0066707D01*
X0119712Y0067005D01*
X0119633Y0067300D01*
X0119547Y0067594D01*
X0119454Y0067886D01*
X0119353Y0068175D01*
X0119246Y0068462D01*
X0119131Y0068746D01*
X0119010Y0069027D01*
X0118882Y0069305D01*
X0118747Y0069580D01*
X0118605Y0069851D01*
X0118457Y0070119D01*
X0118302Y0070383D01*
X0118141Y0070643D01*
X0117974Y0070899D01*
X0117800Y0071152D01*
X0117620Y0071399D01*
X0117434Y0071643D01*
X0117243Y0071881D01*
X0117045Y0072115D01*
X0116842Y0072344D01*
X0116633Y0072568D01*
X0116419Y0072787D01*
X0116199Y0073000D01*
X0115975Y0073208D01*
X0115745Y0073411D01*
X0115511Y0073607D01*
X0115271Y0073798D01*
X0115028Y0073983D01*
X0114779Y0074162D01*
X0114527Y0074335D01*
X0114270Y0074502D01*
X0114009Y0074662D01*
X0113744Y0074816D01*
X0113476Y0074963D01*
X0113204Y0075104D01*
X0112929Y0075238D01*
X0112650Y0075365D01*
X0112369Y0075486D01*
X0112084Y0075599D01*
X0111797Y0075705D01*
X0111508Y0075805D01*
X0111216Y0075897D01*
X0110922Y0075982D01*
X0110626Y0076060D01*
X0110328Y0076131D01*
X0110028Y0076194D01*
X0109727Y0076250D01*
X0109425Y0076298D01*
X0109122Y0076339D01*
X0108818Y0076373D01*
X0108513Y0076399D01*
X0108207Y0076418D01*
X0107901Y0076429D01*
X0107595Y0076433D01*
X0107289Y0076429D01*
X0106983Y0076418D01*
X0106677Y0076399D01*
X0106372Y0076373D01*
X0106068Y0076339D01*
X0105765Y0076298D01*
X0105463Y0076250D01*
X0105162Y0076194D01*
X0104862Y0076131D01*
X0104564Y0076060D01*
X0104268Y0075982D01*
X0103974Y0075897D01*
X0103682Y0075805D01*
X0103393Y0075705D01*
X0103106Y0075599D01*
X0102821Y0075486D01*
X0102540Y0075365D01*
X0102261Y0075238D01*
X0101986Y0075104D01*
X0101714Y0074963D01*
X0101446Y0074816D01*
X0101181Y0074662D01*
X0100920Y0074502D01*
X0100663Y0074335D01*
X0100411Y0074162D01*
X0100162Y0073983D01*
X0099919Y0073798D01*
X0099679Y0073607D01*
X0099445Y0073411D01*
X0099215Y0073208D01*
X0098991Y0073000D01*
X0098771Y0072787D01*
X0098557Y0072568D01*
X0098348Y0072344D01*
X0098145Y0072115D01*
X0097947Y0071881D01*
X0097756Y0071643D01*
X0097570Y0071399D01*
X0097390Y0071152D01*
X0097216Y0070899D01*
X0097049Y0070643D01*
X0096888Y0070383D01*
X0096733Y0070119D01*
X0096585Y0069851D01*
X0096443Y0069580D01*
X0096308Y0069305D01*
X0096180Y0069027D01*
X0096059Y0068746D01*
X0095944Y0068462D01*
X0095837Y0068175D01*
X0095736Y0067886D01*
X0095643Y0067594D01*
X0095557Y0067300D01*
X0095478Y0067005D01*
X0095407Y0066707D01*
X0095342Y0066408D01*
X0095285Y0066107D01*
X0095236Y0065805D01*
X0095194Y0065502D01*
X0095159Y0065197D01*
X0095132Y0064893D01*
X0095112Y0064587D01*
X0095100Y0064281D01*
X0095095Y0063975D01*
X0095098Y0063669D01*
X0095108Y0063363D01*
X0095126Y0063057D01*
X0095151Y0062752D01*
X0095184Y0062448D01*
X0095224Y0062144D01*
X0095271Y0061842D01*
X0095326Y0061541D01*
X0095388Y0061241D01*
X0095458Y0060943D01*
X0095535Y0060647D01*
X0095619Y0060352D01*
X0095710Y0060060D01*
X0095809Y0059770D01*
X0095914Y0059483D01*
X0096026Y0059198D01*
X0096146Y0058916D01*
X0096272Y0058637D01*
X0096405Y0058362D01*
X0096545Y0058089D01*
X0096691Y0057820D01*
X0096844Y0057555D01*
X0097004Y0057294D01*
X0097170Y0057037D01*
X0097342Y0056783D01*
X0097520Y0056534D01*
X0097704Y0056290D01*
X0097894Y0056050D01*
X0098090Y0055815D01*
X0098292Y0055584D01*
X0098499Y0055359D01*
X0098712Y0055139D01*
X0098930Y0054924D01*
X0099153Y0054715D01*
X0099381Y0054511D01*
X0099614Y0054312D01*
X0099852Y0054120D01*
X0100095Y0053933D01*
X0085095Y0053933D02*
X0085338Y0054120D01*
X0085576Y0054312D01*
X0085809Y0054511D01*
X0086037Y0054715D01*
X0086260Y0054924D01*
X0086478Y0055139D01*
X0086691Y0055359D01*
X0086898Y0055584D01*
X0087100Y0055815D01*
X0087296Y0056050D01*
X0087486Y0056290D01*
X0087670Y0056534D01*
X0087848Y0056783D01*
X0088020Y0057037D01*
X0088186Y0057294D01*
X0088346Y0057555D01*
X0088499Y0057820D01*
X0088645Y0058089D01*
X0088785Y0058362D01*
X0088918Y0058637D01*
X0089044Y0058916D01*
X0089164Y0059198D01*
X0089276Y0059483D01*
X0089381Y0059770D01*
X0089480Y0060060D01*
X0089571Y0060352D01*
X0089655Y0060647D01*
X0089732Y0060943D01*
X0089802Y0061241D01*
X0089864Y0061541D01*
X0089919Y0061842D01*
X0089966Y0062144D01*
X0090006Y0062448D01*
X0090039Y0062752D01*
X0090064Y0063057D01*
X0090082Y0063363D01*
X0090092Y0063669D01*
X0090095Y0063975D01*
X0090090Y0064281D01*
X0090078Y0064587D01*
X0090058Y0064893D01*
X0090031Y0065197D01*
X0089996Y0065502D01*
X0089954Y0065805D01*
X0089905Y0066107D01*
X0089848Y0066408D01*
X0089783Y0066707D01*
X0089712Y0067005D01*
X0089633Y0067300D01*
X0089547Y0067594D01*
X0089454Y0067886D01*
X0089353Y0068175D01*
X0089246Y0068462D01*
X0089131Y0068746D01*
X0089010Y0069027D01*
X0088882Y0069305D01*
X0088747Y0069580D01*
X0088605Y0069851D01*
X0088457Y0070119D01*
X0088302Y0070383D01*
X0088141Y0070643D01*
X0087974Y0070899D01*
X0087800Y0071152D01*
X0087620Y0071399D01*
X0087434Y0071643D01*
X0087243Y0071881D01*
X0087045Y0072115D01*
X0086842Y0072344D01*
X0086633Y0072568D01*
X0086419Y0072787D01*
X0086199Y0073000D01*
X0085975Y0073208D01*
X0085745Y0073411D01*
X0085511Y0073607D01*
X0085271Y0073798D01*
X0085028Y0073983D01*
X0084779Y0074162D01*
X0084527Y0074335D01*
X0084270Y0074502D01*
X0084009Y0074662D01*
X0083744Y0074816D01*
X0083476Y0074963D01*
X0083204Y0075104D01*
X0082929Y0075238D01*
X0082650Y0075365D01*
X0082369Y0075486D01*
X0082084Y0075599D01*
X0081797Y0075705D01*
X0081508Y0075805D01*
X0081216Y0075897D01*
X0080922Y0075982D01*
X0080626Y0076060D01*
X0080328Y0076131D01*
X0080028Y0076194D01*
X0079727Y0076250D01*
X0079425Y0076298D01*
X0079122Y0076339D01*
X0078818Y0076373D01*
X0078513Y0076399D01*
X0078207Y0076418D01*
X0077901Y0076429D01*
X0077595Y0076433D01*
X0077289Y0076429D01*
X0076983Y0076418D01*
X0076677Y0076399D01*
X0076372Y0076373D01*
X0076068Y0076339D01*
X0075765Y0076298D01*
X0075463Y0076250D01*
X0075162Y0076194D01*
X0074862Y0076131D01*
X0074564Y0076060D01*
X0074268Y0075982D01*
X0073974Y0075897D01*
X0073682Y0075805D01*
X0073393Y0075705D01*
X0073106Y0075599D01*
X0072821Y0075486D01*
X0072540Y0075365D01*
X0072261Y0075238D01*
X0071986Y0075104D01*
X0071714Y0074963D01*
X0071446Y0074816D01*
X0071181Y0074662D01*
X0070920Y0074502D01*
X0070663Y0074335D01*
X0070411Y0074162D01*
X0070162Y0073983D01*
X0069919Y0073798D01*
X0069679Y0073607D01*
X0069445Y0073411D01*
X0069215Y0073208D01*
X0068991Y0073000D01*
X0068771Y0072787D01*
X0068557Y0072568D01*
X0068348Y0072344D01*
X0068145Y0072115D01*
X0067947Y0071881D01*
X0067756Y0071643D01*
X0067570Y0071399D01*
X0067390Y0071152D01*
X0067216Y0070899D01*
X0067049Y0070643D01*
X0066888Y0070383D01*
X0066733Y0070119D01*
X0066585Y0069851D01*
X0066443Y0069580D01*
X0066308Y0069305D01*
X0066180Y0069027D01*
X0066059Y0068746D01*
X0065944Y0068462D01*
X0065837Y0068175D01*
X0065736Y0067886D01*
X0065643Y0067594D01*
X0065557Y0067300D01*
X0065478Y0067005D01*
X0065407Y0066707D01*
X0065342Y0066408D01*
X0065285Y0066107D01*
X0065236Y0065805D01*
X0065194Y0065502D01*
X0065159Y0065197D01*
X0065132Y0064893D01*
X0065112Y0064587D01*
X0065100Y0064281D01*
X0065095Y0063975D01*
X0065098Y0063669D01*
X0065108Y0063363D01*
X0065126Y0063057D01*
X0065151Y0062752D01*
X0065184Y0062448D01*
X0065224Y0062144D01*
X0065271Y0061842D01*
X0065326Y0061541D01*
X0065388Y0061241D01*
X0065458Y0060943D01*
X0065535Y0060647D01*
X0065619Y0060352D01*
X0065710Y0060060D01*
X0065809Y0059770D01*
X0065914Y0059483D01*
X0066026Y0059198D01*
X0066146Y0058916D01*
X0066272Y0058637D01*
X0066405Y0058362D01*
X0066545Y0058089D01*
X0066691Y0057820D01*
X0066844Y0057555D01*
X0067004Y0057294D01*
X0067170Y0057037D01*
X0067342Y0056783D01*
X0067520Y0056534D01*
X0067704Y0056290D01*
X0067894Y0056050D01*
X0068090Y0055815D01*
X0068292Y0055584D01*
X0068499Y0055359D01*
X0068712Y0055139D01*
X0068930Y0054924D01*
X0069153Y0054715D01*
X0069381Y0054511D01*
X0069614Y0054312D01*
X0069852Y0054120D01*
X0070095Y0053933D01*
X0055095Y0053933D02*
X0055338Y0054120D01*
X0055576Y0054312D01*
X0055809Y0054511D01*
X0056037Y0054715D01*
X0056260Y0054924D01*
X0056478Y0055139D01*
X0056691Y0055359D01*
X0056898Y0055584D01*
X0057100Y0055815D01*
X0057296Y0056050D01*
X0057486Y0056290D01*
X0057670Y0056534D01*
X0057848Y0056783D01*
X0058020Y0057037D01*
X0058186Y0057294D01*
X0058346Y0057555D01*
X0058499Y0057820D01*
X0058645Y0058089D01*
X0058785Y0058362D01*
X0058918Y0058637D01*
X0059044Y0058916D01*
X0059164Y0059198D01*
X0059276Y0059483D01*
X0059381Y0059770D01*
X0059480Y0060060D01*
X0059571Y0060352D01*
X0059655Y0060647D01*
X0059732Y0060943D01*
X0059802Y0061241D01*
X0059864Y0061541D01*
X0059919Y0061842D01*
X0059966Y0062144D01*
X0060006Y0062448D01*
X0060039Y0062752D01*
X0060064Y0063057D01*
X0060082Y0063363D01*
X0060092Y0063669D01*
X0060095Y0063975D01*
X0060090Y0064281D01*
X0060078Y0064587D01*
X0060058Y0064893D01*
X0060031Y0065197D01*
X0059996Y0065502D01*
X0059954Y0065805D01*
X0059905Y0066107D01*
X0059848Y0066408D01*
X0059783Y0066707D01*
X0059712Y0067005D01*
X0059633Y0067300D01*
X0059547Y0067594D01*
X0059454Y0067886D01*
X0059353Y0068175D01*
X0059246Y0068462D01*
X0059131Y0068746D01*
X0059010Y0069027D01*
X0058882Y0069305D01*
X0058747Y0069580D01*
X0058605Y0069851D01*
X0058457Y0070119D01*
X0058302Y0070383D01*
X0058141Y0070643D01*
X0057974Y0070899D01*
X0057800Y0071152D01*
X0057620Y0071399D01*
X0057434Y0071643D01*
X0057243Y0071881D01*
X0057045Y0072115D01*
X0056842Y0072344D01*
X0056633Y0072568D01*
X0056419Y0072787D01*
X0056199Y0073000D01*
X0055975Y0073208D01*
X0055745Y0073411D01*
X0055511Y0073607D01*
X0055271Y0073798D01*
X0055028Y0073983D01*
X0054779Y0074162D01*
X0054527Y0074335D01*
X0054270Y0074502D01*
X0054009Y0074662D01*
X0053744Y0074816D01*
X0053476Y0074963D01*
X0053204Y0075104D01*
X0052929Y0075238D01*
X0052650Y0075365D01*
X0052369Y0075486D01*
X0052084Y0075599D01*
X0051797Y0075705D01*
X0051508Y0075805D01*
X0051216Y0075897D01*
X0050922Y0075982D01*
X0050626Y0076060D01*
X0050328Y0076131D01*
X0050028Y0076194D01*
X0049727Y0076250D01*
X0049425Y0076298D01*
X0049122Y0076339D01*
X0048818Y0076373D01*
X0048513Y0076399D01*
X0048207Y0076418D01*
X0047901Y0076429D01*
X0047595Y0076433D01*
X0047289Y0076429D01*
X0046983Y0076418D01*
X0046677Y0076399D01*
X0046372Y0076373D01*
X0046068Y0076339D01*
X0045765Y0076298D01*
X0045463Y0076250D01*
X0045162Y0076194D01*
X0044862Y0076131D01*
X0044564Y0076060D01*
X0044268Y0075982D01*
X0043974Y0075897D01*
X0043682Y0075805D01*
X0043393Y0075705D01*
X0043106Y0075599D01*
X0042821Y0075486D01*
X0042540Y0075365D01*
X0042261Y0075238D01*
X0041986Y0075104D01*
X0041714Y0074963D01*
X0041446Y0074816D01*
X0041181Y0074662D01*
X0040920Y0074502D01*
X0040663Y0074335D01*
X0040411Y0074162D01*
X0040162Y0073983D01*
X0039919Y0073798D01*
X0039679Y0073607D01*
X0039445Y0073411D01*
X0039215Y0073208D01*
X0038991Y0073000D01*
X0038771Y0072787D01*
X0038557Y0072568D01*
X0038348Y0072344D01*
X0038145Y0072115D01*
X0037947Y0071881D01*
X0037756Y0071643D01*
X0037570Y0071399D01*
X0037390Y0071152D01*
X0037216Y0070899D01*
X0037049Y0070643D01*
X0036888Y0070383D01*
X0036733Y0070119D01*
X0036585Y0069851D01*
X0036443Y0069580D01*
X0036308Y0069305D01*
X0036180Y0069027D01*
X0036059Y0068746D01*
X0035944Y0068462D01*
X0035837Y0068175D01*
X0035736Y0067886D01*
X0035643Y0067594D01*
X0035557Y0067300D01*
X0035478Y0067005D01*
X0035407Y0066707D01*
X0035342Y0066408D01*
X0035285Y0066107D01*
X0035236Y0065805D01*
X0035194Y0065502D01*
X0035159Y0065197D01*
X0035132Y0064893D01*
X0035112Y0064587D01*
X0035100Y0064281D01*
X0035095Y0063975D01*
X0035098Y0063669D01*
X0035108Y0063363D01*
X0035126Y0063057D01*
X0035151Y0062752D01*
X0035184Y0062448D01*
X0035224Y0062144D01*
X0035271Y0061842D01*
X0035326Y0061541D01*
X0035388Y0061241D01*
X0035458Y0060943D01*
X0035535Y0060647D01*
X0035619Y0060352D01*
X0035710Y0060060D01*
X0035809Y0059770D01*
X0035914Y0059483D01*
X0036026Y0059198D01*
X0036146Y0058916D01*
X0036272Y0058637D01*
X0036405Y0058362D01*
X0036545Y0058089D01*
X0036691Y0057820D01*
X0036844Y0057555D01*
X0037004Y0057294D01*
X0037170Y0057037D01*
X0037342Y0056783D01*
X0037520Y0056534D01*
X0037704Y0056290D01*
X0037894Y0056050D01*
X0038090Y0055815D01*
X0038292Y0055584D01*
X0038499Y0055359D01*
X0038712Y0055139D01*
X0038930Y0054924D01*
X0039153Y0054715D01*
X0039381Y0054511D01*
X0039614Y0054312D01*
X0039852Y0054120D01*
X0040095Y0053933D01*
D13*
X0037595Y0063933D02*
X0037598Y0064178D01*
X0037607Y0064424D01*
X0037622Y0064669D01*
X0037643Y0064913D01*
X0037670Y0065157D01*
X0037703Y0065400D01*
X0037742Y0065643D01*
X0037787Y0065884D01*
X0037838Y0066124D01*
X0037895Y0066363D01*
X0037957Y0066600D01*
X0038026Y0066836D01*
X0038100Y0067070D01*
X0038180Y0067302D01*
X0038265Y0067532D01*
X0038356Y0067760D01*
X0038453Y0067985D01*
X0038555Y0068209D01*
X0038663Y0068429D01*
X0038776Y0068647D01*
X0038894Y0068862D01*
X0039018Y0069074D01*
X0039146Y0069283D01*
X0039280Y0069489D01*
X0039419Y0069691D01*
X0039563Y0069890D01*
X0039712Y0070085D01*
X0039865Y0070277D01*
X0040023Y0070465D01*
X0040185Y0070649D01*
X0040353Y0070828D01*
X0040524Y0071004D01*
X0040700Y0071175D01*
X0040879Y0071343D01*
X0041063Y0071505D01*
X0041251Y0071663D01*
X0041443Y0071816D01*
X0041638Y0071965D01*
X0041837Y0072109D01*
X0042039Y0072248D01*
X0042245Y0072382D01*
X0042454Y0072510D01*
X0042666Y0072634D01*
X0042881Y0072752D01*
X0043099Y0072865D01*
X0043319Y0072973D01*
X0043543Y0073075D01*
X0043768Y0073172D01*
X0043996Y0073263D01*
X0044226Y0073348D01*
X0044458Y0073428D01*
X0044692Y0073502D01*
X0044928Y0073571D01*
X0045165Y0073633D01*
X0045404Y0073690D01*
X0045644Y0073741D01*
X0045885Y0073786D01*
X0046128Y0073825D01*
X0046371Y0073858D01*
X0046615Y0073885D01*
X0046859Y0073906D01*
X0047104Y0073921D01*
X0047350Y0073930D01*
X0047595Y0073933D01*
X0047840Y0073930D01*
X0048086Y0073921D01*
X0048331Y0073906D01*
X0048575Y0073885D01*
X0048819Y0073858D01*
X0049062Y0073825D01*
X0049305Y0073786D01*
X0049546Y0073741D01*
X0049786Y0073690D01*
X0050025Y0073633D01*
X0050262Y0073571D01*
X0050498Y0073502D01*
X0050732Y0073428D01*
X0050964Y0073348D01*
X0051194Y0073263D01*
X0051422Y0073172D01*
X0051647Y0073075D01*
X0051871Y0072973D01*
X0052091Y0072865D01*
X0052309Y0072752D01*
X0052524Y0072634D01*
X0052736Y0072510D01*
X0052945Y0072382D01*
X0053151Y0072248D01*
X0053353Y0072109D01*
X0053552Y0071965D01*
X0053747Y0071816D01*
X0053939Y0071663D01*
X0054127Y0071505D01*
X0054311Y0071343D01*
X0054490Y0071175D01*
X0054666Y0071004D01*
X0054837Y0070828D01*
X0055005Y0070649D01*
X0055167Y0070465D01*
X0055325Y0070277D01*
X0055478Y0070085D01*
X0055627Y0069890D01*
X0055771Y0069691D01*
X0055910Y0069489D01*
X0056044Y0069283D01*
X0056172Y0069074D01*
X0056296Y0068862D01*
X0056414Y0068647D01*
X0056527Y0068429D01*
X0056635Y0068209D01*
X0056737Y0067985D01*
X0056834Y0067760D01*
X0056925Y0067532D01*
X0057010Y0067302D01*
X0057090Y0067070D01*
X0057164Y0066836D01*
X0057233Y0066600D01*
X0057295Y0066363D01*
X0057352Y0066124D01*
X0057403Y0065884D01*
X0057448Y0065643D01*
X0057487Y0065400D01*
X0057520Y0065157D01*
X0057547Y0064913D01*
X0057568Y0064669D01*
X0057583Y0064424D01*
X0057592Y0064178D01*
X0057595Y0063933D01*
X0057592Y0063688D01*
X0057583Y0063442D01*
X0057568Y0063197D01*
X0057547Y0062953D01*
X0057520Y0062709D01*
X0057487Y0062466D01*
X0057448Y0062223D01*
X0057403Y0061982D01*
X0057352Y0061742D01*
X0057295Y0061503D01*
X0057233Y0061266D01*
X0057164Y0061030D01*
X0057090Y0060796D01*
X0057010Y0060564D01*
X0056925Y0060334D01*
X0056834Y0060106D01*
X0056737Y0059881D01*
X0056635Y0059657D01*
X0056527Y0059437D01*
X0056414Y0059219D01*
X0056296Y0059004D01*
X0056172Y0058792D01*
X0056044Y0058583D01*
X0055910Y0058377D01*
X0055771Y0058175D01*
X0055627Y0057976D01*
X0055478Y0057781D01*
X0055325Y0057589D01*
X0055167Y0057401D01*
X0055005Y0057217D01*
X0054837Y0057038D01*
X0054666Y0056862D01*
X0054490Y0056691D01*
X0054311Y0056523D01*
X0054127Y0056361D01*
X0053939Y0056203D01*
X0053747Y0056050D01*
X0053552Y0055901D01*
X0053353Y0055757D01*
X0053151Y0055618D01*
X0052945Y0055484D01*
X0052736Y0055356D01*
X0052524Y0055232D01*
X0052309Y0055114D01*
X0052091Y0055001D01*
X0051871Y0054893D01*
X0051647Y0054791D01*
X0051422Y0054694D01*
X0051194Y0054603D01*
X0050964Y0054518D01*
X0050732Y0054438D01*
X0050498Y0054364D01*
X0050262Y0054295D01*
X0050025Y0054233D01*
X0049786Y0054176D01*
X0049546Y0054125D01*
X0049305Y0054080D01*
X0049062Y0054041D01*
X0048819Y0054008D01*
X0048575Y0053981D01*
X0048331Y0053960D01*
X0048086Y0053945D01*
X0047840Y0053936D01*
X0047595Y0053933D01*
X0047350Y0053936D01*
X0047104Y0053945D01*
X0046859Y0053960D01*
X0046615Y0053981D01*
X0046371Y0054008D01*
X0046128Y0054041D01*
X0045885Y0054080D01*
X0045644Y0054125D01*
X0045404Y0054176D01*
X0045165Y0054233D01*
X0044928Y0054295D01*
X0044692Y0054364D01*
X0044458Y0054438D01*
X0044226Y0054518D01*
X0043996Y0054603D01*
X0043768Y0054694D01*
X0043543Y0054791D01*
X0043319Y0054893D01*
X0043099Y0055001D01*
X0042881Y0055114D01*
X0042666Y0055232D01*
X0042454Y0055356D01*
X0042245Y0055484D01*
X0042039Y0055618D01*
X0041837Y0055757D01*
X0041638Y0055901D01*
X0041443Y0056050D01*
X0041251Y0056203D01*
X0041063Y0056361D01*
X0040879Y0056523D01*
X0040700Y0056691D01*
X0040524Y0056862D01*
X0040353Y0057038D01*
X0040185Y0057217D01*
X0040023Y0057401D01*
X0039865Y0057589D01*
X0039712Y0057781D01*
X0039563Y0057976D01*
X0039419Y0058175D01*
X0039280Y0058377D01*
X0039146Y0058583D01*
X0039018Y0058792D01*
X0038894Y0059004D01*
X0038776Y0059219D01*
X0038663Y0059437D01*
X0038555Y0059657D01*
X0038453Y0059881D01*
X0038356Y0060106D01*
X0038265Y0060334D01*
X0038180Y0060564D01*
X0038100Y0060796D01*
X0038026Y0061030D01*
X0037957Y0061266D01*
X0037895Y0061503D01*
X0037838Y0061742D01*
X0037787Y0061982D01*
X0037742Y0062223D01*
X0037703Y0062466D01*
X0037670Y0062709D01*
X0037643Y0062953D01*
X0037622Y0063197D01*
X0037607Y0063442D01*
X0037598Y0063688D01*
X0037595Y0063933D01*
X0067595Y0063933D02*
X0067598Y0064178D01*
X0067607Y0064424D01*
X0067622Y0064669D01*
X0067643Y0064913D01*
X0067670Y0065157D01*
X0067703Y0065400D01*
X0067742Y0065643D01*
X0067787Y0065884D01*
X0067838Y0066124D01*
X0067895Y0066363D01*
X0067957Y0066600D01*
X0068026Y0066836D01*
X0068100Y0067070D01*
X0068180Y0067302D01*
X0068265Y0067532D01*
X0068356Y0067760D01*
X0068453Y0067985D01*
X0068555Y0068209D01*
X0068663Y0068429D01*
X0068776Y0068647D01*
X0068894Y0068862D01*
X0069018Y0069074D01*
X0069146Y0069283D01*
X0069280Y0069489D01*
X0069419Y0069691D01*
X0069563Y0069890D01*
X0069712Y0070085D01*
X0069865Y0070277D01*
X0070023Y0070465D01*
X0070185Y0070649D01*
X0070353Y0070828D01*
X0070524Y0071004D01*
X0070700Y0071175D01*
X0070879Y0071343D01*
X0071063Y0071505D01*
X0071251Y0071663D01*
X0071443Y0071816D01*
X0071638Y0071965D01*
X0071837Y0072109D01*
X0072039Y0072248D01*
X0072245Y0072382D01*
X0072454Y0072510D01*
X0072666Y0072634D01*
X0072881Y0072752D01*
X0073099Y0072865D01*
X0073319Y0072973D01*
X0073543Y0073075D01*
X0073768Y0073172D01*
X0073996Y0073263D01*
X0074226Y0073348D01*
X0074458Y0073428D01*
X0074692Y0073502D01*
X0074928Y0073571D01*
X0075165Y0073633D01*
X0075404Y0073690D01*
X0075644Y0073741D01*
X0075885Y0073786D01*
X0076128Y0073825D01*
X0076371Y0073858D01*
X0076615Y0073885D01*
X0076859Y0073906D01*
X0077104Y0073921D01*
X0077350Y0073930D01*
X0077595Y0073933D01*
X0077840Y0073930D01*
X0078086Y0073921D01*
X0078331Y0073906D01*
X0078575Y0073885D01*
X0078819Y0073858D01*
X0079062Y0073825D01*
X0079305Y0073786D01*
X0079546Y0073741D01*
X0079786Y0073690D01*
X0080025Y0073633D01*
X0080262Y0073571D01*
X0080498Y0073502D01*
X0080732Y0073428D01*
X0080964Y0073348D01*
X0081194Y0073263D01*
X0081422Y0073172D01*
X0081647Y0073075D01*
X0081871Y0072973D01*
X0082091Y0072865D01*
X0082309Y0072752D01*
X0082524Y0072634D01*
X0082736Y0072510D01*
X0082945Y0072382D01*
X0083151Y0072248D01*
X0083353Y0072109D01*
X0083552Y0071965D01*
X0083747Y0071816D01*
X0083939Y0071663D01*
X0084127Y0071505D01*
X0084311Y0071343D01*
X0084490Y0071175D01*
X0084666Y0071004D01*
X0084837Y0070828D01*
X0085005Y0070649D01*
X0085167Y0070465D01*
X0085325Y0070277D01*
X0085478Y0070085D01*
X0085627Y0069890D01*
X0085771Y0069691D01*
X0085910Y0069489D01*
X0086044Y0069283D01*
X0086172Y0069074D01*
X0086296Y0068862D01*
X0086414Y0068647D01*
X0086527Y0068429D01*
X0086635Y0068209D01*
X0086737Y0067985D01*
X0086834Y0067760D01*
X0086925Y0067532D01*
X0087010Y0067302D01*
X0087090Y0067070D01*
X0087164Y0066836D01*
X0087233Y0066600D01*
X0087295Y0066363D01*
X0087352Y0066124D01*
X0087403Y0065884D01*
X0087448Y0065643D01*
X0087487Y0065400D01*
X0087520Y0065157D01*
X0087547Y0064913D01*
X0087568Y0064669D01*
X0087583Y0064424D01*
X0087592Y0064178D01*
X0087595Y0063933D01*
X0087592Y0063688D01*
X0087583Y0063442D01*
X0087568Y0063197D01*
X0087547Y0062953D01*
X0087520Y0062709D01*
X0087487Y0062466D01*
X0087448Y0062223D01*
X0087403Y0061982D01*
X0087352Y0061742D01*
X0087295Y0061503D01*
X0087233Y0061266D01*
X0087164Y0061030D01*
X0087090Y0060796D01*
X0087010Y0060564D01*
X0086925Y0060334D01*
X0086834Y0060106D01*
X0086737Y0059881D01*
X0086635Y0059657D01*
X0086527Y0059437D01*
X0086414Y0059219D01*
X0086296Y0059004D01*
X0086172Y0058792D01*
X0086044Y0058583D01*
X0085910Y0058377D01*
X0085771Y0058175D01*
X0085627Y0057976D01*
X0085478Y0057781D01*
X0085325Y0057589D01*
X0085167Y0057401D01*
X0085005Y0057217D01*
X0084837Y0057038D01*
X0084666Y0056862D01*
X0084490Y0056691D01*
X0084311Y0056523D01*
X0084127Y0056361D01*
X0083939Y0056203D01*
X0083747Y0056050D01*
X0083552Y0055901D01*
X0083353Y0055757D01*
X0083151Y0055618D01*
X0082945Y0055484D01*
X0082736Y0055356D01*
X0082524Y0055232D01*
X0082309Y0055114D01*
X0082091Y0055001D01*
X0081871Y0054893D01*
X0081647Y0054791D01*
X0081422Y0054694D01*
X0081194Y0054603D01*
X0080964Y0054518D01*
X0080732Y0054438D01*
X0080498Y0054364D01*
X0080262Y0054295D01*
X0080025Y0054233D01*
X0079786Y0054176D01*
X0079546Y0054125D01*
X0079305Y0054080D01*
X0079062Y0054041D01*
X0078819Y0054008D01*
X0078575Y0053981D01*
X0078331Y0053960D01*
X0078086Y0053945D01*
X0077840Y0053936D01*
X0077595Y0053933D01*
X0077350Y0053936D01*
X0077104Y0053945D01*
X0076859Y0053960D01*
X0076615Y0053981D01*
X0076371Y0054008D01*
X0076128Y0054041D01*
X0075885Y0054080D01*
X0075644Y0054125D01*
X0075404Y0054176D01*
X0075165Y0054233D01*
X0074928Y0054295D01*
X0074692Y0054364D01*
X0074458Y0054438D01*
X0074226Y0054518D01*
X0073996Y0054603D01*
X0073768Y0054694D01*
X0073543Y0054791D01*
X0073319Y0054893D01*
X0073099Y0055001D01*
X0072881Y0055114D01*
X0072666Y0055232D01*
X0072454Y0055356D01*
X0072245Y0055484D01*
X0072039Y0055618D01*
X0071837Y0055757D01*
X0071638Y0055901D01*
X0071443Y0056050D01*
X0071251Y0056203D01*
X0071063Y0056361D01*
X0070879Y0056523D01*
X0070700Y0056691D01*
X0070524Y0056862D01*
X0070353Y0057038D01*
X0070185Y0057217D01*
X0070023Y0057401D01*
X0069865Y0057589D01*
X0069712Y0057781D01*
X0069563Y0057976D01*
X0069419Y0058175D01*
X0069280Y0058377D01*
X0069146Y0058583D01*
X0069018Y0058792D01*
X0068894Y0059004D01*
X0068776Y0059219D01*
X0068663Y0059437D01*
X0068555Y0059657D01*
X0068453Y0059881D01*
X0068356Y0060106D01*
X0068265Y0060334D01*
X0068180Y0060564D01*
X0068100Y0060796D01*
X0068026Y0061030D01*
X0067957Y0061266D01*
X0067895Y0061503D01*
X0067838Y0061742D01*
X0067787Y0061982D01*
X0067742Y0062223D01*
X0067703Y0062466D01*
X0067670Y0062709D01*
X0067643Y0062953D01*
X0067622Y0063197D01*
X0067607Y0063442D01*
X0067598Y0063688D01*
X0067595Y0063933D01*
X0097595Y0063933D02*
X0097598Y0064178D01*
X0097607Y0064424D01*
X0097622Y0064669D01*
X0097643Y0064913D01*
X0097670Y0065157D01*
X0097703Y0065400D01*
X0097742Y0065643D01*
X0097787Y0065884D01*
X0097838Y0066124D01*
X0097895Y0066363D01*
X0097957Y0066600D01*
X0098026Y0066836D01*
X0098100Y0067070D01*
X0098180Y0067302D01*
X0098265Y0067532D01*
X0098356Y0067760D01*
X0098453Y0067985D01*
X0098555Y0068209D01*
X0098663Y0068429D01*
X0098776Y0068647D01*
X0098894Y0068862D01*
X0099018Y0069074D01*
X0099146Y0069283D01*
X0099280Y0069489D01*
X0099419Y0069691D01*
X0099563Y0069890D01*
X0099712Y0070085D01*
X0099865Y0070277D01*
X0100023Y0070465D01*
X0100185Y0070649D01*
X0100353Y0070828D01*
X0100524Y0071004D01*
X0100700Y0071175D01*
X0100879Y0071343D01*
X0101063Y0071505D01*
X0101251Y0071663D01*
X0101443Y0071816D01*
X0101638Y0071965D01*
X0101837Y0072109D01*
X0102039Y0072248D01*
X0102245Y0072382D01*
X0102454Y0072510D01*
X0102666Y0072634D01*
X0102881Y0072752D01*
X0103099Y0072865D01*
X0103319Y0072973D01*
X0103543Y0073075D01*
X0103768Y0073172D01*
X0103996Y0073263D01*
X0104226Y0073348D01*
X0104458Y0073428D01*
X0104692Y0073502D01*
X0104928Y0073571D01*
X0105165Y0073633D01*
X0105404Y0073690D01*
X0105644Y0073741D01*
X0105885Y0073786D01*
X0106128Y0073825D01*
X0106371Y0073858D01*
X0106615Y0073885D01*
X0106859Y0073906D01*
X0107104Y0073921D01*
X0107350Y0073930D01*
X0107595Y0073933D01*
X0107840Y0073930D01*
X0108086Y0073921D01*
X0108331Y0073906D01*
X0108575Y0073885D01*
X0108819Y0073858D01*
X0109062Y0073825D01*
X0109305Y0073786D01*
X0109546Y0073741D01*
X0109786Y0073690D01*
X0110025Y0073633D01*
X0110262Y0073571D01*
X0110498Y0073502D01*
X0110732Y0073428D01*
X0110964Y0073348D01*
X0111194Y0073263D01*
X0111422Y0073172D01*
X0111647Y0073075D01*
X0111871Y0072973D01*
X0112091Y0072865D01*
X0112309Y0072752D01*
X0112524Y0072634D01*
X0112736Y0072510D01*
X0112945Y0072382D01*
X0113151Y0072248D01*
X0113353Y0072109D01*
X0113552Y0071965D01*
X0113747Y0071816D01*
X0113939Y0071663D01*
X0114127Y0071505D01*
X0114311Y0071343D01*
X0114490Y0071175D01*
X0114666Y0071004D01*
X0114837Y0070828D01*
X0115005Y0070649D01*
X0115167Y0070465D01*
X0115325Y0070277D01*
X0115478Y0070085D01*
X0115627Y0069890D01*
X0115771Y0069691D01*
X0115910Y0069489D01*
X0116044Y0069283D01*
X0116172Y0069074D01*
X0116296Y0068862D01*
X0116414Y0068647D01*
X0116527Y0068429D01*
X0116635Y0068209D01*
X0116737Y0067985D01*
X0116834Y0067760D01*
X0116925Y0067532D01*
X0117010Y0067302D01*
X0117090Y0067070D01*
X0117164Y0066836D01*
X0117233Y0066600D01*
X0117295Y0066363D01*
X0117352Y0066124D01*
X0117403Y0065884D01*
X0117448Y0065643D01*
X0117487Y0065400D01*
X0117520Y0065157D01*
X0117547Y0064913D01*
X0117568Y0064669D01*
X0117583Y0064424D01*
X0117592Y0064178D01*
X0117595Y0063933D01*
X0117592Y0063688D01*
X0117583Y0063442D01*
X0117568Y0063197D01*
X0117547Y0062953D01*
X0117520Y0062709D01*
X0117487Y0062466D01*
X0117448Y0062223D01*
X0117403Y0061982D01*
X0117352Y0061742D01*
X0117295Y0061503D01*
X0117233Y0061266D01*
X0117164Y0061030D01*
X0117090Y0060796D01*
X0117010Y0060564D01*
X0116925Y0060334D01*
X0116834Y0060106D01*
X0116737Y0059881D01*
X0116635Y0059657D01*
X0116527Y0059437D01*
X0116414Y0059219D01*
X0116296Y0059004D01*
X0116172Y0058792D01*
X0116044Y0058583D01*
X0115910Y0058377D01*
X0115771Y0058175D01*
X0115627Y0057976D01*
X0115478Y0057781D01*
X0115325Y0057589D01*
X0115167Y0057401D01*
X0115005Y0057217D01*
X0114837Y0057038D01*
X0114666Y0056862D01*
X0114490Y0056691D01*
X0114311Y0056523D01*
X0114127Y0056361D01*
X0113939Y0056203D01*
X0113747Y0056050D01*
X0113552Y0055901D01*
X0113353Y0055757D01*
X0113151Y0055618D01*
X0112945Y0055484D01*
X0112736Y0055356D01*
X0112524Y0055232D01*
X0112309Y0055114D01*
X0112091Y0055001D01*
X0111871Y0054893D01*
X0111647Y0054791D01*
X0111422Y0054694D01*
X0111194Y0054603D01*
X0110964Y0054518D01*
X0110732Y0054438D01*
X0110498Y0054364D01*
X0110262Y0054295D01*
X0110025Y0054233D01*
X0109786Y0054176D01*
X0109546Y0054125D01*
X0109305Y0054080D01*
X0109062Y0054041D01*
X0108819Y0054008D01*
X0108575Y0053981D01*
X0108331Y0053960D01*
X0108086Y0053945D01*
X0107840Y0053936D01*
X0107595Y0053933D01*
X0107350Y0053936D01*
X0107104Y0053945D01*
X0106859Y0053960D01*
X0106615Y0053981D01*
X0106371Y0054008D01*
X0106128Y0054041D01*
X0105885Y0054080D01*
X0105644Y0054125D01*
X0105404Y0054176D01*
X0105165Y0054233D01*
X0104928Y0054295D01*
X0104692Y0054364D01*
X0104458Y0054438D01*
X0104226Y0054518D01*
X0103996Y0054603D01*
X0103768Y0054694D01*
X0103543Y0054791D01*
X0103319Y0054893D01*
X0103099Y0055001D01*
X0102881Y0055114D01*
X0102666Y0055232D01*
X0102454Y0055356D01*
X0102245Y0055484D01*
X0102039Y0055618D01*
X0101837Y0055757D01*
X0101638Y0055901D01*
X0101443Y0056050D01*
X0101251Y0056203D01*
X0101063Y0056361D01*
X0100879Y0056523D01*
X0100700Y0056691D01*
X0100524Y0056862D01*
X0100353Y0057038D01*
X0100185Y0057217D01*
X0100023Y0057401D01*
X0099865Y0057589D01*
X0099712Y0057781D01*
X0099563Y0057976D01*
X0099419Y0058175D01*
X0099280Y0058377D01*
X0099146Y0058583D01*
X0099018Y0058792D01*
X0098894Y0059004D01*
X0098776Y0059219D01*
X0098663Y0059437D01*
X0098555Y0059657D01*
X0098453Y0059881D01*
X0098356Y0060106D01*
X0098265Y0060334D01*
X0098180Y0060564D01*
X0098100Y0060796D01*
X0098026Y0061030D01*
X0097957Y0061266D01*
X0097895Y0061503D01*
X0097838Y0061742D01*
X0097787Y0061982D01*
X0097742Y0062223D01*
X0097703Y0062466D01*
X0097670Y0062709D01*
X0097643Y0062953D01*
X0097622Y0063197D01*
X0097607Y0063442D01*
X0097598Y0063688D01*
X0097595Y0063933D01*
X0118595Y0084343D02*
X0120435Y0086183D01*
X0119208Y0086183D01*
X0118045Y0086733D02*
X0117431Y0086733D01*
X0116511Y0087653D01*
X0115898Y0087040D02*
X0117738Y0088880D01*
X0118658Y0087960D01*
X0118658Y0087346D01*
X0118045Y0086733D01*
X0117125Y0087040D02*
X0117125Y0085813D01*
X0117982Y0084956D02*
X0119208Y0083729D01*
X0157595Y0063933D02*
X0157598Y0064178D01*
X0157607Y0064424D01*
X0157622Y0064669D01*
X0157643Y0064913D01*
X0157670Y0065157D01*
X0157703Y0065400D01*
X0157742Y0065643D01*
X0157787Y0065884D01*
X0157838Y0066124D01*
X0157895Y0066363D01*
X0157957Y0066600D01*
X0158026Y0066836D01*
X0158100Y0067070D01*
X0158180Y0067302D01*
X0158265Y0067532D01*
X0158356Y0067760D01*
X0158453Y0067985D01*
X0158555Y0068209D01*
X0158663Y0068429D01*
X0158776Y0068647D01*
X0158894Y0068862D01*
X0159018Y0069074D01*
X0159146Y0069283D01*
X0159280Y0069489D01*
X0159419Y0069691D01*
X0159563Y0069890D01*
X0159712Y0070085D01*
X0159865Y0070277D01*
X0160023Y0070465D01*
X0160185Y0070649D01*
X0160353Y0070828D01*
X0160524Y0071004D01*
X0160700Y0071175D01*
X0160879Y0071343D01*
X0161063Y0071505D01*
X0161251Y0071663D01*
X0161443Y0071816D01*
X0161638Y0071965D01*
X0161837Y0072109D01*
X0162039Y0072248D01*
X0162245Y0072382D01*
X0162454Y0072510D01*
X0162666Y0072634D01*
X0162881Y0072752D01*
X0163099Y0072865D01*
X0163319Y0072973D01*
X0163543Y0073075D01*
X0163768Y0073172D01*
X0163996Y0073263D01*
X0164226Y0073348D01*
X0164458Y0073428D01*
X0164692Y0073502D01*
X0164928Y0073571D01*
X0165165Y0073633D01*
X0165404Y0073690D01*
X0165644Y0073741D01*
X0165885Y0073786D01*
X0166128Y0073825D01*
X0166371Y0073858D01*
X0166615Y0073885D01*
X0166859Y0073906D01*
X0167104Y0073921D01*
X0167350Y0073930D01*
X0167595Y0073933D01*
X0167840Y0073930D01*
X0168086Y0073921D01*
X0168331Y0073906D01*
X0168575Y0073885D01*
X0168819Y0073858D01*
X0169062Y0073825D01*
X0169305Y0073786D01*
X0169546Y0073741D01*
X0169786Y0073690D01*
X0170025Y0073633D01*
X0170262Y0073571D01*
X0170498Y0073502D01*
X0170732Y0073428D01*
X0170964Y0073348D01*
X0171194Y0073263D01*
X0171422Y0073172D01*
X0171647Y0073075D01*
X0171871Y0072973D01*
X0172091Y0072865D01*
X0172309Y0072752D01*
X0172524Y0072634D01*
X0172736Y0072510D01*
X0172945Y0072382D01*
X0173151Y0072248D01*
X0173353Y0072109D01*
X0173552Y0071965D01*
X0173747Y0071816D01*
X0173939Y0071663D01*
X0174127Y0071505D01*
X0174311Y0071343D01*
X0174490Y0071175D01*
X0174666Y0071004D01*
X0174837Y0070828D01*
X0175005Y0070649D01*
X0175167Y0070465D01*
X0175325Y0070277D01*
X0175478Y0070085D01*
X0175627Y0069890D01*
X0175771Y0069691D01*
X0175910Y0069489D01*
X0176044Y0069283D01*
X0176172Y0069074D01*
X0176296Y0068862D01*
X0176414Y0068647D01*
X0176527Y0068429D01*
X0176635Y0068209D01*
X0176737Y0067985D01*
X0176834Y0067760D01*
X0176925Y0067532D01*
X0177010Y0067302D01*
X0177090Y0067070D01*
X0177164Y0066836D01*
X0177233Y0066600D01*
X0177295Y0066363D01*
X0177352Y0066124D01*
X0177403Y0065884D01*
X0177448Y0065643D01*
X0177487Y0065400D01*
X0177520Y0065157D01*
X0177547Y0064913D01*
X0177568Y0064669D01*
X0177583Y0064424D01*
X0177592Y0064178D01*
X0177595Y0063933D01*
X0177592Y0063688D01*
X0177583Y0063442D01*
X0177568Y0063197D01*
X0177547Y0062953D01*
X0177520Y0062709D01*
X0177487Y0062466D01*
X0177448Y0062223D01*
X0177403Y0061982D01*
X0177352Y0061742D01*
X0177295Y0061503D01*
X0177233Y0061266D01*
X0177164Y0061030D01*
X0177090Y0060796D01*
X0177010Y0060564D01*
X0176925Y0060334D01*
X0176834Y0060106D01*
X0176737Y0059881D01*
X0176635Y0059657D01*
X0176527Y0059437D01*
X0176414Y0059219D01*
X0176296Y0059004D01*
X0176172Y0058792D01*
X0176044Y0058583D01*
X0175910Y0058377D01*
X0175771Y0058175D01*
X0175627Y0057976D01*
X0175478Y0057781D01*
X0175325Y0057589D01*
X0175167Y0057401D01*
X0175005Y0057217D01*
X0174837Y0057038D01*
X0174666Y0056862D01*
X0174490Y0056691D01*
X0174311Y0056523D01*
X0174127Y0056361D01*
X0173939Y0056203D01*
X0173747Y0056050D01*
X0173552Y0055901D01*
X0173353Y0055757D01*
X0173151Y0055618D01*
X0172945Y0055484D01*
X0172736Y0055356D01*
X0172524Y0055232D01*
X0172309Y0055114D01*
X0172091Y0055001D01*
X0171871Y0054893D01*
X0171647Y0054791D01*
X0171422Y0054694D01*
X0171194Y0054603D01*
X0170964Y0054518D01*
X0170732Y0054438D01*
X0170498Y0054364D01*
X0170262Y0054295D01*
X0170025Y0054233D01*
X0169786Y0054176D01*
X0169546Y0054125D01*
X0169305Y0054080D01*
X0169062Y0054041D01*
X0168819Y0054008D01*
X0168575Y0053981D01*
X0168331Y0053960D01*
X0168086Y0053945D01*
X0167840Y0053936D01*
X0167595Y0053933D01*
X0167350Y0053936D01*
X0167104Y0053945D01*
X0166859Y0053960D01*
X0166615Y0053981D01*
X0166371Y0054008D01*
X0166128Y0054041D01*
X0165885Y0054080D01*
X0165644Y0054125D01*
X0165404Y0054176D01*
X0165165Y0054233D01*
X0164928Y0054295D01*
X0164692Y0054364D01*
X0164458Y0054438D01*
X0164226Y0054518D01*
X0163996Y0054603D01*
X0163768Y0054694D01*
X0163543Y0054791D01*
X0163319Y0054893D01*
X0163099Y0055001D01*
X0162881Y0055114D01*
X0162666Y0055232D01*
X0162454Y0055356D01*
X0162245Y0055484D01*
X0162039Y0055618D01*
X0161837Y0055757D01*
X0161638Y0055901D01*
X0161443Y0056050D01*
X0161251Y0056203D01*
X0161063Y0056361D01*
X0160879Y0056523D01*
X0160700Y0056691D01*
X0160524Y0056862D01*
X0160353Y0057038D01*
X0160185Y0057217D01*
X0160023Y0057401D01*
X0159865Y0057589D01*
X0159712Y0057781D01*
X0159563Y0057976D01*
X0159419Y0058175D01*
X0159280Y0058377D01*
X0159146Y0058583D01*
X0159018Y0058792D01*
X0158894Y0059004D01*
X0158776Y0059219D01*
X0158663Y0059437D01*
X0158555Y0059657D01*
X0158453Y0059881D01*
X0158356Y0060106D01*
X0158265Y0060334D01*
X0158180Y0060564D01*
X0158100Y0060796D01*
X0158026Y0061030D01*
X0157957Y0061266D01*
X0157895Y0061503D01*
X0157838Y0061742D01*
X0157787Y0061982D01*
X0157742Y0062223D01*
X0157703Y0062466D01*
X0157670Y0062709D01*
X0157643Y0062953D01*
X0157622Y0063197D01*
X0157607Y0063442D01*
X0157598Y0063688D01*
X0157595Y0063933D01*
X0187595Y0063933D02*
X0187598Y0064178D01*
X0187607Y0064424D01*
X0187622Y0064669D01*
X0187643Y0064913D01*
X0187670Y0065157D01*
X0187703Y0065400D01*
X0187742Y0065643D01*
X0187787Y0065884D01*
X0187838Y0066124D01*
X0187895Y0066363D01*
X0187957Y0066600D01*
X0188026Y0066836D01*
X0188100Y0067070D01*
X0188180Y0067302D01*
X0188265Y0067532D01*
X0188356Y0067760D01*
X0188453Y0067985D01*
X0188555Y0068209D01*
X0188663Y0068429D01*
X0188776Y0068647D01*
X0188894Y0068862D01*
X0189018Y0069074D01*
X0189146Y0069283D01*
X0189280Y0069489D01*
X0189419Y0069691D01*
X0189563Y0069890D01*
X0189712Y0070085D01*
X0189865Y0070277D01*
X0190023Y0070465D01*
X0190185Y0070649D01*
X0190353Y0070828D01*
X0190524Y0071004D01*
X0190700Y0071175D01*
X0190879Y0071343D01*
X0191063Y0071505D01*
X0191251Y0071663D01*
X0191443Y0071816D01*
X0191638Y0071965D01*
X0191837Y0072109D01*
X0192039Y0072248D01*
X0192245Y0072382D01*
X0192454Y0072510D01*
X0192666Y0072634D01*
X0192881Y0072752D01*
X0193099Y0072865D01*
X0193319Y0072973D01*
X0193543Y0073075D01*
X0193768Y0073172D01*
X0193996Y0073263D01*
X0194226Y0073348D01*
X0194458Y0073428D01*
X0194692Y0073502D01*
X0194928Y0073571D01*
X0195165Y0073633D01*
X0195404Y0073690D01*
X0195644Y0073741D01*
X0195885Y0073786D01*
X0196128Y0073825D01*
X0196371Y0073858D01*
X0196615Y0073885D01*
X0196859Y0073906D01*
X0197104Y0073921D01*
X0197350Y0073930D01*
X0197595Y0073933D01*
X0197840Y0073930D01*
X0198086Y0073921D01*
X0198331Y0073906D01*
X0198575Y0073885D01*
X0198819Y0073858D01*
X0199062Y0073825D01*
X0199305Y0073786D01*
X0199546Y0073741D01*
X0199786Y0073690D01*
X0200025Y0073633D01*
X0200262Y0073571D01*
X0200498Y0073502D01*
X0200732Y0073428D01*
X0200964Y0073348D01*
X0201194Y0073263D01*
X0201422Y0073172D01*
X0201647Y0073075D01*
X0201871Y0072973D01*
X0202091Y0072865D01*
X0202309Y0072752D01*
X0202524Y0072634D01*
X0202736Y0072510D01*
X0202945Y0072382D01*
X0203151Y0072248D01*
X0203353Y0072109D01*
X0203552Y0071965D01*
X0203747Y0071816D01*
X0203939Y0071663D01*
X0204127Y0071505D01*
X0204311Y0071343D01*
X0204490Y0071175D01*
X0204666Y0071004D01*
X0204837Y0070828D01*
X0205005Y0070649D01*
X0205167Y0070465D01*
X0205325Y0070277D01*
X0205478Y0070085D01*
X0205627Y0069890D01*
X0205771Y0069691D01*
X0205910Y0069489D01*
X0206044Y0069283D01*
X0206172Y0069074D01*
X0206296Y0068862D01*
X0206414Y0068647D01*
X0206527Y0068429D01*
X0206635Y0068209D01*
X0206737Y0067985D01*
X0206834Y0067760D01*
X0206925Y0067532D01*
X0207010Y0067302D01*
X0207090Y0067070D01*
X0207164Y0066836D01*
X0207233Y0066600D01*
X0207295Y0066363D01*
X0207352Y0066124D01*
X0207403Y0065884D01*
X0207448Y0065643D01*
X0207487Y0065400D01*
X0207520Y0065157D01*
X0207547Y0064913D01*
X0207568Y0064669D01*
X0207583Y0064424D01*
X0207592Y0064178D01*
X0207595Y0063933D01*
X0207592Y0063688D01*
X0207583Y0063442D01*
X0207568Y0063197D01*
X0207547Y0062953D01*
X0207520Y0062709D01*
X0207487Y0062466D01*
X0207448Y0062223D01*
X0207403Y0061982D01*
X0207352Y0061742D01*
X0207295Y0061503D01*
X0207233Y0061266D01*
X0207164Y0061030D01*
X0207090Y0060796D01*
X0207010Y0060564D01*
X0206925Y0060334D01*
X0206834Y0060106D01*
X0206737Y0059881D01*
X0206635Y0059657D01*
X0206527Y0059437D01*
X0206414Y0059219D01*
X0206296Y0059004D01*
X0206172Y0058792D01*
X0206044Y0058583D01*
X0205910Y0058377D01*
X0205771Y0058175D01*
X0205627Y0057976D01*
X0205478Y0057781D01*
X0205325Y0057589D01*
X0205167Y0057401D01*
X0205005Y0057217D01*
X0204837Y0057038D01*
X0204666Y0056862D01*
X0204490Y0056691D01*
X0204311Y0056523D01*
X0204127Y0056361D01*
X0203939Y0056203D01*
X0203747Y0056050D01*
X0203552Y0055901D01*
X0203353Y0055757D01*
X0203151Y0055618D01*
X0202945Y0055484D01*
X0202736Y0055356D01*
X0202524Y0055232D01*
X0202309Y0055114D01*
X0202091Y0055001D01*
X0201871Y0054893D01*
X0201647Y0054791D01*
X0201422Y0054694D01*
X0201194Y0054603D01*
X0200964Y0054518D01*
X0200732Y0054438D01*
X0200498Y0054364D01*
X0200262Y0054295D01*
X0200025Y0054233D01*
X0199786Y0054176D01*
X0199546Y0054125D01*
X0199305Y0054080D01*
X0199062Y0054041D01*
X0198819Y0054008D01*
X0198575Y0053981D01*
X0198331Y0053960D01*
X0198086Y0053945D01*
X0197840Y0053936D01*
X0197595Y0053933D01*
X0197350Y0053936D01*
X0197104Y0053945D01*
X0196859Y0053960D01*
X0196615Y0053981D01*
X0196371Y0054008D01*
X0196128Y0054041D01*
X0195885Y0054080D01*
X0195644Y0054125D01*
X0195404Y0054176D01*
X0195165Y0054233D01*
X0194928Y0054295D01*
X0194692Y0054364D01*
X0194458Y0054438D01*
X0194226Y0054518D01*
X0193996Y0054603D01*
X0193768Y0054694D01*
X0193543Y0054791D01*
X0193319Y0054893D01*
X0193099Y0055001D01*
X0192881Y0055114D01*
X0192666Y0055232D01*
X0192454Y0055356D01*
X0192245Y0055484D01*
X0192039Y0055618D01*
X0191837Y0055757D01*
X0191638Y0055901D01*
X0191443Y0056050D01*
X0191251Y0056203D01*
X0191063Y0056361D01*
X0190879Y0056523D01*
X0190700Y0056691D01*
X0190524Y0056862D01*
X0190353Y0057038D01*
X0190185Y0057217D01*
X0190023Y0057401D01*
X0189865Y0057589D01*
X0189712Y0057781D01*
X0189563Y0057976D01*
X0189419Y0058175D01*
X0189280Y0058377D01*
X0189146Y0058583D01*
X0189018Y0058792D01*
X0188894Y0059004D01*
X0188776Y0059219D01*
X0188663Y0059437D01*
X0188555Y0059657D01*
X0188453Y0059881D01*
X0188356Y0060106D01*
X0188265Y0060334D01*
X0188180Y0060564D01*
X0188100Y0060796D01*
X0188026Y0061030D01*
X0187957Y0061266D01*
X0187895Y0061503D01*
X0187838Y0061742D01*
X0187787Y0061982D01*
X0187742Y0062223D01*
X0187703Y0062466D01*
X0187670Y0062709D01*
X0187643Y0062953D01*
X0187622Y0063197D01*
X0187607Y0063442D01*
X0187598Y0063688D01*
X0187595Y0063933D01*
X0217595Y0063933D02*
X0217598Y0064178D01*
X0217607Y0064424D01*
X0217622Y0064669D01*
X0217643Y0064913D01*
X0217670Y0065157D01*
X0217703Y0065400D01*
X0217742Y0065643D01*
X0217787Y0065884D01*
X0217838Y0066124D01*
X0217895Y0066363D01*
X0217957Y0066600D01*
X0218026Y0066836D01*
X0218100Y0067070D01*
X0218180Y0067302D01*
X0218265Y0067532D01*
X0218356Y0067760D01*
X0218453Y0067985D01*
X0218555Y0068209D01*
X0218663Y0068429D01*
X0218776Y0068647D01*
X0218894Y0068862D01*
X0219018Y0069074D01*
X0219146Y0069283D01*
X0219280Y0069489D01*
X0219419Y0069691D01*
X0219563Y0069890D01*
X0219712Y0070085D01*
X0219865Y0070277D01*
X0220023Y0070465D01*
X0220185Y0070649D01*
X0220353Y0070828D01*
X0220524Y0071004D01*
X0220700Y0071175D01*
X0220879Y0071343D01*
X0221063Y0071505D01*
X0221251Y0071663D01*
X0221443Y0071816D01*
X0221638Y0071965D01*
X0221837Y0072109D01*
X0222039Y0072248D01*
X0222245Y0072382D01*
X0222454Y0072510D01*
X0222666Y0072634D01*
X0222881Y0072752D01*
X0223099Y0072865D01*
X0223319Y0072973D01*
X0223543Y0073075D01*
X0223768Y0073172D01*
X0223996Y0073263D01*
X0224226Y0073348D01*
X0224458Y0073428D01*
X0224692Y0073502D01*
X0224928Y0073571D01*
X0225165Y0073633D01*
X0225404Y0073690D01*
X0225644Y0073741D01*
X0225885Y0073786D01*
X0226128Y0073825D01*
X0226371Y0073858D01*
X0226615Y0073885D01*
X0226859Y0073906D01*
X0227104Y0073921D01*
X0227350Y0073930D01*
X0227595Y0073933D01*
X0227840Y0073930D01*
X0228086Y0073921D01*
X0228331Y0073906D01*
X0228575Y0073885D01*
X0228819Y0073858D01*
X0229062Y0073825D01*
X0229305Y0073786D01*
X0229546Y0073741D01*
X0229786Y0073690D01*
X0230025Y0073633D01*
X0230262Y0073571D01*
X0230498Y0073502D01*
X0230732Y0073428D01*
X0230964Y0073348D01*
X0231194Y0073263D01*
X0231422Y0073172D01*
X0231647Y0073075D01*
X0231871Y0072973D01*
X0232091Y0072865D01*
X0232309Y0072752D01*
X0232524Y0072634D01*
X0232736Y0072510D01*
X0232945Y0072382D01*
X0233151Y0072248D01*
X0233353Y0072109D01*
X0233552Y0071965D01*
X0233747Y0071816D01*
X0233939Y0071663D01*
X0234127Y0071505D01*
X0234311Y0071343D01*
X0234490Y0071175D01*
X0234666Y0071004D01*
X0234837Y0070828D01*
X0235005Y0070649D01*
X0235167Y0070465D01*
X0235325Y0070277D01*
X0235478Y0070085D01*
X0235627Y0069890D01*
X0235771Y0069691D01*
X0235910Y0069489D01*
X0236044Y0069283D01*
X0236172Y0069074D01*
X0236296Y0068862D01*
X0236414Y0068647D01*
X0236527Y0068429D01*
X0236635Y0068209D01*
X0236737Y0067985D01*
X0236834Y0067760D01*
X0236925Y0067532D01*
X0237010Y0067302D01*
X0237090Y0067070D01*
X0237164Y0066836D01*
X0237233Y0066600D01*
X0237295Y0066363D01*
X0237352Y0066124D01*
X0237403Y0065884D01*
X0237448Y0065643D01*
X0237487Y0065400D01*
X0237520Y0065157D01*
X0237547Y0064913D01*
X0237568Y0064669D01*
X0237583Y0064424D01*
X0237592Y0064178D01*
X0237595Y0063933D01*
X0237592Y0063688D01*
X0237583Y0063442D01*
X0237568Y0063197D01*
X0237547Y0062953D01*
X0237520Y0062709D01*
X0237487Y0062466D01*
X0237448Y0062223D01*
X0237403Y0061982D01*
X0237352Y0061742D01*
X0237295Y0061503D01*
X0237233Y0061266D01*
X0237164Y0061030D01*
X0237090Y0060796D01*
X0237010Y0060564D01*
X0236925Y0060334D01*
X0236834Y0060106D01*
X0236737Y0059881D01*
X0236635Y0059657D01*
X0236527Y0059437D01*
X0236414Y0059219D01*
X0236296Y0059004D01*
X0236172Y0058792D01*
X0236044Y0058583D01*
X0235910Y0058377D01*
X0235771Y0058175D01*
X0235627Y0057976D01*
X0235478Y0057781D01*
X0235325Y0057589D01*
X0235167Y0057401D01*
X0235005Y0057217D01*
X0234837Y0057038D01*
X0234666Y0056862D01*
X0234490Y0056691D01*
X0234311Y0056523D01*
X0234127Y0056361D01*
X0233939Y0056203D01*
X0233747Y0056050D01*
X0233552Y0055901D01*
X0233353Y0055757D01*
X0233151Y0055618D01*
X0232945Y0055484D01*
X0232736Y0055356D01*
X0232524Y0055232D01*
X0232309Y0055114D01*
X0232091Y0055001D01*
X0231871Y0054893D01*
X0231647Y0054791D01*
X0231422Y0054694D01*
X0231194Y0054603D01*
X0230964Y0054518D01*
X0230732Y0054438D01*
X0230498Y0054364D01*
X0230262Y0054295D01*
X0230025Y0054233D01*
X0229786Y0054176D01*
X0229546Y0054125D01*
X0229305Y0054080D01*
X0229062Y0054041D01*
X0228819Y0054008D01*
X0228575Y0053981D01*
X0228331Y0053960D01*
X0228086Y0053945D01*
X0227840Y0053936D01*
X0227595Y0053933D01*
X0227350Y0053936D01*
X0227104Y0053945D01*
X0226859Y0053960D01*
X0226615Y0053981D01*
X0226371Y0054008D01*
X0226128Y0054041D01*
X0225885Y0054080D01*
X0225644Y0054125D01*
X0225404Y0054176D01*
X0225165Y0054233D01*
X0224928Y0054295D01*
X0224692Y0054364D01*
X0224458Y0054438D01*
X0224226Y0054518D01*
X0223996Y0054603D01*
X0223768Y0054694D01*
X0223543Y0054791D01*
X0223319Y0054893D01*
X0223099Y0055001D01*
X0222881Y0055114D01*
X0222666Y0055232D01*
X0222454Y0055356D01*
X0222245Y0055484D01*
X0222039Y0055618D01*
X0221837Y0055757D01*
X0221638Y0055901D01*
X0221443Y0056050D01*
X0221251Y0056203D01*
X0221063Y0056361D01*
X0220879Y0056523D01*
X0220700Y0056691D01*
X0220524Y0056862D01*
X0220353Y0057038D01*
X0220185Y0057217D01*
X0220023Y0057401D01*
X0219865Y0057589D01*
X0219712Y0057781D01*
X0219563Y0057976D01*
X0219419Y0058175D01*
X0219280Y0058377D01*
X0219146Y0058583D01*
X0219018Y0058792D01*
X0218894Y0059004D01*
X0218776Y0059219D01*
X0218663Y0059437D01*
X0218555Y0059657D01*
X0218453Y0059881D01*
X0218356Y0060106D01*
X0218265Y0060334D01*
X0218180Y0060564D01*
X0218100Y0060796D01*
X0218026Y0061030D01*
X0217957Y0061266D01*
X0217895Y0061503D01*
X0217838Y0061742D01*
X0217787Y0061982D01*
X0217742Y0062223D01*
X0217703Y0062466D01*
X0217670Y0062709D01*
X0217643Y0062953D01*
X0217622Y0063197D01*
X0217607Y0063442D01*
X0217598Y0063688D01*
X0217595Y0063933D01*
D14*
X0054445Y0033267D02*
X0049941Y0033267D01*
X0054445Y0033267D02*
X0054445Y0036270D01*
X0054445Y0037871D02*
X0049941Y0037871D01*
X0049941Y0040874D01*
X0049941Y0042475D02*
X0049941Y0044727D01*
X0050692Y0045478D01*
X0053695Y0045478D01*
X0054445Y0044727D01*
X0054445Y0042475D01*
X0049941Y0042475D01*
X0054445Y0040874D02*
X0054445Y0037871D01*
X0052193Y0037871D02*
X0052193Y0039373D01*
X0052193Y0047079D02*
X0052193Y0049331D01*
X0052944Y0050082D01*
X0053695Y0050082D01*
X0054445Y0049331D01*
X0054445Y0047830D01*
X0053695Y0047079D01*
X0052193Y0047079D01*
X0050692Y0048580D01*
X0049941Y0050082D01*
X0079941Y0050082D02*
X0079941Y0047079D01*
X0082193Y0047079D01*
X0081443Y0048580D01*
X0081443Y0049331D01*
X0082193Y0050082D01*
X0083695Y0050082D01*
X0084445Y0049331D01*
X0084445Y0047830D01*
X0083695Y0047079D01*
X0083695Y0045478D02*
X0080692Y0045478D01*
X0079941Y0044727D01*
X0079941Y0042475D01*
X0084445Y0042475D01*
X0084445Y0044727D01*
X0083695Y0045478D01*
X0084445Y0040874D02*
X0084445Y0037871D01*
X0079941Y0037871D01*
X0079941Y0040874D01*
X0082193Y0039373D02*
X0082193Y0037871D01*
X0084445Y0036270D02*
X0084445Y0033267D01*
X0079941Y0033267D01*
X0109941Y0033267D02*
X0114445Y0033267D01*
X0114445Y0036270D01*
X0114445Y0037871D02*
X0109941Y0037871D01*
X0109941Y0040874D01*
X0109941Y0042475D02*
X0109941Y0044727D01*
X0110692Y0045478D01*
X0113695Y0045478D01*
X0114445Y0044727D01*
X0114445Y0042475D01*
X0109941Y0042475D01*
X0114445Y0040874D02*
X0114445Y0037871D01*
X0112193Y0037871D02*
X0112193Y0039373D01*
X0112193Y0047079D02*
X0112193Y0050082D01*
X0109941Y0049331D02*
X0112193Y0047079D01*
X0114445Y0049331D02*
X0109941Y0049331D01*
X0169941Y0049331D02*
X0169941Y0047830D01*
X0170692Y0047079D01*
X0172193Y0048580D02*
X0172193Y0049331D01*
X0172944Y0050082D01*
X0173695Y0050082D01*
X0174445Y0049331D01*
X0174445Y0047830D01*
X0173695Y0047079D01*
X0173695Y0045478D02*
X0170692Y0045478D01*
X0169941Y0044727D01*
X0169941Y0042475D01*
X0174445Y0042475D01*
X0174445Y0044727D01*
X0173695Y0045478D01*
X0172193Y0049331D02*
X0171443Y0050082D01*
X0170692Y0050082D01*
X0169941Y0049331D01*
X0169941Y0040874D02*
X0169941Y0037871D01*
X0174445Y0037871D01*
X0174445Y0040874D01*
X0172193Y0039373D02*
X0172193Y0037871D01*
X0174445Y0036270D02*
X0174445Y0033267D01*
X0169941Y0033267D01*
X0199941Y0033267D02*
X0204445Y0033267D01*
X0204445Y0036270D01*
X0204445Y0037871D02*
X0199941Y0037871D01*
X0199941Y0040874D01*
X0199941Y0042475D02*
X0199941Y0044727D01*
X0200692Y0045478D01*
X0203695Y0045478D01*
X0204445Y0044727D01*
X0204445Y0042475D01*
X0199941Y0042475D01*
X0204445Y0040874D02*
X0204445Y0037871D01*
X0202193Y0037871D02*
X0202193Y0039373D01*
X0200692Y0047079D02*
X0199941Y0047830D01*
X0199941Y0049331D01*
X0200692Y0050082D01*
X0201443Y0050082D01*
X0204445Y0047079D01*
X0204445Y0050082D01*
X0229941Y0048580D02*
X0231443Y0047079D01*
X0229941Y0048580D02*
X0234445Y0048580D01*
X0234445Y0047079D02*
X0234445Y0050082D01*
X0233695Y0045478D02*
X0230692Y0045478D01*
X0229941Y0044727D01*
X0229941Y0042475D01*
X0234445Y0042475D01*
X0234445Y0044727D01*
X0233695Y0045478D01*
X0234445Y0040874D02*
X0234445Y0037871D01*
X0229941Y0037871D01*
X0229941Y0040874D01*
X0232193Y0039373D02*
X0232193Y0037871D01*
X0234445Y0036270D02*
X0234445Y0033267D01*
X0229941Y0033267D01*
D15*
X0120643Y0063602D02*
X0117040Y0066004D01*
X0117641Y0067285D02*
X0117040Y0067885D01*
X0117040Y0069086D01*
X0117641Y0069687D01*
X0118241Y0069687D01*
X0120643Y0067285D01*
X0120643Y0069687D01*
X0120643Y0066004D02*
X0117040Y0063602D01*
D16*
X0132477Y0064346D02*
X0132477Y0062378D01*
X0132477Y0064346D02*
X0142713Y0064346D01*
X0142713Y0062378D01*
M02*
