G75*
%MOIN*%
%OFA0B0*%
%FSLAX25Y25*%
%IPPOS*%
%LPD*%
%AMOC8*
5,1,8,0,0,1.08239X$1,22.5*
%
%ADD10C,0.00100*%
%ADD11C,0.00800*%
%ADD12C,0.01000*%
%ADD13C,0.00600*%
%ADD14C,0.00500*%
%ADD15C,0.00400*%
D10*
X0057595Y0088933D02*
X0092595Y0053933D01*
X0172595Y0053933D01*
X0172595Y0078933D01*
X0147595Y0103933D01*
X0062595Y0103933D01*
X0057595Y0098933D01*
X0057595Y0088933D01*
D11*
X0057595Y0086433D02*
X0057595Y0101433D01*
X0082795Y0098433D02*
X0082795Y0089433D01*
X0102395Y0089433D01*
X0102395Y0098433D01*
X0082795Y0098433D01*
X0093095Y0086233D02*
X0102095Y0086233D01*
X0102095Y0066633D01*
X0093095Y0066633D01*
X0093095Y0086233D01*
X0100095Y0053933D02*
X0115095Y0053933D01*
X0130095Y0053933D02*
X0145095Y0053933D01*
X0160095Y0053933D02*
X0175095Y0053933D01*
D12*
X0175338Y0054120D01*
X0175576Y0054312D01*
X0175809Y0054511D01*
X0176037Y0054715D01*
X0176260Y0054924D01*
X0176478Y0055139D01*
X0176691Y0055359D01*
X0176898Y0055584D01*
X0177100Y0055815D01*
X0177296Y0056050D01*
X0177486Y0056290D01*
X0177670Y0056534D01*
X0177848Y0056783D01*
X0178020Y0057037D01*
X0178186Y0057294D01*
X0178346Y0057555D01*
X0178499Y0057820D01*
X0178645Y0058089D01*
X0178785Y0058362D01*
X0178918Y0058637D01*
X0179044Y0058916D01*
X0179164Y0059198D01*
X0179276Y0059483D01*
X0179381Y0059770D01*
X0179480Y0060060D01*
X0179571Y0060352D01*
X0179655Y0060647D01*
X0179732Y0060943D01*
X0179802Y0061241D01*
X0179864Y0061541D01*
X0179919Y0061842D01*
X0179966Y0062144D01*
X0180006Y0062448D01*
X0180039Y0062752D01*
X0180064Y0063057D01*
X0180082Y0063363D01*
X0180092Y0063669D01*
X0180095Y0063975D01*
X0180090Y0064281D01*
X0180078Y0064587D01*
X0180058Y0064893D01*
X0180031Y0065197D01*
X0179996Y0065502D01*
X0179954Y0065805D01*
X0179905Y0066107D01*
X0179848Y0066408D01*
X0179783Y0066707D01*
X0179712Y0067005D01*
X0179633Y0067300D01*
X0179547Y0067594D01*
X0179454Y0067886D01*
X0179353Y0068175D01*
X0179246Y0068462D01*
X0179131Y0068746D01*
X0179010Y0069027D01*
X0178882Y0069305D01*
X0178747Y0069580D01*
X0178605Y0069851D01*
X0178457Y0070119D01*
X0178302Y0070383D01*
X0178141Y0070643D01*
X0177974Y0070899D01*
X0177800Y0071152D01*
X0177620Y0071399D01*
X0177434Y0071643D01*
X0177243Y0071881D01*
X0177045Y0072115D01*
X0176842Y0072344D01*
X0176633Y0072568D01*
X0176419Y0072787D01*
X0176199Y0073000D01*
X0175975Y0073208D01*
X0175745Y0073411D01*
X0175511Y0073607D01*
X0175271Y0073798D01*
X0175028Y0073983D01*
X0174779Y0074162D01*
X0174527Y0074335D01*
X0174270Y0074502D01*
X0174009Y0074662D01*
X0173744Y0074816D01*
X0173476Y0074963D01*
X0173204Y0075104D01*
X0172929Y0075238D01*
X0172650Y0075365D01*
X0172369Y0075486D01*
X0172084Y0075599D01*
X0171797Y0075705D01*
X0171508Y0075805D01*
X0171216Y0075897D01*
X0170922Y0075982D01*
X0170626Y0076060D01*
X0170328Y0076131D01*
X0170028Y0076194D01*
X0169727Y0076250D01*
X0169425Y0076298D01*
X0169122Y0076339D01*
X0168818Y0076373D01*
X0168513Y0076399D01*
X0168207Y0076418D01*
X0167901Y0076429D01*
X0167595Y0076433D01*
X0167289Y0076429D01*
X0166983Y0076418D01*
X0166677Y0076399D01*
X0166372Y0076373D01*
X0166068Y0076339D01*
X0165765Y0076298D01*
X0165463Y0076250D01*
X0165162Y0076194D01*
X0164862Y0076131D01*
X0164564Y0076060D01*
X0164268Y0075982D01*
X0163974Y0075897D01*
X0163682Y0075805D01*
X0163393Y0075705D01*
X0163106Y0075599D01*
X0162821Y0075486D01*
X0162540Y0075365D01*
X0162261Y0075238D01*
X0161986Y0075104D01*
X0161714Y0074963D01*
X0161446Y0074816D01*
X0161181Y0074662D01*
X0160920Y0074502D01*
X0160663Y0074335D01*
X0160411Y0074162D01*
X0160162Y0073983D01*
X0159919Y0073798D01*
X0159679Y0073607D01*
X0159445Y0073411D01*
X0159215Y0073208D01*
X0158991Y0073000D01*
X0158771Y0072787D01*
X0158557Y0072568D01*
X0158348Y0072344D01*
X0158145Y0072115D01*
X0157947Y0071881D01*
X0157756Y0071643D01*
X0157570Y0071399D01*
X0157390Y0071152D01*
X0157216Y0070899D01*
X0157049Y0070643D01*
X0156888Y0070383D01*
X0156733Y0070119D01*
X0156585Y0069851D01*
X0156443Y0069580D01*
X0156308Y0069305D01*
X0156180Y0069027D01*
X0156059Y0068746D01*
X0155944Y0068462D01*
X0155837Y0068175D01*
X0155736Y0067886D01*
X0155643Y0067594D01*
X0155557Y0067300D01*
X0155478Y0067005D01*
X0155407Y0066707D01*
X0155342Y0066408D01*
X0155285Y0066107D01*
X0155236Y0065805D01*
X0155194Y0065502D01*
X0155159Y0065197D01*
X0155132Y0064893D01*
X0155112Y0064587D01*
X0155100Y0064281D01*
X0155095Y0063975D01*
X0155098Y0063669D01*
X0155108Y0063363D01*
X0155126Y0063057D01*
X0155151Y0062752D01*
X0155184Y0062448D01*
X0155224Y0062144D01*
X0155271Y0061842D01*
X0155326Y0061541D01*
X0155388Y0061241D01*
X0155458Y0060943D01*
X0155535Y0060647D01*
X0155619Y0060352D01*
X0155710Y0060060D01*
X0155809Y0059770D01*
X0155914Y0059483D01*
X0156026Y0059198D01*
X0156146Y0058916D01*
X0156272Y0058637D01*
X0156405Y0058362D01*
X0156545Y0058089D01*
X0156691Y0057820D01*
X0156844Y0057555D01*
X0157004Y0057294D01*
X0157170Y0057037D01*
X0157342Y0056783D01*
X0157520Y0056534D01*
X0157704Y0056290D01*
X0157894Y0056050D01*
X0158090Y0055815D01*
X0158292Y0055584D01*
X0158499Y0055359D01*
X0158712Y0055139D01*
X0158930Y0054924D01*
X0159153Y0054715D01*
X0159381Y0054511D01*
X0159614Y0054312D01*
X0159852Y0054120D01*
X0160095Y0053933D01*
X0145095Y0053933D02*
X0145338Y0054120D01*
X0145576Y0054312D01*
X0145809Y0054511D01*
X0146037Y0054715D01*
X0146260Y0054924D01*
X0146478Y0055139D01*
X0146691Y0055359D01*
X0146898Y0055584D01*
X0147100Y0055815D01*
X0147296Y0056050D01*
X0147486Y0056290D01*
X0147670Y0056534D01*
X0147848Y0056783D01*
X0148020Y0057037D01*
X0148186Y0057294D01*
X0148346Y0057555D01*
X0148499Y0057820D01*
X0148645Y0058089D01*
X0148785Y0058362D01*
X0148918Y0058637D01*
X0149044Y0058916D01*
X0149164Y0059198D01*
X0149276Y0059483D01*
X0149381Y0059770D01*
X0149480Y0060060D01*
X0149571Y0060352D01*
X0149655Y0060647D01*
X0149732Y0060943D01*
X0149802Y0061241D01*
X0149864Y0061541D01*
X0149919Y0061842D01*
X0149966Y0062144D01*
X0150006Y0062448D01*
X0150039Y0062752D01*
X0150064Y0063057D01*
X0150082Y0063363D01*
X0150092Y0063669D01*
X0150095Y0063975D01*
X0150090Y0064281D01*
X0150078Y0064587D01*
X0150058Y0064893D01*
X0150031Y0065197D01*
X0149996Y0065502D01*
X0149954Y0065805D01*
X0149905Y0066107D01*
X0149848Y0066408D01*
X0149783Y0066707D01*
X0149712Y0067005D01*
X0149633Y0067300D01*
X0149547Y0067594D01*
X0149454Y0067886D01*
X0149353Y0068175D01*
X0149246Y0068462D01*
X0149131Y0068746D01*
X0149010Y0069027D01*
X0148882Y0069305D01*
X0148747Y0069580D01*
X0148605Y0069851D01*
X0148457Y0070119D01*
X0148302Y0070383D01*
X0148141Y0070643D01*
X0147974Y0070899D01*
X0147800Y0071152D01*
X0147620Y0071399D01*
X0147434Y0071643D01*
X0147243Y0071881D01*
X0147045Y0072115D01*
X0146842Y0072344D01*
X0146633Y0072568D01*
X0146419Y0072787D01*
X0146199Y0073000D01*
X0145975Y0073208D01*
X0145745Y0073411D01*
X0145511Y0073607D01*
X0145271Y0073798D01*
X0145028Y0073983D01*
X0144779Y0074162D01*
X0144527Y0074335D01*
X0144270Y0074502D01*
X0144009Y0074662D01*
X0143744Y0074816D01*
X0143476Y0074963D01*
X0143204Y0075104D01*
X0142929Y0075238D01*
X0142650Y0075365D01*
X0142369Y0075486D01*
X0142084Y0075599D01*
X0141797Y0075705D01*
X0141508Y0075805D01*
X0141216Y0075897D01*
X0140922Y0075982D01*
X0140626Y0076060D01*
X0140328Y0076131D01*
X0140028Y0076194D01*
X0139727Y0076250D01*
X0139425Y0076298D01*
X0139122Y0076339D01*
X0138818Y0076373D01*
X0138513Y0076399D01*
X0138207Y0076418D01*
X0137901Y0076429D01*
X0137595Y0076433D01*
X0137289Y0076429D01*
X0136983Y0076418D01*
X0136677Y0076399D01*
X0136372Y0076373D01*
X0136068Y0076339D01*
X0135765Y0076298D01*
X0135463Y0076250D01*
X0135162Y0076194D01*
X0134862Y0076131D01*
X0134564Y0076060D01*
X0134268Y0075982D01*
X0133974Y0075897D01*
X0133682Y0075805D01*
X0133393Y0075705D01*
X0133106Y0075599D01*
X0132821Y0075486D01*
X0132540Y0075365D01*
X0132261Y0075238D01*
X0131986Y0075104D01*
X0131714Y0074963D01*
X0131446Y0074816D01*
X0131181Y0074662D01*
X0130920Y0074502D01*
X0130663Y0074335D01*
X0130411Y0074162D01*
X0130162Y0073983D01*
X0129919Y0073798D01*
X0129679Y0073607D01*
X0129445Y0073411D01*
X0129215Y0073208D01*
X0128991Y0073000D01*
X0128771Y0072787D01*
X0128557Y0072568D01*
X0128348Y0072344D01*
X0128145Y0072115D01*
X0127947Y0071881D01*
X0127756Y0071643D01*
X0127570Y0071399D01*
X0127390Y0071152D01*
X0127216Y0070899D01*
X0127049Y0070643D01*
X0126888Y0070383D01*
X0126733Y0070119D01*
X0126585Y0069851D01*
X0126443Y0069580D01*
X0126308Y0069305D01*
X0126180Y0069027D01*
X0126059Y0068746D01*
X0125944Y0068462D01*
X0125837Y0068175D01*
X0125736Y0067886D01*
X0125643Y0067594D01*
X0125557Y0067300D01*
X0125478Y0067005D01*
X0125407Y0066707D01*
X0125342Y0066408D01*
X0125285Y0066107D01*
X0125236Y0065805D01*
X0125194Y0065502D01*
X0125159Y0065197D01*
X0125132Y0064893D01*
X0125112Y0064587D01*
X0125100Y0064281D01*
X0125095Y0063975D01*
X0125098Y0063669D01*
X0125108Y0063363D01*
X0125126Y0063057D01*
X0125151Y0062752D01*
X0125184Y0062448D01*
X0125224Y0062144D01*
X0125271Y0061842D01*
X0125326Y0061541D01*
X0125388Y0061241D01*
X0125458Y0060943D01*
X0125535Y0060647D01*
X0125619Y0060352D01*
X0125710Y0060060D01*
X0125809Y0059770D01*
X0125914Y0059483D01*
X0126026Y0059198D01*
X0126146Y0058916D01*
X0126272Y0058637D01*
X0126405Y0058362D01*
X0126545Y0058089D01*
X0126691Y0057820D01*
X0126844Y0057555D01*
X0127004Y0057294D01*
X0127170Y0057037D01*
X0127342Y0056783D01*
X0127520Y0056534D01*
X0127704Y0056290D01*
X0127894Y0056050D01*
X0128090Y0055815D01*
X0128292Y0055584D01*
X0128499Y0055359D01*
X0128712Y0055139D01*
X0128930Y0054924D01*
X0129153Y0054715D01*
X0129381Y0054511D01*
X0129614Y0054312D01*
X0129852Y0054120D01*
X0130095Y0053933D01*
X0115095Y0053933D02*
X0115338Y0054120D01*
X0115576Y0054312D01*
X0115809Y0054511D01*
X0116037Y0054715D01*
X0116260Y0054924D01*
X0116478Y0055139D01*
X0116691Y0055359D01*
X0116898Y0055584D01*
X0117100Y0055815D01*
X0117296Y0056050D01*
X0117486Y0056290D01*
X0117670Y0056534D01*
X0117848Y0056783D01*
X0118020Y0057037D01*
X0118186Y0057294D01*
X0118346Y0057555D01*
X0118499Y0057820D01*
X0118645Y0058089D01*
X0118785Y0058362D01*
X0118918Y0058637D01*
X0119044Y0058916D01*
X0119164Y0059198D01*
X0119276Y0059483D01*
X0119381Y0059770D01*
X0119480Y0060060D01*
X0119571Y0060352D01*
X0119655Y0060647D01*
X0119732Y0060943D01*
X0119802Y0061241D01*
X0119864Y0061541D01*
X0119919Y0061842D01*
X0119966Y0062144D01*
X0120006Y0062448D01*
X0120039Y0062752D01*
X0120064Y0063057D01*
X0120082Y0063363D01*
X0120092Y0063669D01*
X0120095Y0063975D01*
X0120090Y0064281D01*
X0120078Y0064587D01*
X0120058Y0064893D01*
X0120031Y0065197D01*
X0119996Y0065502D01*
X0119954Y0065805D01*
X0119905Y0066107D01*
X0119848Y0066408D01*
X0119783Y0066707D01*
X0119712Y0067005D01*
X0119633Y0067300D01*
X0119547Y0067594D01*
X0119454Y0067886D01*
X0119353Y0068175D01*
X0119246Y0068462D01*
X0119131Y0068746D01*
X0119010Y0069027D01*
X0118882Y0069305D01*
X0118747Y0069580D01*
X0118605Y0069851D01*
X0118457Y0070119D01*
X0118302Y0070383D01*
X0118141Y0070643D01*
X0117974Y0070899D01*
X0117800Y0071152D01*
X0117620Y0071399D01*
X0117434Y0071643D01*
X0117243Y0071881D01*
X0117045Y0072115D01*
X0116842Y0072344D01*
X0116633Y0072568D01*
X0116419Y0072787D01*
X0116199Y0073000D01*
X0115975Y0073208D01*
X0115745Y0073411D01*
X0115511Y0073607D01*
X0115271Y0073798D01*
X0115028Y0073983D01*
X0114779Y0074162D01*
X0114527Y0074335D01*
X0114270Y0074502D01*
X0114009Y0074662D01*
X0113744Y0074816D01*
X0113476Y0074963D01*
X0113204Y0075104D01*
X0112929Y0075238D01*
X0112650Y0075365D01*
X0112369Y0075486D01*
X0112084Y0075599D01*
X0111797Y0075705D01*
X0111508Y0075805D01*
X0111216Y0075897D01*
X0110922Y0075982D01*
X0110626Y0076060D01*
X0110328Y0076131D01*
X0110028Y0076194D01*
X0109727Y0076250D01*
X0109425Y0076298D01*
X0109122Y0076339D01*
X0108818Y0076373D01*
X0108513Y0076399D01*
X0108207Y0076418D01*
X0107901Y0076429D01*
X0107595Y0076433D01*
X0107289Y0076429D01*
X0106983Y0076418D01*
X0106677Y0076399D01*
X0106372Y0076373D01*
X0106068Y0076339D01*
X0105765Y0076298D01*
X0105463Y0076250D01*
X0105162Y0076194D01*
X0104862Y0076131D01*
X0104564Y0076060D01*
X0104268Y0075982D01*
X0103974Y0075897D01*
X0103682Y0075805D01*
X0103393Y0075705D01*
X0103106Y0075599D01*
X0102821Y0075486D01*
X0102540Y0075365D01*
X0102261Y0075238D01*
X0101986Y0075104D01*
X0101714Y0074963D01*
X0101446Y0074816D01*
X0101181Y0074662D01*
X0100920Y0074502D01*
X0100663Y0074335D01*
X0100411Y0074162D01*
X0100162Y0073983D01*
X0099919Y0073798D01*
X0099679Y0073607D01*
X0099445Y0073411D01*
X0099215Y0073208D01*
X0098991Y0073000D01*
X0098771Y0072787D01*
X0098557Y0072568D01*
X0098348Y0072344D01*
X0098145Y0072115D01*
X0097947Y0071881D01*
X0097756Y0071643D01*
X0097570Y0071399D01*
X0097390Y0071152D01*
X0097216Y0070899D01*
X0097049Y0070643D01*
X0096888Y0070383D01*
X0096733Y0070119D01*
X0096585Y0069851D01*
X0096443Y0069580D01*
X0096308Y0069305D01*
X0096180Y0069027D01*
X0096059Y0068746D01*
X0095944Y0068462D01*
X0095837Y0068175D01*
X0095736Y0067886D01*
X0095643Y0067594D01*
X0095557Y0067300D01*
X0095478Y0067005D01*
X0095407Y0066707D01*
X0095342Y0066408D01*
X0095285Y0066107D01*
X0095236Y0065805D01*
X0095194Y0065502D01*
X0095159Y0065197D01*
X0095132Y0064893D01*
X0095112Y0064587D01*
X0095100Y0064281D01*
X0095095Y0063975D01*
X0095098Y0063669D01*
X0095108Y0063363D01*
X0095126Y0063057D01*
X0095151Y0062752D01*
X0095184Y0062448D01*
X0095224Y0062144D01*
X0095271Y0061842D01*
X0095326Y0061541D01*
X0095388Y0061241D01*
X0095458Y0060943D01*
X0095535Y0060647D01*
X0095619Y0060352D01*
X0095710Y0060060D01*
X0095809Y0059770D01*
X0095914Y0059483D01*
X0096026Y0059198D01*
X0096146Y0058916D01*
X0096272Y0058637D01*
X0096405Y0058362D01*
X0096545Y0058089D01*
X0096691Y0057820D01*
X0096844Y0057555D01*
X0097004Y0057294D01*
X0097170Y0057037D01*
X0097342Y0056783D01*
X0097520Y0056534D01*
X0097704Y0056290D01*
X0097894Y0056050D01*
X0098090Y0055815D01*
X0098292Y0055584D01*
X0098499Y0055359D01*
X0098712Y0055139D01*
X0098930Y0054924D01*
X0099153Y0054715D01*
X0099381Y0054511D01*
X0099614Y0054312D01*
X0099852Y0054120D01*
X0100095Y0053933D01*
X0103107Y0079652D02*
X0142083Y0079652D01*
X0142083Y0102289D01*
X0103107Y0102289D01*
X0103107Y0079652D01*
X0112359Y0079878D02*
X0112359Y0081846D01*
X0132438Y0081846D02*
X0132438Y0079878D01*
X0057595Y0086433D02*
X0057782Y0086190D01*
X0057974Y0085952D01*
X0058173Y0085719D01*
X0058377Y0085491D01*
X0058586Y0085268D01*
X0058801Y0085050D01*
X0059021Y0084837D01*
X0059246Y0084630D01*
X0059477Y0084428D01*
X0059712Y0084232D01*
X0059952Y0084042D01*
X0060196Y0083858D01*
X0060445Y0083680D01*
X0060699Y0083508D01*
X0060956Y0083342D01*
X0061217Y0083182D01*
X0061482Y0083029D01*
X0061751Y0082883D01*
X0062024Y0082743D01*
X0062299Y0082610D01*
X0062578Y0082484D01*
X0062860Y0082364D01*
X0063145Y0082252D01*
X0063432Y0082147D01*
X0063722Y0082048D01*
X0064014Y0081957D01*
X0064309Y0081873D01*
X0064605Y0081796D01*
X0064903Y0081726D01*
X0065203Y0081664D01*
X0065504Y0081609D01*
X0065806Y0081562D01*
X0066110Y0081522D01*
X0066414Y0081489D01*
X0066719Y0081464D01*
X0067025Y0081446D01*
X0067331Y0081436D01*
X0067637Y0081433D01*
X0067943Y0081438D01*
X0068249Y0081450D01*
X0068555Y0081470D01*
X0068859Y0081497D01*
X0069164Y0081532D01*
X0069467Y0081574D01*
X0069769Y0081623D01*
X0070070Y0081680D01*
X0070369Y0081745D01*
X0070667Y0081816D01*
X0070962Y0081895D01*
X0071256Y0081981D01*
X0071548Y0082074D01*
X0071837Y0082175D01*
X0072124Y0082282D01*
X0072408Y0082397D01*
X0072689Y0082518D01*
X0072967Y0082646D01*
X0073242Y0082781D01*
X0073513Y0082923D01*
X0073781Y0083071D01*
X0074045Y0083226D01*
X0074305Y0083387D01*
X0074561Y0083554D01*
X0074814Y0083728D01*
X0075061Y0083908D01*
X0075305Y0084094D01*
X0075543Y0084285D01*
X0075777Y0084483D01*
X0076006Y0084686D01*
X0076230Y0084895D01*
X0076449Y0085109D01*
X0076662Y0085329D01*
X0076870Y0085553D01*
X0077073Y0085783D01*
X0077269Y0086017D01*
X0077460Y0086257D01*
X0077645Y0086500D01*
X0077824Y0086749D01*
X0077997Y0087001D01*
X0078164Y0087258D01*
X0078324Y0087519D01*
X0078478Y0087784D01*
X0078625Y0088052D01*
X0078766Y0088324D01*
X0078900Y0088599D01*
X0079027Y0088878D01*
X0079148Y0089159D01*
X0079261Y0089444D01*
X0079367Y0089731D01*
X0079467Y0090020D01*
X0079559Y0090312D01*
X0079644Y0090606D01*
X0079722Y0090902D01*
X0079793Y0091200D01*
X0079856Y0091500D01*
X0079912Y0091801D01*
X0079960Y0092103D01*
X0080001Y0092406D01*
X0080035Y0092710D01*
X0080061Y0093015D01*
X0080080Y0093321D01*
X0080091Y0093627D01*
X0080095Y0093933D01*
X0080091Y0094239D01*
X0080080Y0094545D01*
X0080061Y0094851D01*
X0080035Y0095156D01*
X0080001Y0095460D01*
X0079960Y0095763D01*
X0079912Y0096065D01*
X0079856Y0096366D01*
X0079793Y0096666D01*
X0079722Y0096964D01*
X0079644Y0097260D01*
X0079559Y0097554D01*
X0079467Y0097846D01*
X0079367Y0098135D01*
X0079261Y0098422D01*
X0079148Y0098707D01*
X0079027Y0098988D01*
X0078900Y0099267D01*
X0078766Y0099542D01*
X0078625Y0099814D01*
X0078478Y0100082D01*
X0078324Y0100347D01*
X0078164Y0100608D01*
X0077997Y0100865D01*
X0077824Y0101117D01*
X0077645Y0101366D01*
X0077460Y0101609D01*
X0077269Y0101849D01*
X0077073Y0102083D01*
X0076870Y0102313D01*
X0076662Y0102537D01*
X0076449Y0102757D01*
X0076230Y0102971D01*
X0076006Y0103180D01*
X0075777Y0103383D01*
X0075543Y0103581D01*
X0075305Y0103772D01*
X0075061Y0103958D01*
X0074814Y0104138D01*
X0074561Y0104312D01*
X0074305Y0104479D01*
X0074045Y0104640D01*
X0073781Y0104795D01*
X0073513Y0104943D01*
X0073242Y0105085D01*
X0072967Y0105220D01*
X0072689Y0105348D01*
X0072408Y0105469D01*
X0072124Y0105584D01*
X0071837Y0105691D01*
X0071548Y0105792D01*
X0071256Y0105885D01*
X0070962Y0105971D01*
X0070667Y0106050D01*
X0070369Y0106121D01*
X0070070Y0106186D01*
X0069769Y0106243D01*
X0069467Y0106292D01*
X0069164Y0106334D01*
X0068859Y0106369D01*
X0068555Y0106396D01*
X0068249Y0106416D01*
X0067943Y0106428D01*
X0067637Y0106433D01*
X0067331Y0106430D01*
X0067025Y0106420D01*
X0066719Y0106402D01*
X0066414Y0106377D01*
X0066110Y0106344D01*
X0065806Y0106304D01*
X0065504Y0106257D01*
X0065203Y0106202D01*
X0064903Y0106140D01*
X0064605Y0106070D01*
X0064309Y0105993D01*
X0064014Y0105909D01*
X0063722Y0105818D01*
X0063432Y0105719D01*
X0063145Y0105614D01*
X0062860Y0105502D01*
X0062578Y0105382D01*
X0062299Y0105256D01*
X0062024Y0105123D01*
X0061751Y0104983D01*
X0061482Y0104837D01*
X0061217Y0104684D01*
X0060956Y0104524D01*
X0060699Y0104358D01*
X0060445Y0104186D01*
X0060196Y0104008D01*
X0059952Y0103824D01*
X0059712Y0103634D01*
X0059477Y0103438D01*
X0059246Y0103236D01*
X0059021Y0103029D01*
X0058801Y0102816D01*
X0058586Y0102598D01*
X0058377Y0102375D01*
X0058173Y0102147D01*
X0057974Y0101914D01*
X0057782Y0101676D01*
X0057595Y0101433D01*
D13*
X0057595Y0093933D02*
X0057598Y0094178D01*
X0057607Y0094424D01*
X0057622Y0094669D01*
X0057643Y0094913D01*
X0057670Y0095157D01*
X0057703Y0095400D01*
X0057742Y0095643D01*
X0057787Y0095884D01*
X0057838Y0096124D01*
X0057895Y0096363D01*
X0057957Y0096600D01*
X0058026Y0096836D01*
X0058100Y0097070D01*
X0058180Y0097302D01*
X0058265Y0097532D01*
X0058356Y0097760D01*
X0058453Y0097985D01*
X0058555Y0098209D01*
X0058663Y0098429D01*
X0058776Y0098647D01*
X0058894Y0098862D01*
X0059018Y0099074D01*
X0059146Y0099283D01*
X0059280Y0099489D01*
X0059419Y0099691D01*
X0059563Y0099890D01*
X0059712Y0100085D01*
X0059865Y0100277D01*
X0060023Y0100465D01*
X0060185Y0100649D01*
X0060353Y0100828D01*
X0060524Y0101004D01*
X0060700Y0101175D01*
X0060879Y0101343D01*
X0061063Y0101505D01*
X0061251Y0101663D01*
X0061443Y0101816D01*
X0061638Y0101965D01*
X0061837Y0102109D01*
X0062039Y0102248D01*
X0062245Y0102382D01*
X0062454Y0102510D01*
X0062666Y0102634D01*
X0062881Y0102752D01*
X0063099Y0102865D01*
X0063319Y0102973D01*
X0063543Y0103075D01*
X0063768Y0103172D01*
X0063996Y0103263D01*
X0064226Y0103348D01*
X0064458Y0103428D01*
X0064692Y0103502D01*
X0064928Y0103571D01*
X0065165Y0103633D01*
X0065404Y0103690D01*
X0065644Y0103741D01*
X0065885Y0103786D01*
X0066128Y0103825D01*
X0066371Y0103858D01*
X0066615Y0103885D01*
X0066859Y0103906D01*
X0067104Y0103921D01*
X0067350Y0103930D01*
X0067595Y0103933D01*
X0067840Y0103930D01*
X0068086Y0103921D01*
X0068331Y0103906D01*
X0068575Y0103885D01*
X0068819Y0103858D01*
X0069062Y0103825D01*
X0069305Y0103786D01*
X0069546Y0103741D01*
X0069786Y0103690D01*
X0070025Y0103633D01*
X0070262Y0103571D01*
X0070498Y0103502D01*
X0070732Y0103428D01*
X0070964Y0103348D01*
X0071194Y0103263D01*
X0071422Y0103172D01*
X0071647Y0103075D01*
X0071871Y0102973D01*
X0072091Y0102865D01*
X0072309Y0102752D01*
X0072524Y0102634D01*
X0072736Y0102510D01*
X0072945Y0102382D01*
X0073151Y0102248D01*
X0073353Y0102109D01*
X0073552Y0101965D01*
X0073747Y0101816D01*
X0073939Y0101663D01*
X0074127Y0101505D01*
X0074311Y0101343D01*
X0074490Y0101175D01*
X0074666Y0101004D01*
X0074837Y0100828D01*
X0075005Y0100649D01*
X0075167Y0100465D01*
X0075325Y0100277D01*
X0075478Y0100085D01*
X0075627Y0099890D01*
X0075771Y0099691D01*
X0075910Y0099489D01*
X0076044Y0099283D01*
X0076172Y0099074D01*
X0076296Y0098862D01*
X0076414Y0098647D01*
X0076527Y0098429D01*
X0076635Y0098209D01*
X0076737Y0097985D01*
X0076834Y0097760D01*
X0076925Y0097532D01*
X0077010Y0097302D01*
X0077090Y0097070D01*
X0077164Y0096836D01*
X0077233Y0096600D01*
X0077295Y0096363D01*
X0077352Y0096124D01*
X0077403Y0095884D01*
X0077448Y0095643D01*
X0077487Y0095400D01*
X0077520Y0095157D01*
X0077547Y0094913D01*
X0077568Y0094669D01*
X0077583Y0094424D01*
X0077592Y0094178D01*
X0077595Y0093933D01*
X0077592Y0093688D01*
X0077583Y0093442D01*
X0077568Y0093197D01*
X0077547Y0092953D01*
X0077520Y0092709D01*
X0077487Y0092466D01*
X0077448Y0092223D01*
X0077403Y0091982D01*
X0077352Y0091742D01*
X0077295Y0091503D01*
X0077233Y0091266D01*
X0077164Y0091030D01*
X0077090Y0090796D01*
X0077010Y0090564D01*
X0076925Y0090334D01*
X0076834Y0090106D01*
X0076737Y0089881D01*
X0076635Y0089657D01*
X0076527Y0089437D01*
X0076414Y0089219D01*
X0076296Y0089004D01*
X0076172Y0088792D01*
X0076044Y0088583D01*
X0075910Y0088377D01*
X0075771Y0088175D01*
X0075627Y0087976D01*
X0075478Y0087781D01*
X0075325Y0087589D01*
X0075167Y0087401D01*
X0075005Y0087217D01*
X0074837Y0087038D01*
X0074666Y0086862D01*
X0074490Y0086691D01*
X0074311Y0086523D01*
X0074127Y0086361D01*
X0073939Y0086203D01*
X0073747Y0086050D01*
X0073552Y0085901D01*
X0073353Y0085757D01*
X0073151Y0085618D01*
X0072945Y0085484D01*
X0072736Y0085356D01*
X0072524Y0085232D01*
X0072309Y0085114D01*
X0072091Y0085001D01*
X0071871Y0084893D01*
X0071647Y0084791D01*
X0071422Y0084694D01*
X0071194Y0084603D01*
X0070964Y0084518D01*
X0070732Y0084438D01*
X0070498Y0084364D01*
X0070262Y0084295D01*
X0070025Y0084233D01*
X0069786Y0084176D01*
X0069546Y0084125D01*
X0069305Y0084080D01*
X0069062Y0084041D01*
X0068819Y0084008D01*
X0068575Y0083981D01*
X0068331Y0083960D01*
X0068086Y0083945D01*
X0067840Y0083936D01*
X0067595Y0083933D01*
X0067350Y0083936D01*
X0067104Y0083945D01*
X0066859Y0083960D01*
X0066615Y0083981D01*
X0066371Y0084008D01*
X0066128Y0084041D01*
X0065885Y0084080D01*
X0065644Y0084125D01*
X0065404Y0084176D01*
X0065165Y0084233D01*
X0064928Y0084295D01*
X0064692Y0084364D01*
X0064458Y0084438D01*
X0064226Y0084518D01*
X0063996Y0084603D01*
X0063768Y0084694D01*
X0063543Y0084791D01*
X0063319Y0084893D01*
X0063099Y0085001D01*
X0062881Y0085114D01*
X0062666Y0085232D01*
X0062454Y0085356D01*
X0062245Y0085484D01*
X0062039Y0085618D01*
X0061837Y0085757D01*
X0061638Y0085901D01*
X0061443Y0086050D01*
X0061251Y0086203D01*
X0061063Y0086361D01*
X0060879Y0086523D01*
X0060700Y0086691D01*
X0060524Y0086862D01*
X0060353Y0087038D01*
X0060185Y0087217D01*
X0060023Y0087401D01*
X0059865Y0087589D01*
X0059712Y0087781D01*
X0059563Y0087976D01*
X0059419Y0088175D01*
X0059280Y0088377D01*
X0059146Y0088583D01*
X0059018Y0088792D01*
X0058894Y0089004D01*
X0058776Y0089219D01*
X0058663Y0089437D01*
X0058555Y0089657D01*
X0058453Y0089881D01*
X0058356Y0090106D01*
X0058265Y0090334D01*
X0058180Y0090564D01*
X0058100Y0090796D01*
X0058026Y0091030D01*
X0057957Y0091266D01*
X0057895Y0091503D01*
X0057838Y0091742D01*
X0057787Y0091982D01*
X0057742Y0092223D01*
X0057703Y0092466D01*
X0057670Y0092709D01*
X0057643Y0092953D01*
X0057622Y0093197D01*
X0057607Y0093442D01*
X0057598Y0093688D01*
X0057595Y0093933D01*
X0083895Y0100233D02*
X0083895Y0102835D01*
X0085196Y0102835D01*
X0085630Y0102402D01*
X0085630Y0101534D01*
X0085196Y0101100D01*
X0083895Y0101100D01*
X0084763Y0101100D02*
X0085630Y0100233D01*
X0086842Y0100233D02*
X0088576Y0101968D01*
X0088576Y0102402D01*
X0088143Y0102835D01*
X0087275Y0102835D01*
X0086842Y0102402D01*
X0086842Y0100233D02*
X0088576Y0100233D01*
X0091295Y0072414D02*
X0091295Y0070680D01*
X0091295Y0071547D02*
X0088693Y0071547D01*
X0089560Y0070680D01*
X0089127Y0069468D02*
X0088693Y0069034D01*
X0088693Y0067733D01*
X0091295Y0067733D01*
X0090428Y0067733D02*
X0090428Y0069034D01*
X0089994Y0069468D01*
X0089127Y0069468D01*
X0090428Y0068600D02*
X0091295Y0069468D01*
X0097595Y0063933D02*
X0097598Y0064178D01*
X0097607Y0064424D01*
X0097622Y0064669D01*
X0097643Y0064913D01*
X0097670Y0065157D01*
X0097703Y0065400D01*
X0097742Y0065643D01*
X0097787Y0065884D01*
X0097838Y0066124D01*
X0097895Y0066363D01*
X0097957Y0066600D01*
X0098026Y0066836D01*
X0098100Y0067070D01*
X0098180Y0067302D01*
X0098265Y0067532D01*
X0098356Y0067760D01*
X0098453Y0067985D01*
X0098555Y0068209D01*
X0098663Y0068429D01*
X0098776Y0068647D01*
X0098894Y0068862D01*
X0099018Y0069074D01*
X0099146Y0069283D01*
X0099280Y0069489D01*
X0099419Y0069691D01*
X0099563Y0069890D01*
X0099712Y0070085D01*
X0099865Y0070277D01*
X0100023Y0070465D01*
X0100185Y0070649D01*
X0100353Y0070828D01*
X0100524Y0071004D01*
X0100700Y0071175D01*
X0100879Y0071343D01*
X0101063Y0071505D01*
X0101251Y0071663D01*
X0101443Y0071816D01*
X0101638Y0071965D01*
X0101837Y0072109D01*
X0102039Y0072248D01*
X0102245Y0072382D01*
X0102454Y0072510D01*
X0102666Y0072634D01*
X0102881Y0072752D01*
X0103099Y0072865D01*
X0103319Y0072973D01*
X0103543Y0073075D01*
X0103768Y0073172D01*
X0103996Y0073263D01*
X0104226Y0073348D01*
X0104458Y0073428D01*
X0104692Y0073502D01*
X0104928Y0073571D01*
X0105165Y0073633D01*
X0105404Y0073690D01*
X0105644Y0073741D01*
X0105885Y0073786D01*
X0106128Y0073825D01*
X0106371Y0073858D01*
X0106615Y0073885D01*
X0106859Y0073906D01*
X0107104Y0073921D01*
X0107350Y0073930D01*
X0107595Y0073933D01*
X0107840Y0073930D01*
X0108086Y0073921D01*
X0108331Y0073906D01*
X0108575Y0073885D01*
X0108819Y0073858D01*
X0109062Y0073825D01*
X0109305Y0073786D01*
X0109546Y0073741D01*
X0109786Y0073690D01*
X0110025Y0073633D01*
X0110262Y0073571D01*
X0110498Y0073502D01*
X0110732Y0073428D01*
X0110964Y0073348D01*
X0111194Y0073263D01*
X0111422Y0073172D01*
X0111647Y0073075D01*
X0111871Y0072973D01*
X0112091Y0072865D01*
X0112309Y0072752D01*
X0112524Y0072634D01*
X0112736Y0072510D01*
X0112945Y0072382D01*
X0113151Y0072248D01*
X0113353Y0072109D01*
X0113552Y0071965D01*
X0113747Y0071816D01*
X0113939Y0071663D01*
X0114127Y0071505D01*
X0114311Y0071343D01*
X0114490Y0071175D01*
X0114666Y0071004D01*
X0114837Y0070828D01*
X0115005Y0070649D01*
X0115167Y0070465D01*
X0115325Y0070277D01*
X0115478Y0070085D01*
X0115627Y0069890D01*
X0115771Y0069691D01*
X0115910Y0069489D01*
X0116044Y0069283D01*
X0116172Y0069074D01*
X0116296Y0068862D01*
X0116414Y0068647D01*
X0116527Y0068429D01*
X0116635Y0068209D01*
X0116737Y0067985D01*
X0116834Y0067760D01*
X0116925Y0067532D01*
X0117010Y0067302D01*
X0117090Y0067070D01*
X0117164Y0066836D01*
X0117233Y0066600D01*
X0117295Y0066363D01*
X0117352Y0066124D01*
X0117403Y0065884D01*
X0117448Y0065643D01*
X0117487Y0065400D01*
X0117520Y0065157D01*
X0117547Y0064913D01*
X0117568Y0064669D01*
X0117583Y0064424D01*
X0117592Y0064178D01*
X0117595Y0063933D01*
X0117592Y0063688D01*
X0117583Y0063442D01*
X0117568Y0063197D01*
X0117547Y0062953D01*
X0117520Y0062709D01*
X0117487Y0062466D01*
X0117448Y0062223D01*
X0117403Y0061982D01*
X0117352Y0061742D01*
X0117295Y0061503D01*
X0117233Y0061266D01*
X0117164Y0061030D01*
X0117090Y0060796D01*
X0117010Y0060564D01*
X0116925Y0060334D01*
X0116834Y0060106D01*
X0116737Y0059881D01*
X0116635Y0059657D01*
X0116527Y0059437D01*
X0116414Y0059219D01*
X0116296Y0059004D01*
X0116172Y0058792D01*
X0116044Y0058583D01*
X0115910Y0058377D01*
X0115771Y0058175D01*
X0115627Y0057976D01*
X0115478Y0057781D01*
X0115325Y0057589D01*
X0115167Y0057401D01*
X0115005Y0057217D01*
X0114837Y0057038D01*
X0114666Y0056862D01*
X0114490Y0056691D01*
X0114311Y0056523D01*
X0114127Y0056361D01*
X0113939Y0056203D01*
X0113747Y0056050D01*
X0113552Y0055901D01*
X0113353Y0055757D01*
X0113151Y0055618D01*
X0112945Y0055484D01*
X0112736Y0055356D01*
X0112524Y0055232D01*
X0112309Y0055114D01*
X0112091Y0055001D01*
X0111871Y0054893D01*
X0111647Y0054791D01*
X0111422Y0054694D01*
X0111194Y0054603D01*
X0110964Y0054518D01*
X0110732Y0054438D01*
X0110498Y0054364D01*
X0110262Y0054295D01*
X0110025Y0054233D01*
X0109786Y0054176D01*
X0109546Y0054125D01*
X0109305Y0054080D01*
X0109062Y0054041D01*
X0108819Y0054008D01*
X0108575Y0053981D01*
X0108331Y0053960D01*
X0108086Y0053945D01*
X0107840Y0053936D01*
X0107595Y0053933D01*
X0107350Y0053936D01*
X0107104Y0053945D01*
X0106859Y0053960D01*
X0106615Y0053981D01*
X0106371Y0054008D01*
X0106128Y0054041D01*
X0105885Y0054080D01*
X0105644Y0054125D01*
X0105404Y0054176D01*
X0105165Y0054233D01*
X0104928Y0054295D01*
X0104692Y0054364D01*
X0104458Y0054438D01*
X0104226Y0054518D01*
X0103996Y0054603D01*
X0103768Y0054694D01*
X0103543Y0054791D01*
X0103319Y0054893D01*
X0103099Y0055001D01*
X0102881Y0055114D01*
X0102666Y0055232D01*
X0102454Y0055356D01*
X0102245Y0055484D01*
X0102039Y0055618D01*
X0101837Y0055757D01*
X0101638Y0055901D01*
X0101443Y0056050D01*
X0101251Y0056203D01*
X0101063Y0056361D01*
X0100879Y0056523D01*
X0100700Y0056691D01*
X0100524Y0056862D01*
X0100353Y0057038D01*
X0100185Y0057217D01*
X0100023Y0057401D01*
X0099865Y0057589D01*
X0099712Y0057781D01*
X0099563Y0057976D01*
X0099419Y0058175D01*
X0099280Y0058377D01*
X0099146Y0058583D01*
X0099018Y0058792D01*
X0098894Y0059004D01*
X0098776Y0059219D01*
X0098663Y0059437D01*
X0098555Y0059657D01*
X0098453Y0059881D01*
X0098356Y0060106D01*
X0098265Y0060334D01*
X0098180Y0060564D01*
X0098100Y0060796D01*
X0098026Y0061030D01*
X0097957Y0061266D01*
X0097895Y0061503D01*
X0097838Y0061742D01*
X0097787Y0061982D01*
X0097742Y0062223D01*
X0097703Y0062466D01*
X0097670Y0062709D01*
X0097643Y0062953D01*
X0097622Y0063197D01*
X0097607Y0063442D01*
X0097598Y0063688D01*
X0097595Y0063933D01*
X0127595Y0063933D02*
X0127598Y0064178D01*
X0127607Y0064424D01*
X0127622Y0064669D01*
X0127643Y0064913D01*
X0127670Y0065157D01*
X0127703Y0065400D01*
X0127742Y0065643D01*
X0127787Y0065884D01*
X0127838Y0066124D01*
X0127895Y0066363D01*
X0127957Y0066600D01*
X0128026Y0066836D01*
X0128100Y0067070D01*
X0128180Y0067302D01*
X0128265Y0067532D01*
X0128356Y0067760D01*
X0128453Y0067985D01*
X0128555Y0068209D01*
X0128663Y0068429D01*
X0128776Y0068647D01*
X0128894Y0068862D01*
X0129018Y0069074D01*
X0129146Y0069283D01*
X0129280Y0069489D01*
X0129419Y0069691D01*
X0129563Y0069890D01*
X0129712Y0070085D01*
X0129865Y0070277D01*
X0130023Y0070465D01*
X0130185Y0070649D01*
X0130353Y0070828D01*
X0130524Y0071004D01*
X0130700Y0071175D01*
X0130879Y0071343D01*
X0131063Y0071505D01*
X0131251Y0071663D01*
X0131443Y0071816D01*
X0131638Y0071965D01*
X0131837Y0072109D01*
X0132039Y0072248D01*
X0132245Y0072382D01*
X0132454Y0072510D01*
X0132666Y0072634D01*
X0132881Y0072752D01*
X0133099Y0072865D01*
X0133319Y0072973D01*
X0133543Y0073075D01*
X0133768Y0073172D01*
X0133996Y0073263D01*
X0134226Y0073348D01*
X0134458Y0073428D01*
X0134692Y0073502D01*
X0134928Y0073571D01*
X0135165Y0073633D01*
X0135404Y0073690D01*
X0135644Y0073741D01*
X0135885Y0073786D01*
X0136128Y0073825D01*
X0136371Y0073858D01*
X0136615Y0073885D01*
X0136859Y0073906D01*
X0137104Y0073921D01*
X0137350Y0073930D01*
X0137595Y0073933D01*
X0137840Y0073930D01*
X0138086Y0073921D01*
X0138331Y0073906D01*
X0138575Y0073885D01*
X0138819Y0073858D01*
X0139062Y0073825D01*
X0139305Y0073786D01*
X0139546Y0073741D01*
X0139786Y0073690D01*
X0140025Y0073633D01*
X0140262Y0073571D01*
X0140498Y0073502D01*
X0140732Y0073428D01*
X0140964Y0073348D01*
X0141194Y0073263D01*
X0141422Y0073172D01*
X0141647Y0073075D01*
X0141871Y0072973D01*
X0142091Y0072865D01*
X0142309Y0072752D01*
X0142524Y0072634D01*
X0142736Y0072510D01*
X0142945Y0072382D01*
X0143151Y0072248D01*
X0143353Y0072109D01*
X0143552Y0071965D01*
X0143747Y0071816D01*
X0143939Y0071663D01*
X0144127Y0071505D01*
X0144311Y0071343D01*
X0144490Y0071175D01*
X0144666Y0071004D01*
X0144837Y0070828D01*
X0145005Y0070649D01*
X0145167Y0070465D01*
X0145325Y0070277D01*
X0145478Y0070085D01*
X0145627Y0069890D01*
X0145771Y0069691D01*
X0145910Y0069489D01*
X0146044Y0069283D01*
X0146172Y0069074D01*
X0146296Y0068862D01*
X0146414Y0068647D01*
X0146527Y0068429D01*
X0146635Y0068209D01*
X0146737Y0067985D01*
X0146834Y0067760D01*
X0146925Y0067532D01*
X0147010Y0067302D01*
X0147090Y0067070D01*
X0147164Y0066836D01*
X0147233Y0066600D01*
X0147295Y0066363D01*
X0147352Y0066124D01*
X0147403Y0065884D01*
X0147448Y0065643D01*
X0147487Y0065400D01*
X0147520Y0065157D01*
X0147547Y0064913D01*
X0147568Y0064669D01*
X0147583Y0064424D01*
X0147592Y0064178D01*
X0147595Y0063933D01*
X0147592Y0063688D01*
X0147583Y0063442D01*
X0147568Y0063197D01*
X0147547Y0062953D01*
X0147520Y0062709D01*
X0147487Y0062466D01*
X0147448Y0062223D01*
X0147403Y0061982D01*
X0147352Y0061742D01*
X0147295Y0061503D01*
X0147233Y0061266D01*
X0147164Y0061030D01*
X0147090Y0060796D01*
X0147010Y0060564D01*
X0146925Y0060334D01*
X0146834Y0060106D01*
X0146737Y0059881D01*
X0146635Y0059657D01*
X0146527Y0059437D01*
X0146414Y0059219D01*
X0146296Y0059004D01*
X0146172Y0058792D01*
X0146044Y0058583D01*
X0145910Y0058377D01*
X0145771Y0058175D01*
X0145627Y0057976D01*
X0145478Y0057781D01*
X0145325Y0057589D01*
X0145167Y0057401D01*
X0145005Y0057217D01*
X0144837Y0057038D01*
X0144666Y0056862D01*
X0144490Y0056691D01*
X0144311Y0056523D01*
X0144127Y0056361D01*
X0143939Y0056203D01*
X0143747Y0056050D01*
X0143552Y0055901D01*
X0143353Y0055757D01*
X0143151Y0055618D01*
X0142945Y0055484D01*
X0142736Y0055356D01*
X0142524Y0055232D01*
X0142309Y0055114D01*
X0142091Y0055001D01*
X0141871Y0054893D01*
X0141647Y0054791D01*
X0141422Y0054694D01*
X0141194Y0054603D01*
X0140964Y0054518D01*
X0140732Y0054438D01*
X0140498Y0054364D01*
X0140262Y0054295D01*
X0140025Y0054233D01*
X0139786Y0054176D01*
X0139546Y0054125D01*
X0139305Y0054080D01*
X0139062Y0054041D01*
X0138819Y0054008D01*
X0138575Y0053981D01*
X0138331Y0053960D01*
X0138086Y0053945D01*
X0137840Y0053936D01*
X0137595Y0053933D01*
X0137350Y0053936D01*
X0137104Y0053945D01*
X0136859Y0053960D01*
X0136615Y0053981D01*
X0136371Y0054008D01*
X0136128Y0054041D01*
X0135885Y0054080D01*
X0135644Y0054125D01*
X0135404Y0054176D01*
X0135165Y0054233D01*
X0134928Y0054295D01*
X0134692Y0054364D01*
X0134458Y0054438D01*
X0134226Y0054518D01*
X0133996Y0054603D01*
X0133768Y0054694D01*
X0133543Y0054791D01*
X0133319Y0054893D01*
X0133099Y0055001D01*
X0132881Y0055114D01*
X0132666Y0055232D01*
X0132454Y0055356D01*
X0132245Y0055484D01*
X0132039Y0055618D01*
X0131837Y0055757D01*
X0131638Y0055901D01*
X0131443Y0056050D01*
X0131251Y0056203D01*
X0131063Y0056361D01*
X0130879Y0056523D01*
X0130700Y0056691D01*
X0130524Y0056862D01*
X0130353Y0057038D01*
X0130185Y0057217D01*
X0130023Y0057401D01*
X0129865Y0057589D01*
X0129712Y0057781D01*
X0129563Y0057976D01*
X0129419Y0058175D01*
X0129280Y0058377D01*
X0129146Y0058583D01*
X0129018Y0058792D01*
X0128894Y0059004D01*
X0128776Y0059219D01*
X0128663Y0059437D01*
X0128555Y0059657D01*
X0128453Y0059881D01*
X0128356Y0060106D01*
X0128265Y0060334D01*
X0128180Y0060564D01*
X0128100Y0060796D01*
X0128026Y0061030D01*
X0127957Y0061266D01*
X0127895Y0061503D01*
X0127838Y0061742D01*
X0127787Y0061982D01*
X0127742Y0062223D01*
X0127703Y0062466D01*
X0127670Y0062709D01*
X0127643Y0062953D01*
X0127622Y0063197D01*
X0127607Y0063442D01*
X0127598Y0063688D01*
X0127595Y0063933D01*
X0157595Y0063933D02*
X0157598Y0064178D01*
X0157607Y0064424D01*
X0157622Y0064669D01*
X0157643Y0064913D01*
X0157670Y0065157D01*
X0157703Y0065400D01*
X0157742Y0065643D01*
X0157787Y0065884D01*
X0157838Y0066124D01*
X0157895Y0066363D01*
X0157957Y0066600D01*
X0158026Y0066836D01*
X0158100Y0067070D01*
X0158180Y0067302D01*
X0158265Y0067532D01*
X0158356Y0067760D01*
X0158453Y0067985D01*
X0158555Y0068209D01*
X0158663Y0068429D01*
X0158776Y0068647D01*
X0158894Y0068862D01*
X0159018Y0069074D01*
X0159146Y0069283D01*
X0159280Y0069489D01*
X0159419Y0069691D01*
X0159563Y0069890D01*
X0159712Y0070085D01*
X0159865Y0070277D01*
X0160023Y0070465D01*
X0160185Y0070649D01*
X0160353Y0070828D01*
X0160524Y0071004D01*
X0160700Y0071175D01*
X0160879Y0071343D01*
X0161063Y0071505D01*
X0161251Y0071663D01*
X0161443Y0071816D01*
X0161638Y0071965D01*
X0161837Y0072109D01*
X0162039Y0072248D01*
X0162245Y0072382D01*
X0162454Y0072510D01*
X0162666Y0072634D01*
X0162881Y0072752D01*
X0163099Y0072865D01*
X0163319Y0072973D01*
X0163543Y0073075D01*
X0163768Y0073172D01*
X0163996Y0073263D01*
X0164226Y0073348D01*
X0164458Y0073428D01*
X0164692Y0073502D01*
X0164928Y0073571D01*
X0165165Y0073633D01*
X0165404Y0073690D01*
X0165644Y0073741D01*
X0165885Y0073786D01*
X0166128Y0073825D01*
X0166371Y0073858D01*
X0166615Y0073885D01*
X0166859Y0073906D01*
X0167104Y0073921D01*
X0167350Y0073930D01*
X0167595Y0073933D01*
X0167840Y0073930D01*
X0168086Y0073921D01*
X0168331Y0073906D01*
X0168575Y0073885D01*
X0168819Y0073858D01*
X0169062Y0073825D01*
X0169305Y0073786D01*
X0169546Y0073741D01*
X0169786Y0073690D01*
X0170025Y0073633D01*
X0170262Y0073571D01*
X0170498Y0073502D01*
X0170732Y0073428D01*
X0170964Y0073348D01*
X0171194Y0073263D01*
X0171422Y0073172D01*
X0171647Y0073075D01*
X0171871Y0072973D01*
X0172091Y0072865D01*
X0172309Y0072752D01*
X0172524Y0072634D01*
X0172736Y0072510D01*
X0172945Y0072382D01*
X0173151Y0072248D01*
X0173353Y0072109D01*
X0173552Y0071965D01*
X0173747Y0071816D01*
X0173939Y0071663D01*
X0174127Y0071505D01*
X0174311Y0071343D01*
X0174490Y0071175D01*
X0174666Y0071004D01*
X0174837Y0070828D01*
X0175005Y0070649D01*
X0175167Y0070465D01*
X0175325Y0070277D01*
X0175478Y0070085D01*
X0175627Y0069890D01*
X0175771Y0069691D01*
X0175910Y0069489D01*
X0176044Y0069283D01*
X0176172Y0069074D01*
X0176296Y0068862D01*
X0176414Y0068647D01*
X0176527Y0068429D01*
X0176635Y0068209D01*
X0176737Y0067985D01*
X0176834Y0067760D01*
X0176925Y0067532D01*
X0177010Y0067302D01*
X0177090Y0067070D01*
X0177164Y0066836D01*
X0177233Y0066600D01*
X0177295Y0066363D01*
X0177352Y0066124D01*
X0177403Y0065884D01*
X0177448Y0065643D01*
X0177487Y0065400D01*
X0177520Y0065157D01*
X0177547Y0064913D01*
X0177568Y0064669D01*
X0177583Y0064424D01*
X0177592Y0064178D01*
X0177595Y0063933D01*
X0177592Y0063688D01*
X0177583Y0063442D01*
X0177568Y0063197D01*
X0177547Y0062953D01*
X0177520Y0062709D01*
X0177487Y0062466D01*
X0177448Y0062223D01*
X0177403Y0061982D01*
X0177352Y0061742D01*
X0177295Y0061503D01*
X0177233Y0061266D01*
X0177164Y0061030D01*
X0177090Y0060796D01*
X0177010Y0060564D01*
X0176925Y0060334D01*
X0176834Y0060106D01*
X0176737Y0059881D01*
X0176635Y0059657D01*
X0176527Y0059437D01*
X0176414Y0059219D01*
X0176296Y0059004D01*
X0176172Y0058792D01*
X0176044Y0058583D01*
X0175910Y0058377D01*
X0175771Y0058175D01*
X0175627Y0057976D01*
X0175478Y0057781D01*
X0175325Y0057589D01*
X0175167Y0057401D01*
X0175005Y0057217D01*
X0174837Y0057038D01*
X0174666Y0056862D01*
X0174490Y0056691D01*
X0174311Y0056523D01*
X0174127Y0056361D01*
X0173939Y0056203D01*
X0173747Y0056050D01*
X0173552Y0055901D01*
X0173353Y0055757D01*
X0173151Y0055618D01*
X0172945Y0055484D01*
X0172736Y0055356D01*
X0172524Y0055232D01*
X0172309Y0055114D01*
X0172091Y0055001D01*
X0171871Y0054893D01*
X0171647Y0054791D01*
X0171422Y0054694D01*
X0171194Y0054603D01*
X0170964Y0054518D01*
X0170732Y0054438D01*
X0170498Y0054364D01*
X0170262Y0054295D01*
X0170025Y0054233D01*
X0169786Y0054176D01*
X0169546Y0054125D01*
X0169305Y0054080D01*
X0169062Y0054041D01*
X0168819Y0054008D01*
X0168575Y0053981D01*
X0168331Y0053960D01*
X0168086Y0053945D01*
X0167840Y0053936D01*
X0167595Y0053933D01*
X0167350Y0053936D01*
X0167104Y0053945D01*
X0166859Y0053960D01*
X0166615Y0053981D01*
X0166371Y0054008D01*
X0166128Y0054041D01*
X0165885Y0054080D01*
X0165644Y0054125D01*
X0165404Y0054176D01*
X0165165Y0054233D01*
X0164928Y0054295D01*
X0164692Y0054364D01*
X0164458Y0054438D01*
X0164226Y0054518D01*
X0163996Y0054603D01*
X0163768Y0054694D01*
X0163543Y0054791D01*
X0163319Y0054893D01*
X0163099Y0055001D01*
X0162881Y0055114D01*
X0162666Y0055232D01*
X0162454Y0055356D01*
X0162245Y0055484D01*
X0162039Y0055618D01*
X0161837Y0055757D01*
X0161638Y0055901D01*
X0161443Y0056050D01*
X0161251Y0056203D01*
X0161063Y0056361D01*
X0160879Y0056523D01*
X0160700Y0056691D01*
X0160524Y0056862D01*
X0160353Y0057038D01*
X0160185Y0057217D01*
X0160023Y0057401D01*
X0159865Y0057589D01*
X0159712Y0057781D01*
X0159563Y0057976D01*
X0159419Y0058175D01*
X0159280Y0058377D01*
X0159146Y0058583D01*
X0159018Y0058792D01*
X0158894Y0059004D01*
X0158776Y0059219D01*
X0158663Y0059437D01*
X0158555Y0059657D01*
X0158453Y0059881D01*
X0158356Y0060106D01*
X0158265Y0060334D01*
X0158180Y0060564D01*
X0158100Y0060796D01*
X0158026Y0061030D01*
X0157957Y0061266D01*
X0157895Y0061503D01*
X0157838Y0061742D01*
X0157787Y0061982D01*
X0157742Y0062223D01*
X0157703Y0062466D01*
X0157670Y0062709D01*
X0157643Y0062953D01*
X0157622Y0063197D01*
X0157607Y0063442D01*
X0157598Y0063688D01*
X0157595Y0063933D01*
D14*
X0144445Y0050082D02*
X0144445Y0047079D01*
X0141443Y0050082D01*
X0140692Y0050082D01*
X0139941Y0049331D01*
X0139941Y0047830D01*
X0140692Y0047079D01*
X0140692Y0045478D02*
X0139941Y0044727D01*
X0139941Y0042475D01*
X0144445Y0042475D01*
X0144445Y0044727D01*
X0143695Y0045478D01*
X0140692Y0045478D01*
X0139941Y0040874D02*
X0139941Y0037871D01*
X0144445Y0037871D01*
X0144445Y0040874D01*
X0142193Y0039373D02*
X0142193Y0037871D01*
X0144445Y0036270D02*
X0144445Y0033267D01*
X0139941Y0033267D01*
X0114445Y0033267D02*
X0114445Y0036270D01*
X0114445Y0037871D02*
X0114445Y0040874D01*
X0114445Y0042475D02*
X0114445Y0044727D01*
X0113695Y0045478D01*
X0110692Y0045478D01*
X0109941Y0044727D01*
X0109941Y0042475D01*
X0114445Y0042475D01*
X0112193Y0039373D02*
X0112193Y0037871D01*
X0109941Y0037871D02*
X0114445Y0037871D01*
X0109941Y0037871D02*
X0109941Y0040874D01*
X0110692Y0047079D02*
X0109941Y0047830D01*
X0109941Y0049331D01*
X0110692Y0050082D01*
X0111443Y0050082D01*
X0112193Y0049331D01*
X0112944Y0050082D01*
X0113695Y0050082D01*
X0114445Y0049331D01*
X0114445Y0047830D01*
X0113695Y0047079D01*
X0112193Y0048580D02*
X0112193Y0049331D01*
X0109941Y0033267D02*
X0114445Y0033267D01*
X0169941Y0033267D02*
X0174445Y0033267D01*
X0174445Y0036270D01*
X0174445Y0037871D02*
X0174445Y0040874D01*
X0174445Y0042475D02*
X0174445Y0044727D01*
X0173695Y0045478D01*
X0170692Y0045478D01*
X0169941Y0044727D01*
X0169941Y0042475D01*
X0174445Y0042475D01*
X0172193Y0039373D02*
X0172193Y0037871D01*
X0169941Y0037871D02*
X0174445Y0037871D01*
X0169941Y0037871D02*
X0169941Y0040874D01*
X0171443Y0047079D02*
X0169941Y0048580D01*
X0174445Y0048580D01*
X0174445Y0047079D02*
X0174445Y0050082D01*
X0053744Y0089335D02*
X0050741Y0089335D01*
X0052993Y0091587D01*
X0052993Y0087083D01*
X0049140Y0087834D02*
X0049140Y0090836D01*
X0048389Y0091587D01*
X0046137Y0091587D01*
X0046137Y0087083D01*
X0048389Y0087083D01*
X0049140Y0087834D01*
X0044536Y0087083D02*
X0041533Y0087083D01*
X0041533Y0091587D01*
X0044536Y0091587D01*
X0043035Y0089335D02*
X0041533Y0089335D01*
X0039932Y0087083D02*
X0036929Y0087083D01*
X0036929Y0091587D01*
D15*
X0096922Y0086586D02*
X0096922Y0085385D01*
X0097523Y0084785D01*
X0096922Y0083504D02*
X0100525Y0081102D01*
X0100525Y0083504D02*
X0096922Y0081102D01*
X0100525Y0084785D02*
X0098123Y0087187D01*
X0097523Y0087187D01*
X0096922Y0086586D01*
X0100525Y0087187D02*
X0100525Y0084785D01*
M02*
