G75*
%MOIN*%
%OFA0B0*%
%FSLAX25Y25*%
%IPPOS*%
%LPD*%
%AMOC8*
5,1,8,0,0,1.08239X$1,22.5*
%
%ADD10C,0.00100*%
%ADD11C,0.00400*%
%ADD12C,0.00600*%
%ADD13C,0.00700*%
%ADD14C,0.00500*%
%ADD15R,0.03000X0.15000*%
%ADD16R,0.15000X0.03000*%
D10*
X0057595Y0038933D02*
X0175095Y0038933D01*
X0187595Y0051433D01*
X0187595Y0211433D01*
X0175095Y0223933D01*
X0070095Y0223933D01*
X0057595Y0211433D01*
X0057595Y0038933D01*
D11*
X0063826Y0067460D02*
X0066895Y0067460D01*
X0069964Y0068995D02*
X0069964Y0072064D01*
X0068430Y0070530D02*
X0071499Y0070530D01*
X0073034Y0071297D02*
X0074568Y0072831D01*
X0074568Y0068228D01*
X0073034Y0068228D02*
X0076103Y0068228D01*
X0071499Y0077460D02*
X0068430Y0077460D01*
X0065360Y0078228D02*
X0065360Y0080530D01*
X0066895Y0082064D01*
X0066895Y0082831D01*
X0065360Y0080530D02*
X0063826Y0082064D01*
X0063826Y0082831D01*
X0062291Y0082064D02*
X0062291Y0080530D01*
X0061524Y0079762D01*
X0059222Y0079762D01*
X0059222Y0078228D02*
X0059222Y0082831D01*
X0061524Y0082831D01*
X0062291Y0082064D01*
X0060757Y0079762D02*
X0062291Y0078228D01*
X0062291Y0072831D02*
X0062291Y0072064D01*
X0060756Y0070530D01*
X0060756Y0068228D01*
X0060756Y0070530D02*
X0059222Y0072064D01*
X0059222Y0072831D01*
X0057687Y0072064D02*
X0057687Y0070530D01*
X0056920Y0069762D01*
X0054618Y0069762D01*
X0054618Y0068228D02*
X0054618Y0072831D01*
X0056920Y0072831D01*
X0057687Y0072064D01*
X0056153Y0069762D02*
X0057687Y0068228D01*
X0053083Y0068228D02*
X0050014Y0068228D01*
X0050014Y0072831D01*
X0053083Y0072831D01*
X0051549Y0070530D02*
X0050014Y0070530D01*
X0048479Y0072831D02*
X0045410Y0072831D01*
X0043875Y0072831D02*
X0040806Y0072831D01*
X0042341Y0072831D02*
X0042341Y0068228D01*
X0039272Y0068228D02*
X0039272Y0071297D01*
X0037737Y0072831D01*
X0036202Y0071297D01*
X0036202Y0068228D01*
X0034668Y0068995D02*
X0033900Y0068228D01*
X0031598Y0068228D01*
X0031598Y0072831D01*
X0033900Y0072831D01*
X0034668Y0072064D01*
X0034668Y0071297D01*
X0033900Y0070530D01*
X0031598Y0070530D01*
X0033900Y0070530D02*
X0034668Y0069762D01*
X0034668Y0068995D01*
X0036202Y0070530D02*
X0039272Y0070530D01*
X0038504Y0078228D02*
X0036202Y0078228D01*
X0036202Y0082831D01*
X0038504Y0082831D01*
X0039272Y0082064D01*
X0039272Y0081297D01*
X0038504Y0080530D01*
X0036202Y0080530D01*
X0038504Y0080530D02*
X0039272Y0079762D01*
X0039272Y0078995D01*
X0038504Y0078228D01*
X0040806Y0078228D02*
X0040806Y0081297D01*
X0042341Y0082831D01*
X0043875Y0081297D01*
X0043875Y0078228D01*
X0043875Y0080530D02*
X0040806Y0080530D01*
X0045410Y0082831D02*
X0048479Y0082831D01*
X0046945Y0082831D02*
X0046945Y0078228D01*
X0051549Y0078228D02*
X0051549Y0082831D01*
X0053083Y0082831D02*
X0050014Y0082831D01*
X0054618Y0082831D02*
X0054618Y0078228D01*
X0057687Y0078228D01*
X0056153Y0080530D02*
X0054618Y0080530D01*
X0054618Y0082831D02*
X0057687Y0082831D01*
X0046945Y0072831D02*
X0046945Y0068228D01*
X0073034Y0080530D02*
X0076103Y0080530D01*
X0074568Y0082064D02*
X0074568Y0078995D01*
X0071499Y0107460D02*
X0068430Y0107460D01*
X0065360Y0108228D02*
X0065360Y0110530D01*
X0066895Y0112064D01*
X0066895Y0112831D01*
X0065360Y0110530D02*
X0063826Y0112064D01*
X0063826Y0112831D01*
X0062291Y0112064D02*
X0062291Y0110530D01*
X0061524Y0109762D01*
X0059222Y0109762D01*
X0059222Y0108228D02*
X0059222Y0112831D01*
X0061524Y0112831D01*
X0062291Y0112064D01*
X0060757Y0109762D02*
X0062291Y0108228D01*
X0057687Y0108228D02*
X0054618Y0108228D01*
X0054618Y0112831D01*
X0057687Y0112831D01*
X0056153Y0110530D02*
X0054618Y0110530D01*
X0053083Y0112831D02*
X0050014Y0112831D01*
X0048479Y0112831D02*
X0045410Y0112831D01*
X0046945Y0112831D02*
X0046945Y0108228D01*
X0043875Y0108228D02*
X0043875Y0111297D01*
X0042341Y0112831D01*
X0040806Y0111297D01*
X0040806Y0108228D01*
X0039272Y0108995D02*
X0038504Y0108228D01*
X0036202Y0108228D01*
X0036202Y0112831D01*
X0038504Y0112831D01*
X0039272Y0112064D01*
X0039272Y0111297D01*
X0038504Y0110530D01*
X0036202Y0110530D01*
X0038504Y0110530D02*
X0039272Y0109762D01*
X0039272Y0108995D01*
X0040806Y0110530D02*
X0043875Y0110530D01*
X0042341Y0118228D02*
X0042341Y0122831D01*
X0043875Y0122831D02*
X0040806Y0122831D01*
X0039272Y0121297D02*
X0039272Y0118228D01*
X0039272Y0120530D02*
X0036202Y0120530D01*
X0036202Y0121297D02*
X0037737Y0122831D01*
X0039272Y0121297D01*
X0036202Y0121297D02*
X0036202Y0118228D01*
X0034668Y0118995D02*
X0034668Y0119762D01*
X0033900Y0120530D01*
X0031598Y0120530D01*
X0031598Y0122831D02*
X0031598Y0118228D01*
X0033900Y0118228D01*
X0034668Y0118995D01*
X0033900Y0120530D02*
X0034668Y0121297D01*
X0034668Y0122064D01*
X0033900Y0122831D01*
X0031598Y0122831D01*
X0045410Y0122831D02*
X0048479Y0122831D01*
X0046945Y0122831D02*
X0046945Y0118228D01*
X0050014Y0118228D02*
X0050014Y0122831D01*
X0053083Y0122831D01*
X0054618Y0122831D02*
X0056920Y0122831D01*
X0057687Y0122064D01*
X0057687Y0120530D01*
X0056920Y0119762D01*
X0054618Y0119762D01*
X0054618Y0118228D02*
X0054618Y0122831D01*
X0056153Y0119762D02*
X0057687Y0118228D01*
X0060756Y0118228D02*
X0060756Y0120530D01*
X0062291Y0122064D01*
X0062291Y0122831D01*
X0060756Y0120530D02*
X0059222Y0122064D01*
X0059222Y0122831D01*
X0063826Y0117460D02*
X0066895Y0117460D01*
X0068430Y0120530D02*
X0071499Y0120530D01*
X0073034Y0121297D02*
X0074568Y0122831D01*
X0074568Y0118228D01*
X0073034Y0118228D02*
X0076103Y0118228D01*
X0076103Y0110530D02*
X0073034Y0110530D01*
X0053083Y0118228D02*
X0050014Y0118228D01*
X0050014Y0120530D02*
X0051549Y0120530D01*
X0051549Y0112831D02*
X0051549Y0108228D01*
D12*
X0068595Y0138933D02*
X0074095Y0138933D01*
X0074095Y0178933D01*
X0091095Y0178933D01*
X0091095Y0138933D01*
X0074095Y0138933D01*
X0068595Y0138933D02*
X0068595Y0178933D01*
X0074095Y0178933D01*
X0080095Y0183433D02*
X0080095Y0190433D01*
X0080095Y0207433D01*
X0080095Y0212933D01*
X0120095Y0212933D01*
X0120095Y0207433D01*
X0120095Y0190433D01*
X0080095Y0190433D01*
X0080095Y0183433D02*
X0120095Y0183433D01*
X0120095Y0186933D01*
X0120095Y0190433D01*
X0122095Y0190933D01*
X0122095Y0186433D01*
X0120095Y0186933D01*
X0125095Y0183433D02*
X0125095Y0190433D01*
X0125095Y0207433D01*
X0125095Y0212933D01*
X0165095Y0212933D01*
X0165095Y0207433D01*
X0165095Y0190433D01*
X0125095Y0190433D01*
X0125095Y0183433D02*
X0165095Y0183433D01*
X0165095Y0186933D01*
X0165095Y0190433D01*
X0167095Y0190933D01*
X0167095Y0186433D01*
X0165095Y0186933D01*
X0152995Y0186933D02*
X0152997Y0187022D01*
X0153003Y0187111D01*
X0153013Y0187200D01*
X0153027Y0187288D01*
X0153044Y0187375D01*
X0153066Y0187461D01*
X0153092Y0187547D01*
X0153121Y0187631D01*
X0153154Y0187714D01*
X0153190Y0187795D01*
X0153231Y0187875D01*
X0153274Y0187952D01*
X0153321Y0188028D01*
X0153372Y0188101D01*
X0153425Y0188172D01*
X0153482Y0188241D01*
X0153542Y0188307D01*
X0153605Y0188371D01*
X0153670Y0188431D01*
X0153738Y0188489D01*
X0153809Y0188543D01*
X0153882Y0188594D01*
X0153957Y0188642D01*
X0154034Y0188687D01*
X0154113Y0188728D01*
X0154194Y0188765D01*
X0154276Y0188799D01*
X0154360Y0188830D01*
X0154445Y0188856D01*
X0154531Y0188879D01*
X0154618Y0188897D01*
X0154706Y0188912D01*
X0154795Y0188923D01*
X0154884Y0188930D01*
X0154973Y0188933D01*
X0155062Y0188932D01*
X0155151Y0188927D01*
X0155239Y0188918D01*
X0155328Y0188905D01*
X0155415Y0188888D01*
X0155502Y0188868D01*
X0155588Y0188843D01*
X0155672Y0188815D01*
X0155755Y0188783D01*
X0155837Y0188747D01*
X0155917Y0188708D01*
X0155995Y0188665D01*
X0156071Y0188619D01*
X0156145Y0188569D01*
X0156217Y0188516D01*
X0156286Y0188460D01*
X0156353Y0188401D01*
X0156417Y0188339D01*
X0156478Y0188275D01*
X0156537Y0188207D01*
X0156592Y0188137D01*
X0156644Y0188065D01*
X0156693Y0187990D01*
X0156738Y0187914D01*
X0156780Y0187835D01*
X0156818Y0187755D01*
X0156853Y0187673D01*
X0156884Y0187589D01*
X0156912Y0187504D01*
X0156935Y0187418D01*
X0156955Y0187331D01*
X0156971Y0187244D01*
X0156983Y0187155D01*
X0156991Y0187067D01*
X0156995Y0186978D01*
X0156995Y0186888D01*
X0156991Y0186799D01*
X0156983Y0186711D01*
X0156971Y0186622D01*
X0156955Y0186535D01*
X0156935Y0186448D01*
X0156912Y0186362D01*
X0156884Y0186277D01*
X0156853Y0186193D01*
X0156818Y0186111D01*
X0156780Y0186031D01*
X0156738Y0185952D01*
X0156693Y0185876D01*
X0156644Y0185801D01*
X0156592Y0185729D01*
X0156537Y0185659D01*
X0156478Y0185591D01*
X0156417Y0185527D01*
X0156353Y0185465D01*
X0156286Y0185406D01*
X0156217Y0185350D01*
X0156145Y0185297D01*
X0156071Y0185247D01*
X0155995Y0185201D01*
X0155917Y0185158D01*
X0155837Y0185119D01*
X0155755Y0185083D01*
X0155672Y0185051D01*
X0155588Y0185023D01*
X0155502Y0184998D01*
X0155415Y0184978D01*
X0155328Y0184961D01*
X0155239Y0184948D01*
X0155151Y0184939D01*
X0155062Y0184934D01*
X0154973Y0184933D01*
X0154884Y0184936D01*
X0154795Y0184943D01*
X0154706Y0184954D01*
X0154618Y0184969D01*
X0154531Y0184987D01*
X0154445Y0185010D01*
X0154360Y0185036D01*
X0154276Y0185067D01*
X0154194Y0185101D01*
X0154113Y0185138D01*
X0154034Y0185179D01*
X0153957Y0185224D01*
X0153882Y0185272D01*
X0153809Y0185323D01*
X0153738Y0185377D01*
X0153670Y0185435D01*
X0153605Y0185495D01*
X0153542Y0185559D01*
X0153482Y0185625D01*
X0153425Y0185694D01*
X0153372Y0185765D01*
X0153321Y0185838D01*
X0153274Y0185914D01*
X0153231Y0185991D01*
X0153190Y0186071D01*
X0153154Y0186152D01*
X0153121Y0186235D01*
X0153092Y0186319D01*
X0153066Y0186405D01*
X0153044Y0186491D01*
X0153027Y0186578D01*
X0153013Y0186666D01*
X0153003Y0186755D01*
X0152997Y0186844D01*
X0152995Y0186933D01*
X0133195Y0186933D02*
X0133197Y0187022D01*
X0133203Y0187111D01*
X0133213Y0187200D01*
X0133227Y0187288D01*
X0133244Y0187375D01*
X0133266Y0187461D01*
X0133292Y0187547D01*
X0133321Y0187631D01*
X0133354Y0187714D01*
X0133390Y0187795D01*
X0133431Y0187875D01*
X0133474Y0187952D01*
X0133521Y0188028D01*
X0133572Y0188101D01*
X0133625Y0188172D01*
X0133682Y0188241D01*
X0133742Y0188307D01*
X0133805Y0188371D01*
X0133870Y0188431D01*
X0133938Y0188489D01*
X0134009Y0188543D01*
X0134082Y0188594D01*
X0134157Y0188642D01*
X0134234Y0188687D01*
X0134313Y0188728D01*
X0134394Y0188765D01*
X0134476Y0188799D01*
X0134560Y0188830D01*
X0134645Y0188856D01*
X0134731Y0188879D01*
X0134818Y0188897D01*
X0134906Y0188912D01*
X0134995Y0188923D01*
X0135084Y0188930D01*
X0135173Y0188933D01*
X0135262Y0188932D01*
X0135351Y0188927D01*
X0135439Y0188918D01*
X0135528Y0188905D01*
X0135615Y0188888D01*
X0135702Y0188868D01*
X0135788Y0188843D01*
X0135872Y0188815D01*
X0135955Y0188783D01*
X0136037Y0188747D01*
X0136117Y0188708D01*
X0136195Y0188665D01*
X0136271Y0188619D01*
X0136345Y0188569D01*
X0136417Y0188516D01*
X0136486Y0188460D01*
X0136553Y0188401D01*
X0136617Y0188339D01*
X0136678Y0188275D01*
X0136737Y0188207D01*
X0136792Y0188137D01*
X0136844Y0188065D01*
X0136893Y0187990D01*
X0136938Y0187914D01*
X0136980Y0187835D01*
X0137018Y0187755D01*
X0137053Y0187673D01*
X0137084Y0187589D01*
X0137112Y0187504D01*
X0137135Y0187418D01*
X0137155Y0187331D01*
X0137171Y0187244D01*
X0137183Y0187155D01*
X0137191Y0187067D01*
X0137195Y0186978D01*
X0137195Y0186888D01*
X0137191Y0186799D01*
X0137183Y0186711D01*
X0137171Y0186622D01*
X0137155Y0186535D01*
X0137135Y0186448D01*
X0137112Y0186362D01*
X0137084Y0186277D01*
X0137053Y0186193D01*
X0137018Y0186111D01*
X0136980Y0186031D01*
X0136938Y0185952D01*
X0136893Y0185876D01*
X0136844Y0185801D01*
X0136792Y0185729D01*
X0136737Y0185659D01*
X0136678Y0185591D01*
X0136617Y0185527D01*
X0136553Y0185465D01*
X0136486Y0185406D01*
X0136417Y0185350D01*
X0136345Y0185297D01*
X0136271Y0185247D01*
X0136195Y0185201D01*
X0136117Y0185158D01*
X0136037Y0185119D01*
X0135955Y0185083D01*
X0135872Y0185051D01*
X0135788Y0185023D01*
X0135702Y0184998D01*
X0135615Y0184978D01*
X0135528Y0184961D01*
X0135439Y0184948D01*
X0135351Y0184939D01*
X0135262Y0184934D01*
X0135173Y0184933D01*
X0135084Y0184936D01*
X0134995Y0184943D01*
X0134906Y0184954D01*
X0134818Y0184969D01*
X0134731Y0184987D01*
X0134645Y0185010D01*
X0134560Y0185036D01*
X0134476Y0185067D01*
X0134394Y0185101D01*
X0134313Y0185138D01*
X0134234Y0185179D01*
X0134157Y0185224D01*
X0134082Y0185272D01*
X0134009Y0185323D01*
X0133938Y0185377D01*
X0133870Y0185435D01*
X0133805Y0185495D01*
X0133742Y0185559D01*
X0133682Y0185625D01*
X0133625Y0185694D01*
X0133572Y0185765D01*
X0133521Y0185838D01*
X0133474Y0185914D01*
X0133431Y0185991D01*
X0133390Y0186071D01*
X0133354Y0186152D01*
X0133321Y0186235D01*
X0133292Y0186319D01*
X0133266Y0186405D01*
X0133244Y0186491D01*
X0133227Y0186578D01*
X0133213Y0186666D01*
X0133203Y0186755D01*
X0133197Y0186844D01*
X0133195Y0186933D01*
X0147095Y0168933D02*
X0154095Y0168933D01*
X0171095Y0168933D01*
X0176595Y0168933D01*
X0176595Y0128933D01*
X0171095Y0128933D01*
X0154095Y0128933D01*
X0154095Y0168933D01*
X0147095Y0168933D02*
X0147095Y0128933D01*
X0150595Y0128933D01*
X0154095Y0128933D01*
X0154595Y0126933D01*
X0150095Y0126933D01*
X0150595Y0128933D01*
X0147095Y0123933D02*
X0154095Y0123933D01*
X0171095Y0123933D01*
X0176595Y0123933D01*
X0176595Y0083933D01*
X0171095Y0083933D01*
X0154095Y0083933D01*
X0154095Y0123933D01*
X0147095Y0123933D02*
X0147095Y0083933D01*
X0150595Y0083933D01*
X0154095Y0083933D01*
X0154595Y0081933D01*
X0150095Y0081933D01*
X0150595Y0083933D01*
X0147095Y0078933D02*
X0154095Y0078933D01*
X0171095Y0078933D01*
X0176595Y0078933D01*
X0176595Y0038933D01*
X0171095Y0038933D01*
X0154095Y0038933D01*
X0154095Y0078933D01*
X0147095Y0078933D02*
X0147095Y0038933D01*
X0150595Y0038933D01*
X0154095Y0038933D01*
X0154595Y0036933D01*
X0150095Y0036933D01*
X0150595Y0038933D01*
X0142595Y0039933D02*
X0142595Y0045433D01*
X0102595Y0045433D01*
X0102595Y0062433D01*
X0142595Y0062433D01*
X0142595Y0045433D01*
X0142595Y0039933D02*
X0102595Y0039933D01*
X0102595Y0045433D01*
X0097595Y0045433D02*
X0097595Y0039933D01*
X0057595Y0039933D01*
X0057595Y0045433D01*
X0057595Y0062433D01*
X0097595Y0062433D01*
X0097595Y0045433D01*
X0057595Y0045433D01*
X0055595Y0061933D02*
X0057595Y0062433D01*
X0057595Y0065933D01*
X0057595Y0069433D01*
X0097595Y0069433D01*
X0097595Y0062433D01*
X0100595Y0061933D02*
X0102595Y0062433D01*
X0102595Y0065933D01*
X0102595Y0069433D01*
X0142595Y0069433D01*
X0142595Y0062433D01*
X0148595Y0068833D02*
X0148597Y0068922D01*
X0148603Y0069011D01*
X0148613Y0069100D01*
X0148627Y0069188D01*
X0148644Y0069275D01*
X0148666Y0069361D01*
X0148692Y0069447D01*
X0148721Y0069531D01*
X0148754Y0069614D01*
X0148790Y0069695D01*
X0148831Y0069775D01*
X0148874Y0069852D01*
X0148921Y0069928D01*
X0148972Y0070001D01*
X0149025Y0070072D01*
X0149082Y0070141D01*
X0149142Y0070207D01*
X0149205Y0070271D01*
X0149270Y0070331D01*
X0149338Y0070389D01*
X0149409Y0070443D01*
X0149482Y0070494D01*
X0149557Y0070542D01*
X0149634Y0070587D01*
X0149713Y0070628D01*
X0149794Y0070665D01*
X0149876Y0070699D01*
X0149960Y0070730D01*
X0150045Y0070756D01*
X0150131Y0070779D01*
X0150218Y0070797D01*
X0150306Y0070812D01*
X0150395Y0070823D01*
X0150484Y0070830D01*
X0150573Y0070833D01*
X0150662Y0070832D01*
X0150751Y0070827D01*
X0150839Y0070818D01*
X0150928Y0070805D01*
X0151015Y0070788D01*
X0151102Y0070768D01*
X0151188Y0070743D01*
X0151272Y0070715D01*
X0151355Y0070683D01*
X0151437Y0070647D01*
X0151517Y0070608D01*
X0151595Y0070565D01*
X0151671Y0070519D01*
X0151745Y0070469D01*
X0151817Y0070416D01*
X0151886Y0070360D01*
X0151953Y0070301D01*
X0152017Y0070239D01*
X0152078Y0070175D01*
X0152137Y0070107D01*
X0152192Y0070037D01*
X0152244Y0069965D01*
X0152293Y0069890D01*
X0152338Y0069814D01*
X0152380Y0069735D01*
X0152418Y0069655D01*
X0152453Y0069573D01*
X0152484Y0069489D01*
X0152512Y0069404D01*
X0152535Y0069318D01*
X0152555Y0069231D01*
X0152571Y0069144D01*
X0152583Y0069055D01*
X0152591Y0068967D01*
X0152595Y0068878D01*
X0152595Y0068788D01*
X0152591Y0068699D01*
X0152583Y0068611D01*
X0152571Y0068522D01*
X0152555Y0068435D01*
X0152535Y0068348D01*
X0152512Y0068262D01*
X0152484Y0068177D01*
X0152453Y0068093D01*
X0152418Y0068011D01*
X0152380Y0067931D01*
X0152338Y0067852D01*
X0152293Y0067776D01*
X0152244Y0067701D01*
X0152192Y0067629D01*
X0152137Y0067559D01*
X0152078Y0067491D01*
X0152017Y0067427D01*
X0151953Y0067365D01*
X0151886Y0067306D01*
X0151817Y0067250D01*
X0151745Y0067197D01*
X0151671Y0067147D01*
X0151595Y0067101D01*
X0151517Y0067058D01*
X0151437Y0067019D01*
X0151355Y0066983D01*
X0151272Y0066951D01*
X0151188Y0066923D01*
X0151102Y0066898D01*
X0151015Y0066878D01*
X0150928Y0066861D01*
X0150839Y0066848D01*
X0150751Y0066839D01*
X0150662Y0066834D01*
X0150573Y0066833D01*
X0150484Y0066836D01*
X0150395Y0066843D01*
X0150306Y0066854D01*
X0150218Y0066869D01*
X0150131Y0066887D01*
X0150045Y0066910D01*
X0149960Y0066936D01*
X0149876Y0066967D01*
X0149794Y0067001D01*
X0149713Y0067038D01*
X0149634Y0067079D01*
X0149557Y0067124D01*
X0149482Y0067172D01*
X0149409Y0067223D01*
X0149338Y0067277D01*
X0149270Y0067335D01*
X0149205Y0067395D01*
X0149142Y0067459D01*
X0149082Y0067525D01*
X0149025Y0067594D01*
X0148972Y0067665D01*
X0148921Y0067738D01*
X0148874Y0067814D01*
X0148831Y0067891D01*
X0148790Y0067971D01*
X0148754Y0068052D01*
X0148721Y0068135D01*
X0148692Y0068219D01*
X0148666Y0068305D01*
X0148644Y0068391D01*
X0148627Y0068478D01*
X0148613Y0068566D01*
X0148603Y0068655D01*
X0148597Y0068744D01*
X0148595Y0068833D01*
X0130495Y0065933D02*
X0130497Y0066022D01*
X0130503Y0066111D01*
X0130513Y0066200D01*
X0130527Y0066288D01*
X0130544Y0066375D01*
X0130566Y0066461D01*
X0130592Y0066547D01*
X0130621Y0066631D01*
X0130654Y0066714D01*
X0130690Y0066795D01*
X0130731Y0066875D01*
X0130774Y0066952D01*
X0130821Y0067028D01*
X0130872Y0067101D01*
X0130925Y0067172D01*
X0130982Y0067241D01*
X0131042Y0067307D01*
X0131105Y0067371D01*
X0131170Y0067431D01*
X0131238Y0067489D01*
X0131309Y0067543D01*
X0131382Y0067594D01*
X0131457Y0067642D01*
X0131534Y0067687D01*
X0131613Y0067728D01*
X0131694Y0067765D01*
X0131776Y0067799D01*
X0131860Y0067830D01*
X0131945Y0067856D01*
X0132031Y0067879D01*
X0132118Y0067897D01*
X0132206Y0067912D01*
X0132295Y0067923D01*
X0132384Y0067930D01*
X0132473Y0067933D01*
X0132562Y0067932D01*
X0132651Y0067927D01*
X0132739Y0067918D01*
X0132828Y0067905D01*
X0132915Y0067888D01*
X0133002Y0067868D01*
X0133088Y0067843D01*
X0133172Y0067815D01*
X0133255Y0067783D01*
X0133337Y0067747D01*
X0133417Y0067708D01*
X0133495Y0067665D01*
X0133571Y0067619D01*
X0133645Y0067569D01*
X0133717Y0067516D01*
X0133786Y0067460D01*
X0133853Y0067401D01*
X0133917Y0067339D01*
X0133978Y0067275D01*
X0134037Y0067207D01*
X0134092Y0067137D01*
X0134144Y0067065D01*
X0134193Y0066990D01*
X0134238Y0066914D01*
X0134280Y0066835D01*
X0134318Y0066755D01*
X0134353Y0066673D01*
X0134384Y0066589D01*
X0134412Y0066504D01*
X0134435Y0066418D01*
X0134455Y0066331D01*
X0134471Y0066244D01*
X0134483Y0066155D01*
X0134491Y0066067D01*
X0134495Y0065978D01*
X0134495Y0065888D01*
X0134491Y0065799D01*
X0134483Y0065711D01*
X0134471Y0065622D01*
X0134455Y0065535D01*
X0134435Y0065448D01*
X0134412Y0065362D01*
X0134384Y0065277D01*
X0134353Y0065193D01*
X0134318Y0065111D01*
X0134280Y0065031D01*
X0134238Y0064952D01*
X0134193Y0064876D01*
X0134144Y0064801D01*
X0134092Y0064729D01*
X0134037Y0064659D01*
X0133978Y0064591D01*
X0133917Y0064527D01*
X0133853Y0064465D01*
X0133786Y0064406D01*
X0133717Y0064350D01*
X0133645Y0064297D01*
X0133571Y0064247D01*
X0133495Y0064201D01*
X0133417Y0064158D01*
X0133337Y0064119D01*
X0133255Y0064083D01*
X0133172Y0064051D01*
X0133088Y0064023D01*
X0133002Y0063998D01*
X0132915Y0063978D01*
X0132828Y0063961D01*
X0132739Y0063948D01*
X0132651Y0063939D01*
X0132562Y0063934D01*
X0132473Y0063933D01*
X0132384Y0063936D01*
X0132295Y0063943D01*
X0132206Y0063954D01*
X0132118Y0063969D01*
X0132031Y0063987D01*
X0131945Y0064010D01*
X0131860Y0064036D01*
X0131776Y0064067D01*
X0131694Y0064101D01*
X0131613Y0064138D01*
X0131534Y0064179D01*
X0131457Y0064224D01*
X0131382Y0064272D01*
X0131309Y0064323D01*
X0131238Y0064377D01*
X0131170Y0064435D01*
X0131105Y0064495D01*
X0131042Y0064559D01*
X0130982Y0064625D01*
X0130925Y0064694D01*
X0130872Y0064765D01*
X0130821Y0064838D01*
X0130774Y0064914D01*
X0130731Y0064991D01*
X0130690Y0065071D01*
X0130654Y0065152D01*
X0130621Y0065235D01*
X0130592Y0065319D01*
X0130566Y0065405D01*
X0130544Y0065491D01*
X0130527Y0065578D01*
X0130513Y0065666D01*
X0130503Y0065755D01*
X0130497Y0065844D01*
X0130495Y0065933D01*
X0110695Y0065933D02*
X0110697Y0066022D01*
X0110703Y0066111D01*
X0110713Y0066200D01*
X0110727Y0066288D01*
X0110744Y0066375D01*
X0110766Y0066461D01*
X0110792Y0066547D01*
X0110821Y0066631D01*
X0110854Y0066714D01*
X0110890Y0066795D01*
X0110931Y0066875D01*
X0110974Y0066952D01*
X0111021Y0067028D01*
X0111072Y0067101D01*
X0111125Y0067172D01*
X0111182Y0067241D01*
X0111242Y0067307D01*
X0111305Y0067371D01*
X0111370Y0067431D01*
X0111438Y0067489D01*
X0111509Y0067543D01*
X0111582Y0067594D01*
X0111657Y0067642D01*
X0111734Y0067687D01*
X0111813Y0067728D01*
X0111894Y0067765D01*
X0111976Y0067799D01*
X0112060Y0067830D01*
X0112145Y0067856D01*
X0112231Y0067879D01*
X0112318Y0067897D01*
X0112406Y0067912D01*
X0112495Y0067923D01*
X0112584Y0067930D01*
X0112673Y0067933D01*
X0112762Y0067932D01*
X0112851Y0067927D01*
X0112939Y0067918D01*
X0113028Y0067905D01*
X0113115Y0067888D01*
X0113202Y0067868D01*
X0113288Y0067843D01*
X0113372Y0067815D01*
X0113455Y0067783D01*
X0113537Y0067747D01*
X0113617Y0067708D01*
X0113695Y0067665D01*
X0113771Y0067619D01*
X0113845Y0067569D01*
X0113917Y0067516D01*
X0113986Y0067460D01*
X0114053Y0067401D01*
X0114117Y0067339D01*
X0114178Y0067275D01*
X0114237Y0067207D01*
X0114292Y0067137D01*
X0114344Y0067065D01*
X0114393Y0066990D01*
X0114438Y0066914D01*
X0114480Y0066835D01*
X0114518Y0066755D01*
X0114553Y0066673D01*
X0114584Y0066589D01*
X0114612Y0066504D01*
X0114635Y0066418D01*
X0114655Y0066331D01*
X0114671Y0066244D01*
X0114683Y0066155D01*
X0114691Y0066067D01*
X0114695Y0065978D01*
X0114695Y0065888D01*
X0114691Y0065799D01*
X0114683Y0065711D01*
X0114671Y0065622D01*
X0114655Y0065535D01*
X0114635Y0065448D01*
X0114612Y0065362D01*
X0114584Y0065277D01*
X0114553Y0065193D01*
X0114518Y0065111D01*
X0114480Y0065031D01*
X0114438Y0064952D01*
X0114393Y0064876D01*
X0114344Y0064801D01*
X0114292Y0064729D01*
X0114237Y0064659D01*
X0114178Y0064591D01*
X0114117Y0064527D01*
X0114053Y0064465D01*
X0113986Y0064406D01*
X0113917Y0064350D01*
X0113845Y0064297D01*
X0113771Y0064247D01*
X0113695Y0064201D01*
X0113617Y0064158D01*
X0113537Y0064119D01*
X0113455Y0064083D01*
X0113372Y0064051D01*
X0113288Y0064023D01*
X0113202Y0063998D01*
X0113115Y0063978D01*
X0113028Y0063961D01*
X0112939Y0063948D01*
X0112851Y0063939D01*
X0112762Y0063934D01*
X0112673Y0063933D01*
X0112584Y0063936D01*
X0112495Y0063943D01*
X0112406Y0063954D01*
X0112318Y0063969D01*
X0112231Y0063987D01*
X0112145Y0064010D01*
X0112060Y0064036D01*
X0111976Y0064067D01*
X0111894Y0064101D01*
X0111813Y0064138D01*
X0111734Y0064179D01*
X0111657Y0064224D01*
X0111582Y0064272D01*
X0111509Y0064323D01*
X0111438Y0064377D01*
X0111370Y0064435D01*
X0111305Y0064495D01*
X0111242Y0064559D01*
X0111182Y0064625D01*
X0111125Y0064694D01*
X0111072Y0064765D01*
X0111021Y0064838D01*
X0110974Y0064914D01*
X0110931Y0064991D01*
X0110890Y0065071D01*
X0110854Y0065152D01*
X0110821Y0065235D01*
X0110792Y0065319D01*
X0110766Y0065405D01*
X0110744Y0065491D01*
X0110727Y0065578D01*
X0110713Y0065666D01*
X0110703Y0065755D01*
X0110697Y0065844D01*
X0110695Y0065933D01*
X0102595Y0065933D02*
X0100595Y0066433D01*
X0100595Y0061933D01*
X0085495Y0065933D02*
X0085497Y0066022D01*
X0085503Y0066111D01*
X0085513Y0066200D01*
X0085527Y0066288D01*
X0085544Y0066375D01*
X0085566Y0066461D01*
X0085592Y0066547D01*
X0085621Y0066631D01*
X0085654Y0066714D01*
X0085690Y0066795D01*
X0085731Y0066875D01*
X0085774Y0066952D01*
X0085821Y0067028D01*
X0085872Y0067101D01*
X0085925Y0067172D01*
X0085982Y0067241D01*
X0086042Y0067307D01*
X0086105Y0067371D01*
X0086170Y0067431D01*
X0086238Y0067489D01*
X0086309Y0067543D01*
X0086382Y0067594D01*
X0086457Y0067642D01*
X0086534Y0067687D01*
X0086613Y0067728D01*
X0086694Y0067765D01*
X0086776Y0067799D01*
X0086860Y0067830D01*
X0086945Y0067856D01*
X0087031Y0067879D01*
X0087118Y0067897D01*
X0087206Y0067912D01*
X0087295Y0067923D01*
X0087384Y0067930D01*
X0087473Y0067933D01*
X0087562Y0067932D01*
X0087651Y0067927D01*
X0087739Y0067918D01*
X0087828Y0067905D01*
X0087915Y0067888D01*
X0088002Y0067868D01*
X0088088Y0067843D01*
X0088172Y0067815D01*
X0088255Y0067783D01*
X0088337Y0067747D01*
X0088417Y0067708D01*
X0088495Y0067665D01*
X0088571Y0067619D01*
X0088645Y0067569D01*
X0088717Y0067516D01*
X0088786Y0067460D01*
X0088853Y0067401D01*
X0088917Y0067339D01*
X0088978Y0067275D01*
X0089037Y0067207D01*
X0089092Y0067137D01*
X0089144Y0067065D01*
X0089193Y0066990D01*
X0089238Y0066914D01*
X0089280Y0066835D01*
X0089318Y0066755D01*
X0089353Y0066673D01*
X0089384Y0066589D01*
X0089412Y0066504D01*
X0089435Y0066418D01*
X0089455Y0066331D01*
X0089471Y0066244D01*
X0089483Y0066155D01*
X0089491Y0066067D01*
X0089495Y0065978D01*
X0089495Y0065888D01*
X0089491Y0065799D01*
X0089483Y0065711D01*
X0089471Y0065622D01*
X0089455Y0065535D01*
X0089435Y0065448D01*
X0089412Y0065362D01*
X0089384Y0065277D01*
X0089353Y0065193D01*
X0089318Y0065111D01*
X0089280Y0065031D01*
X0089238Y0064952D01*
X0089193Y0064876D01*
X0089144Y0064801D01*
X0089092Y0064729D01*
X0089037Y0064659D01*
X0088978Y0064591D01*
X0088917Y0064527D01*
X0088853Y0064465D01*
X0088786Y0064406D01*
X0088717Y0064350D01*
X0088645Y0064297D01*
X0088571Y0064247D01*
X0088495Y0064201D01*
X0088417Y0064158D01*
X0088337Y0064119D01*
X0088255Y0064083D01*
X0088172Y0064051D01*
X0088088Y0064023D01*
X0088002Y0063998D01*
X0087915Y0063978D01*
X0087828Y0063961D01*
X0087739Y0063948D01*
X0087651Y0063939D01*
X0087562Y0063934D01*
X0087473Y0063933D01*
X0087384Y0063936D01*
X0087295Y0063943D01*
X0087206Y0063954D01*
X0087118Y0063969D01*
X0087031Y0063987D01*
X0086945Y0064010D01*
X0086860Y0064036D01*
X0086776Y0064067D01*
X0086694Y0064101D01*
X0086613Y0064138D01*
X0086534Y0064179D01*
X0086457Y0064224D01*
X0086382Y0064272D01*
X0086309Y0064323D01*
X0086238Y0064377D01*
X0086170Y0064435D01*
X0086105Y0064495D01*
X0086042Y0064559D01*
X0085982Y0064625D01*
X0085925Y0064694D01*
X0085872Y0064765D01*
X0085821Y0064838D01*
X0085774Y0064914D01*
X0085731Y0064991D01*
X0085690Y0065071D01*
X0085654Y0065152D01*
X0085621Y0065235D01*
X0085592Y0065319D01*
X0085566Y0065405D01*
X0085544Y0065491D01*
X0085527Y0065578D01*
X0085513Y0065666D01*
X0085503Y0065755D01*
X0085497Y0065844D01*
X0085495Y0065933D01*
X0065695Y0065933D02*
X0065697Y0066022D01*
X0065703Y0066111D01*
X0065713Y0066200D01*
X0065727Y0066288D01*
X0065744Y0066375D01*
X0065766Y0066461D01*
X0065792Y0066547D01*
X0065821Y0066631D01*
X0065854Y0066714D01*
X0065890Y0066795D01*
X0065931Y0066875D01*
X0065974Y0066952D01*
X0066021Y0067028D01*
X0066072Y0067101D01*
X0066125Y0067172D01*
X0066182Y0067241D01*
X0066242Y0067307D01*
X0066305Y0067371D01*
X0066370Y0067431D01*
X0066438Y0067489D01*
X0066509Y0067543D01*
X0066582Y0067594D01*
X0066657Y0067642D01*
X0066734Y0067687D01*
X0066813Y0067728D01*
X0066894Y0067765D01*
X0066976Y0067799D01*
X0067060Y0067830D01*
X0067145Y0067856D01*
X0067231Y0067879D01*
X0067318Y0067897D01*
X0067406Y0067912D01*
X0067495Y0067923D01*
X0067584Y0067930D01*
X0067673Y0067933D01*
X0067762Y0067932D01*
X0067851Y0067927D01*
X0067939Y0067918D01*
X0068028Y0067905D01*
X0068115Y0067888D01*
X0068202Y0067868D01*
X0068288Y0067843D01*
X0068372Y0067815D01*
X0068455Y0067783D01*
X0068537Y0067747D01*
X0068617Y0067708D01*
X0068695Y0067665D01*
X0068771Y0067619D01*
X0068845Y0067569D01*
X0068917Y0067516D01*
X0068986Y0067460D01*
X0069053Y0067401D01*
X0069117Y0067339D01*
X0069178Y0067275D01*
X0069237Y0067207D01*
X0069292Y0067137D01*
X0069344Y0067065D01*
X0069393Y0066990D01*
X0069438Y0066914D01*
X0069480Y0066835D01*
X0069518Y0066755D01*
X0069553Y0066673D01*
X0069584Y0066589D01*
X0069612Y0066504D01*
X0069635Y0066418D01*
X0069655Y0066331D01*
X0069671Y0066244D01*
X0069683Y0066155D01*
X0069691Y0066067D01*
X0069695Y0065978D01*
X0069695Y0065888D01*
X0069691Y0065799D01*
X0069683Y0065711D01*
X0069671Y0065622D01*
X0069655Y0065535D01*
X0069635Y0065448D01*
X0069612Y0065362D01*
X0069584Y0065277D01*
X0069553Y0065193D01*
X0069518Y0065111D01*
X0069480Y0065031D01*
X0069438Y0064952D01*
X0069393Y0064876D01*
X0069344Y0064801D01*
X0069292Y0064729D01*
X0069237Y0064659D01*
X0069178Y0064591D01*
X0069117Y0064527D01*
X0069053Y0064465D01*
X0068986Y0064406D01*
X0068917Y0064350D01*
X0068845Y0064297D01*
X0068771Y0064247D01*
X0068695Y0064201D01*
X0068617Y0064158D01*
X0068537Y0064119D01*
X0068455Y0064083D01*
X0068372Y0064051D01*
X0068288Y0064023D01*
X0068202Y0063998D01*
X0068115Y0063978D01*
X0068028Y0063961D01*
X0067939Y0063948D01*
X0067851Y0063939D01*
X0067762Y0063934D01*
X0067673Y0063933D01*
X0067584Y0063936D01*
X0067495Y0063943D01*
X0067406Y0063954D01*
X0067318Y0063969D01*
X0067231Y0063987D01*
X0067145Y0064010D01*
X0067060Y0064036D01*
X0066976Y0064067D01*
X0066894Y0064101D01*
X0066813Y0064138D01*
X0066734Y0064179D01*
X0066657Y0064224D01*
X0066582Y0064272D01*
X0066509Y0064323D01*
X0066438Y0064377D01*
X0066370Y0064435D01*
X0066305Y0064495D01*
X0066242Y0064559D01*
X0066182Y0064625D01*
X0066125Y0064694D01*
X0066072Y0064765D01*
X0066021Y0064838D01*
X0065974Y0064914D01*
X0065931Y0064991D01*
X0065890Y0065071D01*
X0065854Y0065152D01*
X0065821Y0065235D01*
X0065792Y0065319D01*
X0065766Y0065405D01*
X0065744Y0065491D01*
X0065727Y0065578D01*
X0065713Y0065666D01*
X0065703Y0065755D01*
X0065697Y0065844D01*
X0065695Y0065933D01*
X0057595Y0065933D02*
X0055595Y0066433D01*
X0055595Y0061933D01*
X0116595Y0093933D02*
X0120095Y0090433D01*
X0125095Y0090433D01*
X0128595Y0093933D01*
X0128595Y0098933D01*
X0125095Y0102433D01*
X0120095Y0102433D01*
X0116595Y0098933D01*
X0116595Y0093933D01*
X0148595Y0094033D02*
X0148597Y0094122D01*
X0148603Y0094211D01*
X0148613Y0094300D01*
X0148627Y0094388D01*
X0148644Y0094475D01*
X0148666Y0094561D01*
X0148692Y0094647D01*
X0148721Y0094731D01*
X0148754Y0094814D01*
X0148790Y0094895D01*
X0148831Y0094975D01*
X0148874Y0095052D01*
X0148921Y0095128D01*
X0148972Y0095201D01*
X0149025Y0095272D01*
X0149082Y0095341D01*
X0149142Y0095407D01*
X0149205Y0095471D01*
X0149270Y0095531D01*
X0149338Y0095589D01*
X0149409Y0095643D01*
X0149482Y0095694D01*
X0149557Y0095742D01*
X0149634Y0095787D01*
X0149713Y0095828D01*
X0149794Y0095865D01*
X0149876Y0095899D01*
X0149960Y0095930D01*
X0150045Y0095956D01*
X0150131Y0095979D01*
X0150218Y0095997D01*
X0150306Y0096012D01*
X0150395Y0096023D01*
X0150484Y0096030D01*
X0150573Y0096033D01*
X0150662Y0096032D01*
X0150751Y0096027D01*
X0150839Y0096018D01*
X0150928Y0096005D01*
X0151015Y0095988D01*
X0151102Y0095968D01*
X0151188Y0095943D01*
X0151272Y0095915D01*
X0151355Y0095883D01*
X0151437Y0095847D01*
X0151517Y0095808D01*
X0151595Y0095765D01*
X0151671Y0095719D01*
X0151745Y0095669D01*
X0151817Y0095616D01*
X0151886Y0095560D01*
X0151953Y0095501D01*
X0152017Y0095439D01*
X0152078Y0095375D01*
X0152137Y0095307D01*
X0152192Y0095237D01*
X0152244Y0095165D01*
X0152293Y0095090D01*
X0152338Y0095014D01*
X0152380Y0094935D01*
X0152418Y0094855D01*
X0152453Y0094773D01*
X0152484Y0094689D01*
X0152512Y0094604D01*
X0152535Y0094518D01*
X0152555Y0094431D01*
X0152571Y0094344D01*
X0152583Y0094255D01*
X0152591Y0094167D01*
X0152595Y0094078D01*
X0152595Y0093988D01*
X0152591Y0093899D01*
X0152583Y0093811D01*
X0152571Y0093722D01*
X0152555Y0093635D01*
X0152535Y0093548D01*
X0152512Y0093462D01*
X0152484Y0093377D01*
X0152453Y0093293D01*
X0152418Y0093211D01*
X0152380Y0093131D01*
X0152338Y0093052D01*
X0152293Y0092976D01*
X0152244Y0092901D01*
X0152192Y0092829D01*
X0152137Y0092759D01*
X0152078Y0092691D01*
X0152017Y0092627D01*
X0151953Y0092565D01*
X0151886Y0092506D01*
X0151817Y0092450D01*
X0151745Y0092397D01*
X0151671Y0092347D01*
X0151595Y0092301D01*
X0151517Y0092258D01*
X0151437Y0092219D01*
X0151355Y0092183D01*
X0151272Y0092151D01*
X0151188Y0092123D01*
X0151102Y0092098D01*
X0151015Y0092078D01*
X0150928Y0092061D01*
X0150839Y0092048D01*
X0150751Y0092039D01*
X0150662Y0092034D01*
X0150573Y0092033D01*
X0150484Y0092036D01*
X0150395Y0092043D01*
X0150306Y0092054D01*
X0150218Y0092069D01*
X0150131Y0092087D01*
X0150045Y0092110D01*
X0149960Y0092136D01*
X0149876Y0092167D01*
X0149794Y0092201D01*
X0149713Y0092238D01*
X0149634Y0092279D01*
X0149557Y0092324D01*
X0149482Y0092372D01*
X0149409Y0092423D01*
X0149338Y0092477D01*
X0149270Y0092535D01*
X0149205Y0092595D01*
X0149142Y0092659D01*
X0149082Y0092725D01*
X0149025Y0092794D01*
X0148972Y0092865D01*
X0148921Y0092938D01*
X0148874Y0093014D01*
X0148831Y0093091D01*
X0148790Y0093171D01*
X0148754Y0093252D01*
X0148721Y0093335D01*
X0148692Y0093419D01*
X0148666Y0093505D01*
X0148644Y0093591D01*
X0148627Y0093678D01*
X0148613Y0093766D01*
X0148603Y0093855D01*
X0148597Y0093944D01*
X0148595Y0094033D01*
X0148595Y0113833D02*
X0148597Y0113922D01*
X0148603Y0114011D01*
X0148613Y0114100D01*
X0148627Y0114188D01*
X0148644Y0114275D01*
X0148666Y0114361D01*
X0148692Y0114447D01*
X0148721Y0114531D01*
X0148754Y0114614D01*
X0148790Y0114695D01*
X0148831Y0114775D01*
X0148874Y0114852D01*
X0148921Y0114928D01*
X0148972Y0115001D01*
X0149025Y0115072D01*
X0149082Y0115141D01*
X0149142Y0115207D01*
X0149205Y0115271D01*
X0149270Y0115331D01*
X0149338Y0115389D01*
X0149409Y0115443D01*
X0149482Y0115494D01*
X0149557Y0115542D01*
X0149634Y0115587D01*
X0149713Y0115628D01*
X0149794Y0115665D01*
X0149876Y0115699D01*
X0149960Y0115730D01*
X0150045Y0115756D01*
X0150131Y0115779D01*
X0150218Y0115797D01*
X0150306Y0115812D01*
X0150395Y0115823D01*
X0150484Y0115830D01*
X0150573Y0115833D01*
X0150662Y0115832D01*
X0150751Y0115827D01*
X0150839Y0115818D01*
X0150928Y0115805D01*
X0151015Y0115788D01*
X0151102Y0115768D01*
X0151188Y0115743D01*
X0151272Y0115715D01*
X0151355Y0115683D01*
X0151437Y0115647D01*
X0151517Y0115608D01*
X0151595Y0115565D01*
X0151671Y0115519D01*
X0151745Y0115469D01*
X0151817Y0115416D01*
X0151886Y0115360D01*
X0151953Y0115301D01*
X0152017Y0115239D01*
X0152078Y0115175D01*
X0152137Y0115107D01*
X0152192Y0115037D01*
X0152244Y0114965D01*
X0152293Y0114890D01*
X0152338Y0114814D01*
X0152380Y0114735D01*
X0152418Y0114655D01*
X0152453Y0114573D01*
X0152484Y0114489D01*
X0152512Y0114404D01*
X0152535Y0114318D01*
X0152555Y0114231D01*
X0152571Y0114144D01*
X0152583Y0114055D01*
X0152591Y0113967D01*
X0152595Y0113878D01*
X0152595Y0113788D01*
X0152591Y0113699D01*
X0152583Y0113611D01*
X0152571Y0113522D01*
X0152555Y0113435D01*
X0152535Y0113348D01*
X0152512Y0113262D01*
X0152484Y0113177D01*
X0152453Y0113093D01*
X0152418Y0113011D01*
X0152380Y0112931D01*
X0152338Y0112852D01*
X0152293Y0112776D01*
X0152244Y0112701D01*
X0152192Y0112629D01*
X0152137Y0112559D01*
X0152078Y0112491D01*
X0152017Y0112427D01*
X0151953Y0112365D01*
X0151886Y0112306D01*
X0151817Y0112250D01*
X0151745Y0112197D01*
X0151671Y0112147D01*
X0151595Y0112101D01*
X0151517Y0112058D01*
X0151437Y0112019D01*
X0151355Y0111983D01*
X0151272Y0111951D01*
X0151188Y0111923D01*
X0151102Y0111898D01*
X0151015Y0111878D01*
X0150928Y0111861D01*
X0150839Y0111848D01*
X0150751Y0111839D01*
X0150662Y0111834D01*
X0150573Y0111833D01*
X0150484Y0111836D01*
X0150395Y0111843D01*
X0150306Y0111854D01*
X0150218Y0111869D01*
X0150131Y0111887D01*
X0150045Y0111910D01*
X0149960Y0111936D01*
X0149876Y0111967D01*
X0149794Y0112001D01*
X0149713Y0112038D01*
X0149634Y0112079D01*
X0149557Y0112124D01*
X0149482Y0112172D01*
X0149409Y0112223D01*
X0149338Y0112277D01*
X0149270Y0112335D01*
X0149205Y0112395D01*
X0149142Y0112459D01*
X0149082Y0112525D01*
X0149025Y0112594D01*
X0148972Y0112665D01*
X0148921Y0112738D01*
X0148874Y0112814D01*
X0148831Y0112891D01*
X0148790Y0112971D01*
X0148754Y0113052D01*
X0148721Y0113135D01*
X0148692Y0113219D01*
X0148666Y0113305D01*
X0148644Y0113391D01*
X0148627Y0113478D01*
X0148613Y0113566D01*
X0148603Y0113655D01*
X0148597Y0113744D01*
X0148595Y0113833D01*
X0171095Y0123933D02*
X0171095Y0083933D01*
X0171095Y0078933D02*
X0171095Y0038933D01*
X0148595Y0049033D02*
X0148597Y0049122D01*
X0148603Y0049211D01*
X0148613Y0049300D01*
X0148627Y0049388D01*
X0148644Y0049475D01*
X0148666Y0049561D01*
X0148692Y0049647D01*
X0148721Y0049731D01*
X0148754Y0049814D01*
X0148790Y0049895D01*
X0148831Y0049975D01*
X0148874Y0050052D01*
X0148921Y0050128D01*
X0148972Y0050201D01*
X0149025Y0050272D01*
X0149082Y0050341D01*
X0149142Y0050407D01*
X0149205Y0050471D01*
X0149270Y0050531D01*
X0149338Y0050589D01*
X0149409Y0050643D01*
X0149482Y0050694D01*
X0149557Y0050742D01*
X0149634Y0050787D01*
X0149713Y0050828D01*
X0149794Y0050865D01*
X0149876Y0050899D01*
X0149960Y0050930D01*
X0150045Y0050956D01*
X0150131Y0050979D01*
X0150218Y0050997D01*
X0150306Y0051012D01*
X0150395Y0051023D01*
X0150484Y0051030D01*
X0150573Y0051033D01*
X0150662Y0051032D01*
X0150751Y0051027D01*
X0150839Y0051018D01*
X0150928Y0051005D01*
X0151015Y0050988D01*
X0151102Y0050968D01*
X0151188Y0050943D01*
X0151272Y0050915D01*
X0151355Y0050883D01*
X0151437Y0050847D01*
X0151517Y0050808D01*
X0151595Y0050765D01*
X0151671Y0050719D01*
X0151745Y0050669D01*
X0151817Y0050616D01*
X0151886Y0050560D01*
X0151953Y0050501D01*
X0152017Y0050439D01*
X0152078Y0050375D01*
X0152137Y0050307D01*
X0152192Y0050237D01*
X0152244Y0050165D01*
X0152293Y0050090D01*
X0152338Y0050014D01*
X0152380Y0049935D01*
X0152418Y0049855D01*
X0152453Y0049773D01*
X0152484Y0049689D01*
X0152512Y0049604D01*
X0152535Y0049518D01*
X0152555Y0049431D01*
X0152571Y0049344D01*
X0152583Y0049255D01*
X0152591Y0049167D01*
X0152595Y0049078D01*
X0152595Y0048988D01*
X0152591Y0048899D01*
X0152583Y0048811D01*
X0152571Y0048722D01*
X0152555Y0048635D01*
X0152535Y0048548D01*
X0152512Y0048462D01*
X0152484Y0048377D01*
X0152453Y0048293D01*
X0152418Y0048211D01*
X0152380Y0048131D01*
X0152338Y0048052D01*
X0152293Y0047976D01*
X0152244Y0047901D01*
X0152192Y0047829D01*
X0152137Y0047759D01*
X0152078Y0047691D01*
X0152017Y0047627D01*
X0151953Y0047565D01*
X0151886Y0047506D01*
X0151817Y0047450D01*
X0151745Y0047397D01*
X0151671Y0047347D01*
X0151595Y0047301D01*
X0151517Y0047258D01*
X0151437Y0047219D01*
X0151355Y0047183D01*
X0151272Y0047151D01*
X0151188Y0047123D01*
X0151102Y0047098D01*
X0151015Y0047078D01*
X0150928Y0047061D01*
X0150839Y0047048D01*
X0150751Y0047039D01*
X0150662Y0047034D01*
X0150573Y0047033D01*
X0150484Y0047036D01*
X0150395Y0047043D01*
X0150306Y0047054D01*
X0150218Y0047069D01*
X0150131Y0047087D01*
X0150045Y0047110D01*
X0149960Y0047136D01*
X0149876Y0047167D01*
X0149794Y0047201D01*
X0149713Y0047238D01*
X0149634Y0047279D01*
X0149557Y0047324D01*
X0149482Y0047372D01*
X0149409Y0047423D01*
X0149338Y0047477D01*
X0149270Y0047535D01*
X0149205Y0047595D01*
X0149142Y0047659D01*
X0149082Y0047725D01*
X0149025Y0047794D01*
X0148972Y0047865D01*
X0148921Y0047938D01*
X0148874Y0048014D01*
X0148831Y0048091D01*
X0148790Y0048171D01*
X0148754Y0048252D01*
X0148721Y0048335D01*
X0148692Y0048419D01*
X0148666Y0048505D01*
X0148644Y0048591D01*
X0148627Y0048678D01*
X0148613Y0048766D01*
X0148603Y0048855D01*
X0148597Y0048944D01*
X0148595Y0049033D01*
X0171095Y0128933D02*
X0171095Y0168933D01*
X0148595Y0158833D02*
X0148597Y0158922D01*
X0148603Y0159011D01*
X0148613Y0159100D01*
X0148627Y0159188D01*
X0148644Y0159275D01*
X0148666Y0159361D01*
X0148692Y0159447D01*
X0148721Y0159531D01*
X0148754Y0159614D01*
X0148790Y0159695D01*
X0148831Y0159775D01*
X0148874Y0159852D01*
X0148921Y0159928D01*
X0148972Y0160001D01*
X0149025Y0160072D01*
X0149082Y0160141D01*
X0149142Y0160207D01*
X0149205Y0160271D01*
X0149270Y0160331D01*
X0149338Y0160389D01*
X0149409Y0160443D01*
X0149482Y0160494D01*
X0149557Y0160542D01*
X0149634Y0160587D01*
X0149713Y0160628D01*
X0149794Y0160665D01*
X0149876Y0160699D01*
X0149960Y0160730D01*
X0150045Y0160756D01*
X0150131Y0160779D01*
X0150218Y0160797D01*
X0150306Y0160812D01*
X0150395Y0160823D01*
X0150484Y0160830D01*
X0150573Y0160833D01*
X0150662Y0160832D01*
X0150751Y0160827D01*
X0150839Y0160818D01*
X0150928Y0160805D01*
X0151015Y0160788D01*
X0151102Y0160768D01*
X0151188Y0160743D01*
X0151272Y0160715D01*
X0151355Y0160683D01*
X0151437Y0160647D01*
X0151517Y0160608D01*
X0151595Y0160565D01*
X0151671Y0160519D01*
X0151745Y0160469D01*
X0151817Y0160416D01*
X0151886Y0160360D01*
X0151953Y0160301D01*
X0152017Y0160239D01*
X0152078Y0160175D01*
X0152137Y0160107D01*
X0152192Y0160037D01*
X0152244Y0159965D01*
X0152293Y0159890D01*
X0152338Y0159814D01*
X0152380Y0159735D01*
X0152418Y0159655D01*
X0152453Y0159573D01*
X0152484Y0159489D01*
X0152512Y0159404D01*
X0152535Y0159318D01*
X0152555Y0159231D01*
X0152571Y0159144D01*
X0152583Y0159055D01*
X0152591Y0158967D01*
X0152595Y0158878D01*
X0152595Y0158788D01*
X0152591Y0158699D01*
X0152583Y0158611D01*
X0152571Y0158522D01*
X0152555Y0158435D01*
X0152535Y0158348D01*
X0152512Y0158262D01*
X0152484Y0158177D01*
X0152453Y0158093D01*
X0152418Y0158011D01*
X0152380Y0157931D01*
X0152338Y0157852D01*
X0152293Y0157776D01*
X0152244Y0157701D01*
X0152192Y0157629D01*
X0152137Y0157559D01*
X0152078Y0157491D01*
X0152017Y0157427D01*
X0151953Y0157365D01*
X0151886Y0157306D01*
X0151817Y0157250D01*
X0151745Y0157197D01*
X0151671Y0157147D01*
X0151595Y0157101D01*
X0151517Y0157058D01*
X0151437Y0157019D01*
X0151355Y0156983D01*
X0151272Y0156951D01*
X0151188Y0156923D01*
X0151102Y0156898D01*
X0151015Y0156878D01*
X0150928Y0156861D01*
X0150839Y0156848D01*
X0150751Y0156839D01*
X0150662Y0156834D01*
X0150573Y0156833D01*
X0150484Y0156836D01*
X0150395Y0156843D01*
X0150306Y0156854D01*
X0150218Y0156869D01*
X0150131Y0156887D01*
X0150045Y0156910D01*
X0149960Y0156936D01*
X0149876Y0156967D01*
X0149794Y0157001D01*
X0149713Y0157038D01*
X0149634Y0157079D01*
X0149557Y0157124D01*
X0149482Y0157172D01*
X0149409Y0157223D01*
X0149338Y0157277D01*
X0149270Y0157335D01*
X0149205Y0157395D01*
X0149142Y0157459D01*
X0149082Y0157525D01*
X0149025Y0157594D01*
X0148972Y0157665D01*
X0148921Y0157738D01*
X0148874Y0157814D01*
X0148831Y0157891D01*
X0148790Y0157971D01*
X0148754Y0158052D01*
X0148721Y0158135D01*
X0148692Y0158219D01*
X0148666Y0158305D01*
X0148644Y0158391D01*
X0148627Y0158478D01*
X0148613Y0158566D01*
X0148603Y0158655D01*
X0148597Y0158744D01*
X0148595Y0158833D01*
X0148595Y0139033D02*
X0148597Y0139122D01*
X0148603Y0139211D01*
X0148613Y0139300D01*
X0148627Y0139388D01*
X0148644Y0139475D01*
X0148666Y0139561D01*
X0148692Y0139647D01*
X0148721Y0139731D01*
X0148754Y0139814D01*
X0148790Y0139895D01*
X0148831Y0139975D01*
X0148874Y0140052D01*
X0148921Y0140128D01*
X0148972Y0140201D01*
X0149025Y0140272D01*
X0149082Y0140341D01*
X0149142Y0140407D01*
X0149205Y0140471D01*
X0149270Y0140531D01*
X0149338Y0140589D01*
X0149409Y0140643D01*
X0149482Y0140694D01*
X0149557Y0140742D01*
X0149634Y0140787D01*
X0149713Y0140828D01*
X0149794Y0140865D01*
X0149876Y0140899D01*
X0149960Y0140930D01*
X0150045Y0140956D01*
X0150131Y0140979D01*
X0150218Y0140997D01*
X0150306Y0141012D01*
X0150395Y0141023D01*
X0150484Y0141030D01*
X0150573Y0141033D01*
X0150662Y0141032D01*
X0150751Y0141027D01*
X0150839Y0141018D01*
X0150928Y0141005D01*
X0151015Y0140988D01*
X0151102Y0140968D01*
X0151188Y0140943D01*
X0151272Y0140915D01*
X0151355Y0140883D01*
X0151437Y0140847D01*
X0151517Y0140808D01*
X0151595Y0140765D01*
X0151671Y0140719D01*
X0151745Y0140669D01*
X0151817Y0140616D01*
X0151886Y0140560D01*
X0151953Y0140501D01*
X0152017Y0140439D01*
X0152078Y0140375D01*
X0152137Y0140307D01*
X0152192Y0140237D01*
X0152244Y0140165D01*
X0152293Y0140090D01*
X0152338Y0140014D01*
X0152380Y0139935D01*
X0152418Y0139855D01*
X0152453Y0139773D01*
X0152484Y0139689D01*
X0152512Y0139604D01*
X0152535Y0139518D01*
X0152555Y0139431D01*
X0152571Y0139344D01*
X0152583Y0139255D01*
X0152591Y0139167D01*
X0152595Y0139078D01*
X0152595Y0138988D01*
X0152591Y0138899D01*
X0152583Y0138811D01*
X0152571Y0138722D01*
X0152555Y0138635D01*
X0152535Y0138548D01*
X0152512Y0138462D01*
X0152484Y0138377D01*
X0152453Y0138293D01*
X0152418Y0138211D01*
X0152380Y0138131D01*
X0152338Y0138052D01*
X0152293Y0137976D01*
X0152244Y0137901D01*
X0152192Y0137829D01*
X0152137Y0137759D01*
X0152078Y0137691D01*
X0152017Y0137627D01*
X0151953Y0137565D01*
X0151886Y0137506D01*
X0151817Y0137450D01*
X0151745Y0137397D01*
X0151671Y0137347D01*
X0151595Y0137301D01*
X0151517Y0137258D01*
X0151437Y0137219D01*
X0151355Y0137183D01*
X0151272Y0137151D01*
X0151188Y0137123D01*
X0151102Y0137098D01*
X0151015Y0137078D01*
X0150928Y0137061D01*
X0150839Y0137048D01*
X0150751Y0137039D01*
X0150662Y0137034D01*
X0150573Y0137033D01*
X0150484Y0137036D01*
X0150395Y0137043D01*
X0150306Y0137054D01*
X0150218Y0137069D01*
X0150131Y0137087D01*
X0150045Y0137110D01*
X0149960Y0137136D01*
X0149876Y0137167D01*
X0149794Y0137201D01*
X0149713Y0137238D01*
X0149634Y0137279D01*
X0149557Y0137324D01*
X0149482Y0137372D01*
X0149409Y0137423D01*
X0149338Y0137477D01*
X0149270Y0137535D01*
X0149205Y0137595D01*
X0149142Y0137659D01*
X0149082Y0137725D01*
X0149025Y0137794D01*
X0148972Y0137865D01*
X0148921Y0137938D01*
X0148874Y0138014D01*
X0148831Y0138091D01*
X0148790Y0138171D01*
X0148754Y0138252D01*
X0148721Y0138335D01*
X0148692Y0138419D01*
X0148666Y0138505D01*
X0148644Y0138591D01*
X0148627Y0138678D01*
X0148613Y0138766D01*
X0148603Y0138855D01*
X0148597Y0138944D01*
X0148595Y0139033D01*
X0128595Y0153933D02*
X0128595Y0158933D01*
X0125095Y0162433D01*
X0120095Y0162433D01*
X0116595Y0158933D01*
X0116595Y0153933D01*
X0120095Y0150433D01*
X0125095Y0150433D01*
X0128595Y0153933D01*
X0098095Y0138933D02*
X0091095Y0138933D01*
X0098095Y0138933D02*
X0098095Y0178933D01*
X0094595Y0178933D01*
X0091095Y0178933D01*
X0090595Y0180933D01*
X0095095Y0180933D01*
X0094595Y0178933D01*
X0088195Y0186933D02*
X0088197Y0187022D01*
X0088203Y0187111D01*
X0088213Y0187200D01*
X0088227Y0187288D01*
X0088244Y0187375D01*
X0088266Y0187461D01*
X0088292Y0187547D01*
X0088321Y0187631D01*
X0088354Y0187714D01*
X0088390Y0187795D01*
X0088431Y0187875D01*
X0088474Y0187952D01*
X0088521Y0188028D01*
X0088572Y0188101D01*
X0088625Y0188172D01*
X0088682Y0188241D01*
X0088742Y0188307D01*
X0088805Y0188371D01*
X0088870Y0188431D01*
X0088938Y0188489D01*
X0089009Y0188543D01*
X0089082Y0188594D01*
X0089157Y0188642D01*
X0089234Y0188687D01*
X0089313Y0188728D01*
X0089394Y0188765D01*
X0089476Y0188799D01*
X0089560Y0188830D01*
X0089645Y0188856D01*
X0089731Y0188879D01*
X0089818Y0188897D01*
X0089906Y0188912D01*
X0089995Y0188923D01*
X0090084Y0188930D01*
X0090173Y0188933D01*
X0090262Y0188932D01*
X0090351Y0188927D01*
X0090439Y0188918D01*
X0090528Y0188905D01*
X0090615Y0188888D01*
X0090702Y0188868D01*
X0090788Y0188843D01*
X0090872Y0188815D01*
X0090955Y0188783D01*
X0091037Y0188747D01*
X0091117Y0188708D01*
X0091195Y0188665D01*
X0091271Y0188619D01*
X0091345Y0188569D01*
X0091417Y0188516D01*
X0091486Y0188460D01*
X0091553Y0188401D01*
X0091617Y0188339D01*
X0091678Y0188275D01*
X0091737Y0188207D01*
X0091792Y0188137D01*
X0091844Y0188065D01*
X0091893Y0187990D01*
X0091938Y0187914D01*
X0091980Y0187835D01*
X0092018Y0187755D01*
X0092053Y0187673D01*
X0092084Y0187589D01*
X0092112Y0187504D01*
X0092135Y0187418D01*
X0092155Y0187331D01*
X0092171Y0187244D01*
X0092183Y0187155D01*
X0092191Y0187067D01*
X0092195Y0186978D01*
X0092195Y0186888D01*
X0092191Y0186799D01*
X0092183Y0186711D01*
X0092171Y0186622D01*
X0092155Y0186535D01*
X0092135Y0186448D01*
X0092112Y0186362D01*
X0092084Y0186277D01*
X0092053Y0186193D01*
X0092018Y0186111D01*
X0091980Y0186031D01*
X0091938Y0185952D01*
X0091893Y0185876D01*
X0091844Y0185801D01*
X0091792Y0185729D01*
X0091737Y0185659D01*
X0091678Y0185591D01*
X0091617Y0185527D01*
X0091553Y0185465D01*
X0091486Y0185406D01*
X0091417Y0185350D01*
X0091345Y0185297D01*
X0091271Y0185247D01*
X0091195Y0185201D01*
X0091117Y0185158D01*
X0091037Y0185119D01*
X0090955Y0185083D01*
X0090872Y0185051D01*
X0090788Y0185023D01*
X0090702Y0184998D01*
X0090615Y0184978D01*
X0090528Y0184961D01*
X0090439Y0184948D01*
X0090351Y0184939D01*
X0090262Y0184934D01*
X0090173Y0184933D01*
X0090084Y0184936D01*
X0089995Y0184943D01*
X0089906Y0184954D01*
X0089818Y0184969D01*
X0089731Y0184987D01*
X0089645Y0185010D01*
X0089560Y0185036D01*
X0089476Y0185067D01*
X0089394Y0185101D01*
X0089313Y0185138D01*
X0089234Y0185179D01*
X0089157Y0185224D01*
X0089082Y0185272D01*
X0089009Y0185323D01*
X0088938Y0185377D01*
X0088870Y0185435D01*
X0088805Y0185495D01*
X0088742Y0185559D01*
X0088682Y0185625D01*
X0088625Y0185694D01*
X0088572Y0185765D01*
X0088521Y0185838D01*
X0088474Y0185914D01*
X0088431Y0185991D01*
X0088390Y0186071D01*
X0088354Y0186152D01*
X0088321Y0186235D01*
X0088292Y0186319D01*
X0088266Y0186405D01*
X0088244Y0186491D01*
X0088227Y0186578D01*
X0088213Y0186666D01*
X0088203Y0186755D01*
X0088197Y0186844D01*
X0088195Y0186933D01*
X0092595Y0168833D02*
X0092597Y0168922D01*
X0092603Y0169011D01*
X0092613Y0169100D01*
X0092627Y0169188D01*
X0092644Y0169275D01*
X0092666Y0169361D01*
X0092692Y0169447D01*
X0092721Y0169531D01*
X0092754Y0169614D01*
X0092790Y0169695D01*
X0092831Y0169775D01*
X0092874Y0169852D01*
X0092921Y0169928D01*
X0092972Y0170001D01*
X0093025Y0170072D01*
X0093082Y0170141D01*
X0093142Y0170207D01*
X0093205Y0170271D01*
X0093270Y0170331D01*
X0093338Y0170389D01*
X0093409Y0170443D01*
X0093482Y0170494D01*
X0093557Y0170542D01*
X0093634Y0170587D01*
X0093713Y0170628D01*
X0093794Y0170665D01*
X0093876Y0170699D01*
X0093960Y0170730D01*
X0094045Y0170756D01*
X0094131Y0170779D01*
X0094218Y0170797D01*
X0094306Y0170812D01*
X0094395Y0170823D01*
X0094484Y0170830D01*
X0094573Y0170833D01*
X0094662Y0170832D01*
X0094751Y0170827D01*
X0094839Y0170818D01*
X0094928Y0170805D01*
X0095015Y0170788D01*
X0095102Y0170768D01*
X0095188Y0170743D01*
X0095272Y0170715D01*
X0095355Y0170683D01*
X0095437Y0170647D01*
X0095517Y0170608D01*
X0095595Y0170565D01*
X0095671Y0170519D01*
X0095745Y0170469D01*
X0095817Y0170416D01*
X0095886Y0170360D01*
X0095953Y0170301D01*
X0096017Y0170239D01*
X0096078Y0170175D01*
X0096137Y0170107D01*
X0096192Y0170037D01*
X0096244Y0169965D01*
X0096293Y0169890D01*
X0096338Y0169814D01*
X0096380Y0169735D01*
X0096418Y0169655D01*
X0096453Y0169573D01*
X0096484Y0169489D01*
X0096512Y0169404D01*
X0096535Y0169318D01*
X0096555Y0169231D01*
X0096571Y0169144D01*
X0096583Y0169055D01*
X0096591Y0168967D01*
X0096595Y0168878D01*
X0096595Y0168788D01*
X0096591Y0168699D01*
X0096583Y0168611D01*
X0096571Y0168522D01*
X0096555Y0168435D01*
X0096535Y0168348D01*
X0096512Y0168262D01*
X0096484Y0168177D01*
X0096453Y0168093D01*
X0096418Y0168011D01*
X0096380Y0167931D01*
X0096338Y0167852D01*
X0096293Y0167776D01*
X0096244Y0167701D01*
X0096192Y0167629D01*
X0096137Y0167559D01*
X0096078Y0167491D01*
X0096017Y0167427D01*
X0095953Y0167365D01*
X0095886Y0167306D01*
X0095817Y0167250D01*
X0095745Y0167197D01*
X0095671Y0167147D01*
X0095595Y0167101D01*
X0095517Y0167058D01*
X0095437Y0167019D01*
X0095355Y0166983D01*
X0095272Y0166951D01*
X0095188Y0166923D01*
X0095102Y0166898D01*
X0095015Y0166878D01*
X0094928Y0166861D01*
X0094839Y0166848D01*
X0094751Y0166839D01*
X0094662Y0166834D01*
X0094573Y0166833D01*
X0094484Y0166836D01*
X0094395Y0166843D01*
X0094306Y0166854D01*
X0094218Y0166869D01*
X0094131Y0166887D01*
X0094045Y0166910D01*
X0093960Y0166936D01*
X0093876Y0166967D01*
X0093794Y0167001D01*
X0093713Y0167038D01*
X0093634Y0167079D01*
X0093557Y0167124D01*
X0093482Y0167172D01*
X0093409Y0167223D01*
X0093338Y0167277D01*
X0093270Y0167335D01*
X0093205Y0167395D01*
X0093142Y0167459D01*
X0093082Y0167525D01*
X0093025Y0167594D01*
X0092972Y0167665D01*
X0092921Y0167738D01*
X0092874Y0167814D01*
X0092831Y0167891D01*
X0092790Y0167971D01*
X0092754Y0168052D01*
X0092721Y0168135D01*
X0092692Y0168219D01*
X0092666Y0168305D01*
X0092644Y0168391D01*
X0092627Y0168478D01*
X0092613Y0168566D01*
X0092603Y0168655D01*
X0092597Y0168744D01*
X0092595Y0168833D01*
X0092595Y0149033D02*
X0092597Y0149122D01*
X0092603Y0149211D01*
X0092613Y0149300D01*
X0092627Y0149388D01*
X0092644Y0149475D01*
X0092666Y0149561D01*
X0092692Y0149647D01*
X0092721Y0149731D01*
X0092754Y0149814D01*
X0092790Y0149895D01*
X0092831Y0149975D01*
X0092874Y0150052D01*
X0092921Y0150128D01*
X0092972Y0150201D01*
X0093025Y0150272D01*
X0093082Y0150341D01*
X0093142Y0150407D01*
X0093205Y0150471D01*
X0093270Y0150531D01*
X0093338Y0150589D01*
X0093409Y0150643D01*
X0093482Y0150694D01*
X0093557Y0150742D01*
X0093634Y0150787D01*
X0093713Y0150828D01*
X0093794Y0150865D01*
X0093876Y0150899D01*
X0093960Y0150930D01*
X0094045Y0150956D01*
X0094131Y0150979D01*
X0094218Y0150997D01*
X0094306Y0151012D01*
X0094395Y0151023D01*
X0094484Y0151030D01*
X0094573Y0151033D01*
X0094662Y0151032D01*
X0094751Y0151027D01*
X0094839Y0151018D01*
X0094928Y0151005D01*
X0095015Y0150988D01*
X0095102Y0150968D01*
X0095188Y0150943D01*
X0095272Y0150915D01*
X0095355Y0150883D01*
X0095437Y0150847D01*
X0095517Y0150808D01*
X0095595Y0150765D01*
X0095671Y0150719D01*
X0095745Y0150669D01*
X0095817Y0150616D01*
X0095886Y0150560D01*
X0095953Y0150501D01*
X0096017Y0150439D01*
X0096078Y0150375D01*
X0096137Y0150307D01*
X0096192Y0150237D01*
X0096244Y0150165D01*
X0096293Y0150090D01*
X0096338Y0150014D01*
X0096380Y0149935D01*
X0096418Y0149855D01*
X0096453Y0149773D01*
X0096484Y0149689D01*
X0096512Y0149604D01*
X0096535Y0149518D01*
X0096555Y0149431D01*
X0096571Y0149344D01*
X0096583Y0149255D01*
X0096591Y0149167D01*
X0096595Y0149078D01*
X0096595Y0148988D01*
X0096591Y0148899D01*
X0096583Y0148811D01*
X0096571Y0148722D01*
X0096555Y0148635D01*
X0096535Y0148548D01*
X0096512Y0148462D01*
X0096484Y0148377D01*
X0096453Y0148293D01*
X0096418Y0148211D01*
X0096380Y0148131D01*
X0096338Y0148052D01*
X0096293Y0147976D01*
X0096244Y0147901D01*
X0096192Y0147829D01*
X0096137Y0147759D01*
X0096078Y0147691D01*
X0096017Y0147627D01*
X0095953Y0147565D01*
X0095886Y0147506D01*
X0095817Y0147450D01*
X0095745Y0147397D01*
X0095671Y0147347D01*
X0095595Y0147301D01*
X0095517Y0147258D01*
X0095437Y0147219D01*
X0095355Y0147183D01*
X0095272Y0147151D01*
X0095188Y0147123D01*
X0095102Y0147098D01*
X0095015Y0147078D01*
X0094928Y0147061D01*
X0094839Y0147048D01*
X0094751Y0147039D01*
X0094662Y0147034D01*
X0094573Y0147033D01*
X0094484Y0147036D01*
X0094395Y0147043D01*
X0094306Y0147054D01*
X0094218Y0147069D01*
X0094131Y0147087D01*
X0094045Y0147110D01*
X0093960Y0147136D01*
X0093876Y0147167D01*
X0093794Y0147201D01*
X0093713Y0147238D01*
X0093634Y0147279D01*
X0093557Y0147324D01*
X0093482Y0147372D01*
X0093409Y0147423D01*
X0093338Y0147477D01*
X0093270Y0147535D01*
X0093205Y0147595D01*
X0093142Y0147659D01*
X0093082Y0147725D01*
X0093025Y0147794D01*
X0092972Y0147865D01*
X0092921Y0147938D01*
X0092874Y0148014D01*
X0092831Y0148091D01*
X0092790Y0148171D01*
X0092754Y0148252D01*
X0092721Y0148335D01*
X0092692Y0148419D01*
X0092666Y0148505D01*
X0092644Y0148591D01*
X0092627Y0148678D01*
X0092613Y0148766D01*
X0092603Y0148855D01*
X0092597Y0148944D01*
X0092595Y0149033D01*
X0107995Y0186933D02*
X0107997Y0187022D01*
X0108003Y0187111D01*
X0108013Y0187200D01*
X0108027Y0187288D01*
X0108044Y0187375D01*
X0108066Y0187461D01*
X0108092Y0187547D01*
X0108121Y0187631D01*
X0108154Y0187714D01*
X0108190Y0187795D01*
X0108231Y0187875D01*
X0108274Y0187952D01*
X0108321Y0188028D01*
X0108372Y0188101D01*
X0108425Y0188172D01*
X0108482Y0188241D01*
X0108542Y0188307D01*
X0108605Y0188371D01*
X0108670Y0188431D01*
X0108738Y0188489D01*
X0108809Y0188543D01*
X0108882Y0188594D01*
X0108957Y0188642D01*
X0109034Y0188687D01*
X0109113Y0188728D01*
X0109194Y0188765D01*
X0109276Y0188799D01*
X0109360Y0188830D01*
X0109445Y0188856D01*
X0109531Y0188879D01*
X0109618Y0188897D01*
X0109706Y0188912D01*
X0109795Y0188923D01*
X0109884Y0188930D01*
X0109973Y0188933D01*
X0110062Y0188932D01*
X0110151Y0188927D01*
X0110239Y0188918D01*
X0110328Y0188905D01*
X0110415Y0188888D01*
X0110502Y0188868D01*
X0110588Y0188843D01*
X0110672Y0188815D01*
X0110755Y0188783D01*
X0110837Y0188747D01*
X0110917Y0188708D01*
X0110995Y0188665D01*
X0111071Y0188619D01*
X0111145Y0188569D01*
X0111217Y0188516D01*
X0111286Y0188460D01*
X0111353Y0188401D01*
X0111417Y0188339D01*
X0111478Y0188275D01*
X0111537Y0188207D01*
X0111592Y0188137D01*
X0111644Y0188065D01*
X0111693Y0187990D01*
X0111738Y0187914D01*
X0111780Y0187835D01*
X0111818Y0187755D01*
X0111853Y0187673D01*
X0111884Y0187589D01*
X0111912Y0187504D01*
X0111935Y0187418D01*
X0111955Y0187331D01*
X0111971Y0187244D01*
X0111983Y0187155D01*
X0111991Y0187067D01*
X0111995Y0186978D01*
X0111995Y0186888D01*
X0111991Y0186799D01*
X0111983Y0186711D01*
X0111971Y0186622D01*
X0111955Y0186535D01*
X0111935Y0186448D01*
X0111912Y0186362D01*
X0111884Y0186277D01*
X0111853Y0186193D01*
X0111818Y0186111D01*
X0111780Y0186031D01*
X0111738Y0185952D01*
X0111693Y0185876D01*
X0111644Y0185801D01*
X0111592Y0185729D01*
X0111537Y0185659D01*
X0111478Y0185591D01*
X0111417Y0185527D01*
X0111353Y0185465D01*
X0111286Y0185406D01*
X0111217Y0185350D01*
X0111145Y0185297D01*
X0111071Y0185247D01*
X0110995Y0185201D01*
X0110917Y0185158D01*
X0110837Y0185119D01*
X0110755Y0185083D01*
X0110672Y0185051D01*
X0110588Y0185023D01*
X0110502Y0184998D01*
X0110415Y0184978D01*
X0110328Y0184961D01*
X0110239Y0184948D01*
X0110151Y0184939D01*
X0110062Y0184934D01*
X0109973Y0184933D01*
X0109884Y0184936D01*
X0109795Y0184943D01*
X0109706Y0184954D01*
X0109618Y0184969D01*
X0109531Y0184987D01*
X0109445Y0185010D01*
X0109360Y0185036D01*
X0109276Y0185067D01*
X0109194Y0185101D01*
X0109113Y0185138D01*
X0109034Y0185179D01*
X0108957Y0185224D01*
X0108882Y0185272D01*
X0108809Y0185323D01*
X0108738Y0185377D01*
X0108670Y0185435D01*
X0108605Y0185495D01*
X0108542Y0185559D01*
X0108482Y0185625D01*
X0108425Y0185694D01*
X0108372Y0185765D01*
X0108321Y0185838D01*
X0108274Y0185914D01*
X0108231Y0185991D01*
X0108190Y0186071D01*
X0108154Y0186152D01*
X0108121Y0186235D01*
X0108092Y0186319D01*
X0108066Y0186405D01*
X0108044Y0186491D01*
X0108027Y0186578D01*
X0108013Y0186666D01*
X0108003Y0186755D01*
X0107997Y0186844D01*
X0107995Y0186933D01*
X0120095Y0207433D02*
X0080095Y0207433D01*
X0125095Y0207433D02*
X0165095Y0207433D01*
D13*
X0145796Y0197942D02*
X0145796Y0193738D01*
X0144745Y0191496D02*
X0142643Y0189394D01*
X0142643Y0190445D02*
X0142643Y0187293D01*
X0144745Y0187293D02*
X0138440Y0187293D01*
X0138440Y0190445D01*
X0139491Y0191496D01*
X0141592Y0191496D01*
X0142643Y0190445D01*
X0143694Y0185051D02*
X0139491Y0185051D01*
X0138440Y0184000D01*
X0138440Y0181898D01*
X0139491Y0180847D01*
X0143694Y0180847D01*
X0144745Y0181898D01*
X0144745Y0184000D01*
X0143694Y0185051D01*
X0142816Y0181088D02*
X0140714Y0181088D01*
X0139663Y0180038D01*
X0139663Y0175834D01*
X0140714Y0174783D01*
X0142816Y0174783D01*
X0143867Y0175834D01*
X0143867Y0180038D01*
X0142816Y0181088D01*
X0146108Y0181088D02*
X0146108Y0174783D01*
X0148210Y0176885D01*
X0150312Y0174783D01*
X0150312Y0181088D01*
X0152554Y0181088D02*
X0152554Y0174783D01*
X0156758Y0174783D01*
X0158999Y0174783D02*
X0158999Y0181088D01*
X0162152Y0181088D01*
X0163203Y0180038D01*
X0163203Y0177936D01*
X0162152Y0176885D01*
X0158999Y0176885D01*
X0161101Y0176885D02*
X0163203Y0174783D01*
X0156758Y0181088D02*
X0152554Y0181088D01*
X0152554Y0177936D02*
X0154656Y0177936D01*
X0144745Y0176503D02*
X0138440Y0176503D01*
X0137421Y0177936D02*
X0136370Y0176885D01*
X0133217Y0176885D01*
X0133217Y0174783D02*
X0133217Y0181088D01*
X0136370Y0181088D01*
X0137421Y0180038D01*
X0137421Y0177936D01*
X0138440Y0178605D02*
X0138440Y0174402D01*
X0139491Y0172160D02*
X0138440Y0171109D01*
X0138440Y0169007D01*
X0139491Y0167956D01*
X0143694Y0167956D01*
X0144745Y0169007D01*
X0144745Y0171109D01*
X0143694Y0172160D01*
X0139491Y0172160D01*
X0138440Y0165714D02*
X0144745Y0165714D01*
X0144745Y0163684D02*
X0138440Y0163684D01*
X0138440Y0165714D02*
X0140542Y0163612D01*
X0138440Y0161511D01*
X0144745Y0161511D01*
X0144745Y0159481D02*
X0138440Y0159481D01*
X0144745Y0163684D01*
X0145796Y0159269D02*
X0145796Y0155065D01*
X0144745Y0155184D02*
X0144745Y0157285D01*
X0144745Y0156234D02*
X0138440Y0156234D01*
X0138440Y0155184D02*
X0138440Y0157285D01*
X0139491Y0152823D02*
X0138440Y0151772D01*
X0138440Y0149670D01*
X0139491Y0148620D01*
X0143694Y0148620D01*
X0144745Y0149670D01*
X0144745Y0151772D01*
X0143694Y0152823D01*
X0145796Y0152942D02*
X0145796Y0148738D01*
X0144745Y0146496D02*
X0142643Y0144394D01*
X0142643Y0145445D02*
X0142643Y0142293D01*
X0144745Y0142293D02*
X0138440Y0142293D01*
X0138440Y0145445D01*
X0139491Y0146496D01*
X0141592Y0146496D01*
X0142643Y0145445D01*
X0143694Y0146378D02*
X0139491Y0146378D01*
X0138440Y0145327D01*
X0138440Y0142174D01*
X0144745Y0142174D01*
X0144745Y0145327D01*
X0143694Y0146378D01*
X0143694Y0140051D02*
X0139491Y0140051D01*
X0138440Y0139000D01*
X0138440Y0136898D01*
X0139491Y0135847D01*
X0143694Y0135847D01*
X0144745Y0136898D01*
X0144745Y0139000D01*
X0143694Y0140051D01*
X0144745Y0139932D02*
X0144745Y0135729D01*
X0138440Y0135729D01*
X0138440Y0133817D02*
X0144745Y0138021D01*
X0138440Y0138021D01*
X0138440Y0133817D02*
X0144745Y0133817D01*
X0143694Y0133487D02*
X0144745Y0132436D01*
X0144745Y0129283D01*
X0138440Y0129283D01*
X0138440Y0132436D01*
X0139491Y0133487D01*
X0140542Y0133487D01*
X0141592Y0132436D01*
X0141592Y0129283D01*
X0139491Y0127160D02*
X0138440Y0126109D01*
X0138440Y0124007D01*
X0139491Y0122956D01*
X0143694Y0122956D01*
X0144745Y0124007D01*
X0144745Y0126109D01*
X0143694Y0127160D01*
X0139491Y0127160D01*
X0138440Y0129402D02*
X0138440Y0133605D01*
X0138440Y0131622D02*
X0138440Y0129520D01*
X0138440Y0130571D02*
X0144745Y0130571D01*
X0144745Y0131503D02*
X0138440Y0131503D01*
X0141592Y0132436D02*
X0142643Y0133487D01*
X0143694Y0133487D01*
X0144745Y0131622D02*
X0144745Y0129520D01*
X0145796Y0127278D02*
X0145796Y0123075D01*
X0144745Y0120833D02*
X0142643Y0118731D01*
X0142643Y0119782D02*
X0142643Y0116629D01*
X0144745Y0116629D02*
X0138440Y0116629D01*
X0138440Y0119782D01*
X0139491Y0120833D01*
X0141592Y0120833D01*
X0142643Y0119782D01*
X0144745Y0120714D02*
X0138440Y0120714D01*
X0140542Y0118612D01*
X0138440Y0116511D01*
X0144745Y0116511D01*
X0143694Y0114387D02*
X0139491Y0114387D01*
X0138440Y0113336D01*
X0138440Y0111234D01*
X0139491Y0110184D01*
X0143694Y0110184D01*
X0144745Y0111234D01*
X0144745Y0113336D01*
X0143694Y0114387D01*
X0145796Y0114269D02*
X0145796Y0110065D01*
X0143694Y0107823D02*
X0144745Y0106772D01*
X0144745Y0104670D01*
X0143694Y0103620D01*
X0139491Y0103620D01*
X0138440Y0104670D01*
X0138440Y0106772D01*
X0139491Y0107823D01*
X0138440Y0107942D02*
X0138440Y0103738D01*
X0138440Y0105840D02*
X0144745Y0105840D01*
X0143694Y0101496D02*
X0139491Y0101496D01*
X0138440Y0100445D01*
X0138440Y0098343D01*
X0139491Y0097293D01*
X0143694Y0097293D01*
X0144745Y0098343D01*
X0144745Y0100445D01*
X0143694Y0101496D01*
X0143694Y0101378D02*
X0139491Y0101378D01*
X0138440Y0100327D01*
X0138440Y0097174D01*
X0144745Y0097174D01*
X0144745Y0100327D01*
X0143694Y0101378D01*
X0144745Y0095051D02*
X0138440Y0095051D01*
X0140542Y0092949D01*
X0138440Y0090847D01*
X0144745Y0090847D01*
X0144745Y0090729D02*
X0144745Y0094932D01*
X0144745Y0090729D02*
X0138440Y0090729D01*
X0139491Y0088487D02*
X0140542Y0088487D01*
X0141592Y0087436D01*
X0141592Y0084283D01*
X0141592Y0082160D02*
X0139491Y0082160D01*
X0138440Y0081109D01*
X0138440Y0077956D01*
X0144745Y0077956D01*
X0146034Y0078088D02*
X0148135Y0078088D01*
X0149115Y0078088D02*
X0148064Y0077038D01*
X0148064Y0075987D01*
X0149115Y0074936D01*
X0151216Y0074936D01*
X0152267Y0073885D01*
X0152267Y0072834D01*
X0151216Y0071783D01*
X0149115Y0071783D01*
X0148064Y0072834D01*
X0148135Y0071783D02*
X0146034Y0071783D01*
X0147084Y0071783D02*
X0147084Y0078088D01*
X0149115Y0078088D02*
X0151216Y0078088D01*
X0152267Y0077038D01*
X0150331Y0078088D02*
X0154534Y0071783D01*
X0154534Y0078088D01*
X0154509Y0078088D02*
X0154509Y0071783D01*
X0156611Y0073885D01*
X0158713Y0071783D01*
X0158713Y0078088D01*
X0160955Y0078088D02*
X0163056Y0078088D01*
X0162006Y0078088D02*
X0162006Y0071783D01*
X0163056Y0071783D02*
X0160955Y0071783D01*
X0167353Y0071783D02*
X0167353Y0078088D01*
X0165252Y0078088D02*
X0169455Y0078088D01*
X0171697Y0077038D02*
X0171697Y0072834D01*
X0172748Y0071783D01*
X0174850Y0071783D01*
X0175901Y0072834D01*
X0178143Y0071783D02*
X0178143Y0078088D01*
X0175901Y0077038D02*
X0174850Y0078088D01*
X0172748Y0078088D01*
X0171697Y0077038D01*
X0178143Y0074936D02*
X0182346Y0074936D01*
X0182346Y0078088D02*
X0182346Y0071783D01*
X0184588Y0070732D02*
X0188792Y0070732D01*
X0191034Y0072834D02*
X0192084Y0071783D01*
X0194186Y0071783D01*
X0195237Y0072834D01*
X0195237Y0077038D01*
X0194186Y0078088D01*
X0192084Y0078088D01*
X0191034Y0077038D01*
X0191034Y0072834D01*
X0197479Y0072834D02*
X0198530Y0071783D01*
X0200632Y0071783D01*
X0201683Y0072834D01*
X0201683Y0078088D01*
X0203925Y0078088D02*
X0208128Y0078088D01*
X0206026Y0078088D02*
X0206026Y0071783D01*
X0197479Y0072834D02*
X0197479Y0078088D01*
X0150331Y0078088D02*
X0150331Y0071783D01*
X0145822Y0070732D02*
X0141618Y0070732D01*
X0141592Y0071511D02*
X0141592Y0073612D01*
X0139588Y0070732D02*
X0143792Y0070732D01*
X0144745Y0071511D02*
X0144745Y0075714D01*
X0142643Y0077956D02*
X0142643Y0081109D01*
X0141592Y0082160D01*
X0142643Y0080058D02*
X0144745Y0082160D01*
X0144745Y0084283D02*
X0144745Y0087436D01*
X0143694Y0088487D01*
X0142643Y0088487D01*
X0141592Y0087436D01*
X0139491Y0088487D02*
X0138440Y0087436D01*
X0138440Y0084283D01*
X0144745Y0084283D01*
X0145796Y0084402D02*
X0145796Y0088605D01*
X0139376Y0078088D02*
X0139376Y0077038D01*
X0137274Y0074936D01*
X0137274Y0071783D01*
X0137346Y0071783D02*
X0137346Y0078088D01*
X0135173Y0078088D02*
X0135173Y0077038D01*
X0137274Y0074936D01*
X0137346Y0074936D02*
X0133143Y0074936D01*
X0130901Y0077038D02*
X0129850Y0078088D01*
X0127748Y0078088D01*
X0126697Y0077038D01*
X0126697Y0072834D01*
X0127748Y0071783D01*
X0129850Y0071783D01*
X0130901Y0072834D01*
X0130829Y0071783D02*
X0130829Y0078088D01*
X0128727Y0078088D02*
X0132931Y0078088D01*
X0133143Y0078088D02*
X0133143Y0071783D01*
X0138440Y0071511D02*
X0138440Y0075714D01*
X0138440Y0071511D02*
X0144745Y0071511D01*
X0141592Y0069269D02*
X0142643Y0068218D01*
X0142643Y0065065D01*
X0144745Y0065065D02*
X0138440Y0065065D01*
X0138440Y0068218D01*
X0139491Y0069269D01*
X0141592Y0069269D01*
X0141592Y0062823D02*
X0139491Y0062823D01*
X0138440Y0061772D01*
X0138440Y0058620D01*
X0144745Y0058620D01*
X0142643Y0058620D02*
X0142643Y0061772D01*
X0141592Y0062823D01*
X0138440Y0056378D02*
X0138440Y0052174D01*
X0144745Y0052174D01*
X0144745Y0056378D01*
X0141592Y0054276D02*
X0141592Y0052174D01*
X0138440Y0049932D02*
X0138440Y0045729D01*
X0138440Y0047830D02*
X0144745Y0047830D01*
X0143694Y0043487D02*
X0142643Y0043487D01*
X0141592Y0042436D01*
X0141592Y0040334D01*
X0140542Y0039283D01*
X0139491Y0039283D01*
X0138440Y0040334D01*
X0138440Y0042436D01*
X0139491Y0043487D01*
X0143694Y0043487D02*
X0144745Y0042436D01*
X0144745Y0040334D01*
X0143694Y0039283D01*
X0126485Y0071783D02*
X0122282Y0071783D01*
X0122282Y0078088D01*
X0126485Y0078088D01*
X0124455Y0078088D02*
X0120252Y0078088D01*
X0120040Y0078088D02*
X0115836Y0078088D01*
X0115836Y0071783D01*
X0115955Y0071783D02*
X0118056Y0071783D01*
X0117006Y0071783D02*
X0117006Y0078088D01*
X0118056Y0078088D02*
X0115955Y0078088D01*
X0113713Y0078088D02*
X0113713Y0071783D01*
X0111611Y0073885D01*
X0109509Y0071783D01*
X0109509Y0078088D01*
X0111492Y0078088D02*
X0109391Y0075987D01*
X0109391Y0071783D01*
X0107267Y0072834D02*
X0106216Y0071783D01*
X0104115Y0071783D01*
X0103064Y0072834D01*
X0102945Y0072834D02*
X0103996Y0071783D01*
X0106098Y0071783D01*
X0107149Y0072834D01*
X0107149Y0073885D01*
X0106098Y0074936D01*
X0103996Y0074936D01*
X0102945Y0075987D01*
X0102945Y0077038D01*
X0103996Y0078088D01*
X0106098Y0078088D01*
X0107149Y0077038D01*
X0107267Y0077038D02*
X0106216Y0078088D01*
X0104115Y0078088D01*
X0103064Y0077038D01*
X0103064Y0075987D01*
X0104115Y0074936D01*
X0106216Y0074936D01*
X0107267Y0073885D01*
X0107267Y0072834D01*
X0109391Y0074936D02*
X0113594Y0074936D01*
X0113594Y0075987D02*
X0113594Y0071783D01*
X0115836Y0074936D02*
X0117938Y0074936D01*
X0122282Y0074936D02*
X0124383Y0074936D01*
X0122353Y0071783D02*
X0122353Y0078088D01*
X0113594Y0075987D02*
X0111492Y0078088D01*
X0106745Y0078303D02*
X0106745Y0082507D01*
X0106745Y0084749D02*
X0106745Y0088953D01*
X0106745Y0091194D02*
X0106745Y0094347D01*
X0105694Y0095398D01*
X0101491Y0095398D01*
X0100440Y0094347D01*
X0100440Y0091194D01*
X0106745Y0091194D01*
X0103592Y0086851D02*
X0103592Y0084749D01*
X0100440Y0084749D02*
X0106745Y0084749D01*
X0100440Y0084749D02*
X0100440Y0088953D01*
X0107796Y0097640D02*
X0107796Y0101844D01*
X0105694Y0104085D02*
X0106745Y0105136D01*
X0106745Y0107238D01*
X0105694Y0108289D01*
X0104643Y0108289D01*
X0103592Y0107238D01*
X0103592Y0105136D01*
X0102542Y0104085D01*
X0101491Y0104085D01*
X0100440Y0105136D01*
X0100440Y0107238D01*
X0101491Y0108289D01*
X0100440Y0110531D02*
X0100440Y0114735D01*
X0100440Y0112633D02*
X0106745Y0112633D01*
X0106745Y0116976D02*
X0100440Y0116976D01*
X0100440Y0120129D01*
X0101491Y0121180D01*
X0103592Y0121180D01*
X0104643Y0120129D01*
X0104643Y0116976D01*
X0104643Y0119078D02*
X0106745Y0121180D01*
X0106745Y0123422D02*
X0106745Y0125524D01*
X0106745Y0124473D02*
X0100440Y0124473D01*
X0100440Y0123422D02*
X0100440Y0125524D01*
X0100440Y0127719D02*
X0100440Y0130872D01*
X0101491Y0131923D01*
X0103592Y0131923D01*
X0104643Y0130872D01*
X0104643Y0127719D01*
X0106745Y0127719D02*
X0100440Y0127719D01*
X0100440Y0134164D02*
X0106745Y0134164D01*
X0106745Y0138368D01*
X0107796Y0140610D02*
X0107796Y0144813D01*
X0106745Y0147055D02*
X0100440Y0147055D01*
X0100440Y0150208D01*
X0101491Y0151259D01*
X0103592Y0151259D01*
X0104643Y0150208D01*
X0104643Y0147055D01*
X0105694Y0153501D02*
X0101491Y0153501D01*
X0100440Y0154552D01*
X0100440Y0156654D01*
X0101491Y0157704D01*
X0105694Y0157704D01*
X0106745Y0156654D01*
X0106745Y0154552D01*
X0105694Y0153501D01*
X0106745Y0159946D02*
X0100440Y0159946D01*
X0100440Y0164150D02*
X0106745Y0164150D01*
X0104643Y0162048D01*
X0106745Y0159946D01*
X0106745Y0166392D02*
X0106745Y0170595D01*
X0106745Y0172837D02*
X0100440Y0172837D01*
X0100440Y0175990D01*
X0101491Y0177041D01*
X0103592Y0177041D01*
X0104643Y0175990D01*
X0104643Y0172837D01*
X0104143Y0174783D02*
X0102041Y0174783D01*
X0100990Y0175834D01*
X0100990Y0180038D01*
X0102041Y0181088D01*
X0104143Y0181088D01*
X0105194Y0180038D01*
X0105312Y0181088D02*
X0105312Y0174783D01*
X0103210Y0176885D01*
X0101108Y0174783D01*
X0101108Y0181088D01*
X0098748Y0181088D02*
X0098748Y0175834D01*
X0097697Y0174783D01*
X0095595Y0174783D01*
X0094544Y0175834D01*
X0094544Y0181088D01*
X0094663Y0180038D02*
X0094663Y0175834D01*
X0095714Y0174783D01*
X0097816Y0174783D01*
X0098867Y0175834D01*
X0098867Y0180038D01*
X0097816Y0181088D01*
X0095714Y0181088D01*
X0094663Y0180038D01*
X0092421Y0180038D02*
X0091370Y0181088D01*
X0088217Y0181088D01*
X0088217Y0174783D01*
X0088099Y0174783D02*
X0088099Y0181088D01*
X0092303Y0174783D01*
X0092303Y0181088D01*
X0092421Y0180038D02*
X0092421Y0177936D01*
X0091370Y0176885D01*
X0088217Y0176885D01*
X0085976Y0173732D02*
X0081772Y0173732D01*
X0081653Y0173732D02*
X0085857Y0173732D01*
X0079530Y0174783D02*
X0079530Y0181088D01*
X0079412Y0180038D02*
X0078361Y0181088D01*
X0076259Y0181088D01*
X0075208Y0180038D01*
X0075326Y0181088D02*
X0075326Y0174783D01*
X0077428Y0176885D01*
X0079530Y0174783D01*
X0079412Y0174783D02*
X0075208Y0174783D01*
X0079412Y0178987D01*
X0079412Y0180038D01*
X0072966Y0180038D02*
X0072966Y0178987D01*
X0071915Y0177936D01*
X0072966Y0176885D01*
X0072966Y0175834D01*
X0071915Y0174783D01*
X0069813Y0174783D01*
X0068762Y0175834D01*
X0068881Y0173732D02*
X0073085Y0173732D01*
X0071915Y0177936D02*
X0070864Y0177936D01*
X0068762Y0180038D02*
X0069813Y0181088D01*
X0071915Y0181088D01*
X0072966Y0180038D01*
X0066639Y0180038D02*
X0066639Y0175834D01*
X0065588Y0174783D01*
X0063486Y0174783D01*
X0062435Y0175834D01*
X0062435Y0180038D01*
X0063486Y0181088D01*
X0065588Y0181088D01*
X0066639Y0180038D01*
X0066521Y0181088D02*
X0066521Y0174783D01*
X0062317Y0174783D02*
X0062317Y0181088D01*
X0064419Y0178987D01*
X0066521Y0181088D01*
X0060194Y0180038D02*
X0059143Y0181088D01*
X0057041Y0181088D01*
X0055990Y0180038D01*
X0055990Y0175834D01*
X0057041Y0174783D01*
X0059143Y0174783D01*
X0060194Y0175834D01*
X0057973Y0174783D02*
X0057973Y0181088D01*
X0055871Y0181088D02*
X0060075Y0181088D01*
X0053795Y0181088D02*
X0051693Y0181088D01*
X0052579Y0181088D02*
X0050477Y0181088D01*
X0049426Y0180038D01*
X0049426Y0178987D01*
X0050477Y0177936D01*
X0052579Y0177936D01*
X0053630Y0176885D01*
X0053630Y0175834D01*
X0052579Y0174783D01*
X0050477Y0174783D01*
X0049426Y0175834D01*
X0048400Y0176885D02*
X0045248Y0176885D01*
X0045248Y0174783D02*
X0045248Y0181088D01*
X0048400Y0181088D01*
X0049451Y0180038D01*
X0049451Y0177936D01*
X0048400Y0176885D01*
X0051693Y0174783D02*
X0053795Y0174783D01*
X0052744Y0174783D02*
X0052744Y0181088D01*
X0052579Y0181088D02*
X0053630Y0180038D01*
X0043006Y0173732D02*
X0038802Y0173732D01*
X0036607Y0174783D02*
X0034505Y0174783D01*
X0035556Y0174783D02*
X0035556Y0181088D01*
X0034505Y0181088D02*
X0036607Y0181088D01*
X0032263Y0180038D02*
X0032263Y0177936D01*
X0031212Y0176885D01*
X0028060Y0176885D01*
X0028060Y0174783D02*
X0028060Y0181088D01*
X0031212Y0181088D01*
X0032263Y0180038D01*
X0025818Y0180038D02*
X0025818Y0177936D01*
X0024767Y0176885D01*
X0021614Y0176885D01*
X0023716Y0176885D02*
X0025818Y0174783D01*
X0021614Y0174783D02*
X0021614Y0181088D01*
X0024767Y0181088D01*
X0025818Y0180038D01*
X0100440Y0170595D02*
X0100440Y0166392D01*
X0106745Y0166392D01*
X0103592Y0166392D02*
X0103592Y0168494D01*
X0104143Y0174783D02*
X0105194Y0175834D01*
X0104643Y0174939D02*
X0106745Y0177041D01*
X0107554Y0177936D02*
X0109656Y0177936D01*
X0111758Y0181088D02*
X0107554Y0181088D01*
X0107554Y0174783D01*
X0111758Y0174783D01*
X0111639Y0174783D02*
X0107435Y0174783D01*
X0107435Y0181088D01*
X0113881Y0181088D02*
X0113881Y0174783D01*
X0118085Y0174783D01*
X0118203Y0174783D02*
X0116101Y0176885D01*
X0117152Y0176885D02*
X0118203Y0177936D01*
X0118203Y0180038D01*
X0117152Y0181088D01*
X0113999Y0181088D01*
X0113999Y0174783D01*
X0113999Y0176885D02*
X0117152Y0176885D01*
X0115983Y0177936D02*
X0113881Y0177936D01*
X0113881Y0181088D02*
X0118085Y0181088D01*
X0120326Y0180038D02*
X0120326Y0175834D01*
X0121377Y0174783D01*
X0123479Y0174783D01*
X0124530Y0175834D01*
X0124530Y0180038D01*
X0123479Y0181088D01*
X0121377Y0181088D01*
X0120326Y0180038D01*
X0126772Y0173732D02*
X0130976Y0173732D01*
X0139491Y0200184D02*
X0143694Y0200184D01*
X0144745Y0201234D01*
X0144745Y0203336D01*
X0143694Y0204387D01*
X0139491Y0204387D01*
X0138440Y0203336D01*
X0138440Y0201234D01*
X0139491Y0200184D01*
X0138440Y0206629D02*
X0143694Y0206629D01*
X0144745Y0207680D01*
X0144745Y0209782D01*
X0143694Y0210833D01*
X0138440Y0210833D01*
X0138440Y0213075D02*
X0138440Y0217278D01*
X0138440Y0215176D02*
X0144745Y0215176D01*
X0100440Y0138368D02*
X0100440Y0134164D01*
X0103592Y0134164D02*
X0103592Y0136266D01*
X0100440Y0078303D02*
X0106745Y0078303D01*
X0100822Y0070732D02*
X0096618Y0070732D01*
X0092274Y0071783D02*
X0092274Y0074936D01*
X0094376Y0077038D01*
X0094376Y0078088D01*
X0092274Y0074936D02*
X0090173Y0077038D01*
X0090173Y0078088D01*
X0087931Y0078088D02*
X0083727Y0078088D01*
X0085829Y0078088D02*
X0085829Y0071783D01*
X0081485Y0071783D02*
X0077282Y0071783D01*
X0077282Y0078088D01*
X0081485Y0078088D01*
X0079383Y0074936D02*
X0077282Y0074936D01*
X0075040Y0078088D02*
X0070836Y0078088D01*
X0070836Y0071783D01*
X0068594Y0071783D02*
X0068594Y0075987D01*
X0066492Y0078088D01*
X0064391Y0075987D01*
X0064391Y0071783D01*
X0062149Y0072834D02*
X0061098Y0071783D01*
X0058996Y0071783D01*
X0057945Y0072834D01*
X0058996Y0074936D02*
X0057945Y0075987D01*
X0057945Y0077038D01*
X0058996Y0078088D01*
X0061098Y0078088D01*
X0062149Y0077038D01*
X0061098Y0074936D02*
X0058996Y0074936D01*
X0061098Y0074936D02*
X0062149Y0073885D01*
X0062149Y0072834D01*
X0064391Y0074936D02*
X0068594Y0074936D01*
X0070836Y0074936D02*
X0072938Y0074936D01*
D14*
X0080345Y0067019D02*
X0080912Y0067586D01*
X0082047Y0067586D01*
X0082614Y0067019D01*
X0082614Y0066452D01*
X0080345Y0064183D01*
X0082614Y0064183D01*
X0062614Y0064183D02*
X0060345Y0064183D01*
X0061479Y0064183D02*
X0061479Y0067586D01*
X0060345Y0066452D01*
X0105345Y0066452D02*
X0106479Y0067586D01*
X0106479Y0064183D01*
X0105345Y0064183D02*
X0107614Y0064183D01*
X0125345Y0064183D02*
X0127614Y0066452D01*
X0127614Y0067019D01*
X0127047Y0067586D01*
X0125912Y0067586D01*
X0125345Y0067019D01*
X0125345Y0064183D02*
X0127614Y0064183D01*
X0148942Y0063385D02*
X0148942Y0062250D01*
X0149509Y0061683D01*
X0148942Y0063385D02*
X0149509Y0063952D01*
X0150077Y0063952D01*
X0152345Y0061683D01*
X0152345Y0063952D01*
X0152345Y0043952D02*
X0152345Y0041683D01*
X0152345Y0042817D02*
X0148942Y0042817D01*
X0150077Y0041683D01*
X0150077Y0086683D02*
X0148942Y0087817D01*
X0152345Y0087817D01*
X0152345Y0086683D02*
X0152345Y0088952D01*
X0151074Y0103683D02*
X0151074Y0108187D01*
X0150077Y0108952D02*
X0149509Y0108952D01*
X0148942Y0108385D01*
X0148942Y0107250D01*
X0149509Y0106683D01*
X0149573Y0108187D02*
X0152575Y0108187D01*
X0152345Y0108952D02*
X0152345Y0106683D01*
X0150077Y0108952D01*
X0147971Y0108187D02*
X0147971Y0104434D01*
X0147221Y0103683D01*
X0145719Y0103683D01*
X0144969Y0104434D01*
X0144969Y0108187D01*
X0143367Y0107436D02*
X0142617Y0108187D01*
X0141115Y0108187D01*
X0140365Y0107436D01*
X0140365Y0104434D01*
X0141115Y0103683D01*
X0142617Y0103683D01*
X0143367Y0104434D01*
X0143367Y0107436D01*
X0138763Y0102932D02*
X0135761Y0102932D01*
X0134159Y0103683D02*
X0131157Y0103683D01*
X0131157Y0108187D01*
X0134159Y0108187D01*
X0132658Y0105935D02*
X0131157Y0105935D01*
X0129556Y0105184D02*
X0129556Y0104434D01*
X0128805Y0103683D01*
X0127304Y0103683D01*
X0126553Y0104434D01*
X0124952Y0104434D02*
X0124952Y0108187D01*
X0126553Y0107436D02*
X0126553Y0106686D01*
X0127304Y0105935D01*
X0128805Y0105935D01*
X0129556Y0105184D01*
X0129556Y0107436D02*
X0128805Y0108187D01*
X0127304Y0108187D01*
X0126553Y0107436D01*
X0124952Y0104434D02*
X0124201Y0103683D01*
X0122700Y0103683D01*
X0121949Y0104434D01*
X0121949Y0108187D01*
X0120348Y0108187D02*
X0117345Y0108187D01*
X0117345Y0103683D01*
X0117345Y0105935D02*
X0118846Y0105935D01*
X0148942Y0132817D02*
X0152345Y0132817D01*
X0152345Y0131683D02*
X0152345Y0133952D01*
X0150077Y0131683D02*
X0148942Y0132817D01*
X0149509Y0151683D02*
X0148942Y0152250D01*
X0148942Y0153385D01*
X0149509Y0153952D01*
X0150077Y0153952D01*
X0152345Y0151683D01*
X0152345Y0153952D01*
X0146437Y0163683D02*
X0146437Y0168187D01*
X0143434Y0168187D02*
X0146437Y0163683D01*
X0143434Y0163683D02*
X0143434Y0168187D01*
X0141866Y0168187D02*
X0140365Y0168187D01*
X0141115Y0168187D02*
X0141115Y0163683D01*
X0140365Y0163683D02*
X0141866Y0163683D01*
X0138763Y0162932D02*
X0135761Y0162932D01*
X0134159Y0163683D02*
X0131157Y0163683D01*
X0131157Y0168187D01*
X0134159Y0168187D01*
X0132658Y0165935D02*
X0131157Y0165935D01*
X0129556Y0165184D02*
X0129556Y0164434D01*
X0128805Y0163683D01*
X0127304Y0163683D01*
X0126553Y0164434D01*
X0124952Y0164434D02*
X0124952Y0168187D01*
X0126553Y0167436D02*
X0126553Y0166686D01*
X0127304Y0165935D01*
X0128805Y0165935D01*
X0129556Y0165184D01*
X0129556Y0167436D02*
X0128805Y0168187D01*
X0127304Y0168187D01*
X0126553Y0167436D01*
X0124952Y0164434D02*
X0124201Y0163683D01*
X0122700Y0163683D01*
X0121949Y0164434D01*
X0121949Y0168187D01*
X0120348Y0168187D02*
X0117345Y0168187D01*
X0117345Y0163683D01*
X0117345Y0165935D02*
X0118846Y0165935D01*
X0116523Y0185283D02*
X0114254Y0185283D01*
X0115388Y0185283D02*
X0115388Y0188686D01*
X0114254Y0187552D01*
X0096523Y0187552D02*
X0096523Y0188119D01*
X0095956Y0188686D01*
X0094821Y0188686D01*
X0094254Y0188119D01*
X0096523Y0187552D02*
X0094254Y0185283D01*
X0096523Y0185283D01*
X0096245Y0175361D02*
X0096245Y0173092D01*
X0096245Y0174226D02*
X0092842Y0174226D01*
X0093977Y0173092D01*
X0093977Y0155361D02*
X0093409Y0155361D01*
X0092842Y0154793D01*
X0092842Y0153659D01*
X0093409Y0153092D01*
X0093977Y0155361D02*
X0096245Y0153092D01*
X0096245Y0155361D01*
X0139254Y0185283D02*
X0141523Y0187552D01*
X0141523Y0188119D01*
X0140956Y0188686D01*
X0139821Y0188686D01*
X0139254Y0188119D01*
X0139254Y0185283D02*
X0141523Y0185283D01*
X0159254Y0185283D02*
X0161523Y0185283D01*
X0160388Y0185283D02*
X0160388Y0188686D01*
X0159254Y0187552D01*
D15*
X0145095Y0198933D03*
X0100095Y0198933D03*
X0077595Y0053933D03*
X0122595Y0053933D03*
D16*
X0162595Y0058933D03*
X0162595Y0103933D03*
X0162595Y0148933D03*
X0082595Y0158933D03*
M02*
