G75*
%MOIN*%
%OFA0B0*%
%FSLAX25Y25*%
%IPPOS*%
%LPD*%
%AMOC8*
5,1,8,0,0,1.08239X$1,22.5*
%
%ADD10R,0.20000X0.10000*%
%ADD11C,0.07800*%
%ADD12OC8,0.10000*%
%ADD13C,0.10000*%
%ADD14C,0.07000*%
D10*
X0067595Y0078933D03*
X0067595Y0088933D03*
X0067595Y0118933D03*
X0067595Y0128933D03*
D11*
X0067695Y0057833D02*
X0067695Y0050033D01*
X0087495Y0050033D02*
X0087495Y0057833D01*
X0112695Y0057833D02*
X0112695Y0050033D01*
X0132495Y0050033D02*
X0132495Y0057833D01*
X0158695Y0049033D02*
X0166495Y0049033D01*
X0166495Y0068833D02*
X0158695Y0068833D01*
X0158695Y0094033D02*
X0166495Y0094033D01*
X0166495Y0113833D02*
X0158695Y0113833D01*
X0158695Y0139033D02*
X0166495Y0139033D01*
X0166495Y0158833D02*
X0158695Y0158833D01*
X0154995Y0195033D02*
X0154995Y0202833D01*
X0135195Y0202833D02*
X0135195Y0195033D01*
X0109995Y0195033D02*
X0109995Y0202833D01*
X0090195Y0202833D02*
X0090195Y0195033D01*
X0086495Y0168833D02*
X0078695Y0168833D01*
X0078695Y0149033D02*
X0086495Y0149033D01*
D12*
X0122595Y0156433D03*
X0122595Y0096433D03*
D13*
X0086345Y0060183D01*
X0087495Y0059033D01*
X0087495Y0053933D01*
X0085095Y0058933D02*
X0067595Y0058933D01*
X0067595Y0054033D01*
X0067695Y0053933D01*
X0085095Y0058933D02*
X0086345Y0060183D01*
X0067595Y0078933D02*
X0067595Y0088933D01*
X0072595Y0083933D01*
X0082595Y0083933D01*
X0122595Y0123933D01*
X0122595Y0156433D01*
X0162595Y0139033D02*
X0172695Y0139033D01*
X0182595Y0148933D01*
X0182595Y0123933D01*
X0172495Y0113833D01*
X0162595Y0113833D01*
X0162595Y0094033D02*
X0162495Y0093933D01*
X0152595Y0093933D01*
X0150095Y0093933D01*
X0147595Y0093933D01*
X0112595Y0058933D01*
X0112695Y0058833D01*
X0112695Y0053933D01*
X0132495Y0053933D02*
X0142595Y0053933D01*
X0147595Y0048933D01*
X0162495Y0048933D01*
X0162595Y0049033D01*
X0162595Y0068833D02*
X0162695Y0068933D01*
X0172595Y0068933D01*
X0182595Y0078933D01*
X0182595Y0123933D01*
X0182595Y0148933D02*
X0182595Y0208933D01*
X0172595Y0218933D01*
X0145095Y0218933D01*
X0154995Y0209033D01*
X0154995Y0198933D01*
X0145095Y0218933D02*
X0100095Y0218933D01*
X0109995Y0209033D01*
X0109995Y0198933D01*
X0100095Y0218933D02*
X0072595Y0218933D01*
X0062595Y0208933D01*
X0062595Y0158933D01*
X0072495Y0168833D01*
X0082595Y0168833D01*
X0062595Y0158933D02*
X0062595Y0138933D01*
X0067595Y0133933D01*
X0067595Y0128933D01*
X0067595Y0118933D01*
D14*
X0082595Y0149033D02*
X0092695Y0149033D01*
X0102595Y0158933D01*
X0102595Y0168933D01*
X0112595Y0178933D01*
X0102595Y0178933D01*
X0090195Y0191333D01*
X0090195Y0198933D01*
X0112595Y0178933D02*
X0132595Y0178933D01*
X0135095Y0176433D01*
X0135195Y0176533D01*
X0135195Y0198933D01*
X0135095Y0176433D02*
X0152595Y0158933D01*
X0162495Y0158933D01*
X0162595Y0158833D01*
M02*
